<?xml version="1.0" encoding="utf-8"?>
<!-- Generator: Adobe Illustrator 21.0.2, SVG Export Plug-In . SVG Version: 6.00 Build 0)  -->
<svg version="1.1" id="Слой_1" xmlns="http://www.w3.org/2000/svg" xmlns:xlink="http://www.w3.org/1999/xlink" x="0px" y="0px"
	 viewBox="0 0 301.9 42.3" style="enable-background:new 0 0 301.9 42.3;" xml:space="preserve">
<style type="text/css">
	.st0{fill:#A4B0C5;}
</style>
<g>
	<g>
		<path class="st0" d="M9.7,22.8l0.9-0.6l1.7,2.6l-0.7,0.5l-1.4-2l-6.2,4.2l1.4,2l-0.7,0.5L3,27.3L3.6,27c0.1-0.7,0-1.6-0.3-2.6
			c-0.3-1-0.8-2-1.4-3.1L0,18.2l4.6-3.1L9.7,22.8z M4.4,26.4L9,23.2l-4.8-7.1l-3.2,2.2l1.5,2.4c0.6,1,1.1,2,1.4,3
			C4.3,24.8,4.4,25.7,4.4,26.4z"/>
	</g>
	<g>
		<path class="st0" d="M9.9,19c-0.4-0.6-0.6-1.2-0.6-1.9c0-0.6,0.1-1.2,0.3-1.7s0.7-1,1.2-1.3c0.8-0.5,1.7-0.6,2.6-0.3
			c0.9,0.3,1.6,0.9,2.2,1.9l0.1,0.1c0.4,0.6,0.6,1.2,0.6,1.9c0.1,0.6-0.1,1.2-0.3,1.7c-0.3,0.5-0.7,0.9-1.2,1.3
			c-0.8,0.5-1.7,0.6-2.6,0.3c-0.9-0.3-1.6-0.9-2.2-1.9L9.9,19z M10.7,18.8c0.4,0.8,1,1.3,1.7,1.5c0.7,0.3,1.3,0.2,2-0.2
			c0.6-0.4,1-0.9,1.1-1.6c0.1-0.7-0.1-1.5-0.5-2.3l-0.1-0.1c-0.3-0.5-0.6-0.9-1.1-1.2c-0.4-0.3-0.9-0.5-1.3-0.5
			c-0.5,0-0.9,0.1-1.3,0.3c-0.6,0.4-1,0.9-1.1,1.6c-0.1,0.7,0.1,1.5,0.5,2.3L10.7,18.8z"/>
	</g>
	<g>
		<path class="st0" d="M272.2,12l-0.8-0.3l3.6-8.5L269.8,1l-3.6,8.5l-0.8-0.3l3.9-9.2l6.7,2.9L272.2,12z"/>
	</g>
	<g>
		<path class="st0" d="M275.5,9.3c0.3-0.6,0.7-1.2,1.2-1.6c0.5-0.4,1-0.6,1.6-0.7s1.2,0,1.8,0.3c0.9,0.4,1.5,1.1,1.7,2
			c0.3,0.9,0.1,1.8-0.4,2.9l-0.1,0.2c-0.3,0.6-0.7,1.2-1.2,1.6c-0.5,0.4-1,0.6-1.6,0.7c-0.6,0.1-1.2,0-1.7-0.3
			c-0.9-0.4-1.5-1.1-1.7-2c-0.3-0.9-0.1-1.8,0.4-2.9L275.5,9.3z M276.1,9.9c-0.4,0.8-0.5,1.5-0.3,2.3c0.2,0.7,0.6,1.2,1.3,1.5
			c0.7,0.3,1.3,0.3,2,0c0.7-0.3,1.2-0.9,1.6-1.7l0.1-0.1c0.2-0.5,0.4-1,0.4-1.5c0-0.5-0.1-1-0.3-1.4c-0.2-0.4-0.6-0.7-1-0.9
			c-0.7-0.3-1.3-0.3-2,0s-1.2,0.9-1.6,1.7L276.1,9.9z"/>
	</g>
	<g>
		<path class="st0" d="M283.9,17.1c0.5,0.3,1,0.3,1.5,0.2c0.5-0.1,0.9-0.4,1.1-0.8l0.7,0.4c-0.2,0.4-0.5,0.7-1,0.9
			c-0.4,0.2-0.8,0.3-1.3,0.3c-0.5,0-0.9-0.1-1.4-0.4c-0.9-0.5-1.4-1.1-1.6-2c-0.2-0.9,0-1.8,0.5-2.8l0.1-0.2
			c0.3-0.6,0.8-1.2,1.2-1.5c0.5-0.4,1-0.6,1.6-0.6c0.6,0,1.1,0.1,1.7,0.4c0.7,0.4,1.2,0.9,1.4,1.6c0.2,0.7,0.2,1.4-0.1,2.1l-0.7-0.4
			c0.2-0.5,0.3-1,0.1-1.5c-0.2-0.5-0.5-0.9-1-1.1c-0.7-0.3-1.3-0.4-1.9-0.1c-0.6,0.3-1.1,0.8-1.6,1.7l-0.1,0.2
			c-0.4,0.8-0.6,1.6-0.5,2.2C282.8,16.3,283.2,16.8,283.9,17.1z"/>
	</g>
	<g>
		<path class="st0" d="M296.1,16.2l-3.8,6.4l-0.7-0.4l3.4-5.8l-2.6-1.5l-1.5,2.3c-0.6,0.9-1.1,1.5-1.5,1.9c-0.4,0.4-0.8,0.6-1.2,0.7
			c-0.4,0.1-0.8,0-1.2-0.3l-0.3-0.2l0.4-0.6l0.2,0.1c0.4,0.2,0.8,0.2,1.2-0.1c0.4-0.3,0.9-0.9,1.6-1.9l2-3L296.1,16.2z"/>
	</g>
	<g>
		<path class="st0" d="M296.4,25.4c-0.5-0.4-0.9-0.8-1.2-1.3c-0.2-0.5-0.3-1.1-0.3-1.7c0.1-0.6,0.3-1.2,0.7-1.8l0.2-0.2
			c0.4-0.6,0.9-1,1.4-1.4c0.5-0.3,1.1-0.5,1.7-0.5c0.6,0,1.1,0.2,1.6,0.5c0.7,0.5,1.2,1.2,1.3,2c0.1,0.8-0.2,1.6-0.7,2.5l-0.3,0.4
			l-4.4-2.9l-0.1,0.1c-0.5,0.7-0.7,1.4-0.6,2.1c0.1,0.7,0.4,1.3,1,1.7c0.4,0.2,0.7,0.4,1.1,0.4c0.4,0.1,0.8,0,1.2-0.1l0.2,0.6
			C298.3,26.2,297.3,26.1,296.4,25.4z M300.2,19.6c-0.5-0.3-1.1-0.4-1.7-0.3c-0.6,0.1-1.2,0.5-1.7,1.1l3.7,2.5l0-0.1
			c0.4-0.6,0.5-1.2,0.5-1.8C301,20.4,300.7,19.9,300.2,19.6z"/>
	</g>
	<g>
		<path class="st0" d="M6.8,37c-0.4,0.3-0.7,0.5-1.1,0.7c-0.9-0.9-2.4-1-3.4-0.2c-1.1,0.9-1.3,2.5-0.5,3.7c0.9,1.1,2.5,1.3,3.7,0.5
			c1-0.8,1.3-2.1,0.8-3.2c0.3-0.2,0.7-0.5,1-0.7L6.8,37z"/>
		<path class="st0" d="M116,2.5l0.1,1l0,0c2.7-0.3,5.4-0.5,8.2-0.7l-0.1-1C121.4,2,118.7,2.2,116,2.5z"/>
		<path class="st0" d="M95.5,5.1l0.2,1c2.7-0.4,5.4-0.8,8.1-1.2l-0.1-1C100.9,4.3,98.2,4.7,95.5,5.1z"/>
		<path class="st0" d="M157.1,1.8L157.1,1.8c2.8,0,5.5,0.1,8.2,0.2l0-1c-2.7-0.1-5.5-0.2-8.2-0.2L157.1,1.8z"/>
		<path class="st0" d="M136.5,1.1l0,1c2.7-0.1,5.4-0.2,8.2-0.2l0-1C142,0.9,139.2,1,136.5,1.1z"/>
		<path class="st0" d="M17.4,30.5l0.5,0.9v0c2.2-1.2,4.6-2.5,7.3-3.8l-0.4-0.9C22,28,19.6,29.3,17.4,30.5z"/>
		<path class="st0" d="M75.3,9.1l0.2,1v0c2.6-0.6,5.3-1.2,8-1.8l-0.2-1C80.6,7.9,77.9,8.5,75.3,9.1z"/>
		<path class="st0" d="M55.4,14.5l0.3,1v0c2.5-0.8,5.2-1.6,7.9-2.4l-0.3-1C60.5,12.9,57.9,13.7,55.4,14.5z"/>
		<path class="st0" d="M36,21.6l0.4,0.9v0c2.4-1,5-2,7.6-3l-0.4-0.9C41,19.6,38.4,20.6,36,21.6z"/>
		<path class="st0" d="M258,18.9c2.7,1,5.2,2,7.7,3l0.4-0.9c-2.4-1-5-2-7.7-3L258,18.9z"/>
		<path class="st0" d="M277,26.8c2.7,1.3,5.1,2.5,7.3,3.7l0.5-0.9c-2.2-1.2-4.7-2.5-7.4-3.8L277,26.8z"/>
		<path class="st0" d="M238.5,12.6c2.7,0.7,5.4,1.5,7.9,2.3l0.3-1c-2.5-0.8-5.2-1.6-7.9-2.3L238.5,12.6z"/>
		<path class="st0" d="M198.2,4.6L198.2,4.6c2.8,0.4,5.5,0.7,8.1,1.2l0.2-1c-2.7-0.4-5.4-0.8-8.2-1.2L198.2,4.6z"/>
		<path class="st0" d="M218.5,7.9L218.5,7.9c2.8,0.5,5.4,1.1,8,1.7l0.2-1c-2.6-0.6-5.3-1.2-8.1-1.7L218.5,7.9z"/>
		<path class="st0" d="M177.7,2.6c2.8,0.2,5.5,0.4,8.2,0.7l0.1-1c-2.7-0.2-5.4-0.5-8.2-0.7L177.7,2.6z"/>
		<polygon class="st0" points="177.7,2.6 177.7,2.6 177.7,2.6 		"/>
		<polygon class="st0" points="294.9,36.9 294.9,36.9 294.9,36.9 		"/>
		<path class="st0" d="M299,35l-0.8,2.8c-0.8-0.6-1.7-1.2-2.7-1.8l-0.5,0.8c1,0.7,1.9,1.3,2.7,1.8l-2.5,1.7c2-0.2,4.8,0.3,6.8,0.9
			C300.7,39.5,299.5,37,299,35z"/>
	</g>
</g>
</svg>
