<?xml version="1.0" encoding="utf-8"?>
<!-- Generator: Adobe Illustrator 21.1.0, SVG Export Plug-In . SVG Version: 6.00 Build 0)  -->
<svg version="1.1" id="Слой_1" xmlns="http://www.w3.org/2000/svg" xmlns:xlink="http://www.w3.org/1999/xlink" x="0px" y="0px"
	 viewBox="0 0 128.9 30.3" style="enable-background:new 0 0 128.9 30.3;" xml:space="preserve">
<style type="text/css">
	.st0{fill:url(#SVGID_1_);}
	.st1{fill:url(#SVGID_2_);}
	.st2{fill:url(#SVGID_3_);}
	.st3{fill:url(#SVGID_4_);}
	.st4{fill:url(#SVGID_5_);}
	.st5{fill:url(#SVGID_6_);}
	.st6{fill:url(#SVGID_7_);}
	.st7{fill:url(#SVGID_8_);}
	.st8{fill:url(#SVGID_9_);}
	.st9{fill:url(#SVGID_10_);}
	.st10{fill:url(#SVGID_11_);}
</style>
<g>
	<linearGradient id="SVGID_1_" gradientUnits="userSpaceOnUse" x1="-0.2686" y1="15.1302" x2="129.543" y2="15.1302">
		<stop  offset="0" style="stop-color:#3660FA"/>
		<stop  offset="0.5089" style="stop-color:#5393E8"/>
		<stop  offset="1" style="stop-color:#8FFFB0"/>
	</linearGradient>
	<polygon class="st0" points="37.1,14 31.9,14 31.9,10.9 37.6,10.9 37.6,8.4 28.7,8.4 28.7,21.8 31.9,21.8 31.9,16.5 37.1,16.5 	"/>
	<linearGradient id="SVGID_2_" gradientUnits="userSpaceOnUse" x1="-0.2686" y1="15.1302" x2="129.543" y2="15.1302">
		<stop  offset="0" style="stop-color:#3660FA"/>
		<stop  offset="0.5089" style="stop-color:#5393E8"/>
		<stop  offset="1" style="stop-color:#8FFFB0"/>
	</linearGradient>
	<path class="st1" d="M41.1,8.4l-4.9,13.4h3.4l0.8-2.5h4.4l0.8,2.5H49L44.1,8.4H41.1z M41.2,16.8l1.4-4.6l1.4,4.6H41.2z"/>
	<linearGradient id="SVGID_3_" gradientUnits="userSpaceOnUse" x1="-0.2686" y1="15.1302" x2="129.543" y2="15.1302">
		<stop  offset="0" style="stop-color:#3660FA"/>
		<stop  offset="0.5089" style="stop-color:#5393E8"/>
		<stop  offset="1" style="stop-color:#8FFFB0"/>
	</linearGradient>
	<path class="st2" d="M53.7,11.1c0.3-0.3,0.8-0.4,1.4-0.4c0.6,0,1,0.1,1.4,0.5c0.3,0.3,0.5,0.7,0.5,1.3h3.2c0-0.8-0.2-1.5-0.6-2.2
		c-0.4-0.6-1-1.1-1.8-1.5c-0.8-0.3-1.6-0.5-2.6-0.5c-1,0-1.9,0.2-2.7,0.5c-0.8,0.3-1.4,0.8-1.8,1.3c-0.4,0.6-0.6,1.2-0.6,2
		c0,1.5,0.9,2.7,2.6,3.5c0.5,0.3,1.2,0.5,2.1,0.8c0.8,0.3,1.4,0.6,1.8,0.8c0.3,0.3,0.5,0.6,0.5,1.1c0,0.4-0.2,0.7-0.5,1
		c-0.3,0.2-0.7,0.3-1.3,0.3c-0.8,0-1.4-0.2-1.8-0.5c-0.4-0.3-0.6-0.9-0.6-1.6h-3.2c0,0.9,0.2,1.7,0.7,2.3c0.4,0.7,1.1,1.2,2,1.6
		c0.9,0.4,1.9,0.6,2.9,0.6c1.5,0,2.7-0.3,3.6-1c0.9-0.7,1.3-1.6,1.3-2.8c0-1.5-0.7-2.6-2.2-3.4c-0.6-0.3-1.4-0.7-2.3-1
		c-0.9-0.3-1.6-0.6-1.9-0.9c-0.4-0.3-0.6-0.6-0.6-0.9C53.2,11.7,53.4,11.3,53.7,11.1z"/>
	<linearGradient id="SVGID_4_" gradientUnits="userSpaceOnUse" x1="-0.2686" y1="15.1302" x2="129.543" y2="15.1302">
		<stop  offset="0" style="stop-color:#3660FA"/>
		<stop  offset="0.5089" style="stop-color:#5393E8"/>
		<stop  offset="1" style="stop-color:#8FFFB0"/>
	</linearGradient>
	<polygon class="st3" points="61.1,10.9 65.1,10.9 65.1,21.8 68.3,21.8 68.3,10.9 72.3,10.9 72.3,8.4 61.1,8.4 	"/>
	<linearGradient id="SVGID_5_" gradientUnits="userSpaceOnUse" x1="-0.2686" y1="15.0851" x2="129.543" y2="15.0851">
		<stop  offset="0" style="stop-color:#3660FA"/>
		<stop  offset="0.5089" style="stop-color:#5393E8"/>
		<stop  offset="1" style="stop-color:#8FFFB0"/>
	</linearGradient>
	<path class="st4" d="M77.3,11c0.6-0.8,1.5-1.2,2.6-1.2c0.9,0,1.6,0.2,2.1,0.7s0.8,1.2,1,2.2h1.7c-0.1-1.4-0.6-2.4-1.4-3.2
		c-0.8-0.8-1.9-1.2-3.3-1.2c-1,0-1.9,0.2-2.7,0.7c-0.8,0.5-1.4,1.2-1.8,2.1s-0.6,2-0.6,3.2v1.2c0,1.8,0.5,3.3,1.4,4.4
		c0.9,1.1,2.1,1.6,3.7,1.6c1.4,0,2.5-0.4,3.4-1.1s1.4-1.8,1.5-3.2h-1.7c-0.2,1.1-0.5,1.8-1,2.2c-0.5,0.4-1.2,0.6-2.2,0.6
		c-1.1,0-1.9-0.4-2.5-1.2s-0.9-1.9-0.9-3.4v-1.3C76.4,13,76.7,11.8,77.3,11z"/>
	<linearGradient id="SVGID_6_" gradientUnits="userSpaceOnUse" x1="-0.2686" y1="15.0851" x2="129.543" y2="15.0851">
		<stop  offset="0" style="stop-color:#3660FA"/>
		<stop  offset="0.5089" style="stop-color:#5393E8"/>
		<stop  offset="1" style="stop-color:#8FFFB0"/>
	</linearGradient>
	<polygon class="st5" points="88.7,8.6 87,8.6 87,21.6 94.8,21.6 94.8,20.2 88.7,20.2 	"/>
	<linearGradient id="SVGID_7_" gradientUnits="userSpaceOnUse" x1="-0.2686" y1="15.0851" x2="129.543" y2="15.0851">
		<stop  offset="0" style="stop-color:#3660FA"/>
		<stop  offset="0.5089" style="stop-color:#5393E8"/>
		<stop  offset="1" style="stop-color:#8FFFB0"/>
	</linearGradient>
	<polygon class="st6" points="98.4,15.6 104.1,15.6 104.1,14.2 98.4,14.2 98.4,10 104.9,10 104.9,8.6 96.7,8.6 96.7,21.6 105,21.6 
		105,20.2 98.4,20.2 	"/>
	<linearGradient id="SVGID_8_" gradientUnits="userSpaceOnUse" x1="-0.2686" y1="15.0851" x2="129.543" y2="15.0851">
		<stop  offset="0" style="stop-color:#3660FA"/>
		<stop  offset="0.5089" style="stop-color:#5393E8"/>
		<stop  offset="1" style="stop-color:#8FFFB0"/>
	</linearGradient>
	<path class="st7" d="M110.8,8.6l-4.9,12.9h1.8l1.2-3.4h5.4l1.2,3.4h1.8l-4.9-12.9H110.8z M109.3,16.8l2.2-6l2.2,6H109.3z"/>
	<linearGradient id="SVGID_9_" gradientUnits="userSpaceOnUse" x1="-0.2686" y1="15.0851" x2="129.543" y2="15.0851">
		<stop  offset="0" style="stop-color:#3660FA"/>
		<stop  offset="0.5089" style="stop-color:#5393E8"/>
		<stop  offset="1" style="stop-color:#8FFFB0"/>
	</linearGradient>
	<polygon class="st8" points="127.2,8.6 127.2,18.6 120.7,8.6 119,8.6 119,21.6 120.7,21.6 120.7,11.6 127.2,21.6 128.9,21.6 
		128.9,8.6 	"/>
	<linearGradient id="SVGID_10_" gradientUnits="userSpaceOnUse" x1="-0.2686" y1="15.1302" x2="129.543" y2="15.1302">
		<stop  offset="0" style="stop-color:#3660FA"/>
		<stop  offset="0.5089" style="stop-color:#5393E8"/>
		<stop  offset="1" style="stop-color:#8FFFB0"/>
	</linearGradient>
	<path class="st9" d="M24,24.8c-2.5,2.3-5.8,3.6-9.4,3.5C11,28.1,7.8,26.5,5.5,24c-2.3-2.5-3.6-5.8-3.5-9.4C2.2,11,3.8,7.8,6.2,5.5
		C8.7,3.2,12,1.9,15.7,2c3.6,0.1,6.8,1.7,9.1,4.2c0.2,0.2,0.4,0.4,0.5,0.6l1.5-1.4c-2.6-3.2-6.6-5.3-11-5.5C7.4-0.3,0.3,6.2,0,14.5
		c-0.3,8.4,6.2,15.4,14.5,15.7c4.9,0.2,9.4-2,12.3-5.5l-1.4-1.5C25,23.8,24.6,24.3,24,24.8z"/>
	<linearGradient id="SVGID_11_" gradientUnits="userSpaceOnUse" x1="-0.2686" y1="13.9074" x2="129.543" y2="13.9074">
		<stop  offset="0" style="stop-color:#3660FA"/>
		<stop  offset="0.5089" style="stop-color:#5393E8"/>
		<stop  offset="1" style="stop-color:#8FFFB0"/>
	</linearGradient>
	<path class="st10" d="M21.7,9.5c-0.4-0.4-1-0.4-1.4,0L16,13.8c-0.3-0.1-0.6-0.2-0.9-0.2c-0.8,0-1.5,0.4-2,1l-2.9-0.8
		c-0.5-0.1-1.1,0.2-1.2,0.7C9,15,9.3,15.6,9.8,15.7l2.9,0.8c0.2,1.2,1.2,2.1,2.5,2.1c1.4,0,2.5-1.1,2.5-2.5c0-0.3-0.1-0.6-0.2-0.9
		l4.3-4.3C22.1,10.5,22.1,9.9,21.7,9.5z"/>
</g>
</svg>
