<?xml version="1.0" encoding="utf-8"?>
<!-- Generator: Adobe Illustrator 22.1.0, SVG Export Plug-In . SVG Version: 6.00 Build 0)  -->
<svg version="1.1" id="Слой_1" xmlns="http://www.w3.org/2000/svg" xmlns:xlink="http://www.w3.org/1999/xlink" x="0px" y="0px"
	 viewBox="0 0 191 30" style="enable-background:new 0 0 191 30;" xml:space="preserve">
<style type="text/css">
	.st0{fill:#DE0D2F;}
	.st1{clip-path:url(#SVGID_2_);}
</style>
<g>
	<g>
		<path class="st0" d="M15,30c8.3,0,15-6.7,15-15S23.3,0,15,0S0,6.7,0,15S6.7,30,15,30z"/>
	</g>
	<g>
		<g>
			<defs>
				<circle id="SVGID_1_" cx="15" cy="15" r="15"/>
			</defs>
			<clipPath id="SVGID_2_">
				<use xlink:href="#SVGID_1_"  style="overflow:visible;"/>
			</clipPath>
			<g class="st1">
				<path d="M22,19c0,0.9,0.2,1.6,0.6,2.2C23,21.7,23.5,22,24,22s1-0.3,1.4-0.8c0.4-0.6,0.6-1.3,0.6-2.2c0-0.9-0.2-1.6-0.6-2.2
					S24.5,16,24,16s-1,0.3-1.4,0.8C22.2,17.4,22,18.1,22,19z M22,10c0,0.9,0.2,1.6,0.6,2.2c0.4,0.6,0.9,0.8,1.5,0.8s1-0.3,1.4-0.8
					s0.5-1.3,0.5-2.1c0-0.9-0.2-1.6-0.6-2.2C25.1,7.3,24.6,7,24,7s-1.1,0.3-1.4,0.8C22.2,8.4,22,9.1,22,10z M18.5,14.7
					c-0.9-0.5-1.6-1-2-1.6c-0.6-0.8-0.9-1.7-0.9-2.7c0-1.7,0.8-3.1,2.5-4.2c1.3-0.8,3-1.2,5.1-1.2C26,5,28,5.5,29.4,6.6
					c1.3,1,2,2.3,2,3.9c0,0.9-0.3,1.8-0.8,2.6c-0.4,0.6-1,1.2-1.9,1.7c1.1,0.5,2,1.2,2.5,2.1c0.6,0.9,0.8,1.9,0.8,2.9
					s-0.2,2-0.7,2.8c-0.5,0.9-1.1,1.6-1.8,2c-0.7,0.5-1.6,0.8-2.6,1.1c-1,0.2-2.1,0.3-3.3,0.3c-2.2,0-3.9-0.3-5.1-0.8
					s-2-1.3-2.7-2.2c-0.6-1-0.9-2.1-0.9-3.3c0-1.2,0.3-2.2,0.9-3C16.4,15.8,17.3,15.2,18.5,14.7L18.5,14.7z M3,19
					c0,0.9,0.2,1.6,0.6,2.2C4,21.7,4.5,22,5,22s1-0.3,1.4-0.8C6.8,20.6,7,19.9,7,19s-0.2-1.6-0.6-2.2C6,16.3,5.5,16,5,16
					s-1,0.3-1.4,0.8C3.2,17.4,3,18.1,3,19z M3,10c0,0.9,0.2,1.6,0.6,2.2C3.9,12.7,4.5,13,5.1,13s1-0.3,1.4-0.8
					C6.8,11.6,7,10.9,7,10.1c0-0.9-0.2-1.6-0.6-2.2C6.1,7.3,5.6,7,5,7S3.9,7.3,3.6,7.8C3.2,8.4,3,9.1,3,10z M0.5,14.7
					c-0.9-0.5-1.6-1-2-1.6c-0.6-0.8-0.9-1.7-0.9-2.7c0-1.7,0.8-3.1,2.5-4.2C1.4,5.4,3.1,5,5.2,5C8,5,10,5.5,11.4,6.6
					c1.3,1,2,2.3,2,3.9c0,0.9-0.3,1.8-0.8,2.6c-0.4,0.6-1,1.2-1.9,1.7c1.1,0.5,2,1.2,2.5,2.1c0.6,0.9,0.8,1.9,0.8,2.9
					s-0.2,2-0.7,2.8c-0.5,0.9-1.1,1.6-1.8,2c-0.7,0.5-1.6,0.8-2.6,1.1c-1,0.2-2.1,0.3-3.3,0.3c-2.2,0-3.9-0.3-5.1-0.8
					s-2-1.3-2.7-2.2C-2.7,22-3,20.9-3,19.7c0-1.2,0.3-2.2,0.9-3C-1.6,15.8-0.7,15.2,0.5,14.7L0.5,14.7z"/>
			</g>
		</g>
	</g>
</g>
<g>
	<path d="M54.9,17.7h-4.5l-0.9,2.1h-2.3l4.4-9.8h2.2l4.4,9.8h-2.4L54.9,17.7z M54.1,16l-1.6-3.8L51,16H54.1z"/>
	<path d="M67.6,15.6c0.3,0.4,0.5,0.9,0.5,1.5c0,0.9-0.3,1.5-1,2c-0.7,0.5-1.6,0.7-2.8,0.7h-4.8V10H64c1.1,0,2,0.2,2.7,0.7
		c0.6,0.4,1,1.1,1,1.9c0,0.5-0.1,0.9-0.4,1.3s-0.6,0.7-1,0.9C66.8,14.9,67.2,15.2,67.6,15.6z M61.7,14.1h2.1c0.5,0,0.9-0.1,1.1-0.3
		s0.4-0.5,0.4-0.9c0-0.4-0.1-0.7-0.4-0.9c-0.3-0.2-0.6-0.3-1.1-0.3h-2.1V14.1z M65.7,16.9c0-0.8-0.5-1.2-1.6-1.2h-2.5v2.5h2.5
		C65.2,18.1,65.7,17.7,65.7,16.9z"/>
	<path d="M77.2,11.9H74v8h-2.2v-8h-3.1V10h8.5V11.9z"/>
	<path d="M80.4,19.3c-0.8-0.4-1.5-1-1.9-1.8c-0.5-0.8-0.7-1.6-0.7-2.6s0.2-1.8,0.7-2.6s1.1-1.4,1.9-1.8c0.8-0.4,1.7-0.7,2.8-0.7
		c1,0,1.9,0.2,2.7,0.7c0.8,0.4,1.5,1,1.9,1.8c0.5,0.8,0.7,1.6,0.7,2.6s-0.2,1.8-0.7,2.6c-0.5,0.8-1.1,1.4-1.9,1.8S84.2,20,83.1,20
		C82.1,20,81.2,19.8,80.4,19.3z M84.7,17.7c0.5-0.3,0.8-0.6,1.1-1.1c0.3-0.5,0.4-1,0.4-1.6s-0.1-1.1-0.4-1.6s-0.6-0.8-1.1-1.1
		c-0.5-0.3-1-0.4-1.6-0.4s-1.1,0.1-1.6,0.4c-0.5,0.3-0.8,0.6-1.1,1.1s-0.4,1-0.4,1.6s0.1,1.1,0.4,1.6c0.3,0.5,0.6,0.8,1.1,1.1
		c0.5,0.3,1,0.4,1.6,0.4S84.2,17.9,84.7,17.7z"/>
	<path d="M96.9,15.6c0.3,0.4,0.5,0.9,0.5,1.4c0,0.6-0.2,1.1-0.6,1.6c-0.4,0.4-0.9,0.8-1.6,1C94.5,19.9,93.8,20,93,20
		c-0.7,0-1.3-0.1-2-0.3s-1.3-0.4-1.9-0.8l0.7-1.6c0.4,0.3,0.9,0.5,1.4,0.6c0.5,0.1,1,0.2,1.5,0.2c0.7,0,1.2-0.1,1.7-0.4
		c0.4-0.2,0.7-0.6,0.7-1c0-0.4-0.2-0.6-0.5-0.8c-0.3-0.2-0.7-0.3-1.2-0.3H91v-1.7h2.2c0.5,0,0.8-0.1,1.1-0.3
		c0.3-0.2,0.4-0.4,0.4-0.8c0-0.4-0.2-0.7-0.6-0.9c-0.4-0.2-0.8-0.3-1.4-0.3c-0.4,0-0.9,0.1-1.3,0.2c-0.5,0.1-0.9,0.3-1.3,0.5
		l-0.7-1.8c1-0.5,2.2-0.8,3.4-0.8c0.8,0,1.5,0.1,2.1,0.3c0.6,0.2,1.2,0.6,1.5,1s0.6,0.9,0.6,1.5c0,0.5-0.1,0.9-0.4,1.2
		c-0.3,0.4-0.6,0.6-1,0.8C96.1,14.9,96.6,15.2,96.9,15.6z"/>
	<path d="M105.8,17.7h-4.5l-0.9,2.1h-2.3l4.4-9.8h2.2l4.4,9.8h-2.4L105.8,17.7z M105.1,16l-1.6-3.8L102,16H105.1z"/>
	<path d="M119.3,10v9.8H117v-8h-4.4v8h-2.3V10H119.3z"/>
	<path d="M129.5,10v9.8h-2.2v-3.5c-0.8,0.3-1.6,0.5-2.4,0.5c-1.3,0-2.3-0.3-3-0.9c-0.7-0.6-1.1-1.5-1.1-2.7V10h2.2v2.8
		c0,0.7,0.2,1.2,0.5,1.5s0.9,0.5,1.6,0.5c0.7,0,1.4-0.1,2.1-0.4V10H129.5z"/>
	<path d="M138.6,17.7H134l-0.9,2.1h-2.3l4.4-9.8h2.2l4.4,9.8h-2.4L138.6,17.7z M137.8,16l-1.6-3.8l-1.6,3.8H137.8z"/>
	<path d="M144.9,19.3c-0.8-0.4-1.4-1-1.9-1.8c-0.5-0.8-0.7-1.6-0.7-2.6s0.2-1.8,0.7-2.6c0.5-0.8,1.1-1.4,1.9-1.8
		c0.8-0.4,1.7-0.7,2.7-0.7c0.8,0,1.6,0.1,2.3,0.4c0.7,0.3,1.3,0.7,1.7,1.3l-1.5,1.3c-0.7-0.8-1.5-1.1-2.5-1.1
		c-0.6,0-1.1,0.1-1.6,0.4c-0.5,0.3-0.8,0.6-1.1,1.1s-0.4,1-0.4,1.6s0.1,1.1,0.4,1.6c0.3,0.5,0.6,0.8,1.1,1.1c0.5,0.3,1,0.4,1.6,0.4
		c1,0,1.8-0.4,2.5-1.2l1.5,1.3c-0.5,0.6-1,1-1.7,1.3s-1.5,0.4-2.3,0.4C146.6,20,145.7,19.8,144.9,19.3z"/>
	<path d="M160.5,11.9h-3.1v8h-2.2v-8H152V10h8.5V11.9z"/>
	<path d="M162,10h2.3v6.4l4.7-6.4h2.1v9.8h-2.2v-6.4l-4.7,6.4H162V10z"/>
	<path d="M180.6,15.6c0.3,0.4,0.4,0.8,0.4,1.4c0,0.6-0.2,1.1-0.5,1.6c-0.3,0.5-0.8,0.8-1.5,1c-0.6,0.2-1.3,0.4-2.2,0.4
		c-0.8,0-1.5-0.1-2.2-0.4c-0.6-0.2-1.1-0.6-1.4-1c-0.3-0.5-0.5-1-0.5-1.6c0-0.5,0.1-1,0.4-1.4c0.3-0.4,0.6-0.7,1.1-1
		c-0.4-0.2-0.6-0.5-0.8-0.8c-0.2-0.3-0.3-0.7-0.3-1.2c0-0.6,0.2-1.1,0.5-1.5c0.3-0.4,0.8-0.7,1.3-1c0.6-0.2,1.2-0.3,2-0.3
		c0.7,0,1.4,0.1,2,0.3c0.6,0.2,1,0.6,1.3,1s0.5,0.9,0.5,1.5c0,0.4-0.1,0.8-0.3,1.2c-0.2,0.3-0.5,0.6-0.9,0.8
		C180,14.9,180.3,15.2,180.6,15.6z M178.2,17.9c0.3-0.3,0.5-0.6,0.5-1s-0.2-0.8-0.5-1s-0.8-0.4-1.4-0.4c-0.6,0-1,0.1-1.3,0.4
		c-0.3,0.3-0.5,0.6-0.5,1c0,0.4,0.2,0.8,0.5,1c0.3,0.3,0.8,0.4,1.3,0.4C177.4,18.3,177.9,18.2,178.2,17.9z M175.7,11.8
		c-0.3,0.2-0.4,0.5-0.4,0.9c0,0.4,0.1,0.7,0.4,0.9s0.6,0.3,1.1,0.3c0.5,0,0.8-0.1,1.1-0.3c0.3-0.2,0.4-0.5,0.4-0.9
		c0-0.4-0.1-0.7-0.4-0.9c-0.3-0.2-0.7-0.3-1.1-0.3C176.4,11.5,176,11.6,175.7,11.8z"/>
	<path d="M189.8,15.6c0.3,0.4,0.4,0.8,0.4,1.4c0,0.6-0.2,1.1-0.5,1.6c-0.3,0.5-0.8,0.8-1.5,1c-0.6,0.2-1.3,0.4-2.2,0.4
		c-0.8,0-1.5-0.1-2.2-0.4c-0.6-0.2-1.1-0.6-1.4-1c-0.3-0.5-0.5-1-0.5-1.6c0-0.5,0.1-1,0.4-1.4c0.3-0.4,0.6-0.7,1.1-1
		c-0.4-0.2-0.6-0.5-0.8-0.8c-0.2-0.3-0.3-0.7-0.3-1.2c0-0.6,0.2-1.1,0.5-1.5c0.3-0.4,0.8-0.7,1.3-1c0.6-0.2,1.2-0.3,2-0.3
		c0.7,0,1.4,0.1,2,0.3c0.6,0.2,1,0.6,1.3,1s0.5,0.9,0.5,1.5c0,0.4-0.1,0.8-0.3,1.2c-0.2,0.3-0.5,0.6-0.9,0.8
		C189.2,14.9,189.6,15.2,189.8,15.6z M187.4,17.9c0.3-0.3,0.5-0.6,0.5-1s-0.2-0.8-0.5-1s-0.8-0.4-1.4-0.4c-0.6,0-1,0.1-1.3,0.4
		c-0.3,0.3-0.5,0.6-0.5,1c0,0.4,0.2,0.8,0.5,1c0.3,0.3,0.8,0.4,1.3,0.4C186.6,18.3,187.1,18.2,187.4,17.9z M185,11.8
		c-0.3,0.2-0.4,0.5-0.4,0.9c0,0.4,0.1,0.7,0.4,0.9s0.6,0.3,1.1,0.3c0.5,0,0.8-0.1,1.1-0.3c0.3-0.2,0.4-0.5,0.4-0.9
		c0-0.4-0.1-0.7-0.4-0.9c-0.3-0.2-0.7-0.3-1.1-0.3C185.6,11.5,185.3,11.6,185,11.8z"/>
</g>
</svg>
