<?xml version="1.0" standalone="no"?>
<!DOCTYPE svg PUBLIC "-//W3C//DTD SVG 1.1//EN" "http://www.w3.org/Graphics/SVG/1.1/DTD/svg11.dtd" >
<svg xmlns="http://www.w3.org/2000/svg">
<metadata>Generated by IcoMoon</metadata>
<defs>
<font id="icomoon" horiz-adv-x="1024">
<font-face units-per-em="1024" ascent="960" descent="-64" />
<missing-glyph horiz-adv-x="1024" />
<glyph unicode="&#x20;" horiz-adv-x="512" d="" />
<glyph unicode="&#xe900;" glyph-name="close" d="M603.347 435.2l413.965 413.943c8.91 8.921 8.91 23.376 0 32.297l-59.039 59.072c-4.283 4.272-10.108 6.688-16.159 6.688-6.062 0-11.877-2.416-16.159-6.688l-413.954-413.954-413.954 413.954c-8.576 8.576-23.754 8.565-32.308 0l-59.028-59.072c-8.921-8.921-8.921-23.376 0-32.297l413.954-413.943-413.954-413.943c-8.921-8.921-8.921-23.376 0-32.297l59.039-59.072c4.283-4.272 10.097-6.688 16.159-6.688s11.866 2.416 16.149 6.688l413.954 413.954 413.954-413.954c4.283-4.272 10.108-6.688 16.159-6.688s11.877 2.416 16.159 6.688l59.039 59.072c8.91 8.921 8.91 23.376 0 32.297l-413.975 413.943z" />
<glyph unicode="&#xe901;" glyph-name="chevron-down" d="M512 134.827l512 512-95.573 95.573-416.427-416.427-416.427 416.427-95.573-95.573z" />
<glyph unicode="&#xe902;" glyph-name="chevron-left" horiz-adv-x="608" d="M512-76.8l95.573 95.573-416.427 416.427 416.427 416.427-95.573 95.573-512-512z" />
<glyph unicode="&#xe903;" glyph-name="chevron-right" horiz-adv-x="608" d="M607.573 435.2l-512 512-95.573-95.573 416.427-416.427-416.427-416.427 95.573-95.573z" />
<glyph unicode="&#xe904;" glyph-name="basket" d="M810.636 132.887c-55.389 0-100.119-45.615-100.119-101.283 0-55.715 44.777-101.283 100.119-101.283 55.937 0 101.283 45.346 101.283 101.283s-45.346 101.283-101.283 101.283v0zM306.409 132.887c-55.517-0.317-100.399-45.395-100.399-100.956 0-0.115 0-0.23 0.001-0.345v0.018c0-55.715 44.916-101.283 100.399-101.283 55.756 0.264 100.858 45.498 100.911 101.278v0.005c-0.052 55.785-45.155 101.019-100.885 101.283h-0.025zM264.052 737.699h612.399l-139.124-252.463h-353.839zM737.42 384.559c37.795 0 71.075 20.666 88.204 51.945l180.55 327.261c3.973 7.030 6.313 15.436 6.313 24.39 0 27.741-22.47 50.233-50.202 50.269h-746.267l-47.383 100.864h-164.911v-100.864h100.864l181.527-382.79-68.096-123.066c-36.771-67.537 11.636-149.737 88.25-149.737h605.091v100.864h-605.091l55.482 100.817z" />
<glyph unicode="&#xe905;" glyph-name="loupe" d="M1012.465 48.748l-211.862 211.862c-7.847 7.847-7.847 15.693-3.923 23.54 43.157 66.697 66.697 145.165 66.697 231.479 0 239.326-192.245 431.571-431.571 431.571s-431.571-192.245-431.571-431.571 192.245-431.571 431.571-431.571c86.314 0 164.782 23.54 231.479 66.697 7.847 3.923 19.617 3.923 23.54-3.923l211.862-211.862c15.693-15.693 39.234-15.693 54.927 0l54.927 54.927c19.617 19.617 19.617 43.157 3.923 58.851zM435.73 240.993c-153.011 0-274.636 121.625-274.636 274.636s121.625 274.636 274.636 274.636 274.636-121.625 274.636-274.636-121.625-274.636-274.636-274.636z" />
<glyph unicode="&#xe906;" glyph-name="menu" d="M0 207.645h1024v-113.779h-1024v113.779zM0 492.088h1024v-113.779h-1024v113.779zM0 776.533h1024v-113.779h-1024v113.779z" />
<glyph unicode="&#xe907;" glyph-name="phone" d="M1001.062 137.284l-158.174 158.515c-31.539 31.403-83.627 30.447-116.19-2.185l-79.735-79.872c-12.26 6.501-17.394 9.403-22.508 12.335l6.807-3.597c-50.381 27.989-119.194 66.219-191.693 138.923-72.636 72.841-110.933 141.995-138.854 192.512 0.845-2.031-1.988 2.991-4.792 8.033l-3.741 7.327 53.453 53.453 26.283 26.419c32.631 32.768 33.587 84.992 2.116 116.463l-158.174 158.583c-31.403 31.539-83.558 30.515-116.258-2.253l-44.51-44.919c-13.333-19.069-25.247-40.846-34.683-63.899l-0.815-2.251c-7.702-19.155-13.463-41.421-16.258-64.599l-0.126-1.278c-20.821-173.397 58.231-331.981 272.93-547.157 296.823-297.37 536.030-274.978 546.338-273.818 22.46 2.662 43.964 8.055 65.877 16.521 23.484 9.216 45.534 21.709 64.512 36.659l46.217 43.486c32.495 32.768 33.451 84.992 2.048 116.599z" />
<glyph unicode="&#xe908;" glyph-name="clock" d="M955.349 692.205c-45.786 78.439-107.891 140.545-186.333 186.328-78.456 45.781-164.101 68.667-257.001 68.667-92.891 0-178.562-22.886-257.003-68.667-78.446-45.776-140.552-107.882-186.338-186.328-45.788-78.451-68.674-164.122-68.674-257.006 0-92.889 22.893-178.546 68.667-257.001 45.783-78.439 107.889-140.545 186.335-186.333 78.451-45.779 164.115-68.667 257.003-68.667s178.562 22.888 257.008 68.667c78.442 45.772 140.545 107.894 186.326 186.333 45.774 78.449 68.658 164.117 68.658 257.001 0.002 92.893-22.884 178.567-68.648 257.006zM826.008 253.202c-32.443-55.553-76.44-99.567-131.994-132.010s-116.218-48.649-182.006-48.649c-65.772 0-126.441 16.205-182.001 48.649-55.553 32.446-99.551 76.457-131.994 132.010-32.45 55.553-48.67 116.221-48.67 181.997 0 65.781 16.226 126.448 48.67 182.001 32.436 55.553 76.445 99.56 131.994 132.001 55.553 32.446 116.221 48.663 182.001 48.663 65.786 0 126.453-16.217 182.006-48.663 55.553-32.443 99.553-76.447 131.994-132.001 32.446-55.553 48.658-116.221 48.658-182.001 0-65.776-16.212-126.443-48.658-181.997zM576.012 691.205h-42.671c-6.232 0-11.332-2.006-15.341-6.001-3.984-4-5.989-9.107-5.989-15.33v-234.673h-149.334c-6.228 0-11.332-1.996-15.334-5.987-3.998-3.998-5.996-9.109-5.996-15.344v-42.664c0-6.225 1.999-11.339 5.996-15.334 4.005-3.995 9.118-5.992 15.334-5.992h213.347c6.216 0 11.332 1.996 15.32 5.992 3.995 3.995 6.008 9.109 6.008 15.334v298.668c0 6.218-2.013 11.323-6.008 15.33-3.993 3.995-9.107 6.001-15.332 6.001z" />
<glyph unicode="&#xe909;" glyph-name="mail" d="M902.463 824.076h-780.923c-67.017 0-121.54-52.361-121.54-116.719v-544.314c0-64.358 54.523-116.719 121.54-116.719h780.923c67.017 0 121.537 52.361 121.537 116.719v544.314c0 64.358-54.521 116.719-121.537 116.719zM902.463 149.368h-780.923c-9.851 0-18.491 6.389-18.491 13.675v472.338l353.191-298.182c7.241-6.115 16.449-9.481 25.93-9.481l59.65-0.003c9.476 0 18.689 3.369 25.932 9.484l353.207 298.193v-472.354c-0.005-7.281-8.648-13.67-18.496-13.67zM512.001 430.032l-343.522 291h687.044l-343.522-291z" />
<glyph unicode="&#xe90a;" glyph-name="arrow-right" d="M1024 437.043c0-22.528-8.602-41.506-25.737-56.934l-452.881-407.552c-18.091-15.428-39.185-23.142-63.283-23.142-0.276-0.003-0.602-0.005-0.928-0.005-23.677 0-45.3 8.799-61.776 23.304l0.103-0.089-52.224 46.899c-16.201 13.678-26.42 33.999-26.42 56.708 0 0.104 0 0.207 0.001 0.311v-0.016c0 22.118 8.875 41.097 26.419 56.934l203.844 183.433h-489.745c-0.797-0.029-1.734-0.045-2.675-0.045-43.471 0-78.711 35.24-78.711 78.711 0 0.496 0.005 0.991 0.014 1.485l-0.001-0.074v80.077c-0.009 0.44-0.014 0.959-0.014 1.479 0 43.471 35.24 78.711 78.711 78.711 0.941 0 1.879-0.017 2.812-0.049l-0.135 0.004h489.745l-203.844 184.047c-16.175 13.121-26.428 32.995-26.428 55.265 0 0.395 0.003 0.789 0.010 1.183l-0.001-0.059c0 22.528 8.875 41.301 26.419 56.32l52.224 46.967c17.613 15.838 38.502 23.757 62.601 23.757 24.576 0 45.67-7.919 63.283-23.757l452.881-407.552c17.135-14.609 25.737-33.382 25.737-56.32z" />
<glyph unicode="&#xe90b;" glyph-name="compare" d="M678.4 157.338h110.95v222.413h-110.95zM456.55 157.338h110.387v555.213h-110.387zM234.65 157.338h110.95v388.813h-110.95zM899.738 47.462h-775.987v775.987h775.987zM900.25 934.4h-776.499c-61.206-0.174-110.776-49.744-110.95-110.934v-776.516c0-61.030 49.92-110.95 110.95-110.95h776.499c61.206 0.174 110.776 49.744 110.95 110.934v776.516c-0.174 61.206-49.744 110.776-110.934 110.95h-0.017z" />
<glyph unicode="&#xe90c;" glyph-name="car-lights" horiz-adv-x="1114" d="M611.81 947.2c24.034 0 43.52-19.336 43.52-42.827v-938.345c0-23.793-19.486-42.827-43.52-42.827h-91.437c-0.238 0-0.52-0.001-0.803-0.001-142.947 0-272.485 57.412-366.812 150.437l0.059-0.058c-94.178 92.642-152.817 220.672-152.817 361.562v0.12c0 140.89 58.639 268.77 152.817 361.562l2.56 2.229c94.152 91.637 222.893 148.149 364.832 148.149 0.057 0 0.115 0 0.172 0h-0.009zM482.123 10.059c12.559-0.904 25.239-1.506 38.249-1.506h48.068v852.992h-48.068c-13.011 0-25.69-0.602-38.249-1.807zM430.020 852.149c-83.857-18.157-156.427-58.319-213.688-114.116l0.094 0.091-1.958-1.807c-78.607-77.131-127.247-183.898-127.247-300.875v-0.151c0-117.007 48.64-223.774 127.247-301.086 57.547-56.572 130.811-97.33 212.643-115.127l2.879-0.525zM1088.211 461.613c0.144 0.003 0.314 0.005 0.484 0.005 14.046 0 25.457-11.286 25.658-25.284v-0.019c0-14.276-11.475-25.901-25.992-25.901l-252.085-1.747c-0.081-0.001-0.177-0.001-0.273-0.001-14.106 0-25.562 11.342-25.748 25.403v0.018c0 14.276 11.656 25.72 25.841 25.72zM906.993 839.078c4.759 4.765 11.337 7.712 18.603 7.712 7.039 0 13.432-2.766 18.151-7.27l-0.010 0.010c10.12-9.969 10.421-26.323 0.301-36.292l-177.001-176.7c-4.741-4.739-11.29-7.67-18.523-7.67-7.158 0-13.646 2.87-18.375 7.523l0.004-0.003c-4.732 4.574-7.67 10.978-7.67 18.069 0 7.016 2.877 13.361 7.516 17.918l0.004 0.004zM944.941 68.427c4.768-4.654 7.726-11.145 7.726-18.327 0-6.957-2.775-13.266-7.279-17.88l0.005 0.005c-4.773-4.793-11.377-7.759-18.675-7.759-7.147 0-13.629 2.845-18.376 7.464l0.006-0.006-179.561 174.261c-4.743 4.632-7.684 11.090-7.684 18.235 0 6.996 2.82 13.334 7.384 17.938l-0.002-0.002c4.78 4.839 11.416 7.836 18.751 7.836 7.109 0 13.561-2.815 18.302-7.392l-0.008 0.007z" />
<glyph unicode="&#xe90d;" glyph-name="tires" d="M873.998 797.198c92.669-92.43 150.002-220.25 150.002-361.46 0-0.189 0-0.378 0-0.567v0.029c0-141.257-57.427-269.284-150.002-361.998l-2.325-2.048c-92.178-91.444-219.13-147.954-359.28-147.954-0.119 0-0.237 0-0.356 0h0.019c-0.125 0-0.273 0-0.421 0-141.264 0-269.138 57.331-361.624 149.994l-0.008 0.008c-92.672 92.502-150.002 220.384-150.002 361.655 0 0.121 0 0.241 0 0.362v-0.019c0 141.257 57.427 269.284 150.002 361.998 92.406 92.668 220.203 150.003 361.391 150.003 0.233 0 0.465 0 0.698 0h-0.036c141.257 0 269.229-57.289 361.942-150.002zM889.718 371.74c-3.388 4.005-5.448 9.229-5.448 14.933 0 7.261 3.337 13.742 8.56 17.995l0.042 0.033c4.013 3.389 9.243 5.449 14.955 5.449 7.319 0 13.849-3.383 18.11-8.67l0.035-0.045 15.997-19.152c2.186 16.938 3.127 34.318 3.127 52.086l-51.947 37.085c-6.009 4.337-9.875 11.32-9.875 19.207 0 13.043 10.573 23.616 23.616 23.616 5.156 0 9.927-1.653 13.81-4.457l-0.069 0.048 20.369-14.64c-2.729 19.873-6.309 37.187-10.922 54.075l0.682-2.931-60.056 22.694c-8.993 3.376-15.277 11.902-15.277 21.896 0 2.952 0.548 5.775 1.548 8.374l-0.054-0.16c3.44 9.053 12.044 15.371 22.124 15.371 2.896 0 5.67-0.521 8.233-1.475l-0.163 0.053 23.663-8.912c-7.683 18.538-15.426 33.957-24.111 48.757l1.002-1.846-63.709 6.172c-12.052 1.15-21.403 11.223-21.403 23.479 0 0.737 0.034 1.466 0.1 2.186l-0.007-0.092c1.218 12.98 12.703 22.417 25.545 21.31l25.434-2.574c-10.932 13.81-22.556 26.928-34.733 39.382l-63.156-10.517c-1.152-0.198-2.48-0.311-3.833-0.311-11.645 0-21.335 8.373-23.377 19.427l-0.022 0.146c-0.211 1.184-0.331 2.546-0.331 3.937 0 11.674 8.483 21.366 19.621 23.249l0.139 0.019 25.157 4.096c-12.5 9.503-26.737 19.082-41.513 27.849l-2.104 1.155-58.534-26.818c-2.861-1.302-6.204-2.062-9.725-2.062-9.554 0-17.803 5.59-21.653 13.679l-0.062 0.145c-1.365 2.89-2.163 6.278-2.163 9.852 0 9.515 5.65 17.711 13.777 21.416l0.147 0.060 23.109 10.655c-12.936 5.471-29.354 11.164-46.168 15.915l-3.205 0.774-49.761-41.015c-4.018-3.361-9.24-5.402-14.94-5.402-7.315 0-13.844 3.362-18.127 8.625l-0.034 0.043c-3.388 4.026-5.447 9.269-5.447 14.993 0 7.285 3.335 13.79 8.561 18.074l0.041 0.033 19.677 16.273c-15.666 1.995-33.804 3.141-52.206 3.155h-0.018l-37.196-52.141c-4.312-6.073-11.318-9.988-19.239-9.988-5.139 0-9.894 1.648-13.764 4.445l0.069-0.047c-6.001 4.37-9.857 11.372-9.857 19.274 0 5.069 1.586 9.767 4.289 13.625l-0.051-0.076 14.917 20.757c-17.519-2.297-34.595-5.867-51.421-10.378l-22.417-60.167c-3.44-9.034-12.030-15.335-22.091-15.335-2.97 0-5.813 0.549-8.43 1.552l0.162-0.054c-9.020 3.503-15.297 12.115-15.297 22.192 0 2.942 0.535 5.759 1.513 8.36l-0.054-0.164 9.050 23.801c-18.639-7.845-34.098-15.676-48.952-24.423l1.904 1.037-6.006-63.875c-1.279-12.022-11.365-21.304-23.62-21.304-0.785 0-1.561 0.038-2.326 0.113l0.097-0.008c-12.006 1.167-21.314 11.206-21.314 23.42 0 0.816 0.042 1.623 0.123 2.418l-0.008-0.1 2.491 25.268c-13.699-10.794-26.956-22.279-39.272-34.733l10.517-63.184c0.211-1.185 0.331-2.549 0.331-3.942 0-11.62-8.395-21.279-19.451-23.243l-0.143-0.021c-1.136-0.192-2.444-0.302-3.778-0.302-11.701 0-21.428 8.454-23.406 19.587l-0.021 0.144-4.234 25.019c-9.43-12.428-18.998-26.618-27.785-41.327l-1.191-2.151 26.928-58.534c1.299-2.849 2.055-6.18 2.055-9.687 0-9.532-5.591-17.759-13.672-21.58l-0.145-0.062c-2.882-1.328-6.253-2.103-9.805-2.103-9.507 0-17.718 5.548-21.572 13.583l-0.062 0.144-10.517 23.248c-5.624-13.34-11.243-29.906-15.791-46.911l-0.648-2.85 40.628-49.539c2.688-3.773 4.298-8.476 4.298-13.556 0-12.992-10.532-23.524-23.524-23.524-6.751 0-12.839 2.844-17.129 7.4l-0.011 0.012-15.886 19.29c-1.993-15.265-3.13-32.919-3.13-50.839 0-0.536 0.001-1.071 0.003-1.607v0.083l51.809-37.085c10.794-7.362 13.008-22.279 5.618-32.796-4.366-5.983-11.353-9.827-19.239-9.827-5.132 0-9.884 1.628-13.768 4.396l0.073-0.049-20.397 14.502c2.325-17.38 6.006-34.595 10.517-51.145l59.613-22.417c9.040-3.418 15.351-12.002 15.351-22.059 0-2.983-0.555-5.836-1.568-8.462l0.055 0.161c-3.418-9.040-12.002-15.351-22.059-15.351-2.983 0-5.836 0.555-8.462 1.568l0.161-0.055-23.248 8.773c6.836-16.135 14.751-31.744 23.248-46.772l63.433-6.006c13.008-1.384 22.417-12.869 21.31-25.738-1.168-11.989-11.195-21.284-23.392-21.284-0.807 0-1.604 0.041-2.39 0.12l0.099-0.008-24.742 2.325c10.655-13.838 22.279-26.679 34.595-39.244l62.602 10.517c13.008 2.214 25.185-6.421 27.371-19.428 1.91-12.731-6.587-24.88-19.428-26.928l-24.355-4.096c13.838-10.517 28.174-19.982 43.506-28.727l57.704 26.264c2.891 1.352 6.277 2.141 9.848 2.141 9.541 0 17.767-5.634 21.531-13.757l0.061-0.147c1.309-2.856 2.073-6.196 2.073-9.715 0-9.53-5.6-17.751-13.69-21.553l-0.145-0.061-22.556-10.102c15.997-6.448 32.381-12.039 49.346-16.688l49.235 40.6c4.029 3.3 9.233 5.3 14.905 5.3 7.304 0 13.834-3.317 18.164-8.527l0.031-0.039c8.33-9.963 6.836-24.908-3.155-33.1l-19.152-15.72c17.104-2.214 34.456-3.155 52.113-3.155l36.919 51.698c4.307 6.005 11.266 9.87 19.128 9.87 5.13 0 9.875-1.646 13.737-4.438l-0.069 0.047c10.517-7.528 13.146-22.307 5.48-32.962l-14.364-20.12c17.38 2.491 34.595 6.033 51.283 10.406l22.279 59.613c3.396 9.046 11.973 15.367 22.026 15.367 2.996 0 5.86-0.561 8.494-1.584l-0.16 0.055c12.177-4.539 18.183-18.211 13.672-30.388l-8.607-23.248c18.624 7.902 33.989 15.684 48.784 24.335l-2.012-1.087 6.144 63.322c1.010 11.983 10.985 21.327 23.143 21.327 0.856 0 1.701-0.046 2.533-0.137l-0.103 0.009c11.993-1.18 21.286-11.214 21.286-23.418 0-0.71-0.031-1.412-0.093-2.106l0.006 0.090-2.325-24.908c13.257 10.268 25.821 21.338 37.722 33.238l1.384 1.384-10.406 62.768c-0.095 0.792-0.149 1.709-0.149 2.639 0 12.992 10.532 23.524 23.524 23.524 11.211 0 20.59-7.842 22.951-18.34l0.030-0.157 4.096-24.355c10.406 13.672 19.982 28.312 28.866 43.34l-26.541 57.981c-1.354 2.883-2.144 6.262-2.144 9.825 0 9.518 5.64 17.719 13.76 21.444l0.147 0.060c2.895 1.35 6.285 2.138 9.859 2.138 9.501 0 17.702-5.567 21.519-13.617l0.062-0.144 10.129-22.832c6.559 16.135 12.316 32.547 16.688 49.512zM730.472 653.838c55.915-55.909 90.5-133.15 90.5-218.468 0-0.108 0-0.216 0-0.325v0.017c0-85.241-34.595-162.539-90.638-218.638-55.759-55.942-132.887-90.555-218.099-90.555-0.112 0-0.223 0-0.335 0h0.017c-0.148 0-0.322 0-0.497 0-85.191 0-162.297 34.614-218.021 90.546l-0.147 0.147c-55.911 55.812-90.5 132.969-90.5 218.204 0 0.104 0 0.207 0 0.311v-0.016c0 85.379 34.595 162.678 90.638 218.776v0.138c55.818 55.944 132.997 90.555 218.26 90.555 0.094 0 0.188 0 0.282 0h-0.015c85.158 0 162.373-34.595 218.416-90.555v-0.138zM696.984 250.050c47.361 47.242 76.662 112.57 76.662 184.741 0 0.144 0 0.288 0 0.432v-0.022c0 0.183 0.001 0.4 0.001 0.616 0 72.15-29.303 137.456-76.656 184.666l-0.006 0.006h-0.138c-47.067 47.468-112.304 76.856-184.404 76.856-0.185 0-0.369 0-0.553-0.001h0.029c-0.14 0-0.304 0-0.47 0-72.188 0-137.513-29.383-184.667-76.842l-0.013-0.014h-0.138c-47.297-47.277-76.551-112.601-76.551-184.757 0-0.187 0-0.374 0.001-0.561v0.029c0-0.1 0-0.218 0-0.337 0-72.174 29.254-137.515 76.551-184.814v0h0.138c47.134-47.389 112.385-76.718 184.486-76.718 0.234 0 0.467 0 0.701 0.001h-0.036c0.21-0.001 0.459-0.001 0.708-0.001 72.018 0 137.185 29.332 184.206 76.702l0.016 0.016z" />
<glyph unicode="&#xe90e;" glyph-name="child-seats" horiz-adv-x="741" d="M48.477 220.639c-23.421 67.214-44.010 135.19-43.683 207.414 0.109 32.027 8.497 61.985 23.748 89.654 19.5 35.295 45.644 60.46 92.596 47.387-11.003 20.698-21.896 38.563-30.393 57.518-27.016 61.222-27.561 122.771 3.377 182.686 138.349 195.976 405.787 153.491 501.215 50.002 51.854-56.211 69.828-117.651 48.912-196.303-10.131-37.692-28.106-71.353-51.527-103.271 16.123 11.656 34.424 18.519 52.071 10.022 15.796-7.626 31.809-18.737 42.158-32.463 33.226-44.228 39.653-95.864 32.027-149.243-10.458-72.007-28.323-142.162-60.351-208.177-2.506-5.12-4.249-10.676-6.1-15.687 30.829-88.347-25.927-202.294-115.363-230.182-16.231-5.12-34.206-6.863-51.527-6.863-89.872 0.436-179.854 1.743-269.835 3.159-57.518 0.871-102.291 24.184-129.416 76.691-6.645 12.854-13.835 25.491-20.589 38.346-22.114 41.614-25.927 82.683 5.665 123.425-7.734 18.519-16.449 36.82-22.986 55.884zM475.506 614.988c1.089 1.743 24.729 173.971 24.402 203.384-0.545 49.457-34.86 77.454-84.208 77.018-36.276-0.218-84.752 0.98-121.573-0.763-38.999-1.852-61.767-42.812-61.658-81.593 0.109-12.31 25.164-176.912 27.997-198.046zM345.437 195.693c14.271 0.654 26.363 1.307 37.692 1.852 22.441 40.089 111.769 334.979 112.313 369.511-38.999 17.648-220.814 18.301-265.26 0.109 37.583-123.969 62.311-252.187 115.254-371.472zM157.74 103.271c3.377 20.785-10.567 39.282-33.879 44.381-21.025 4.575-38.89-5.011-42.376-26.428-2.397-14.38-2.179-31.461 3.486-44.293 11.874-26.973 27.343-52.551 42.921-77.693 12.092-19.369 31.809-29.696 53.597-34.489 16.231-3.486 33.008-5.556 49.675-5.665 87.694-0.545 175.496-0.218 263.299-0.436 28.868-0.109 53.923 10.022 75.493 28.628 39.217 34.053 52.616 80.526 59.479 129.155 2.288 16.558-11.547 27.866-28.868 28.302-19.173 0.523-29.849-8.388-38.563-30.154 4.031-18.715 8.824-34.816 9.913-51.026 0.436-5.556-7.408-15.251-13.072-16.558-5.447-1.307-14.38 4.14-19.282 8.933-4.249 4.14-5.12 11.765-7.843 17.735-6.427 14.467-11.983 29.609-20.153 43.095-9.804 15.992-24.402 26.232-43.357 27.321-18.737-24.184-27.779-42.333-24.946-54.969 12.637-59.283-29.957-90.417-71.898-95.755-46.734-6.1-92.814 32.223-84.752 75.515 6.209 33.748-13.399 53.989-24.837 78.347-30.938-0.545-50.22-9.586-63.51-30.567-6.209-9.586-10.24-20.676-15.142-31.112-4.249-9.151-7.843-18.824-20.916-20.916-11.329 13.181-6.645 26.145-4.466 38.651zM174.407 193.405c-13.726 59.152-27.452 118.305-40.089 177.784-9.586 45.426-17.974 90.962-8.497 137.804 1.089 5.774-2.614 14.38-6.863 18.955-13.835 14.706-28.65 14.924-43.901 0.98-25.491-23.421-35.949-54.032-37.583-87.585-3.377-69.501 18.301-134.427 39.98-198.917 7.626-22.441 18.955-43.574 28.432-64.926 29.522-0.327 50.764-12.528 67.758-35.077 5.229 5.774 9.369 10.458 13.29 14.815-4.575 12.963-9.804 24.293-12.528 36.167zM664.729 293.191c14.162 48.586 29.195 97.607 23.966 149.46-3.486 33.226-12.637 64.163-38.89 87.258-9.804 8.606-20.48 12.201-33.661 5.12-12.854-6.972-13.181-17.103-12.201-29.522 1.307-14.271 3.050-29.195 0.545-43.139-9.151-51.2-20.262-102.291-30.066-153.382-9.913-51.309-15.905-103.38-38.672-151.312-0.98-2.070-0.109-5.12-0.109-12.419 22.986 29.304 49.675 40.089 87.585 32.463 14.38 39.435 30.175 76.8 41.505 115.472zM109.154 744.078c-11.983-65.253 10.48-121.682 52.834-169.94 22.158 11.765 41.897 22.114 64.272 33.988-4.902 34.86-9.717 70.482-14.837 106.104-6.536 46.189-24.118 91.615-6.231 143.251-58.608-19.935-86.321-61.113-96.038-113.403zM612.984 744.622c-8.715 49.13-34.533 87.911-87.476 110.57 14.597-23.312 17.43-41.069 11.438-75.057-4.031-22.768-21.243-148.044-24.62-172.773l53.597-26.036c40.742 47.605 57.845 102.291 47.060 163.295zM394.24 139.918c8.497-3.595 15.338-6.645 21.874-9.477 2.288 2.614 3.486 3.486 4.14 4.684 3.137 5.774 6.188 11.438 9.129 17.321 57.322 114.928 93.467 236.936 121.072 361.777 5.665 24.946 1.198 32.027-27.19 42.703-32.419-141.835-63.314-284.106-129.024-417.008zM178.22 512.044c29.74-123.425 64.708-245.106 121.137-359.489 3.922-8.279 8.933-15.905 13.726-24.402 5.338 2.397 8.824 3.595 11.874 5.229 3.159 1.743 6.1 3.813 10.567 6.645-66.015 131.486-96.953 273.539-129.307 415.591-27.67-11.765-33.552-20.371-27.997-43.574zM205.889 172.163c9.695 3.159 15.142 5.011 20.589 6.754 5.774 1.852 11.656 3.813 19.609 6.536-42.049 93.249-92.16 286.393-93.685 286.066 17.757-99.241 35.513-198.591 53.488-299.357zM375.067 33.269c19.935 3.922 30.938 16.776 31.156 35.84 0.109 19.5-10.24 31.265-31.591 34.751-3.847 0.54-8.292 0.849-12.808 0.849-3.893 0-7.733-0.229-11.506-0.675l0.457 0.044c-27.561-2.723-31.156-18.955-29.74-38.781 1.525-21.025 17.321-33.008 42.812-33.008 2.506 0.109 6.972 0.109 11.22 0.98zM501.106 174.124c19.5 46.603 62.42 248.636 71.353 300.773-18.519-47.997-71.244-245.804-89.219-292.603 5.338-2.397 10.785-4.902 17.866-8.17z" />
<glyph unicode="&#xe90f;" glyph-name="alarms" horiz-adv-x="886" d="M343.427 680.49c9.465-3.127 16.329-12.039 16.329-22.279v-96.145c0-13.008-11.043-23.524-23.995-23.524h-162.733c-0.050 0-0.109-0.001-0.168-0.001-13.059 0-23.667 10.493-23.854 23.507v96.163c0.101 10.279 6.702 18.991 15.885 22.228l0.167 0.051v15.471c0 23.109 9.493 44.558 24.963 60.333l1.384 1.467c16.207 15.832 38.398 25.6 62.871 25.6 0.022 0 0.045 0 0.067 0h-0.004c24.548 0 46.993-9.853 63.018-25.6 16.052-15.997 26.098-37.722 26.098-61.8zM213.213 681.873h81.92v14.087c0 10.932-4.76 21.034-11.984 28.312-7.392 7.273-17.541 11.763-28.738 11.763-0.084 0-0.167 0-0.251-0.001h0.013c-11.153 0-21.587-4.373-28.838-11.762l-1.107-0.969c-6.81-7.083-11.007-16.723-11.015-27.342v-0.002zM311.13 634.686h-113.913v-48.986h113.913zM825.898 888.666c36.753-36.394 59.724-86.431 59.724-141.561v-623.948c0-54.853-22.971-105.029-59.752-141.146-36.956-36.361-87.695-58.811-143.678-58.811-0.112 0-0.224 0-0.336 0h-478.384c-0.033 0-0.071 0-0.11 0-55.961 0-106.678 22.451-143.636 58.837l0.026-0.026c-36.799 35.821-59.657 85.805-59.752 141.128v623.966c0 55.13 22.832 105.168 59.752 141.561 36.955 36.197 87.606 58.534 143.475 58.534 0.086 0 0.172 0 0.259 0h478.388c56.126 0 107.243-22.417 143.997-58.534zM80.204 458.78h338.418v409.766h-215.151c-33.965-0.035-64.743-13.656-87.196-35.719l0.018 0.018c-22.249-21.803-36.046-52.158-36.061-85.736v-0.003zM805.362 411.62h-725.103v-288.464c0-33.211 13.782-63.46 36.061-85.629 22.484-21.942 53.244-35.491 87.17-35.536h478.411c33.939 0.013 64.709 13.57 87.202 35.558l-0.023-0.023c22.279 22.168 36.338 52.39 36.338 85.629zM805.362 747.105c0 33.488-14.059 63.737-36.338 85.767-22.422 22.068-53.208 35.695-87.177 35.702h-215.041v-409.794h338.557zM712.732 681.873c13.229 0 24.133-10.517 24.133-23.663v-96.145c0-13.008-10.904-23.524-24.133-23.524h-162.456c-0.099-0.001-0.216-0.002-0.334-0.002-13.048 0-23.645 10.5-23.799 23.512v96.16c0 10.24 6.698 19.152 16.052 22.279v15.471c0 23.939 10.157 45.803 26.347 61.689l0.138 0.111c16.182 15.793 38.317 25.551 62.731 25.6h0.010c22.030 0 44.198-8.081 61.357-24.355l1.661-1.245c4.256-4.298 6.885-10.214 6.885-16.744s-2.63-12.445-6.887-16.746l0.002 0.002c-4.424-4.251-10.444-6.869-17.076-6.869s-12.652 2.618-17.084 6.877l-1.099 1.099c-7.285 6.609-17.002 10.655-27.663 10.655-0.034 0-0.067 0-0.101 0h0.005v0.138c-11.263 0-21.463-4.546-28.868-11.903l0.002 0.002v-0.138c-7.391-7.090-11.984-17.047-11.984-28.078 0-0.034 0-0.068 0-0.102v0.005-14.115zM688.377 634.686h-114.051v-48.986h114.051zM234.69 50.785c-13.011 13.398-21.034 31.703-21.034 51.882 0 0.033 0 0.066 0 0.098v-0.005c0 20.646 8.635 39.521 22.583 53.193v0.138c13.948 13.675 33.067 22.12 54.157 22.141h304.602c21.034 0 40.406-8.469 54.3-22.141v-0.138c13.949-13.672 22.694-32.547 22.694-53.193 0-20.923-8.746-39.798-22.694-53.359v-0.277c-13.999-13.61-33.133-22.002-54.226-22.002-0.026 0-0.052 0-0.077 0h-304.622c-20.895 0-40.406 8.469-54.161 22.002zM270.059 122.742c-5.144-5.072-8.33-12.118-8.33-19.908 0-0.026 0-0.052 0-0.078v0.004c0-7.389 2.906-14.225 7.362-19.152l1.107-0.969c5.148-5.065 12.399-8.33 20.203-8.33h304.349c7.915 0 15.028 3.266 20.314 8.33 5.294 5.050 8.585 12.159 8.585 20.037s-3.291 14.987-8.574 20.027l-0.011 0.010v0.138c-5.251 5.084-12.416 8.218-20.314 8.22h-304.433c-7.777 0-15.028-3.155-20.176-8.22z" />
<glyph unicode="&#xe910;" glyph-name="accessories" horiz-adv-x="775" d="M415.274 795.261l0.692-0.664 190.243-193.73c7.152-7.268 11.568-17.247 11.568-28.257s-4.416-20.989-11.573-28.262l0.005 0.005c-6.9-7.204-16.596-11.681-27.339-11.681-0.128 0-0.256 0.001-0.384 0.002h-25.525l135.805-187.724c4.689-6.514 7.5-14.653 7.5-23.449 0-13.137-6.269-24.81-15.98-32.19l-0.1-0.073c-6.399-4.827-14.483-7.736-23.245-7.749h-25.216l135.638-187.641c12.842-17.768 8.856-42.621-8.469-55.794-6.376-4.711-14.375-7.566-23.037-7.638h-231.469l23.607-49.733c2.444-5.054 3.873-10.991 3.873-17.262 0-15.651-8.899-29.224-21.913-35.935l-0.226-0.106c-5.48-2.768-11.485-4.041-17.076-4.041v-0.138h-210.446c-21.559 0-39.299 18.045-39.299 39.991 0 7.362 2.048 14.17 5.203 20.010l22.362 47.215h-231.175c-21.739 0.156-39.302 17.814-39.302 39.575 0 0.146 0.001 0.292 0.002 0.438v-0.022c0 9.686 3.404 18.598 9.133 25.545l134.172 185.51h-25.406c-21.739 0.155-39.302 17.814-39.302 39.575 0 0.156 0.001 0.312 0.003 0.467v-0.024c0 9.853 3.542 18.736 9.133 25.683l134.31 185.51h-25.379c-21.812 0.141-39.439 17.855-39.439 39.686 0 0.107 0 0.215 0.001 0.322v-0.016c0 11.126 4.483 20.978 11.458 28.202l191.045 194.422c1.384 1.245 2.74 2.491 4.234 3.598v124.291c0 13.201 10.517 24.022 23.607 24.022 13.002-0.187 23.47-10.77 23.47-23.799 0-0.079 0-0.157-0.001-0.236v0.012-124.264c1.384-1.135 2.878-2.38 4.234-3.626zM363.963 659.899v26.513l-72.455-73.728h8.026v-0.138c8.054 0 16.246-2.38 23.22-7.638 17.463-13.063 21.31-38.054 8.579-55.85l-135.611-187.586h25.213v-0.138c8.192 0 16.246-2.38 23.22-7.638 9.84-7.451 16.131-19.141 16.131-32.301 0-8.827-2.83-16.992-7.633-23.639l0.082 0.119-135.915-187.641 216.313-0.111c5.729 0 11.458-1.245 17.048-3.875 13.233-6.713 22.143-20.218 22.143-35.805 0-6.335-1.472-12.326-4.093-17.65l0.105 0.235-23.607-49.706h85.435l-22.528 47.215c-3.188 5.616-5.066 12.337-5.066 19.497 0 0.132 0.001 0.263 0.002 0.395v-0.020c0 21.919 17.629 39.853 39.189 39.853h216.285l-134.282 185.648c-5.683 6.905-9.13 15.836-9.133 25.572v0.001c0 22.058 17.602 39.991 39.438 39.991h25.24l-134.006 185.51c-5.753 6.919-9.251 15.891-9.271 25.679v0.004c-0.002 0.132-0.002 0.288-0.002 0.444 0 21.761 17.563 39.42 39.287 39.575h8.207l-72.483 73.728v-26.513c9.548-7.223 15.692-19.041 15.692-31.965 0-22.196-17.436-40.268-39.161-40.268-21.698 0-39.299 18.072-39.299 40.268 0 12.925 6.144 24.742 15.692 31.965z" />
<glyph unicode="&#xe911;" glyph-name="autooil" horiz-adv-x="997" d="M946.122 410.408c30.316-49.583 50.526-101.996 50.526-159.394 0-30.046-5.794-58.745-16.573-85.423l-0.808-2.021c-11.803-28.102-27.999-52.118-47.991-72.379l0.025 0.025-1.617-2.021c-21.019-21.019-46.349-37.996-74.375-49.718-25.916-10.992-56.056-17.381-87.689-17.381-0.009 0-0.018 0-0.027 0h0.002c-26.958 0.035-52.799 4.772-76.762 13.433l1.579-0.498v-50.392c0-21.423-17.516-38.804-38.804-38.804h-614.804c-21.288 0-38.804 17.381-38.804 38.804v561.179c0 13.878 7.411 26.004 18.324 32.876l291.032 214.905v122.341c0 12.799 10.376 23.175 23.175 23.175v0h248.32c12.8 0 23.309-10.375 23.309-23.175v-122.206c4.851-3.503 8.758-8.354 11.318-13.608l71.006-114.931c3.907-6.467 5.659-13.474 5.659-20.345h0.269v-99.84l0.674 0.808v0.135l0.943 0.943c14.821 17.785 29.777 35.436 43.251 52.143 7.155 8.978 18.090 14.682 30.356 14.682 12.145 0 22.985-5.591 30.084-14.34l0.056-0.072c14.013-17.246 28.834-34.897 43.789-52.682l1.617-1.752 2.021-2.156c36.109-42.442 72.758-85.558 100.918-132.312zM355.732 801.334h201.917v91.244h-201.917zM614.912 633.937l-55.512 89.869h-214.151l-267.668-197.389v-502.838h537.331v56.994c-3.099 2.695-6.063 5.659-9.162 8.623-20.64 20.784-37.379 45.473-49.010 72.855l-0.573 1.519v0.135c-10.991 25.796-17.389 55.803-17.408 87.302v0.007c0 73.566 32.472 137.836 76.153 197.928zM908.557 194.964c6.737 17.112 10.509 36.109 10.509 56.051 0 41.364-15.629 80.842-38.966 119.242-31.69 52.008-73.351 97.549-112.586 143.899-64.566-76.261-151.525-159.394-151.525-263.141 0-20.615 4.177-40.152 11.453-57.802 7.68-18.459 19.133-35.032 32.876-49.179 14.174-14.147 31.043-25.465 49.502-33.011l1.617-0.674c17.112-7.006 36.109-10.644 56.077-10.644 20.749 0 40.313 4.042 58.125 11.318 18.189 7.545 35.032 18.998 49.044 33.011l1.779 1.617c13.204 13.474 23.983 29.777 31.151 47.562zM258.533 538.274c41.256 0 75.264-33.954 75.264-75.048v-183.781c-0.228-41.486-33.782-75.060-75.239-75.318h-56.534c-41.473 0.214-75.023 33.83-75.129 75.308v183.791c0.228 41.384 33.738 74.866 75.112 75.048h0.018zM287.151 463.198c0 15.764-12.8 28.591-28.591 28.591h-56.589c-15.629 0-28.564-12.827-28.564-28.591v-183.997c0-15.899 12.935-28.726 28.564-28.726h56.589c15.791 0 28.591 12.827 28.591 28.726z" />
<glyph unicode="&#xe912;" glyph-name="batteries" horiz-adv-x="1222" d="M1175.023 826.137c26.095 0 47.17-21.372 47.17-47.566v-807.804c0-26.36-21.042-47.599-47.17-47.599h-1128.019c-25.989 0.131-47.006 21.229-47.006 47.236 0 0.128 0.001 0.256 0.002 0.383v-0.020 807.804c0 26.228 21.042 47.599 47.005 47.599h100.088v92.358c0 15.889 12.552 28.672 28.21 28.672h186.071c15.525 0 28.243-12.783 28.243-28.672v-92.391h442.963v92.391c0 15.889 12.75 28.672 28.243 28.672h185.906c15.69 0 28.243-12.783 28.243-28.672v-92.391zM889.063 826.137h129.42v63.851h-129.42zM203.545 826.137h129.586v63.851h-129.586zM1128.019 730.839h-1034.009v-712.242h1034.042zM881.069 531.324c-15.551 0.204-28.079 12.858-28.079 28.438 0 0.094 0 0.187 0.001 0.281v-0.014c0 0.030 0 0.066 0 0.101 0 15.573 12.531 28.219 28.060 28.406h145.129c15.657 0 28.21-12.75 28.21-28.507 0-15.922-12.552-28.705-28.21-28.705zM196.079 531.324c-15.72 0.056-28.441 12.812-28.441 28.54 0 0.058 0 0.116 0.001 0.174v-0.009c0 15.756 12.75 28.507 28.408 28.507h44.329v45.089c0 15.756 12.585 28.672 28.11 28.672 15.723 0 28.309-12.916 28.309-28.672v-45.122h44.461c15.525 0 28.276-12.75 28.276-28.507 0-0.059 0.001-0.129 0.001-0.199 0-15.663-12.632-28.375-28.264-28.506h-44.473v-44.924c0.001-0.098 0.002-0.215 0.002-0.331 0-15.682-12.647-28.409-28.298-28.539h-0.012c-15.559 0.241-28.080 12.91-28.080 28.504 0 0.129 0.001 0.258 0.003 0.386v-0.020 44.924z" />
<glyph unicode="&#xe913;" glyph-name="chevron-left-narrow" horiz-adv-x="573" d="M512-69.973l-498.347 484.693c-6.827 6.827-13.653 13.653-13.653 27.307 0 6.827 6.827 20.48 13.653 27.307l491.52 471.040c6.827 6.827 13.653 6.827 20.48 6.827 13.653 0 20.48-6.827 27.307-6.827 6.827-6.827 13.653-13.653 13.653-27.307 0-6.827-6.827-20.48-13.653-27.307l-464.213-443.733 477.867-457.387c6.827-6.827 13.653-13.653 13.653-27.307 0-6.827-6.827-20.48-13.653-27.307-6.827 0-6.827-6.827-13.653-6.827s-6.827 0-13.653 0c-13.653 0-20.48 6.827-27.307 6.827z" />
<glyph unicode="&#xe914;" glyph-name="chevron-right-narrow" horiz-adv-x="573" d="M34.133-76.8c-6.827 0-6.827 0-13.653 0s-6.827 6.827-13.653 6.827c0 6.827-6.827 20.48-6.827 27.307s6.827 20.48 13.653 27.307l477.867 457.387-471.040 443.733c-6.827 6.827-13.653 20.48-13.653 27.307s6.827 20.48 13.653 27.307c6.827 0 13.653 6.827 20.48 6.827 13.653 0 20.48 0 27.307-6.827l491.52-471.040c6.827-6.827 13.653-13.653 13.653-27.307 0-6.827-6.827-20.48-13.653-27.307l-498.347-484.693c-6.827 0-13.653-6.827-27.307-6.827z" />
<glyph unicode="&#xe915;" glyph-name="delivery" horiz-adv-x="1300" d="M1236.677 25.6c0 0-3.938 0-3.938 0h-78.769v78.769h66.954v295.385l-19.692 23.631-129.969 169.354h-126.031v-307.2c0-23.631-15.754-39.385-39.385-39.385h-669.538v-133.908c0-3.938 7.877-7.877 15.754-7.877h27.569v-78.769h-27.569c-51.2 0-94.523 39.385-94.523 90.585v173.292c0 23.631 15.754 39.385 39.385 39.385h669.538v303.262c0 23.631 15.754 39.385 39.385 39.385h185.108c11.815 0 23.631-3.938 31.508-15.754l169.354-216.615c3.938-7.877 7.877-15.754 7.877-23.631v-326.892c0-19.692-7.877-35.446-23.631-47.262-11.815-7.877-23.631-15.754-39.385-15.754zM1232.738 104.369v0c0 0 0 0 0 0zM850.708 25.6h-271.754v78.769h271.754v-78.769zM185.108 187.077c-19.692 0-35.446 15.754-35.446 35.446v145.723c0 19.692 15.754 35.446 35.446 35.446s35.446-15.754 35.446-35.446v-39.385h622.277v504.123c0 7.877-7.877 15.754-15.754 15.754h-590.769c-7.877 0-15.754-7.877-15.754-15.754v-59.077h-70.892v59.077c0 47.262 39.385 82.708 90.585 82.708h586.831c51.2 0 90.585-35.446 90.585-82.708v-571.077h-697.108v-39.385c0-19.692-15.754-35.446-35.446-35.446zM1024-76.8c-86.646 0-157.538 70.892-157.538 157.538s70.892 157.538 157.538 157.538 157.538-70.892 157.538-157.538-70.892-157.538-157.538-157.538zM1024 159.508c-43.323 0-78.769-35.446-78.769-78.769s35.446-78.769 78.769-78.769 78.769 35.446 78.769 78.769-35.446 78.769-78.769 78.769zM433.231-76.8c-86.646 0-157.538 70.892-157.538 157.538s70.892 157.538 157.538 157.538 157.538-70.892 157.538-157.538-70.892-157.538-157.538-157.538zM433.231 159.508c-43.323 0-78.769-35.446-78.769-78.769s35.446-78.769 78.769-78.769 78.769 35.446 78.769 78.769-35.446 78.769-78.769 78.769zM1142.154 277.662h118.154v-39.385h-118.154v39.385zM984.615 525.785c0-15.754 11.815-27.569 27.569-27.569h161.477l-27.569 55.138h-133.908c-15.754 0-27.569-11.815-27.569-27.569zM984.615 344.615c0-15.754 11.815-27.569 27.569-27.569h220.554c15.754 0 27.569 11.815 27.569 27.569s-11.815 27.569-27.569 27.569h-220.554c-15.754-3.938-27.569-15.754-27.569-27.569zM98.462 498.215h165.415c19.692 0 31.508-15.754 31.508-31.508s-15.754-31.508-31.508-31.508h-165.415c-19.692 0-31.508 15.754-31.508 31.508s11.815 31.508 31.508 31.508zM66.954 624.246h295.385c15.754 0 31.508-15.754 31.508-31.508s-15.754-31.508-31.508-31.508h-295.385c-19.692 0-35.446 15.754-35.446 31.508s15.754 31.508 35.446 31.508zM31.508 750.277h228.431c19.692 0 31.508-15.754 31.508-31.508s-15.754-31.508-31.508-31.508h-228.431c-15.754 0-31.508 15.754-31.508 31.508s15.754 31.508 31.508 31.508z" />
<glyph unicode="&#xe916;" glyph-name="zoom-in" d="M786.36 194.374c151.797 169.473 146.316 430.924-16.496 593.728-166.526 166.368-435.608 168.782-605.089 5.414-169.488-163.361-176.97-432.353-16.827-604.879 160.143-172.534 428.947-185.082 604.458-28.218l198.985-198.985c9.391-9.308 24.534-9.271 33.88 0.075s9.383 24.489 0.075 33.88zM192.632 210.87c-150.714 149.323-151.849 392.548-2.534 543.277 149.323 150.714 392.556 151.849 543.277 2.534l2.534-2.534c149.782-149.782 149.782-393.488 0-543.277-149.789-149.789-393.503-149.782-543.277 0zM608.308 506.569h-120.083v119.977c0 13.256-10.744 24.007-24.007 24.007-13.248 0-24.007-10.752-24.007-24.007v-119.977h-119.985c-13.248 0-24.007-10.759-24.007-24.007 0-13.263 10.759-24.007 24.007-24.007h119.985v-120.090c0-13.256 10.759-24.007 24.007-24.007 13.263 0 24.007 10.752 24.007 24.007v120.090h120.083c13.263 0 24.007 10.744 24.007 24.007 0 13.248-10.744 24.007-24.007 24.007z" />
</font>
</defs>
</svg>
