<svg xmlns="http://www.w3.org/2000/svg" xmlns:xlink="http://www.w3.org/1999/xlink" width="83" height="100" viewBox="0 0 83 100"><defs><path id="be6oa" d="M405.52 2383.1h-22.26v-5.3h22.26zm-26.17 0h-22.27v-17.58h22.27zm-25.03-49.31v-14.7c0-7.4 6.23-13.42 13.9-13.42 7.66 0 13.9 6.02 13.9 13.42v14.7c0 2.22-1.61 4.1-3.77 4.61v-18.8a1.95 1.95 0 0 0-3.9 0v42.02h-4.15v-22.21a1.95 1.95 0 0 0-3.91 0v22.2h-4.15v-42.01a1.95 1.95 0 1 0-3.9 0v18.86a4.82 4.82 0 0 1-4.02-4.67zm13.42-42.88a5.43 5.43 0 1 1-.02 10.87 5.43 5.43 0 0 1 .02-10.87zm-14.56 92.18H330.9v-10.32h22.27zm54.3-9.2h-24.22v-10.32c0-1.08-.88-1.95-1.96-1.95h-2.95v-19.25a8.75 8.75 0 0 0 7.67-8.58v-14.7c0-7.43-4.84-13.79-11.6-16.24a9.35 9.35 0 1 0-16.01-6.51 9.3 9.3 0 0 0 2.92 6.77 17.35 17.35 0 0 0-10.92 15.98v14.7a8.75 8.75 0 0 0 7.93 8.61v19.22h-3.21c-1.08 0-1.96.87-1.96 1.95v5.3h-24.22c-1.08 0-1.95.87-1.95 1.95v14.23c0 1.08.87 1.95 1.95 1.95h78.53c1.08 0 1.95-.87 1.95-1.95v-9.2c0-1.08-.87-1.95-1.95-1.95z"/></defs><g><g transform="translate(-327 -2287)"><use fill="#f9a31a" xlink:href="#be6oa"/></g></g></svg>