<svg xmlns="http://www.w3.org/2000/svg" xmlns:xlink="http://www.w3.org/1999/xlink" width="100" height="91" viewBox="0 0 100 91"><defs><path id="l860a" d="M389.01 2063h-23.79a6.67 6.67 0 0 0-6.66 6.66v3.07a1.95 1.95 0 1 0 3.9 0v-3.07a2.76 2.76 0 0 1 2.76-2.75h23.8a2.76 2.76 0 0 1 2.75 2.75v3.07a1.95 1.95 0 1 0 3.9 0v-3.07a6.67 6.67 0 0 0-6.66-6.66z"/><path id="l860b" d="M423.1 2104.49l-37.08 10.7v-3.13c0-1.08-.88-1.96-1.95-1.96h-14.14c-1.07 0-1.95.88-1.95 1.96v3.07l-37.07-10.93v-15.88c0-3.1 2.52-5.63 5.63-5.63h7.89v6.76a1.95 1.95 0 1 0 3.9 0v-6.76h56.63v6.76a1.95 1.95 0 1 0 3.9 0v-6.76h8.6c3.1 0 5.63 2.52 5.63 5.63zm-51.21 19.04V2114h10.22v9.52zm48.61 10.83h-5.61a9.23 9.23 0 0 0-9.22 9.22v5.62h-57.34v-5.62a9.23 9.23 0 0 0-9.22-9.22h-5.61v-25.32l34.48 10.17v6.27c0 1.08.88 1.96 1.95 1.96h14.14c1.07 0 1.95-.88 1.95-1.96v-6.22l34.48-9.96zm0 14.44a.4.4 0 0 1-.4.4h-10.53v-5.62a5.32 5.32 0 0 1 5.32-5.31h5.61zm-86.6.4a.4.4 0 0 1-.4-.4v-10.53h5.61a5.32 5.32 0 0 1 5.32 5.31v5.62zm83.56-70.42h-80.92a9.55 9.55 0 0 0-9.54 9.54v17.34c0 .87.57 1.63 1.4 1.87l1.2.35v40.92c0 2.38 1.92 4.3 4.3 4.3h86.2c2.38 0 4.3-1.92 4.3-4.3v-40.63l1.19-.34c.83-.24 1.41-1 1.41-1.88v-17.63a9.55 9.55 0 0 0-9.54-9.54z"/></defs><g><g transform="translate(-327 -2063)"><use fill="#f9a31a" xlink:href="#l860a"/></g><g transform="translate(-327 -2063)"><use fill="#f9a31a" xlink:href="#l860b"/></g></g></svg>