<svg xmlns="http://www.w3.org/2000/svg" xmlns:xlink="http://www.w3.org/1999/xlink" width="95.52" height="100" viewBox="0 0 95.52 100"><defs><path id="qvt2a" d="M382.81 2417.83l-1.75-12.3.71-2.15 4.13 3.53a2.08 2.08 0 0 0 3.19-.58l4.99-9.2c2.8 1.99 6.51 3.55 9.51 4.7.56.2 1.14.48 1.8.8 1.73.83 3.88 1.86 7.78 2.9l.24.08a7.26 7.26 0 0 1 4.94 6.86v5.36zm7.26-28.8l1.18 4.57-4.6 8.47-6.94-5.94c3.4-1.32 7.04-3.8 10.36-7.1zm-19.16 28.8l1.49-10.41h4.72l1.49 10.41zm-8.05-15.76l-4.6-8.47 1.18-4.58c3.33 3.3 6.97 5.8 10.36 7.1zm3.84 15.76h-35.53v-5.36c0-3.1 1.98-5.85 4.94-6.86l.24-.07a40.38 40.38 0 0 0 7.77-2.9c.67-.33 1.25-.6 1.81-.82 3-1.14 6.71-2.7 9.51-4.69l4.99 9.2a2.08 2.08 0 0 0 3.18.58l4.13-3.53.72 2.15zm11.66-17.38l-.94 2.8h-5.33l-.93-2.8 3.6-3.08zm-26.3-36.8c0-1.43.1-2.8.27-4.15h44.86c.18 1.34.27 2.72.27 4.14 0 6.86-3.12 14.36-8.57 20.56-2.39 2.72-5.07 5-7.75 6.6-2.39 1.41-4.65 2.2-6.38 2.2-1.73 0-4-.79-6.39-2.2a33.09 33.09 0 0 1-7.75-6.6c-5.44-6.2-8.56-13.7-8.56-20.56zm5.02-26a25 25 0 0 1 7.26-5.06v8.17a2.08 2.08 0 0 0 4.17 0v-13.23c1.53-.6 4-1.36 6.25-1.36 2.38 0 4.84.81 6.25 1.36v12.96a2.08 2.08 0 0 0 4.17 0v-7.9a24.96 24.96 0 0 1 7.25 5.07c4.73 4.72 7.33 11 7.33 17.67h-50c0-6.67 2.6-12.95 7.32-17.67zm57.56 63.98l-.35-.1c-5.17-1.4-6.92-2.73-9.22-3.6-5.6-2.13-8.35-3.86-9.7-5.07l-1.2-4.66-.03-3.86c4.36-5.85 7.49-13.14 7.49-20.7 0-1.42-.09-2.8-.24-4.14H406a2.08 2.08 0 0 0 0-4.17h-2.08a29.18 29.18 0 0 0-18.75-27.24v-1.92c0-.8-.45-1.52-1.16-1.87-.2-.1-4.69-2.3-9.26-2.3-4.58 0-9.07 2.2-9.26 2.3a2.08 2.08 0 0 0-1.16 1.87v1.92a29.17 29.17 0 0 0-18.75 27.24h-2.08a2.08 2.08 0 0 0 0 4.17h4.62a35.84 35.84 0 0 0-.24 4.14c0 7.56 3.12 14.85 7.49 20.7l-.03 3.86-1.2 4.66c-1.35 1.21-4.1 2.94-9.7 5.07-2.3.87-4.05 2.2-9.22 3.6l-.36.1a11.43 11.43 0 0 0-7.87 10.84v9.53h95.52v-9.53c0-4.92-3.17-9.29-7.88-10.84z"/></defs><g><g transform="translate(-327 -2322)"><use fill="#f9a31a" xlink:href="#qvt2a"/></g></g></svg>