<svg xmlns="http://www.w3.org/2000/svg" xmlns:xlink="http://www.w3.org/1999/xlink" width="99.81" height="99.8" viewBox="0 0 99.81 99.8"><defs><path id="3spea" d="M393.2 2733.56a30.7 30.7 0 0 1-18.3 28.14 30.69 30.69 0 0 1-18.3-28.14v-10.03a29.3 29.3 0 0 0 17.06-6.72l1.24-1.04 1.25 1.04a29.32 29.32 0 0 0 17.05 6.73v10.02zm1.67-13.3a25.96 25.96 0 0 1-16.59-6l-2.31-1.93a1.66 1.66 0 0 0-2.13 0l-2.31 1.92a25.96 25.96 0 0 1-16.59 6c-.91 0-1.66.75-1.66 1.67v11.64a34 34 0 0 0 20.98 31.48 1.64 1.64 0 0 0 1.28 0 34 34 0 0 0 20.99-31.48v-11.64c0-.92-.74-1.66-1.66-1.66z"/><path id="3speb" d="M409.83 2748.54v26.61c0 1.84-1.5 3.33-3.33 3.33h-63.2a3.33 3.33 0 0 1-3.33-3.33v-76.52c0-1.83 1.49-3.32 3.32-3.32h24.95v-3.33H343.3a6.66 6.66 0 0 0-6.65 6.65v76.52a6.66 6.66 0 0 0 6.65 6.65h63.21a6.66 6.66 0 0 0 6.66-6.65v-26.61z"/><path id="3spec" d="M406.51 2691.98h-24.95v3.33h24.95c1.84 0 3.33 1.49 3.33 3.32v39.93h3.33v-39.93a6.66 6.66 0 0 0-6.66-6.65z"/><path id="3sped" d="M353.44 2705.29a8.12 8.12 0 0 1 4.96-5.93l10.46-4.17c.54-.22.93-.7 1.03-1.27l.85-5.02a4.18 4.18 0 0 1 4.16-3.57 4.2 4.2 0 0 1 4.17 3.6l.84 5c.1.57.5 1.04 1.03 1.26l10.46 4.17a8.12 8.12 0 0 1 4.96 5.93h-42.92zm39.2-9.01l-9.6-3.83-.69-4.05a7.5 7.5 0 0 0-7.45-6.4 7.48 7.48 0 0 0-7.44 6.38l-.7 4.07-9.6 3.83a11.44 11.44 0 0 0-7.21 10.67c0 .92.75 1.66 1.66 1.66h46.58c.92 0 1.66-.74 1.66-1.66 0-4.72-2.82-8.91-7.22-10.67z"/><path id="3spee" d="M404.85 2698.63h-8.32v3.33h6.65v43.25h3.33v-44.92c0-.91-.74-1.66-1.66-1.66z"/><path id="3spef" d="M403.18 2756.85v14.97h-56.55v-69.86h8.6v-3.33h-10.27c-.91 0-1.66.75-1.66 1.66v73.2c0 .91.75 1.66 1.66 1.66h59.89c.92 0 1.66-.75 1.66-1.67v-16.63z"/><path id="3speg" d="M349.95 2715.27v-3.33h9.98v3.33z"/><path id="3speh" d="M349.95 2761.85v-3.33h6.65v3.33z"/><path id="3spei" d="M349.95 2768.5v-3.33h9.98v3.33z"/><path id="3spej" d="M386.96 2730.8l-12.13 13.65-5.4-5.4-2.36 2.35 6.65 6.65c.31.32.74.49 1.18.49h.05c.46-.01.89-.22 1.2-.56l13.3-14.97z"/><path id="3spek" d="M394.15 2765.17h-2.61v-2.66l26.64-28.22 2.64 2.64zm30.17-29.45l-5-5a1.66 1.66 0 0 0-2.39.03l-28.27 29.95c-.29.31-.45.72-.45 1.14v5c0 .92.74 1.66 1.66 1.66h5c.45 0 .89-.19 1.2-.52l28.28-29.94c.62-.66.6-1.69-.03-2.32z"/><path id="3spel" d="M416.97 2743.06l-4.99-4.99 2.36-2.35 4.99 4.99z"/><path id="3spem" d="M329.99 2695.31V2682h3.33v13.31z"/><path id="3spen" d="M325 2690.32v-3.33h13.31v3.33z"/></defs><g><g transform="translate(-325 -2682)"><use fill="#f9a31a" xlink:href="#3spea"/></g><g transform="translate(-325 -2682)"><use fill="#f9a31a" xlink:href="#3speb"/></g><g transform="translate(-325 -2682)"><use fill="#f9a31a" xlink:href="#3spec"/></g><g transform="translate(-325 -2682)"><use fill="#f9a31a" xlink:href="#3sped"/></g><g transform="translate(-325 -2682)"><use fill="#f9a31a" xlink:href="#3spee"/></g><g transform="translate(-325 -2682)"><use fill="#f9a31a" xlink:href="#3spef"/></g><g transform="translate(-325 -2682)"><use fill="#f9a31a" xlink:href="#3speg"/></g><g transform="translate(-325 -2682)"><use fill="#f9a31a" xlink:href="#3speh"/></g><g transform="translate(-325 -2682)"><use fill="#f9a31a" xlink:href="#3spei"/></g><g transform="translate(-325 -2682)"><use fill="#f9a31a" xlink:href="#3spej"/></g><g transform="translate(-325 -2682)"><use fill="#f9a31a" xlink:href="#3spek"/></g><g transform="translate(-325 -2682)"><use fill="#f9a31a" xlink:href="#3spel"/></g><g transform="translate(-325 -2682)"><use fill="#f9a31a" xlink:href="#3spem"/></g><g transform="translate(-325 -2682)"><use fill="#f9a31a" xlink:href="#3spen"/></g></g></svg>