<svg xmlns="http://www.w3.org/2000/svg" xmlns:xlink="http://www.w3.org/1999/xlink" width="96.67" height="100" viewBox="0 0 96.67 100"><defs><path id="difda" d="M421.33 1566.33c0 1.84-1.5 3.34-3.33 3.34h-83.33a3.34 3.34 0 0 1-3.34-3.34v-66.66c0-1.84 1.5-3.34 3.34-3.34H418c1.84 0 3.33 1.5 3.33 3.34v66.66zM418 1493h-83.33a6.67 6.67 0 0 0-6.67 6.67v66.66a6.67 6.67 0 0 0 6.67 6.67H418a6.67 6.67 0 0 0 6.67-6.67v-66.66A6.67 6.67 0 0 0 418 1493z"/><path id="difdb" d="M366.63 1589.67l2.78-16.67h13.85l2.77 16.67zm23.01 1.4l-3.33-20c-.13-.81-.83-1.4-1.64-1.4H368c-.82 0-1.51.59-1.64 1.4l-3.34 20a1.67 1.67 0 0 0 1.65 1.93H388a1.66 1.66 0 0 0 1.64-1.94z"/><path id="difdc" d="M331.33 1559.66v-3.33h93.33v3.33z"/><path id="difdd" d="M393 1589.67h-33.33a1.67 1.67 0 1 0 0 3.33H393a1.67 1.67 0 1 0 0-3.33z"/><path id="difde" d="M389.97 1534.67H362.7l-4.56-21.67h36.17zm7.65-24.4a1.66 1.66 0 0 0-1.28-.6h-38.92l-1.12-5.35a1.67 1.67 0 0 0-1.63-1.32h-5v3.33h3.65l6.38 30.35c.17.77.85 1.32 1.64 1.32h30c.8 0 1.47-.56 1.63-1.34l5-25c.1-.49-.03-1-.35-1.38z"/><path id="difdf" d="M346.33 1506.34a1.67 1.67 0 1 1 0-3.34 1.67 1.67 0 0 1 0 3.34zm0-6.67a5 5 0 1 0 .01 10.01 5 5 0 0 0-.01-10.01z"/><path id="difdg" d="M364.37 1543l-1.4-6.99-3.27.66 1.67 8.33c.15.78.83 1.34 1.63 1.34h26.67V1543z"/><path id="difdh" d="M389.67 1549.67a1.67 1.67 0 1 1 0-3.34 1.67 1.67 0 0 1 0 3.34zm0-6.67a5 5 0 1 0 .01 10.01 5 5 0 0 0-.01-10.01z"/><path id="difdi" d="M363 1549.67a1.67 1.67 0 1 1 0-3.34 1.67 1.67 0 0 1 0 3.34zm0-6.67a5 5 0 1 0 .01 10.01A5 5 0 0 0 363 1543z"/><path id="difdj" d="M374.67 1536.33V1513H378v23.33z"/><path id="difdk" d="M366.34 1536.44l-1.67-25 3.32-.21 1.67 25z"/><path id="difdl" d="M386.33 1536.44l-3.32-.22 1.67-25 3.32.23z"/><path id="difdm" d="M401.34 1533c-.93 0-1.67.75-1.67 1.67v6.66H403v-5h5V1533z"/><path id="difdn" d="M406.82 1542.5l-6.67-6.66 2.36-2.36 6.67 6.67z"/><path id="difdo" d="M358 1521.33V1518h36.67v3.33z"/><path id="difdp" d="M359.67 1529.66v-3.33H393v3.33z"/></defs><g><g transform="translate(-328 -1493)"><use fill="#f9a31a" xlink:href="#difda"/></g><g transform="translate(-328 -1493)"><use fill="#f9a31a" xlink:href="#difdb"/></g><g transform="translate(-328 -1493)"><use fill="#f9a31a" xlink:href="#difdc"/></g><g transform="translate(-328 -1493)"><use fill="#f9a31a" xlink:href="#difdd"/></g><g transform="translate(-328 -1493)"><use fill="#f9a31a" xlink:href="#difde"/></g><g transform="translate(-328 -1493)"><use fill="#f9a31a" xlink:href="#difdf"/></g><g transform="translate(-328 -1493)"><use fill="#f9a31a" xlink:href="#difdg"/></g><g transform="translate(-328 -1493)"><use fill="#f9a31a" xlink:href="#difdh"/></g><g transform="translate(-328 -1493)"><use fill="#f9a31a" xlink:href="#difdi"/></g><g transform="translate(-328 -1493)"><use fill="#f9a31a" xlink:href="#difdj"/></g><g transform="translate(-328 -1493)"><use fill="#f9a31a" xlink:href="#difdk"/></g><g transform="translate(-328 -1493)"><use fill="#f9a31a" xlink:href="#difdl"/></g><g transform="translate(-328 -1493)"><use fill="#f9a31a" xlink:href="#difdm"/></g><g transform="translate(-328 -1493)"><use fill="#f9a31a" xlink:href="#difdn"/></g><g transform="translate(-328 -1493)"><use fill="#f9a31a" xlink:href="#difdo"/></g><g transform="translate(-328 -1493)"><use fill="#f9a31a" xlink:href="#difdp"/></g></g></svg>