<svg xmlns="http://www.w3.org/2000/svg" xmlns:xlink="http://www.w3.org/1999/xlink" width="100" height="100" viewBox="0 0 100 100"><defs><path id="41gya" d="M423.67 2183.67h-5v-58.34c0-.92-.75-1.66-1.67-1.66h-80c-.92 0-1.67.74-1.67 1.66v58.34h-5v-67.35l46.64-25.74 46.7 27.37zm2.5-68.1l-48.33-28.34c-.5-.3-1.13-.3-1.64-.02l-48.34 26.66c-.53.3-.86.86-.86 1.46v70c0 .92.75 1.67 1.67 1.67H337c.92 0 1.67-.75 1.67-1.67V2127h76.66v58.33c0 .92.75 1.67 1.67 1.67h8.33c.92 0 1.67-.75 1.67-1.67V2117c0-.6-.31-1.14-.82-1.44z"/><path id="41gyb" d="M408.67 2183.67H392V2167h16.67v16.67zm1.67-20h-20c-.93 0-1.67.74-1.67 1.67v20c0 .92.74 1.66 1.67 1.66h20c.92 0 1.66-.74 1.66-1.66v-20c0-.93-.74-1.67-1.66-1.67z"/><path id="41gyc" d="M402 2165.33v5h-3.34v-5h-3.33v6.67c0 .92.74 1.66 1.67 1.66h6.66c.92 0 1.67-.74 1.67-1.66v-6.67z"/><path id="41gyd" d="M388.67 2183.67H372V2167h16.67zm1.67-20h-20c-.92 0-1.67.74-1.67 1.67v20c0 .92.75 1.66 1.67 1.66h20c.92 0 1.66-.74 1.66-1.66v-20c0-.93-.74-1.67-1.66-1.67z"/><path id="41gye" d="M382 2165.33v5h-3.34v-5h-3.33v6.67c0 .92.75 1.66 1.67 1.66h6.66c.92 0 1.67-.74 1.67-1.66v-6.67z"/><path id="41gyf" d="M408.67 2163.67H392V2147h16.67v16.67zm1.67-20h-20c-.93 0-1.67.74-1.67 1.67v20c0 .92.74 1.66 1.67 1.66h20c.92 0 1.66-.74 1.66-1.66v-20c0-.93-.74-1.67-1.66-1.67z"/><path id="41gyg" d="M402 2145.33v5h-3.34v-5h-3.33v6.67c0 .92.74 1.66 1.67 1.66h6.66c.92 0 1.67-.74 1.67-1.66v-6.67z"/><path id="41gyh" d="M337 2140.33V2137h80v3.33z"/><path id="41gyi" d="M337 2133.66v-3.33h80v3.33z"/><path id="41gyj" d="M383.67 2117h-13.34v-3.34h13.34zm1.66-6.67h-16.66c-.92 0-1.67.75-1.67 1.67v6.66c0 .92.75 1.67 1.67 1.67h16.66c.92 0 1.67-.75 1.67-1.67V2112c0-.92-.75-1.67-1.67-1.67z"/></defs><g><g transform="translate(-327 -2087)"><use fill="#f9a31a" xlink:href="#41gya"/></g><g transform="translate(-327 -2087)"><use fill="#f9a31a" xlink:href="#41gyb"/></g><g transform="translate(-327 -2087)"><use fill="#f9a31a" xlink:href="#41gyc"/></g><g transform="translate(-327 -2087)"><use fill="#f9a31a" xlink:href="#41gyd"/></g><g transform="translate(-327 -2087)"><use fill="#f9a31a" xlink:href="#41gye"/></g><g transform="translate(-327 -2087)"><use fill="#f9a31a" xlink:href="#41gyf"/></g><g transform="translate(-327 -2087)"><use fill="#f9a31a" xlink:href="#41gyg"/></g><g transform="translate(-327 -2087)"><use fill="#f9a31a" xlink:href="#41gyh"/></g><g transform="translate(-327 -2087)"><use fill="#f9a31a" xlink:href="#41gyi"/></g><g transform="translate(-327 -2087)"><use fill="#f9a31a" xlink:href="#41gyj"/></g></g></svg>