<svg xmlns="http://www.w3.org/2000/svg" xmlns:xlink="http://www.w3.org/1999/xlink" width="100" height="100" viewBox="0 0 100 100"><defs><path id="2p1wa" d="M383.67 1178.67v21.66c0 1.84-1.5 3.34-3.34 3.34h-46.66a3.34 3.34 0 0 1-3.34-3.34v-61.66c0-1.84 1.5-3.34 3.34-3.34H352V1132h-18.33a6.67 6.67 0 0 0-6.67 6.67v61.66a6.67 6.67 0 0 0 6.67 6.67h46.66a6.67 6.67 0 0 0 6.67-6.67v-21.66z"/><path id="2p1wb" d="M380.33 1132H362v3.33h18.33c1.84 0 3.34 1.5 3.34 3.34v30H387v-30a6.67 6.67 0 0 0-6.67-6.67z"/><path id="2p1wc" d="M377 1185.34V1197h-40v-55h6.67v-3.33h-8.33c-.92 0-1.67.75-1.67 1.67v58.33c0 .92.75 1.67 1.67 1.67h43.33c.92 0 1.67-.75 1.67-1.67v-13.33H377z"/><path id="2p1wd" d="M378.66 1138.67h-8.33v3.33H377v33.34h3.33v-35c0-.92-.74-1.67-1.67-1.67z"/><path id="2p1we" d="M344.2 1143.67l2.39-8.33h5.4c.93 0 1.67-.75 1.67-1.67v-3.33a3.34 3.34 0 0 1 6.67 0v3.33c0 .92.75 1.67 1.67 1.67h5.4l2.39 8.33zm29.4 1.2l-3.34-11.66c-.2-.71-.85-1.2-1.6-1.2h-5v-1.67a6.67 6.67 0 0 0-13.33 0v1.66h-5c-.74 0-1.4.5-1.6 1.21l-3.34 11.67a1.66 1.66 0 0 0 1.6 2.12h30a1.66 1.66 0 0 0 1.6-2.12z"/><path id="2p1wf" d="M350.33 1158.66v-3.33H372v3.33z"/><path id="2p1wg" d="M343.33 1159.67l-2.67-2 5-6.67 2.67 2z"/><path id="2p1wh" d="M350.33 1168.66v-3.33H372v3.33z"/><path id="2p1wi" d="M343.33 1169.66l-2.67-2 5-6.67 2.67 2z"/><path id="2p1wj" d="M350.33 1178.66v-3.33H372v3.33z"/><path id="2p1wk" d="M350.33 1188.66v-3.33H367v3.33z"/><path id="2p1wl" d="M343.33 1179.66l-2.67-2 5-6.67 2.67 2z"/><path id="2p1wm" d="M343.33 1189.67l-2.67-2 5-6.67 2.67 2z"/><path id="2p1wn" d="M425.33 1107H372c-.92 0-1.67.75-1.67 1.67v25h3.33v-23.34h50V1167h-28.33v3.33h30c.92 0 1.67-.74 1.67-1.66v-60c0-.92-.75-1.67-1.67-1.67z"/><path id="2p1wo" d="M372 1128.66v-3.33h53.33v3.33z"/><path id="2p1wp" d="M403.66 1135.33h-10v-25h10zm1.67-28.33H392c-.93 0-1.67.75-1.67 1.67V1137c0 .92.74 1.67 1.67 1.67h13.33c.92 0 1.67-.75 1.67-1.67v-28.33c0-.92-.75-1.67-1.67-1.67z"/><path id="2p1wq" d="M417 1163.66v-3.33h3.33v3.33z"/><path id="2p1wr" d="M410.33 1163.66v-3.33h3.33v3.33z"/><path id="2p1ws" d="M371.3 1190.33h-2.64v-2.64l28.34-28.34 2.64 2.65zm31.87-29.51l-5-5a1.66 1.66 0 0 0-2.35 0l-30 30c-.32.31-.49.73-.49 1.18v5c0 .92.75 1.66 1.67 1.66h5c.44 0 .86-.17 1.17-.48l30-30c.66-.66.66-1.71 0-2.36z"/><path id="2p1wt" d="M395.82 1168.18l-5-5 2.35-2.35 5 5z"/></defs><g><g transform="translate(-327 -1107)"><use fill="#f9a31a" xlink:href="#2p1wa"/></g><g transform="translate(-327 -1107)"><use fill="#f9a31a" xlink:href="#2p1wb"/></g><g transform="translate(-327 -1107)"><use fill="#f9a31a" xlink:href="#2p1wc"/></g><g transform="translate(-327 -1107)"><use fill="#f9a31a" xlink:href="#2p1wd"/></g><g transform="translate(-327 -1107)"><use fill="#f9a31a" xlink:href="#2p1we"/></g><g transform="translate(-327 -1107)"><use fill="#f9a31a" xlink:href="#2p1wf"/></g><g transform="translate(-327 -1107)"><use fill="#f9a31a" xlink:href="#2p1wg"/></g><g transform="translate(-327 -1107)"><use fill="#f9a31a" xlink:href="#2p1wh"/></g><g transform="translate(-327 -1107)"><use fill="#f9a31a" xlink:href="#2p1wi"/></g><g transform="translate(-327 -1107)"><use fill="#f9a31a" xlink:href="#2p1wj"/></g><g transform="translate(-327 -1107)"><use fill="#f9a31a" xlink:href="#2p1wk"/></g><g transform="translate(-327 -1107)"><use fill="#f9a31a" xlink:href="#2p1wl"/></g><g transform="translate(-327 -1107)"><use fill="#f9a31a" xlink:href="#2p1wm"/></g><g transform="translate(-327 -1107)"><use fill="#f9a31a" xlink:href="#2p1wn"/></g><g transform="translate(-327 -1107)"><use fill="#f9a31a" xlink:href="#2p1wo"/></g><g transform="translate(-327 -1107)"><use fill="#f9a31a" xlink:href="#2p1wp"/></g><g transform="translate(-327 -1107)"><use fill="#f9a31a" xlink:href="#2p1wq"/></g><g transform="translate(-327 -1107)"><use fill="#f9a31a" xlink:href="#2p1wr"/></g><g transform="translate(-327 -1107)"><use fill="#f9a31a" xlink:href="#2p1ws"/></g><g transform="translate(-327 -1107)"><use fill="#f9a31a" xlink:href="#2p1wt"/></g></g></svg>