<svg xmlns="http://www.w3.org/2000/svg" xmlns:xlink="http://www.w3.org/1999/xlink" width="98" height="100" viewBox="0 0 98 100"><defs><path id="7rria" d="M406.63 1872.7h-12v-17.34c0-1.76.7-3.4 1.96-4.63a6.4 6.4 0 0 1 4.49-1.83h.2a6.6 6.6 0 0 1 6.27 6.63v16.24c0 .5-.41.92-.92.92zm-15.9-17.42v82.23a3.4 3.4 0 0 1-3.4 3.4H334.3a3.4 3.4 0 0 1-3.4-3.4v-82.15c0-3.56 2.9-6.46 6.46-6.46h55.63a10.26 10.26 0 0 0-2.26 6.38zm10.65-10.28h-64.03c-5.68 0-10.3 4.6-10.35 10.28v82.23c0 4.02 3.28 7.3 7.3 7.3h53.03c4.03 0 7.3-3.28 7.3-7.3v-60.92h12a4.83 4.83 0 0 0 4.82-4.82v-16.24c0-5.65-4.52-10.37-10.07-10.53z"/><path id="7rrib" d="M352.83 1883.35a11.53 11.53 0 0 1-11.51-11.52c0-6.35 5.16-11.51 11.51-11.51s11.52 5.16 11.52 11.51-5.17 11.52-11.52 11.52zm0-26.93c-8.5 0-15.41 6.91-15.41 15.41s6.91 15.42 15.41 15.42 15.42-6.92 15.42-15.42-6.92-15.41-15.42-15.41z"/><path id="7rric" d="M352.84 1874.54a2.71 2.71 0 0 1 0-5.42 1.95 1.95 0 0 0 0-3.9 6.62 6.62 0 0 0 0 13.22 1.95 1.95 0 0 0 0-3.9z"/><path id="7rrid" d="M380.67 1894.83h-41.3a1.95 1.95 0 0 0 0 3.9h41.3a1.95 1.95 0 0 0 0-3.9z"/><path id="7rrie" d="M380.67 1903.09h-41.3a1.95 1.95 0 0 0 0 3.9h41.3a1.95 1.95 0 0 0 0-3.9z"/><path id="7rrif" d="M360.81 1911.82h-21.44a1.95 1.95 0 0 0 0 3.9h21.44a1.95 1.95 0 0 0 0-3.9z"/><path id="7rrig" d="M419.11 1940.9H405.5l-1.78-17.83a3.07 3.07 0 0 1 3.07-2.98h11.04a3.07 3.07 0 0 1 3.07 2.98zm-3.69-28.93v4.22h-6.24v-4.22zm-5.07-17.65v8.14a1.95 1.95 0 0 0 3.9 0v-8.2l4.44 8.9-2.51 4.92h-7.77l-2.5-4.8zm8.97 22.03v-5.86l3.3-6.44c.27-.55.28-1.2 0-1.76l-8.58-17.17a1.95 1.95 0 0 0-3.5 0l-8.57 17.33c-.27.56-.27 1.21.02 1.76l3.29 6.3v5.84a6.98 6.98 0 0 0-5.46 7l1.96 19.7c.1 1 .94 1.75 1.94 1.75h17.16c1 0 1.84-.76 1.94-1.75l1.96-19.7v-.2a6.98 6.98 0 0 0-5.46-6.8z"/><path id="7rrih" d="M361.17 1931.23a1.95 1.95 0 0 0-2.65-.78c-.42.24-.95.18-1.32-.14a5.06 5.06 0 0 0-5.06-.95l-3.3 1.2c-.22.05-.45-.03-.63-.23l-.44-.46a4.53 4.53 0 0 0-4.69-1.28l-3.85 1.2a1.95 1.95 0 0 0 1.16 3.72l3.85-1.2c.23-.08.48 0 .67.2l.44.47a4.53 4.53 0 0 0 4.75 1.26l3.37-1.22c.4-.14.84-.06 1.16.22a5.07 5.07 0 0 0 5.77.63c.94-.52 1.29-1.7.77-2.64z"/><path id="7rrii" d="M363.07 1931.86a1.95 1.95 0 1 1 3.9 0 1.95 1.95 0 0 1-3.9 0z"/></defs><g><g transform="translate(-327 -1845)"><use fill="#f9a31a" xlink:href="#7rria"/></g><g transform="translate(-327 -1845)"><use fill="#f9a31a" xlink:href="#7rrib"/></g><g transform="translate(-327 -1845)"><use fill="#f9a31a" xlink:href="#7rric"/></g><g transform="translate(-327 -1845)"><use fill="#f9a31a" xlink:href="#7rrid"/></g><g transform="translate(-327 -1845)"><use fill="#f9a31a" xlink:href="#7rrie"/></g><g transform="translate(-327 -1845)"><use fill="#f9a31a" xlink:href="#7rrif"/></g><g transform="translate(-327 -1845)"><use fill="#f9a31a" xlink:href="#7rrig"/></g><g transform="translate(-327 -1845)"><use fill="#f9a31a" xlink:href="#7rrih"/></g><g transform="translate(-327 -1845)"><use fill="#f9a31a" xlink:href="#7rrii"/></g></g></svg>