<svg xmlns="http://www.w3.org/2000/svg" xmlns:xlink="http://www.w3.org/1999/xlink" width="95" height="100" viewBox="0 0 95 100"><defs><path id="vs6da" d="M411.54 3078.09h-12.26v-62.2c0-.74.6-1.34 1.34-1.34h9.58c.74 0 1.34.6 1.34 1.34zm-30.95 0h-12.26v-34.02c0-.74.6-1.34 1.34-1.34h9.58c.74 0 1.34.6 1.34 1.34zm-30.95 0h-12.27v-17.62c0-.74.6-1.34 1.35-1.34h9.57c.74 0 1.35.6 1.35 1.34zm70.1 0h-4.29v-62.2c0-2.9-2.36-5.25-5.25-5.25h-9.58a5.26 5.26 0 0 0-5.25 5.25v62.2H384.5v-34.02c0-2.9-2.36-5.25-5.25-5.25h-9.58a5.26 5.26 0 0 0-5.25 5.25v34.02h-10.88v-17.62c0-2.9-2.35-5.25-5.25-5.25h-9.57a5.26 5.26 0 0 0-5.25 5.25v17.62h-4.52a1.95 1.95 0 1 0 0 3.9h90.78a1.95 1.95 0 1 0 0-3.9z"/><path id="vs6db" d="M415.45 2984.05a1.95 1.95 0 0 0-2.05-2.05h-11.91a1.95 1.95 0 1 0 0 3.9h7.3l-19.31 19.31-7.28-7.28a1.95 1.95 0 0 0-2.77 0l-35.1 35.11a1.95 1.95 0 0 0 2.75 2.77l33.73-33.73 7.29 7.28c.76.76 2 .76 2.76 0l20.69-20.7v6.61a1.95 1.95 0 1 0 3.9 0v-11.12-.1z"/><path id="vs6dc" d="M337.16 3041.24a1.95 1.95 0 1 1 3.91 0 1.95 1.95 0 0 1-3.91 0z"/></defs><g><g transform="translate(-327 -2982)"><use fill="#f9a31a" xlink:href="#vs6da"/></g><g transform="translate(-327 -2982)"><use fill="#f9a31a" xlink:href="#vs6db"/></g><g transform="translate(-327 -2982)"><use fill="#f9a31a" xlink:href="#vs6dc"/></g></g></svg>