<svg xmlns="http://www.w3.org/2000/svg" xmlns:xlink="http://www.w3.org/1999/xlink" width="100" height="86.67" viewBox="0 0 100 86.67"><defs><path id="a0w5a" d="M355.34 1849a18.36 18.36 0 0 1-18.34-18.33c0-10.11 8.23-18.34 18.34-18.34 10.1 0 18.33 8.23 18.33 18.34 0 10.1-8.23 18.33-18.33 18.33zm0-40a21.7 21.7 0 0 0-21.67 21.67 21.7 21.7 0 0 0 21.67 21.66 21.7 21.7 0 0 0 21.66-21.66 21.7 21.7 0 0 0-21.66-21.67z"/><path id="a0w5b" d="M355.34 1809a3.34 3.34 0 1 1 0-6.67 3.34 3.34 0 0 1 0 6.67zm0-10a6.67 6.67 0 1 0 .01 13.35 6.67 6.67 0 0 0-.01-13.35z"/><path id="a0w5c" d="M353.67 1810.67v-5H357v5z"/><path id="a0w5d" d="M340.82 1816.84l-3.33-3.33 2.36-2.36 3.33 3.33z"/><path id="a0w5e" d="M336.5 1816.85l-2.35-2.36 6.67-6.67 2.36 2.36z"/><path id="a0w5f" d="M369.85 1816.84l-2.36-2.36 3.33-3.33 2.36 2.36z"/><path id="a0w5g" d="M374.15 1816.85l-6.67-6.67 2.36-2.36 6.67 6.67z"/><path id="a0w5h" d="M352 1830.66a3.33 3.33 0 1 1 6.67 0 3.33 3.33 0 0 1-6.67 0z"/><path id="a0w5i" d="M356.75 1831.55l-2.83-1.76 8.33-13.33 2.83 1.76z"/><path id="a0w5j" d="M353.67 1819v-3.33H357v3.33z"/><path id="a0w5k" d="M353.67 1845.66v-3.33H357v3.33z"/><path id="a0w5l" d="M348.06 1821.41l-1.67-2.88 2.88-1.67 1.67 2.88z"/><path id="a0w5m" d="M361.4 1844.48l-1.67-2.88 2.88-1.67 1.67 2.88z"/><path id="a0w5n" d="M344.4 1826.28l-2.89-1.67 1.67-2.88 2.88 1.67z"/><path id="a0w5o" d="M367.48 1839.6l-2.88-1.67 1.67-2.88 2.88 1.67z"/><path id="a0w5p" d="M340.33 1832.33V1829h3.33v3.33z"/><path id="a0w5q" d="M367 1832.33V1829h3.33v3.33z"/><path id="a0w5r" d="M343.19 1839.6l-1.67-2.88 2.88-1.67 1.67 2.88z"/><path id="a0w5s" d="M366.27 1826.27l-1.67-2.88 2.88-1.67 1.67 2.88z"/><path id="a0w5t" d="M349.27 1844.49l-2.88-1.67 1.67-2.88 2.88 1.67z"/><path id="a0w5u" d="M348.67 1882.34a6.67 6.67 0 1 1 .01-13.35 6.67 6.67 0 0 1-.01 13.35zm0-16.67a10.01 10.01 0 0 0 0 20 10.01 10.01 0 0 0 0-20z"/><path id="a0w5v" d="M347 1877.33V1874h3.33v3.33z"/><path id="a0w5w" d="M405.33 1882.34a6.67 6.67 0 1 1 .01-13.35 6.67 6.67 0 0 1-.01 13.35zm0-16.67a10.01 10.01 0 0 0 0 20 10.01 10.01 0 0 0 0-20z"/><path id="a0w5x" d="M403.67 1877.33V1874H407v3.33z"/><path id="a0w5y" d="M357 1877.33V1874h40v3.33z"/><path id="a0w5z" d="M426.3 1855.97l-11.23-8.02-7.39-22.2a5 5 0 0 0-4.74-3.42H375.33v3.33h27.6c.72 0 1.36.46 1.59 1.15l7.56 22.71c.11.34.33.63.62.83l10.96 7.84v15.8h-10v3.34h11.67c.92 0 1.67-.75 1.67-1.67v-18.33c0-.54-.26-1.04-.7-1.36z"/><path id="a0w5A" d="M330.33 1874v-47.67c0-.37.3-.67.67-.67h6v-3.33h-6a4 4 0 0 0-4 4v49.33c0 .93.75 1.67 1.67 1.67h11.66V1874z"/><path id="a0w5B" d="M418.67 1870.66v-3.33h6.67v3.33z"/><path id="a0w5C" d="M328.67 1870.66v-3.33h10v3.33z"/><path id="a0w5D" d="M398.67 1847.33c-.92 0-1.67-.74-1.67-1.66V1834c0-.92.75-1.67 1.67-1.67H407V1829h-8.33a5 5 0 0 0-5 5v11.67a5 5 0 0 0 5 5h15v-3.34z"/><path id="a0w5E" d="M397 1857.33V1854h6.67v3.33z"/><path id="a0w5F" d="M360.33 1870.66v-3.33H392v3.33z"/><path id="a0w5G" d="M328.67 1850.66v-3.33h6.67v3.33z"/></defs><g><g transform="translate(-327 -1799)"><use fill="#f9a31a" xlink:href="#a0w5a"/></g><g transform="translate(-327 -1799)"><use fill="#f9a31a" xlink:href="#a0w5b"/></g><g transform="translate(-327 -1799)"><use fill="#f9a31a" xlink:href="#a0w5c"/></g><g transform="translate(-327 -1799)"><use fill="#f9a31a" xlink:href="#a0w5d"/></g><g transform="translate(-327 -1799)"><use fill="#f9a31a" xlink:href="#a0w5e"/></g><g transform="translate(-327 -1799)"><use fill="#f9a31a" xlink:href="#a0w5f"/></g><g transform="translate(-327 -1799)"><use fill="#f9a31a" xlink:href="#a0w5g"/></g><g transform="translate(-327 -1799)"><use fill="#f9a31a" xlink:href="#a0w5h"/></g><g transform="translate(-327 -1799)"><use fill="#f9a31a" xlink:href="#a0w5i"/></g><g transform="translate(-327 -1799)"><use fill="#f9a31a" xlink:href="#a0w5j"/></g><g transform="translate(-327 -1799)"><use fill="#f9a31a" xlink:href="#a0w5k"/></g><g transform="translate(-327 -1799)"><use fill="#f9a31a" xlink:href="#a0w5l"/></g><g transform="translate(-327 -1799)"><use fill="#f9a31a" xlink:href="#a0w5m"/></g><g transform="translate(-327 -1799)"><use fill="#f9a31a" xlink:href="#a0w5n"/></g><g transform="translate(-327 -1799)"><use fill="#f9a31a" xlink:href="#a0w5o"/></g><g transform="translate(-327 -1799)"><use fill="#f9a31a" xlink:href="#a0w5p"/></g><g transform="translate(-327 -1799)"><use fill="#f9a31a" xlink:href="#a0w5q"/></g><g transform="translate(-327 -1799)"><use fill="#f9a31a" xlink:href="#a0w5r"/></g><g transform="translate(-327 -1799)"><use fill="#f9a31a" xlink:href="#a0w5s"/></g><g transform="translate(-327 -1799)"><use fill="#f9a31a" xlink:href="#a0w5t"/></g><g transform="translate(-327 -1799)"><use fill="#f9a31a" xlink:href="#a0w5u"/></g><g transform="translate(-327 -1799)"><use fill="#f9a31a" xlink:href="#a0w5v"/></g><g transform="translate(-327 -1799)"><use fill="#f9a31a" xlink:href="#a0w5w"/></g><g transform="translate(-327 -1799)"><use fill="#f9a31a" xlink:href="#a0w5x"/></g><g transform="translate(-327 -1799)"><use fill="#f9a31a" xlink:href="#a0w5y"/></g><g transform="translate(-327 -1799)"><use fill="#f9a31a" xlink:href="#a0w5z"/></g><g transform="translate(-327 -1799)"><use fill="#f9a31a" xlink:href="#a0w5A"/></g><g transform="translate(-327 -1799)"><use fill="#f9a31a" xlink:href="#a0w5B"/></g><g transform="translate(-327 -1799)"><use fill="#f9a31a" xlink:href="#a0w5C"/></g><g transform="translate(-327 -1799)"><use fill="#f9a31a" xlink:href="#a0w5D"/></g><g transform="translate(-327 -1799)"><use fill="#f9a31a" xlink:href="#a0w5E"/></g><g transform="translate(-327 -1799)"><use fill="#f9a31a" xlink:href="#a0w5F"/></g><g transform="translate(-327 -1799)"><use fill="#f9a31a" xlink:href="#a0w5G"/></g></g></svg>