<svg xmlns="http://www.w3.org/2000/svg" xmlns:xlink="http://www.w3.org/1999/xlink" width="92" height="100" viewBox="0 0 92 100"><defs><path id="kdaia" d="M410.03 2827.9a4.95 4.95 0 1 1 .01-9.9 4.95 4.95 0 0 1 0 9.9zm-32.15-4.94a4.95 4.95 0 1 1-9.9-.01 4.95 4.95 0 0 1 9.9 0zm-37.09 0a4.95 4.95 0 1 1-9.9-.01 4.95 4.95 0 0 1 9.9 0zm71.19-8.63v-4.37a7.3 7.3 0 0 0-7.28-7.28h-29.81v-1.81a1.95 1.95 0 0 0-3.9 0v1.8h-29.81a7.3 7.3 0 0 0-7.29 7.3v4.36a8.85 8.85 0 1 0 10.8 8.63c0-4.21-2.95-7.74-6.9-8.63v-4.37a3.4 3.4 0 0 1 3.39-3.38h29.8v7.75a8.85 8.85 0 1 0 10.8 8.63c0-4.21-2.95-7.74-6.9-8.63v-7.75h29.82a3.39 3.39 0 0 1 3.38 3.38v4.37a8.85 8.85 0 1 0 10.8 8.63c0-4.21-2.96-7.74-6.9-8.63z"/><path id="kdaib" d="M391.7 2781.55a19.78 19.78 0 0 0-6.03-8.02 20.31 20.31 0 0 0-6.15-3.32 10.45 10.45 0 1 0-17.57-7.62c0 3.15 1.4 5.98 3.62 7.9a19.78 19.78 0 0 0-11.4 11.06 26.6 26.6 0 0 1-7.92-18.96 26.72 26.72 0 0 1 26.69-26.7 26.72 26.72 0 0 1 26.69 26.7c0 7.4-3.03 14.12-7.92 18.96zm-25.85-18.96a6.55 6.55 0 1 1 13.1.01 6.55 6.55 0 0 1-13.1-.01zm7.09 26.69c-5.82 0-11.2-1.87-15.6-5.05 2.04-6.56 8.4-11.2 15.6-11.2 7.19 0 13.55 4.64 15.6 11.2a26.55 26.55 0 0 1-15.6 5.05zm0-57.28a30.62 30.62 0 0 0-30.59 30.59 30.54 30.54 0 0 0 11.56 23.94 30.88 30.88 0 0 0 4.83 3.16v-.02a30.4 30.4 0 0 0 14.2 3.5 30.41 30.41 0 0 0 19.19-6.78 30.54 30.54 0 0 0 11.4-23.8 30.62 30.62 0 0 0-30.6-30.59z"/><path id="kdaic" d="M370.99 2796.05a1.95 1.95 0 1 1 3.9 0 1.95 1.95 0 0 1-3.9 0z"/></defs><g><g transform="translate(-327 -2732)"><use fill="#f9a31a" xlink:href="#kdaia"/></g><g transform="translate(-327 -2732)"><use fill="#f9a31a" xlink:href="#kdaib"/></g><g transform="translate(-327 -2732)"><use fill="#f9a31a" xlink:href="#kdaic"/></g></g></svg>