<svg xmlns="http://www.w3.org/2000/svg" xmlns:xlink="http://www.w3.org/1999/xlink" width="72" height="80" viewBox="0 0 72 80"><defs><path id="q2jsa" d="M601.15 2974.03h-65.19v-53.32h5.93v25.18a1.48 1.48 0 0 0 2.34 1.2l18.4-13.14v11.94a1.48 1.48 0 0 0 2.34 1.2l18.4-13.14v11.94a1.48 1.48 0 0 0 2.43 1.13l15.35-12.79zm-59.26-59.25v2.97h-5.93v-2.97zm61.37 14.95a1.49 1.49 0 0 0-1.58.2l-15.35 12.8v-11.66a1.48 1.48 0 0 0-2.34-1.2L565.6 2943v-11.94a1.48 1.48 0 0 0-2.34-1.2l-18.4 13.14v-29.7c0-.83-.66-1.49-1.48-1.49h-8.89c-.82 0-1.48.66-1.48 1.48v62.22c0 .82.66 1.48 1.48 1.48h68.15c.82 0 1.48-.66 1.48-1.48v-44.45c0-.57-.33-1.1-.85-1.34z"/><path id="q2jsb" d="M553.74 2965.14h-5.93v-8.89h5.93zm1.48-11.85h-8.89c-.82 0-1.48.66-1.48 1.48v11.85c0 .82.66 1.48 1.48 1.48h8.89c.82 0 1.48-.66 1.48-1.48v-11.85c0-.82-.66-1.48-1.48-1.48z"/><path id="q2jsc" d="M574.48 2965.14h-5.93v-8.89h5.93zm1.48-11.85h-8.89c-.82 0-1.48.66-1.48 1.48v11.85c0 .82.66 1.48 1.48 1.48h8.89c.82 0 1.48-.66 1.48-1.48v-11.85c0-.82-.66-1.48-1.48-1.48z"/><path id="q2jsd" d="M589.3 2956.25h5.92v8.9h-5.93zm-1.49 11.85h8.89c.82 0 1.48-.66 1.48-1.48v-11.85c0-.82-.66-1.48-1.48-1.48h-8.89c-.82 0-1.48.66-1.48 1.48v11.85c0 .82.66 1.48 1.48 1.48z"/><path id="q2jse" d="M541.43 2905.48c2.8-2.66 6.63-5.51 7.87-5.51.79 0 2.39 1.5 3.55 2.59 1.75 1.63 3.4 3.17 5.21 3.33a3 3 0 0 0 .28.01c1.95 0 3.78-1.73 5.54-3.4 1.09-1.05 2.58-2.47 3.34-2.54.72-.07 2.47 1.6 3.52 2.6 1.7 1.62 3.31 3.16 5.08 3.33 3.16.32 8.5-4.78 10.08-6.35a1.48 1.48 0 1 0-2.09-2.1c-3.05 3.03-6.63 5.58-7.7 5.5-.75-.07-2.24-1.5-3.33-2.53-1.85-1.77-3.77-3.58-5.84-3.4-1.78.17-3.4 1.7-5.1 3.33-1.11 1.06-2.83 2.66-3.52 2.6-.79-.07-2.32-1.5-3.44-2.55-1.87-1.74-3.63-3.39-5.58-3.39-3.03 0-8.35 4.85-9.91 6.34a1.48 1.48 0 1 0 2.04 2.14z"/></defs><g><g transform="translate(-533 -2897)"><use fill="#1454af" xlink:href="#q2jsa"/></g><g transform="translate(-533 -2897)"><use fill="#1454af" xlink:href="#q2jsb"/></g><g transform="translate(-533 -2897)"><use fill="#1454af" xlink:href="#q2jsc"/></g><g transform="translate(-533 -2897)"><use fill="#1454af" xlink:href="#q2jsd"/></g><g transform="translate(-533 -2897)"><use fill="#1454af" xlink:href="#q2jse"/></g></g></svg>