<svg xmlns="http://www.w3.org/2000/svg" xmlns:xlink="http://www.w3.org/1999/xlink" width="80" height="80" viewBox="0 0 80 80"><defs><path id="uk9ta" d="M1005.5 2970.91l-2.59 2.58a1.7 1.7 0 0 1-2.39 0l-17.16-17.16 4.97-4.97 17.16 17.16c.66.66.66 1.73 0 2.4zm-25.1-15.88l-2.67 1-.87-.87 10.3-10.3.87.87-1 2.66zm-37.66-42.7a1.5 1.5 0 0 0-1.56-.36l-3.12-.29-5.64-9 2.27-2.26 8.99 5.64.29 3.12a1.5 1.5 0 0 0 .35 1.56l36.35 36.35-1.58 1.58zm15.52 39.16a15.87 15.87 0 0 0-4.65 13.03 8.65 8.65 0 0 1-4.62 8.61l1.03-3.28a5.99 5.99 0 0 0-11.42-3.56l-1.07 3.41a8.55 8.55 0 0 1-1.1-4.09 8.54 8.54 0 0 1 5.96-8.33c2.5-.8 4.77-2.18 6.57-3.98l15.25-15.25 3.74 3.75zm21.49-28.98a15.88 15.88 0 0 0 4.65-13.03 8.64 8.64 0 0 1 4.61-8.61l-1.02 3.28a5.98 5.98 0 1 0 11.42 3.56l1.06-3.4a8.56 8.56 0 0 1 1.1 4.08 8.54 8.54 0 0 1-5.96 8.33c-2.5.8-4.77 2.18-6.57 3.98l-15.24 15.25-3.75-3.74zm27.88 43.88l-17.55-17.54 1.1-2.97a1.5 1.5 0 0 0-.34-1.6l-2.62-2.61a1.5 1.5 0 0 0-2.13 0l-3.29 3.29-6.87-6.88 15.25-15.25a13.4 13.4 0 0 1 5.35-3.24 11.65 11.65 0 0 0 8.05-11.25 11.54 11.54 0 0 0-3.67-8.3 1.5 1.5 0 0 0-2.47.65l-1.91 6.13a2.95 2.95 0 0 1-3.72 1.95 2.95 2.95 0 0 1-1.95-3.72l1.9-6.05a1.5 1.5 0 0 0-1.69-1.94 11.65 11.65 0 0 0-9.67 12.76c.44 3.87-.94 7.72-3.78 10.56l-9.7 9.7-20.93-20.93-.38-4.11a1.5 1.5 0 0 0-.7-1.14l-10.64-6.67a1.5 1.5 0 0 0-1.86.21l-3.97 3.97a1.5 1.5 0 0 0-.21 1.86l6.67 10.64c.25.4.67.66 1.14.7l4.1.38 20.94 20.93-15.25 15.25a13.4 13.4 0 0 1-5.36 3.24 11.5 11.5 0 0 0-4.65 2.85 11.53 11.53 0 0 0-3.4 8.4 11.54 11.54 0 0 0 3.67 8.3 1.5 1.5 0 0 0 2.47-.65l1.91-6.12a2.95 2.95 0 0 1 3.72-1.95 2.97 2.97 0 0 1 1.95 3.71l-1.89 6.06a1.5 1.5 0 0 0 1.68 1.93 11.56 11.56 0 0 0 5.78-2.72 11.67 11.67 0 0 0 3.89-10.04c-.43-3.87.95-7.72 3.79-10.56l9.7-9.7 6.87 6.88-3.3 3.3a1.5 1.5 0 0 0 0 2.12l2.63 2.62a1.5 1.5 0 0 0 1.6.35l2.96-1.11 17.54 17.55a4.69 4.69 0 0 0 6.65 0l2.59-2.59a4.7 4.7 0 0 0 0-6.65z"/></defs><g><g transform="translate(-929 -2897)"><use fill="#1454af" xlink:href="#uk9ta"/></g></g></svg>