<svg xmlns="http://www.w3.org/2000/svg" xmlns:xlink="http://www.w3.org/1999/xlink" width="80" height="80" viewBox="0 0 80 80"><defs><path id="ste6a" d="M206.33 2814.33h-4v-46.66c0-.74-.6-1.34-1.33-1.34h-64c-.74 0-1.33.6-1.33 1.34v46.66h-4v-53.88l37.31-20.58 37.35 21.9zm2.01-54.48l-38.67-22.67c-.4-.23-.9-.24-1.31-.01l-38.67 21.33c-.43.23-.69.68-.69 1.17v56c0 .73.6 1.33 1.33 1.33H137c.74 0 1.33-.6 1.33-1.33V2769h61.34v46.67c0 .73.6 1.33 1.33 1.33h6.67c.73 0 1.33-.6 1.33-1.33V2761c0-.47-.25-.91-.66-1.15z"/><path id="ste6b" d="M194.33 2814.33H181V2801h13.33v13.33zm1.33-16h-16c-.73 0-1.33.6-1.33 1.33v16c0 .74.6 1.34 1.33 1.34h16c.74 0 1.34-.6 1.34-1.34v-16c0-.73-.6-1.33-1.34-1.33z"/><path id="ste6c" d="M189 2799.67v4h-2.66v-4h-2.67v5.33c0 .74.6 1.34 1.33 1.34h5.34c.73 0 1.33-.6 1.33-1.34v-5.33z"/><path id="ste6d" d="M178.33 2814.33H165V2801h13.33zm1.33-16h-16c-.73 0-1.33.6-1.33 1.33v16c0 .74.6 1.34 1.33 1.34h16c.74 0 1.34-.6 1.34-1.34v-16c0-.73-.6-1.33-1.34-1.33z"/><path id="ste6e" d="M173 2799.67v4h-2.66v-4h-2.67v5.33c0 .74.6 1.34 1.33 1.34h5.34c.73 0 1.33-.6 1.33-1.34v-5.33z"/><path id="ste6f" d="M194.33 2798.33H181V2785h13.33v13.33zm1.33-16h-16c-.73 0-1.33.6-1.33 1.33v16c0 .74.6 1.34 1.33 1.34h16c.74 0 1.34-.6 1.34-1.34v-16c0-.73-.6-1.33-1.34-1.33z"/><path id="ste6g" d="M189 2783.67v4h-2.66v-4h-2.67v5.33c0 .74.6 1.34 1.33 1.34h5.34c.73 0 1.33-.6 1.33-1.34v-5.33z"/><path id="ste6h" d="M137 2779.67V2777h64v2.67z"/><path id="ste6i" d="M137 2774.34v-2.67h64v2.67z"/><path id="ste6j" d="M174.33 2761h-10.66v-2.66h10.66zm1.34-5.33h-13.34c-.73 0-1.33.6-1.33 1.33v5.34c0 .73.6 1.33 1.33 1.33h13.34c.73 0 1.33-.6 1.33-1.33V2757c0-.73-.6-1.33-1.33-1.33z"/></defs><g><g transform="translate(-129 -2737)"><use fill="#1454af" xlink:href="#ste6a"/></g><g transform="translate(-129 -2737)"><use fill="#1454af" xlink:href="#ste6b"/></g><g transform="translate(-129 -2737)"><use fill="#1454af" xlink:href="#ste6c"/></g><g transform="translate(-129 -2737)"><use fill="#1454af" xlink:href="#ste6d"/></g><g transform="translate(-129 -2737)"><use fill="#1454af" xlink:href="#ste6e"/></g><g transform="translate(-129 -2737)"><use fill="#1454af" xlink:href="#ste6f"/></g><g transform="translate(-129 -2737)"><use fill="#1454af" xlink:href="#ste6g"/></g><g transform="translate(-129 -2737)"><use fill="#1454af" xlink:href="#ste6h"/></g><g transform="translate(-129 -2737)"><use fill="#1454af" xlink:href="#ste6i"/></g><g transform="translate(-129 -2737)"><use fill="#1454af" xlink:href="#ste6j"/></g></g></svg>