<svg xmlns="http://www.w3.org/2000/svg" xmlns:xlink="http://www.w3.org/1999/xlink" width="71" height="90" viewBox="0 0 71 90"><defs><path id="oyg2a" d="M201.5 2952.28l-1.67.73-2.52-1.1a1.41 1.41 0 0 0-1.13 0l-2.5 1.1-2.51-1.1a1.42 1.42 0 0 0-1.13 0l-2.5 1.1-2.51-1.1a1.41 1.41 0 0 0-1.13 0l-2.5 1.1-2.5-1.1a1.42 1.42 0 0 0-1.14 0l-2.5 1.1-2.5-1.1a1.42 1.42 0 0 0-1.13 0l-2.5 1.1-2.5-1.1a1.4 1.4 0 0 0-1.14 0l-2.5 1.1-2.5-1.1a1.4 1.4 0 0 0-1.14 0l-2.5 1.1-2.5-1.1a1.4 1.4 0 0 0-1.13 0l-2.5 1.1-2.5-1.1a1.4 1.4 0 0 0-1.13 0l-2.5 1.1-2.5-1.1a1.41 1.41 0 0 0-1.13 0l-2.49 1.1-1.66-.73v-2.55l1.1.48c.35.16.76.16 1.13 0l2.49-1.1 2.5 1.1c.35.16.76.16 1.13 0l2.5-1.1 2.5 1.1c.36.16.77.16 1.13 0l2.5-1.1 2.5 1.1c.35.16.77.16 1.13 0l2.5-1.1 2.5 1.1c.36.16.77.16 1.13 0l2.5-1.1 2.5 1.1c.36.16.78.16 1.14 0l2.5-1.1 2.5 1.1c.36.16.77.16 1.13 0l2.5-1.1 2.51 1.1c.36.16.77.16 1.14 0l2.5-1.1 2.5 1.1c.36.16.77.16 1.13 0l2.5-1.1 2.51 1.1c.36.16.77.16 1.13 0l2.51-1.1 2.52 1.1a1.41 1.41 0 0 0 1.13 0l1.1-.48zm-5.63 7.22h-53.43a5.61 5.61 0 0 1-5.37-4.03l.83.37c.36.16.77.16 1.14 0l2.49-1.1 2.5 1.1c.35.15.76.16 1.13 0l2.5-1.1 2.5 1.1c.36.16.77.16 1.13 0l2.5-1.1 2.5 1.1c.35.16.77.16 1.13 0l2.5-1.1 2.5 1.1c.36.15.77.15 1.13 0l2.5-1.1 2.5 1.1c.36.15.78.15 1.14 0l2.5-1.1 2.5 1.1c.36.15.77.15 1.13 0l2.5-1.1 2.51 1.1c.36.15.77.15 1.14 0l2.5-1.1 2.5 1.1c.36.15.77.15 1.13 0l2.5-1.1 2.51 1.1c.36.15.77.15 1.13 0l2.51-1.1 2.52 1.1a1.41 1.41 0 0 0 1.13 0l.85-.38a5.62 5.62 0 0 1-5.37 4.04zm5.4 6.94l-1.44.64-2.51-1.1a1.41 1.41 0 0 0-1.13 0l-2.51 1.1-2.5-1.1a1.42 1.42 0 0 0-1.14 0l-2.5 1.1-2.51-1.1a1.41 1.41 0 0 0-1.13 0l-2.5 1.1-2.5-1.1a1.42 1.42 0 0 0-1.14 0l-2.5 1.1-2.5-1.1a1.42 1.42 0 0 0-1.13 0l-2.5 1.1-2.5-1.1a1.4 1.4 0 0 0-1.14 0l-2.5 1.1-2.5-1.1a1.4 1.4 0 0 0-1.14 0l-2.5 1.1-2.5-1.1a1.4 1.4 0 0 0-1.13 0l-2.5 1.1-2.5-1.1a1.4 1.4 0 0 0-1.13 0l-2.5 1.1-2.5-1.1a1.41 1.41 0 0 0-1.13 0l-2.49 1.1-1.43-.63a5.6 5.6 0 0 1 5.4-4.14h53.44a5.62 5.62 0 0 1 5.4 4.13zm.23 5.53l-1.67.73-2.52-1.1a1.41 1.41 0 0 0-1.13 0l-2.5 1.1-2.51-1.1a1.42 1.42 0 0 0-1.13 0l-2.5 1.1-2.51-1.1a1.41 1.41 0 0 0-1.13 0l-2.5 1.1-2.5-1.1a1.42 1.42 0 0 0-1.14 0l-2.5 1.1-2.5-1.1a1.42 1.42 0 0 0-1.13 0l-2.5 1.1-2.5-1.1a1.4 1.4 0 0 0-1.14 0l-2.5 1.1-2.5-1.1a1.4 1.4 0 0 0-1.14 0l-2.5 1.1-2.5-1.1a1.4 1.4 0 0 0-1.13 0l-2.5 1.1-2.5-1.1a1.4 1.4 0 0 0-1.13 0l-2.5 1.1-2.5-1.1a1.41 1.41 0 0 0-1.13 0l-2.49 1.1-1.66-.73v-2.55l1.1.48c.35.16.76.16 1.13 0l2.49-1.1 2.5 1.1c.35.16.76.16 1.13 0l2.5-1.1 2.5 1.1c.36.16.77.16 1.13 0l2.5-1.1 2.5 1.1c.35.16.77.16 1.13 0l2.5-1.1 2.5 1.1c.36.16.77.16 1.13 0l2.5-1.1 2.5 1.1c.36.16.78.16 1.14 0l2.5-1.1 2.5 1.1c.36.15.77.15 1.13 0l2.5-1.1 2.51 1.1c.36.15.77.16 1.14 0l2.5-1.1 2.5 1.1c.36.16.77.16 1.13 0l2.5-1.1 2.51 1.1c.36.16.77.16 1.13 0l2.51-1.1 2.52 1.1a1.41 1.41 0 0 0 1.13 0l1.1-.48zm-5.63 7.22h-53.43a5.61 5.61 0 0 1-5.37-4.03l.83.36c.36.16.77.16 1.14 0l2.49-1.1 2.5 1.1c.35.16.76.16 1.13 0l2.5-1.1 2.5 1.1c.36.16.77.16 1.13 0l2.5-1.1 2.5 1.1c.35.16.77.16 1.13 0l2.5-1.1 2.5 1.1c.36.16.77.16 1.13 0l2.5-1.1 2.5 1.1c.36.16.78.16 1.14 0l2.5-1.1 2.5 1.1c.36.16.77.16 1.13 0l2.5-1.1 2.51 1.1c.36.16.77.16 1.14 0l2.5-1.1 2.5 1.1c.36.16.77.16 1.13 0l2.5-1.1 2.51 1.1c.36.16.77.16 1.13 0l2.51-1.1 2.52 1.1a1.41 1.41 0 0 0 1.13 0l.85-.37a5.62 5.62 0 0 1-5.37 4.04zm-53.43-36.57h53.44a5.62 5.62 0 0 1 5.4 4.14l-1.45.63-2.51-1.1a1.41 1.41 0 0 0-1.14 0l-2.5 1.1-2.51-1.1a1.42 1.42 0 0 0-1.13 0l-2.5 1.1-2.51-1.1a1.41 1.41 0 0 0-1.13 0l-2.5 1.1-2.5-1.1a1.42 1.42 0 0 0-1.14 0l-2.5 1.1-2.5-1.1a1.42 1.42 0 0 0-1.13 0l-2.5 1.1-2.5-1.1a1.4 1.4 0 0 0-1.14 0l-2.5 1.1-2.5-1.1a1.4 1.4 0 0 0-1.14 0l-2.5 1.1-2.5-1.1a1.4 1.4 0 0 0-1.13 0l-2.5 1.1-2.5-1.1a1.4 1.4 0 0 0-1.13 0l-2.5 1.1-2.5-1.1a1.41 1.41 0 0 0-1.13 0l-2.49 1.1-1.43-.63a5.61 5.61 0 0 1 5.4-4.14zm44.53-19.52a18.2 18.2 0 0 1 0 8.11l-9.38-2.34v-3.43zm-10.58-.26a8.48 8.48 0 0 0-2.92-2.92l2.43-9.74a18.36 18.36 0 0 1 10.23 10.23zm-11.3-13.5a18.2 18.2 0 0 1 8.12 0l-2.34 9.38h-3.43zm-3.17 22.13a8.48 8.48 0 0 0 2.95 2.94l-1.09 5.4H156a18.19 18.19 0 0 1-3.82-5.9zm-9.74-11.06a18.36 18.36 0 0 1 10.23-10.23l2.43 9.74a8.48 8.48 0 0 0-2.92 2.92zm8.54 5.03v3.43l-9.38 2.34a18.22 18.22 0 0 1 0-8.12zm10.94 14.37h-5l.84-4.22h3.32zm-2.5-7.03a5.63 5.63 0 1 1 0-11.26 5.63 5.63 0 0 1 0 11.26zm4.29 1.63a8.48 8.48 0 0 0 2.94-2.94l9.76 2.44a18.23 18.23 0 0 1-3.81 5.9h-7.81zm-36.64-7.25a32.38 32.38 0 0 1 32.35-32.35 32.38 32.38 0 0 1 29.55 45.5 8.4 8.4 0 0 0-2.84-.5h-9.86a20.95 20.95 0 0 0 4.24-12.65c0-11.63-9.46-21.1-21.1-21.1a21.12 21.12 0 0 0-21.09 21.1c0 4.64 1.5 9.02 4.25 12.65h-9.87c-1 0-1.95.19-2.84.5a31.98 31.98 0 0 1-2.79-13.15zm64.36 14.53a35.2 35.2 0 0 0-32.01-49.69 35.2 35.2 0 0 0-32.01 49.69 8.42 8.42 0 0 0-3.15 6.56v5.63c0 2.93 1.5 5.51 3.78 7.03a8.44 8.44 0 0 0-3.78 7.03v5.62a8.45 8.45 0 0 0 8.44 8.44h53.44a8.45 8.45 0 0 0 8.43-8.44v-5.62c0-2.94-1.5-5.52-3.78-7.03a8.43 8.43 0 0 0 3.78-7.03v-5.63a8.42 8.42 0 0 0-3.14-6.56z"/><path id="oyg2b" d="M153.69 2928.56v-2.81h2.81v2.81z"/><path id="oyg2c" d="M167.75 2914.5v-2.81h2.81v2.81z"/><path id="oyg2d" d="M181.81 2928.56v-2.81h2.81v2.81z"/></defs><g><g transform="translate(-134 -2892)"><use fill="#1454af" xlink:href="#oyg2a"/></g><g transform="translate(-134 -2892)"><use fill="#1454af" xlink:href="#oyg2b"/></g><g transform="translate(-134 -2892)"><use fill="#1454af" xlink:href="#oyg2c"/></g><g transform="translate(-134 -2892)"><use fill="#1454af" xlink:href="#oyg2d"/></g></g></svg>