<svg xmlns="http://www.w3.org/2000/svg" xmlns:xlink="http://www.w3.org/1999/xlink" width="80" height="80" viewBox="0 0 80 80"><defs><path id="ixwaa" d="M606.34 2814.33h-40v-74.66h40zm1.33-77.33H565c-.73 0-1.33.6-1.33 1.33v77.34c0 .73.6 1.33 1.33 1.33h42.67c.74 0 1.33-.6 1.33-1.33v-77.34c0-.73-.6-1.33-1.33-1.33z"/><path id="ixwab" d="M563.67 2814.33h-32V2781h32zm1.33-36h-34.67c-.73 0-1.33.6-1.33 1.33v36c0 .74.6 1.34 1.33 1.34H565c.74 0 1.33-.6 1.33-1.34v-36c0-.73-.6-1.33-1.33-1.33z"/><path id="ixwac" d="M558.34 2778.34h-24v-24h24zm1.33-26.67H533c-.73 0-1.33.6-1.33 1.33v26.67c0 .74.6 1.33 1.33 1.33h26.67c.74 0 1.33-.6 1.33-1.33V2753c0-.73-.6-1.33-1.33-1.33z"/><path id="ixwad" d="M550.33 2786.33H545V2781h5.33v5.33zm1.33-8h-8c-.73 0-1.33.6-1.33 1.33v8c0 .74.6 1.34 1.33 1.34h8c.74 0 1.34-.6 1.34-1.34v-8c0-.73-.6-1.33-1.34-1.33z"/><path id="ixwae" d="M549 2759.67h-5.33v-5.33H549zm1.33-8h-8c-.73 0-1.33.6-1.33 1.33v8c0 .74.6 1.34 1.33 1.34h8c.74 0 1.34-.6 1.34-1.34v-8c0-.73-.6-1.33-1.34-1.33z"/><path id="ixwaf" d="M591.67 2745h-5.33v-5.33h5.33zm1.33-8h-8c-.73 0-1.33.6-1.33 1.33v8c0 .74.6 1.34 1.33 1.34h8c.74 0 1.34-.6 1.34-1.34v-8c0-.73-.6-1.33-1.34-1.33z"/><path id="ixwag" d="M590.33 2801a2.67 2.67 0 0 1-5.33 0v-1.33h5.33v1.33zm1.33-4h-8c-.73 0-1.33.6-1.33 1.33v2.67a5.34 5.34 0 0 0 10.67 0v-2.67c0-.73-.6-1.33-1.34-1.33z"/><path id="ixwah" d="M583.67 2811.67V2809h8v2.67z"/><path id="ixwai" d="M586.33 2810.33V2805H589v5.33z"/><path id="ixwaj" d="M595.67 2811.67V2809h8v2.67z"/><path id="ixwak" d="M598.33 2806.33v-8H601v8z"/><path id="ixwal" d="M600.6 2797.4a1.33 1.33 0 0 0-1.88 0l-4 4 1.89 1.88 3.05-3.06 3.06 3.06 1.89-1.89z"/><path id="ixwam" d="M571.67 2802.33a2.67 2.67 0 0 1 5.33 0zm2.66-5.33a5.34 5.34 0 0 0-5.33 5.33v1.34c0 .73.6 1.33 1.33 1.33h8c.74 0 1.34-.6 1.34-1.33v-1.34c0-2.94-2.4-5.33-5.34-5.33z"/><path id="ixwan" d="M573 2803.67v5.33h-2.67v2.67h4c.74 0 1.33-.6 1.33-1.33v-6.67H573z"/><path id="ixwao" d="M553 2775.67V2773h2.67v2.67z"/><path id="ixwap" d="M547.67 2775.67V2773h2.67v2.67z"/><path id="ixwaq" d="M542.33 2775.67V2773H545v2.67z"/><path id="ixwar" d="M558.33 2811.67V2809H561v2.67z"/><path id="ixwas" d="M553 2811.67V2809h2.67v2.67z"/><path id="ixwat" d="M547.67 2811.67V2809h2.67v2.67z"/></defs><g><g transform="translate(-529 -2737)"><use fill="#1454af" xlink:href="#ixwaa"/></g><g transform="translate(-529 -2737)"><use fill="#1454af" xlink:href="#ixwab"/></g><g transform="translate(-529 -2737)"><use fill="#1454af" xlink:href="#ixwac"/></g><g transform="translate(-529 -2737)"><use fill="#1454af" xlink:href="#ixwad"/></g><g transform="translate(-529 -2737)"><use fill="#1454af" xlink:href="#ixwae"/></g><g transform="translate(-529 -2737)"><use fill="#1454af" xlink:href="#ixwaf"/></g><g transform="translate(-529 -2737)"><use fill="#1454af" xlink:href="#ixwag"/></g><g transform="translate(-529 -2737)"><use fill="#1454af" xlink:href="#ixwah"/></g><g transform="translate(-529 -2737)"><use fill="#1454af" xlink:href="#ixwai"/></g><g transform="translate(-529 -2737)"><use fill="#1454af" xlink:href="#ixwaj"/></g><g transform="translate(-529 -2737)"><use fill="#1454af" xlink:href="#ixwak"/></g><g transform="translate(-529 -2737)"><use fill="#1454af" xlink:href="#ixwal"/></g><g transform="translate(-529 -2737)"><use fill="#1454af" xlink:href="#ixwam"/></g><g transform="translate(-529 -2737)"><use fill="#1454af" xlink:href="#ixwan"/></g><g transform="translate(-529 -2737)"><use fill="#1454af" xlink:href="#ixwao"/></g><g transform="translate(-529 -2737)"><use fill="#1454af" xlink:href="#ixwap"/></g><g transform="translate(-529 -2737)"><use fill="#1454af" xlink:href="#ixwaq"/></g><g transform="translate(-529 -2737)"><use fill="#1454af" xlink:href="#ixwar"/></g><g transform="translate(-529 -2737)"><use fill="#1454af" xlink:href="#ixwas"/></g><g transform="translate(-529 -2737)"><use fill="#1454af" xlink:href="#ixwat"/></g></g></svg>