<svg xmlns="http://www.w3.org/2000/svg" xmlns:xlink="http://www.w3.org/1999/xlink" width="74" height="80" viewBox="0 0 74 80"><defs><path id="o2e7a" d="M947.39 2816.92a1.7 1.7 0 0 1-1.69-1.7v-22.97a1.7 1.7 0 0 1 3.38 0v22.98a1.7 1.7 0 0 1-1.69 1.69z"/><path id="o2e7b" d="M958 2816.92h-21.21a1.7 1.7 0 0 1 0-3.38h21.2a1.7 1.7 0 0 1 0 3.38z"/><path id="o2e7c" d="M975.38 2813.54h28.03v-40.52l-7.7-9.05c-.25-.3-.4-.7-.4-1.1v-22.49h-12.8v22.5c0 .36-.11.72-.33 1.01l-6.8 9.07v40.58zm29.72 3.38h-31.41a1.7 1.7 0 0 1-1.69-1.69v-42.83c0-.37.12-.72.34-1.02l6.8-9.07v-23.62c0-.93.76-1.69 1.69-1.69H997c.93 0 1.69.76 1.69 1.69v23.57l7.68 9.04c.26.3.4.7.4 1.1v42.83a1.7 1.7 0 0 1-1.68 1.69z"/><path id="o2e7d" d="M995.84 2754.38H981.9a1.7 1.7 0 0 1 0-3.38h13.94a1.7 1.7 0 0 1 0 3.38z"/><path id="o2e7e" d="M937.25 2761.99l-.87 17.64a11 11 0 0 0 22.02-.08l-.87-17.56zm10.14 31.95a14.4 14.4 0 0 1-14.39-14.39l.95-19.33c.05-.9.8-1.61 1.7-1.61h23.49c.9 0 1.64.7 1.69 1.6l.95 19.26c0 8.01-6.45 14.47-14.39 14.47z"/></defs><g><g transform="translate(-933 -2737)"><use fill="#1454af" xlink:href="#o2e7a"/></g><g transform="translate(-933 -2737)"><use fill="#1454af" xlink:href="#o2e7b"/></g><g transform="translate(-933 -2737)"><use fill="#1454af" xlink:href="#o2e7c"/></g><g transform="translate(-933 -2737)"><use fill="#1454af" xlink:href="#o2e7d"/></g><g transform="translate(-933 -2737)"><use fill="#1454af" xlink:href="#o2e7e"/></g></g></svg>