<?xml version="1.0" encoding="utf-8"?>
<!-- Generator: Adobe Illustrator 21.1.0, SVG Export Plug-In . SVG Version: 6.00 Build 0)  -->
<svg version="1.1" id="Layer_1" xmlns="http://www.w3.org/2000/svg" xmlns:xlink="http://www.w3.org/1999/xlink" x="0px" y="0px"
	 viewBox="0 0 432.7 410.9" style="enable-background:new 0 0 432.7 410.9;" xml:space="preserve">
<style type="text/css">
	.st0{fill-rule:evenodd;clip-rule:evenodd;fill:#A57346;}
	.st1{fill-rule:evenodd;clip-rule:evenodd;fill:#BE874E;}
</style>
<polygon class="st0" points="217.5,130.7 217.5,130.7 230.2,170.4 396.3,169.7 307.5,233.6 340,334.4 351.1,330.8 321.2,238.1 
	432.7,157.8 238.7,158.7 221.1,103.7 221.1,103.7 217.2,91.5 211.3,111.3 "/>
<polygon class="st0" points="308.8,199.3 308.8,199.3 274.9,223.6 326.7,381.5 238.6,316.7 152.7,378.6 159.5,388 238.5,331.1 
	349.2,412.5 288.7,228.1 335.6,194.5 335.6,194.5 346,187 325.3,187.5 "/>
<polygon class="st1" points="271.3,307.5 271.3,307.5 237.9,282.6 103.3,380 138.2,276.4 53.1,213.4 46.1,222.8 124.4,280.7 
	80.6,410.9 237.8,297.1 284.1,331.6 284.1,331.5 294.4,339.2 287.7,319.6 "/>
<polygon class="st0" points="157.2,305 157.1,305 170.5,265.5 36.4,167.5 145.8,168.7 179.4,68.4 168.4,64.6 137.4,157 0,155.4 
	156.7,269.9 138.2,324.6 138.3,324.6 134.2,336.7 150.7,324.3 "/>
<polygon class="st1" points="124.1,196.5 124.1,196.4 165.8,196.6 216.3,38.4 249.7,142.5 355.6,142.6 355.6,131 258.2,130.8 
	216.2,0 157.3,184.9 99.5,184.7 99.6,184.7 86.7,184.7 103.7,196.4 "/>
</svg>
