<?xml version="1.0" encoding="utf-8"?>
<!-- Generator: Adobe Illustrator 21.1.0, SVG Export Plug-In . SVG Version: 6.00 Build 0)  -->
<svg version="1.1" id="Layer_1" xmlns="http://www.w3.org/2000/svg" xmlns:xlink="http://www.w3.org/1999/xlink" x="0px" y="0px"
	 viewBox="0 0 68.7 59.7" style="enable-background:new 0 0 68.7 59.7;" xml:space="preserve">
<style type="text/css">
	.st0{fill:#38434E;}
	.st1{fill:#22A7F0;}
</style>
<g>
	<path class="st0" d="M29.7,27.2C29.7,27.2,29.7,27.2,29.7,27.2c5.7,1.3,8.8,2.9,9.7,3.5c1,1.9,1,6.8,0.7,9.9
		c-0.1,1,0.6,1.8,1.6,1.9c0.1,0,0.1,0,0.2,0c0.9,0,1.7-0.7,1.7-1.6c0.1-1.5,0.7-9.3-1.5-12.5l-0.2-0.3L41.7,28
		c-0.1-0.1-3.2-2.2-9.7-3.8"/>
	<path class="st0" d="M21.9,35"/>
	<path class="st0" d="M35.7,11c-1.2-1.1-6.7-5.2-18.3,0.5c-0.9,0.4-1.2,1.5-0.8,2.3c0.4,0.9,1.5,1.2,2.3,0.8
		c8.5-4.2,12.6-2.4,13.9-1.5c1.4-0.4,2.7-0.7,4.1-1.1"/>
	<ellipse transform="matrix(0.5179 -0.8554 0.8554 0.5179 15.444 35.5166)" class="st0" cx="39.2" cy="4.1" rx="4.1" ry="4.1"/>
	<path class="st0" d="M62.4,22.2c0.4,0,0.8-0.1,1.2-0.4l4.6-4.1c0.7-0.6,0.8-1.8,0.1-2.5c-0.6-0.7-1.8-0.8-2.5-0.1l-4.6,4.1
		c-0.7,0.6-0.8,1.8-0.1,2.5C61.4,22,61.9,22.2,62.4,22.2z"/>
	<path class="st0" d="M66.7,39.8c-1.2-5.2-3.9-14.7-4-15.1c-0.2-0.8-0.9-1.3-1.7-1.3H50.6c-1,0-1.8,0.8-1.8,1.8c0,1,0.8,1.8,1.8,1.8
		h9.1c0.8,3,2.9,10.5,3.8,14.3c0.2,0.8,0,1.2-0.2,1.5c-0.6,0.9-2.3,1.2-2.9,1.2L14,46.3c-0.1,0-0.3,0-0.4,0.1
		c-0.3,0.1-6.4,1.9-6.4,7.9c0,0.8,0.5,1.4,1.2,1.7c0.2,0.1,0.5,0.2,0.8,0.2h1.7v1.8c0,1,0.8,1.8,1.8,1.8c1,0,1.8-0.8,1.8-1.8v-1.8
		h43.3v1.8c0,1,0.8,1.8,1.8,1.8c1,0,1.8-0.8,1.8-1.8v-1.8h2.1c1.6,0,2.9-0.6,3.8-1.8C69.9,50.4,67.3,41.5,66.7,39.8
		C66.7,39.8,66.7,39.8,66.7,39.8z M64.2,52.2c-0.2,0.2-0.4,0.4-0.9,0.4H11c0.8-1.8,2.8-2.6,3.4-2.8l46.2-2.4c0.3,0,2.3-0.2,4-1.3
		C65,48.7,65,51.2,64.2,52.2z"/>
	<path class="st1" d="M41.2,42.4"/>
	<path class="st1" d="M29.7,27.2C29.7,27.2,29.7,27.2,29.7,27.2c-3.4,4.2-6.8,7.1-7,7.4l-0.3,0.3L21.9,35c-0.2,0-0.4,0.1-0.6,0.1
		c-3,0-9.4-2.7-12.2-4C8.2,30.7,7.8,29.8,8,29c0.3-1.1,1.4-1.6,2.4-1.2c3.9,1.8,8.8,3.6,10.5,3.7c2.1-1.9,10.8-10.2,11.9-18.1
		c0-0.2,0.1-0.3,0.2-0.5l0.2-0.4c0.4-0.6,0.9-1.1,1.6-1.3l0.1,0c0.5-0.2,1.1-0.1,1.6,0.2c7.1,3.7,15.1,0.2,15.2,0.2
		c0.9-0.4,1.9,0,2.3,0.9c0.4,0.9,0,1.9-0.9,2.3c-0.3,0.1-4.3,1.9-9.4,1.9c-2.4,0-5.1-0.4-7.7-1.5c-0.7,3.2-2.3,6.3-4.1,9.1"/>
</g>
<g>
	<path class="st0" d="M21.5,22.2c0-0.6-0.5-1-1-1c0,0,0,0,0,0l-13.7,0c-0.6,0-1,0.5-1,1c0,0.6,0.5,1,1,1h0l13.7,0
		C21,23.2,21.5,22.7,21.5,22.2z"/>
	<path class="st0" d="M13.6,10.6c0-0.6-0.5-1-1-1H1c-0.6,0-1,0.5-1,1s0.5,1,1,1h11.5C13.1,11.6,13.6,11.1,13.6,10.6z"/>
	<path class="st1" d="M12.5,6.1h11.8c0.6,0,1-0.5,1-1s-0.5-1-1-1H12.5c-0.6,0-1,0.5-1,1S11.9,6.1,12.5,6.1z"/>
	<path class="st1" d="M5.5,14.9c-0.6,0-1,0.5-1,1c0,0.6,0.5,1,1,1h3.8c0.6,0,1-0.5,1-1c0-0.6-0.5-1-1-1H5.5z"/>
</g>
</svg>
