<?xml version="1.0" encoding="utf-8"?>
<!-- Generator: Adobe Illustrator 21.0.0, SVG Export Plug-In . SVG Version: 6.00 Build 0)  -->
<svg version="1.1" xmlns="http://www.w3.org/2000/svg" xmlns:xlink="http://www.w3.org/1999/xlink" x="0px" y="0px"
	 viewBox="0 0 49.1 49.1" style="enable-background:new 0 0 49.1 49.1;" xml:space="preserve">
<style type="text/css">
	.st0{opacity:0.2;}
	.st1{fill:#FFFFFF;}
	.st2{fill:none;stroke:#000000;stroke-width:0.25;stroke-miterlimit:10;}
	.st3{opacity:0.5;}
	.st4{opacity:4.000000e-02;stroke:#000000;stroke-width:0.25;stroke-miterlimit:10;}
	.st5{fill:none;stroke:#000000;stroke-width:5;stroke-linecap:round;stroke-linejoin:round;stroke-miterlimit:10;}
	.st6{fill:#FFFFFF;stroke:#000000;stroke-width:5;stroke-linecap:round;stroke-linejoin:round;stroke-miterlimit:10;}
	.st7{fill:none;}
	.st8{clip-path:url(#SVGID_4_);fill-rule:evenodd;clip-rule:evenodd;fill:#D9D9D9;}
	.st9{clip-path:url(#SVGID_4_);}
	.st10{clip-path:url(#SVGID_6_);fill-rule:evenodd;clip-rule:evenodd;fill:#DADCDD;}
	.st11{clip-path:url(#SVGID_6_);fill:none;stroke:#DADCDD;stroke-width:0;stroke-linecap:square;stroke-miterlimit:10;}
	.st12{fill:none;stroke:#808080;stroke-width:5;stroke-linecap:round;stroke-linejoin:round;stroke-miterlimit:10;}
	.st13{fill:none;stroke:#000000;stroke-linecap:round;stroke-linejoin:round;stroke-miterlimit:10;}
	.st14{fill:#FFFFFF;stroke:#000000;stroke-linecap:round;stroke-linejoin:round;stroke-miterlimit:10;}
	.st15{fill:#FF00FF;stroke:#000000;stroke-width:0.25;stroke-linecap:round;stroke-linejoin:round;stroke-miterlimit:10;}
</style>
<g id="grid">
</g>
<g id="viewport">
</g>
<g id="Layer_2">
	<g>
		<path d="M36.8,26.2c-2,0-3.5,1.6-3.5,3.5v0.3h-2.8c-0.7,0-1.3,0.3-1.8,0.8c0,0,0,0,0,0c-0.3,0.3-0.7,0.5-1,0.5h-1.5V13.1h7
			c0.9,0,1.7-0.8,1.7-1.7S34,9.7,33.1,9.7H16c-0.9,0-1.7,0.8-1.7,1.7s0.8,1.7,1.7,1.7h6.7v18.2h-1.2c-0.4,0-0.8-0.2-1.1-0.5
			c-0.5-0.5-1.1-0.8-1.8-0.8h-3v-0.3c0-2-1.6-3.5-3.5-3.5s-3.5,1.6-3.5,3.5v5.8c0,2,1.6,3.5,3.5,3.5c1.8,0,3.2-1.3,3.5-3h3
			c0.7,0,1.4-0.3,1.8-0.8c0.3-0.3,0.7-0.5,1.1-0.5l6.1,0c0.4,0,0.8,0.2,1.1,0.5c0.5,0.5,1.1,0.8,1.8,0.8h2.8c0.3,1.7,1.7,3,3.5,3
			c2,0,3.5-1.6,3.5-3.5v-5.8C40.3,27.8,38.7,26.2,36.8,26.2z M14.6,30.6v5c0,1.4-1.1,2.5-2.5,2.5S9.5,37,9.5,35.6v-5.8
			c0-1.4,1.1-2.5,2.5-2.5s2.5,1.1,2.5,2.5V30.6z M30.3,10.7h2.8c0.4,0,0.7,0.3,0.7,0.7s-0.3,0.7-0.7,0.7h-2.8V10.7z M18.8,12.1H16
			c-0.4,0-0.7-0.3-0.7-0.7s0.3-0.7,0.7-0.7h2.8V12.1z M19.8,12.1v-1.4h9.5v1.4h-3.7h-2.4H19.8z M25.1,13.1v18.1h-1.4V13.1H25.1z
			 M33.2,35.1h-2.7c-0.4,0-0.8-0.2-1.1-0.5c-0.5-0.5-1.1-0.8-1.8-0.8l-6.1,0c-0.7,0-1.4,0.3-1.8,0.8c-0.3,0.3-0.7,0.5-1.1,0.5h-3
			v-4.1h3c0.4,0,0.8,0.2,1.1,0.5c0.5,0.5,1.1,0.8,1.8,0.8h6.2c0.7,0,1.3-0.3,1.8-0.8l0,0c0.3-0.3,0.7-0.5,1-0.5h2.8V35.1z
			 M39.3,35.6c0,1.4-1.1,2.5-2.5,2.5s-2.5-1.1-2.5-2.5v-5v-0.8c0-1.4,1.1-2.5,2.5-2.5s2.5,1.1,2.5,2.5V35.6z"/>
	</g>
</g>
<g id="Layer_3">
</g>
</svg>
