<?xml version="1.0" encoding="utf-8"?>
<!-- Generator: Adobe Illustrator 21.0.0, SVG Export Plug-In . SVG Version: 6.00 Build 0)  -->
<svg version="1.1" xmlns="http://www.w3.org/2000/svg" xmlns:xlink="http://www.w3.org/1999/xlink" x="0px" y="0px"
	 viewBox="0 0 49.1 49.1" style="enable-background:new 0 0 49.1 49.1;" xml:space="preserve">
<style type="text/css">
	.st0{opacity:0.2;}
	.st1{fill:#FFFFFF;}
	.st2{fill:none;stroke:#000000;stroke-width:0.25;stroke-miterlimit:10;}
	.st3{opacity:0.5;}
	.st4{opacity:4.000000e-02;stroke:#000000;stroke-width:0.25;stroke-miterlimit:10;}
	.st5{fill:none;stroke:#000000;stroke-width:5;stroke-linecap:round;stroke-linejoin:round;stroke-miterlimit:10;}
	.st6{fill:#FFFFFF;stroke:#000000;stroke-width:5;stroke-linecap:round;stroke-linejoin:round;stroke-miterlimit:10;}
	.st7{fill:none;}
	.st8{clip-path:url(#SVGID_4_);fill-rule:evenodd;clip-rule:evenodd;fill:#D9D9D9;}
	.st9{clip-path:url(#SVGID_4_);}
	.st10{clip-path:url(#SVGID_6_);fill-rule:evenodd;clip-rule:evenodd;fill:#DADCDD;}
	.st11{clip-path:url(#SVGID_6_);fill:none;stroke:#DADCDD;stroke-width:0;stroke-linecap:square;stroke-miterlimit:10;}
	.st12{fill:none;stroke:#808080;stroke-width:5;stroke-linecap:round;stroke-linejoin:round;stroke-miterlimit:10;}
	.st13{fill:none;stroke:#000000;stroke-linecap:round;stroke-linejoin:round;stroke-miterlimit:10;}
	.st14{fill:#FFFFFF;stroke:#000000;stroke-linecap:round;stroke-linejoin:round;stroke-miterlimit:10;}
	.st15{fill:#FF00FF;stroke:#000000;stroke-width:0.25;stroke-linecap:round;stroke-linejoin:round;stroke-miterlimit:10;}
</style>
<g id="grid">
</g>
<g id="viewport">
</g>
<g id="Layer_2">
	<g>
		<path d="M20.3,40.9c0.1,0.2,0.3,0.3,0.5,0.3h7.3c0.2,0,0.4-0.1,0.5-0.3l1.4-3.3c1.4-0.2,2.4-1.3,2.4-2.7V14.5
			c0-1.2-0.8-2.3-1.9-2.6L29,8.4c-0.1-0.2-0.3-0.3-0.5-0.3H21c-0.2,0-0.4,0.1-0.5,0.3l-1.4,3.3c-1.3,0.2-2.3,1.4-2.3,2.7v20.4
			c0,1.3,0.9,2.4,2.2,2.7L20.3,40.9z M27.8,40.2h-6.6L20,37.7h8.8L27.8,40.2z M21.3,9.1h6.9l1.1,2.6h-9.2L21.3,9.1z M17.7,34.9V14.5
			c0-1,0.8-1.8,1.8-1.8h10.1c1,0,1.8,0.8,1.8,1.8v20.4c0,1-0.8,1.8-1.8,1.8h0H19.5C18.5,36.7,17.7,35.9,17.7,34.9z"/>
		<path d="M20,21C20,21,20.1,21,20,21l0.2,0.2c0,0,0,0,0,0l4,4c0.1,0.1,0.2,0.1,0.4,0.1c0,0,0,0,0,0c0.1,0,0.3-0.1,0.4-0.1l4-4
			c0,0,0,0,0,0l0.2-0.2c0.1-0.1,0.2-0.3,0.3-0.4c0.3-0.5,0.5-1.1,0.5-1.6c0-0.8-0.3-1.6-0.9-2.2c-0.6-0.6-1.4-0.9-2.2-0.9
			c0,0,0,0,0,0c-0.6,0-1.1,0.2-1.6,0.5c-0.2,0.1-0.4,0.3-0.6,0.5c-0.2-0.2-0.4-0.4-0.6-0.5c-0.5-0.3-1.1-0.5-1.7-0.5
			c-1.7,0-3.1,1.4-3.1,3.1c0,0.6,0.2,1.2,0.5,1.6C19.8,20.7,19.9,20.8,20,21z M22.3,16.8C22.3,16.8,22.3,16.8,22.3,16.8
			c0.4,0,0.8,0.1,1.1,0.3c0.3,0.2,0.5,0.4,0.7,0.7c0.1,0.2,0.3,0.3,0.4,0.3h0c0.2,0,0.3-0.1,0.4-0.3c0.2-0.3,0.4-0.6,0.7-0.7
			c0.3-0.2,0.7-0.3,1.1-0.3c0,0,0,0,0,0c0.6,0,1.1,0.2,1.5,0.6c0.4,0.4,0.6,0.9,0.6,1.5c0,0.4-0.1,0.8-0.3,1.1
			c-0.1,0.1-0.1,0.2-0.2,0.3c0,0,0,0,0,0l-0.2,0.2c0,0,0,0,0,0l-3.6,3.6L21,20.5c0,0,0,0-0.1-0.1l-0.1-0.1c0,0,0,0,0,0
			c-0.1-0.1-0.1-0.2-0.2-0.3c-0.2-0.3-0.3-0.7-0.3-1.1C20.3,17.8,21.2,16.8,22.3,16.8z"/>
		<path d="M21.3,31.9c0.2,0,0.4-0.1,0.4-0.3l1.2-2.3l1.1,4.4c0,0.2,0.2,0.3,0.4,0.4c0,0,0.1,0,0.1,0c0.2,0,0.3-0.1,0.4-0.2l1.4-2.1
			h3.2c0.3,0,0.5-0.2,0.5-0.5s-0.2-0.5-0.5-0.5H26c-0.2,0-0.3,0.1-0.4,0.2l-0.9,1.3l-1.2-4.6c-0.1-0.2-0.2-0.3-0.4-0.4
			c-0.2,0-0.4,0.1-0.5,0.3L21,30.9h-1.4c-0.3,0-0.5,0.2-0.5,0.5s0.2,0.5,0.5,0.5H21.3z"/>
	</g>
</g>
<g id="Layer_3">
</g>
</svg>
