<?xml version="1.0" standalone="no"?>
<!DOCTYPE svg PUBLIC "-//W3C//DTD SVG 1.1//EN" "http://www.w3.org/Graphics/SVG/1.1/DTD/svg11.dtd" >
<svg xmlns="http://www.w3.org/2000/svg">
<metadata>Generated by IcoMoon</metadata>
<defs>
<font id="icomoon" horiz-adv-x="1024">
<font-face units-per-em="1024" ascent="960" descent="-64" />
<missing-glyph horiz-adv-x="1024" />
<glyph unicode="&#x20;" horiz-adv-x="512" d="" />
<glyph unicode="&#xe900;" glyph-name="arrow-top-right" d="M1024 78.582h-86.414v795.004h-803.646v86.414h890.059v-881.418zM0.125-3.228l950.772 950.772 61.104-61.104-950.772-950.772-61.104 61.104z" />
<glyph unicode="&#xe901;" glyph-name="check-star" horiz-adv-x="1030" d="M539.593-64l-134.898 171.689-208.479-73.581 6.132 220.743-202.347 73.581 141.030 165.557-104.24 190.084 220.743 30.659 42.922 220.743 183.952-116.503 171.689 141.030 67.449-214.611h220.743l-73.581-202.347 165.557-147.162-190.084-104.24 36.79-220.743-214.611 42.922-128.766-177.82zM429.222 181.269l110.371-134.898 91.976 147.162 165.557-30.659-24.527 171.689 147.162 79.713-128.766 116.503 61.317 165.557h-177.82l-55.186 165.557-134.898-116.503-141.030 91.976-36.79-171.689-171.689-30.659 85.844-153.293-110.371-128.766 165.557-61.317-6.132-171.689 159.425 61.317zM478.275 310.036l-147.162 104.24 36.79 49.054 98.108-73.581 183.952 190.084 49.054-49.054z" />
<glyph unicode="&#xe902;" glyph-name="chat-dots" horiz-adv-x="1188" d="M437.74 444.092c0-34.537-27.998-62.534-62.534-62.534s-62.534 27.998-62.534 62.534c0 34.537 27.998 62.534 62.534 62.534s62.534-27.998 62.534-62.534zM680.061 444.092c0-34.537-27.998-62.534-62.534-62.534s-62.534 27.998-62.534 62.534c0 34.537 27.998 62.534 62.534 62.534s62.534-27.998 62.534-62.534zM914.565 444.092c0-34.537-27.998-62.534-62.534-62.534s-62.534 27.998-62.534 62.534c0 34.537 27.998 62.534 62.534 62.534s62.534-27.998 62.534-62.534zM648.794-64h-640.977l148.519 273.588c-78.168 62.534-109.435 164.153-109.435 234.504 0 297.038 234.504 515.908 562.809 515.908s586.26-226.687 586.26-515.908c-7.817-297.038-226.687-508.092-547.176-508.092zM132.885 14.168h515.908c273.588 0 461.191 171.969 461.191 429.924 0 242.321-226.687 437.74-508.092 437.74s-484.641-187.603-484.641-437.74c0-62.534 39.084-156.336 109.435-195.42l31.267-15.634-125.069-218.87z" />
<glyph unicode="&#xe903;" glyph-name="armchair" d="M873.484 552.867c0 0-2.467 0-2.467 0l22.207 189.995c0 118.439-96.231 214.67-214.67 214.67h-328.173c-120.906 2.467-217.137-93.764-217.137-212.202v0l22.207-189.995c0 0-2.467 0-2.467 0-83.894 0-150.516-66.622-150.516-150.516v0-2.467c0 0 0-2.467 0-2.467 0-7.402 0-14.805 2.467-22.207 0-2.467 0-2.467 0-4.935 2.467-7.402 4.935-12.337 4.935-19.74 0-2.467 0-2.467 2.467-4.935v0c0-2.467 2.467-2.467 2.467-4.935 12.337-27.142 32.077-51.817 49.349-78.959 17.272-24.675 34.545-54.284 44.414-88.829 4.935-14.805 4.935-27.142 4.935-39.48 0-19.74-2.467-37.012-4.935-54.284 0-7.402 0-14.805 2.467-22.207 2.467-9.87 9.87-19.74 14.805-27.142 9.87-9.87 22.207-17.272 34.545-19.74 9.87-2.467 19.74-2.467 29.61-2.467 7.402-41.947 44.414-74.024 88.829-74.024s81.427 32.077 88.829 71.557h281.292c7.402-41.947 44.414-71.557 88.829-71.557s81.427 32.077 88.829 74.024c14.805 0 27.142 2.467 41.947 7.402 7.402 2.467 17.272 9.87 22.207 14.805 7.402 7.402 12.337 17.272 14.805 27.142 2.467 7.402 2.467 14.805 2.467 22.207 0 17.272-4.935 34.545-4.935 54.284 0 12.337 2.467 24.675 4.935 39.48 14.805 46.882 39.48 81.427 64.154 113.504 12.337 17.272 22.207 34.545 29.61 51.817 9.87 2.467 9.87 2.467 9.87 4.935v0c0 2.467 0 2.467 2.467 4.935 2.467 7.402 4.935 12.337 4.935 19.74 0 2.467 0 2.467 0 4.935 2.467 7.402 2.467 14.805 2.467 22.207 0 0 0 2.467 0 2.467v0 2.467c2.467 83.894-64.154 150.516-148.048 150.516zM170.255 745.33c0 49.349 19.74 93.764 51.817 125.841s76.492 51.817 125.841 51.817h330.641c49.349 0 93.764-19.74 125.841-51.817s51.817-76.492 51.817-125.841l-22.207-197.398c-61.687-17.272-106.101-71.557-108.569-135.711h-424.405c-2.467 66.622-49.349 120.906-108.569 135.711l-22.207 197.398zM772.318 276.511v-2.467c-2.467-12.337-12.337-24.675-27.142-24.675h-468.819c-14.805 0-24.675 9.87-27.142 24.675v74.024c0 14.805 12.337 27.142 27.142 27.142h468.819c14.805 0 27.142-12.337 27.142-27.142v-71.557zM283.759-26.988c-22.207 0-41.947 14.805-51.817 34.545h101.166c-7.402-19.74-27.142-34.545-49.349-34.545zM740.241-26.988c-22.207 0-41.947 14.805-51.817 34.545h101.166c-4.935-19.74-24.675-34.545-49.349-34.545zM930.236 283.913c-17.272-27.142-37.012-59.219-49.349-98.699-4.935-17.272-7.402-34.545-7.402-49.349 0-22.207 4.935-41.947 4.935-54.284 0-4.935 0-7.402-2.467-9.87-2.467-7.402-4.935-9.87-7.402-12.337-4.935-4.935-9.87-7.402-17.272-9.87s-17.272-2.467-29.61-2.467h-619.335c-14.805 0-27.142 2.467-34.545 4.935-4.935 2.467-7.402 4.935-9.87 7.402-4.935 0-7.402 4.935-9.87 12.337 0 2.467-2.467 4.935-2.467 9.87 0 12.337 2.467 32.077 4.935 54.284 0 14.805-2.467 32.077-7.402 49.349-17.272 54.284-44.414 91.296-69.089 123.373-12.337 17.272-19.74 32.077-27.142 46.882-2.467 2.467-2.467 4.935-2.467 7.402-2.467 4.935-2.467 9.87-4.935 12.337 0 2.467 0 2.467 0 4.935 0 4.935-2.467 9.87-2.467 17.272 0 2.467 0 2.467 0 4.935v0c0 32.077 12.337 59.219 34.545 81.427 19.74 19.74 49.349 32.077 81.427 34.545 32.077 0 59.219-12.337 81.427-34.545 19.74-19.74 32.077-44.414 32.077-74.024-27.142-7.402-49.349-32.077-49.349-61.687v-78.959c2.467-32.077 29.61-56.752 61.687-56.752h468.819c32.077 0 59.219 24.675 61.687 56.752v0 78.959c0 29.61-22.207 54.284-49.349 61.687 2.467 29.61 12.337 54.284 32.077 74.024s49.349 32.077 81.427 34.545c32.077 0 59.219-12.337 81.427-34.545 19.74-19.74 32.077-49.349 34.545-81.427v0c0-2.467 0-2.467 0-4.935 0-4.935 0-9.87-2.467-17.272 0-2.467 0-2.467 0-4.935 0-4.935-2.467-9.87-4.935-12.337 0-2.467-2.467-4.935-2.467-7.402-12.337-22.207-29.61-44.414-49.349-71.557zM335.576 663.904c7.402-7.402 19.74-7.402 27.142 0l17.272 17.272 14.805-17.272c7.402-7.402 19.74-7.402 27.142 0s7.402 19.74 0 27.142l-17.272 17.272 17.272 17.272c7.402 7.402 7.402 19.74 0 27.142s-19.74 7.402-27.142 0l-17.272-17.272-17.272 17.272c-7.402 7.402-19.74 7.402-27.142 0s-7.402-19.74 0-27.142l17.272-17.272-17.272-17.272c-4.935-7.402-4.935-19.74 2.467-27.142zM602.063 663.904c7.402-7.402 19.74-7.402 27.142 0l17.272 17.272 17.272-17.272c7.402-7.402 19.74-7.402 27.142 0s7.402 19.74 0 27.142l-17.272 17.272 17.272 17.272c7.402 7.402 7.402 19.74 0 27.142s-19.74 7.402-27.142 0l-17.272-17.272-17.272 17.272c-7.402 7.402-19.74 7.402-27.142 0s-7.402-19.74 0-27.142l17.272-17.272-17.272-17.272c-7.402-7.402-7.402-19.74 0-27.142z" />
<glyph unicode="&#xe904;" glyph-name="broom" horiz-adv-x="1049" d="M1043.74 918.053c-7.402 17.272-19.74 29.61-37.012 37.012v0 0c-7.402 2.467-17.272 4.935-24.675 4.935-27.142 0-51.817-14.805-61.687-41.947l-172.723-421.937-9.87 4.935c-4.935 2.467-9.87 2.467-17.272 2.467-12.337 0-24.675-4.935-32.077-17.272-17.272-22.207-54.284-66.622-111.036-108.569-56.752-39.48-130.776-76.492-219.605-81.427-22.207 0-39.48-19.74-39.48-41.947 0-4.935 0-9.87 2.467-14.805 7.402-19.74 17.272-44.414 32.077-74.024 0 0 0 0 0 0 17.272-29.61 39.48-61.687 66.622-93.764 0 0 2.467-2.467 2.467-2.467 4.935-4.935 9.87-9.87 14.805-14.805 27.142-27.142 59.219-51.817 98.699-71.557 0 0 2.467 0 2.467-2.467 39.48-19.74 83.894-34.545 135.711-41.947 2.467 0 4.935 0 4.935 0 24.675-4.935 51.817-7.402 81.427-7.402 17.272 0 34.545 0 51.817 2.467 0 0 2.467 0 2.467 0 27.142 2.467 56.752 4.935 86.361 12.337 19.74 4.935 34.545 22.207 34.545 41.947v2.467l-22.207 412.067c0 14.805-9.87 29.61-24.675 37.012v0l-17.272 7.402 172.723 424.405c2.467 7.402 4.935 17.272 4.935 24.675s-2.467 14.805-4.935 22.207zM895.692-14.651c-19.74-4.935-37.012-7.402-56.752-9.87 4.935 22.207 12.337 54.284 12.337 91.296 0 17.272-2.467 32.077-4.935 49.349-2.467 9.87-12.337 17.272-22.207 14.805s-17.272-12.337-14.805-22.207c2.467-14.805 4.935-29.61 4.935-41.947 0-27.142-4.935-54.284-7.402-74.024-2.467-7.402-2.467-14.805-4.935-19.74-12.337 0-24.675-2.467-37.012-2.467-17.272 0-32.077 0-46.882 2.467 14.805 24.675 29.61 61.687 32.077 120.906 0 9.87-7.402 19.74-17.272 19.74s-19.74-7.402-19.74-17.272c-2.467-49.349-12.337-78.959-22.207-98.699-4.935-9.87-9.87-14.805-12.337-19.74-34.545 4.935-66.622 14.805-93.764 27.142 7.402 4.935 14.805 12.337 22.207 19.74 9.87 9.87 22.207 22.207 29.61 34.545 4.935 4.935 7.402 12.337 12.337 17.272 2.467 7.402 4.935 12.337 4.935 19.74 0 9.87-7.402 19.74-17.272 19.74s-19.74-7.402-19.74-17.272v0c0 0 0-2.467-2.467-7.402-7.402-12.337-24.675-34.545-41.947-49.349-7.402-7.402-14.805-14.805-22.207-19.74-29.61 17.272-54.284 34.545-74.024 54.284 7.402 2.467 17.272 7.402 27.142 12.337 14.805 7.402 29.61 14.805 41.947 24.675s24.675 19.74 32.077 32.077c4.935 9.87 2.467 19.74-7.402 24.675s-19.74 2.467-24.675-7.402c-2.467-4.935-9.87-12.337-22.207-19.74-17.272-12.337-39.48-22.207-56.752-29.61-7.402-2.467-14.805-7.402-19.74-7.402-17.272 19.74-32.077 39.48-44.414 59.219 12.337 2.467 27.142 7.402 44.414 12.337s37.012 12.337 56.752 22.207c17.272 9.87 34.545 19.74 46.882 32.077 7.402 7.402 4.935 19.74-2.467 27.142s-19.74 4.935-27.142-2.467c-7.402-7.402-19.74-17.272-34.545-24.675-24.675-12.337-51.817-22.207-76.492-27.142-9.87-2.467-19.74-4.935-27.142-7.402-9.87 22.207-17.272 39.48-24.675 54.284v2.467c0 2.467 2.467 4.935 4.935 4.935 98.699 4.935 180.125 44.414 239.345 88.829 7.402 4.935 14.805 12.337 22.207 17.272 19.74-4.935 74.024-17.272 133.243-44.414 27.142-12.337 61.687-32.077 88.829-44.414 14.805-7.402 24.675-14.805 34.545-17.272 2.467 0 2.467-2.467 4.935-2.467l14.805-264.019-4.935-7.402zM875.952 399.884l4.935-98.699c-29.61 14.805-74.024 39.48-111.036 56.752-44.414 19.74-86.361 34.545-113.504 41.947 29.61 27.142 49.349 51.817 61.687 69.089l2.467 2.467h2.467l24.675-9.87c0 0 0 0 0 0s0 0 0 0l123.373-51.817 4.935-9.87zM782.188 481.311l172.723 421.937c4.935 12.337 14.805 17.272 27.142 17.272 2.467 0 7.402 0 9.87-2.467 7.402-2.467 12.337-9.87 17.272-17.272 2.467 0 2.467-2.467 2.467-7.402s0-7.402-2.467-12.337l-172.723-421.937-54.284 22.207zM61.687 286.381c-34.545 0-61.687-27.142-61.687-61.687s27.142-61.687 61.687-61.687c34.545 0 61.687 27.142 61.687 61.687 0 32.077-27.142 61.687-61.687 61.687zM61.687 187.682c-19.74 0-37.012 17.272-37.012 37.012s17.272 37.012 37.012 37.012c19.74 0 37.012-17.272 37.012-37.012 0-22.207-17.272-37.012-37.012-37.012zM214.67 367.807c-9.87 12.337-24.675 19.74-39.48 19.74-9.87 0-22.207-2.467-29.61-9.87-12.337-9.87-19.74-24.675-19.74-39.48 0-9.87 2.467-22.207 9.87-29.61 9.87-12.337 24.675-19.74 39.48-19.74 9.87 0 22.207 2.467 29.61 9.87v0c12.337 9.87 19.74 24.675 19.74 39.48 2.467 9.87-2.467 19.74-9.87 29.61zM192.463 318.458c-4.935-2.467-9.87-4.935-14.805-4.935-7.402 0-14.805 2.467-19.74 9.87-2.467 4.935-4.935 9.87-4.935 14.805 0 7.402 2.467 14.805 9.87 19.74 4.935 2.467 9.87 4.935 14.805 4.935 7.402 0 14.805-2.467 19.74-9.87 2.467-4.935 4.935-9.87 4.935-14.805 0-7.402-4.935-14.805-9.87-19.74zM276.357 101.32l-44.414-9.87-17.272-49.349 34.545-39.48 51.817 9.87 17.272 49.349-34.545 39.48h-7.402zM283.759 34.699l-24.675-4.935-14.805 17.272 7.402 24.675 24.675 4.935 17.272-19.74-9.87-22.207z" />
<glyph unicode="&#xe905;" glyph-name="chair" horiz-adv-x="994" d="M769.851 683.643c-7.402 7.402-19.74 7.402-27.142 0l-17.272-17.272-17.272 17.272c-7.402 7.402-19.74 7.402-27.142 0s-7.402-19.74 0-27.142l17.272-17.272-17.272-17.272c-7.402-7.402-7.402-19.74 0-27.142s19.74-7.402 27.142 0l17.272 17.272 17.272-17.272c7.402-7.402 19.74-7.402 27.142 0s7.402 19.74 0 27.142l-17.272 17.272 17.272 17.272c7.402 7.402 7.402 19.74 0 27.142zM932.704 71.711h-12.337c-4.935 0-9.87 0-14.805-2.467-39.48 12.337-96.231 22.207-162.853 24.675v17.272h182.593c37.012 0 66.622 29.61 66.622 66.622v14.805c0 37.012-29.61 66.622-66.622 66.622h-130.776v61.687h54.284c78.959 0 143.113 64.154 143.113 143.113 0 2.467 0 4.935 0 9.87v0l-17.272 345.446c0 76.492-61.687 140.646-140.646 140.646h-214.67c-78.959 0-140.646-64.154-143.113-140.646v0l-19.74-345.446c0-2.467 0-7.402 0-9.87 0-78.959 64.154-143.113 143.113-143.113h54.284v-61.687h-128.308c-37.012 0-66.622-29.61-66.622-66.622v-14.805c0-37.012 29.61-66.622 66.622-66.622h182.593v-14.805c-66.622-2.467-123.373-12.337-162.853-24.675-4.935 0-9.87 2.467-12.337 2.467h-14.805c-34.545 0-61.687-27.142-61.687-61.687v-14.805c0-34.545 27.142-61.687 61.687-61.687h12.337c34.545 0 61.687 27.142 61.687 61.687v12.337c0 12.337-2.467 22.207-9.87 32.077 37.012 9.87 83.894 14.805 140.646 14.805s103.634-7.402 140.646-17.272c-4.935-9.87-9.87-19.74-9.87-32.077v-9.87c0-34.545 27.142-61.687 61.687-61.687h12.337c34.545 0 61.687 27.142 61.687 61.687v12.337c4.935 34.545-22.207 61.687-56.752 61.687zM525.571 390.014c-19.74 19.74-29.61 44.414-29.61 74.024 0 2.467 0 4.935 0 7.402v0l19.74 345.446c0 29.61 12.337 54.284 29.61 74.024 19.74 19.74 44.414 29.61 74.024 29.61h214.67c29.61 0 54.284-12.337 74.024-29.61 19.74-19.74 29.61-44.414 29.61-74.024v0l17.272-345.446c0-2.467 0-4.935 0-7.402 0-29.61-12.337-54.284-29.61-74.024-19.74-19.74-44.414-32.077-74.024-32.077h-251.682c-29.61 0-56.752 12.337-74.024 32.077zM690.892 320.925h69.089v-61.687h-69.089v61.687zM493.494 180.28v14.805c0 17.272 12.337 29.61 29.61 29.61h402.198c17.272 0 29.61-12.337 29.61-29.61v-14.805c0-17.272-12.337-29.61-29.61-29.61h-402.198c-14.805-2.467-29.61 12.337-29.61 29.61zM555.181-2.313c0-14.805-9.87-24.675-24.675-24.675h-12.337c-14.805 0-24.675 9.87-24.675 24.675v12.337c0 14.805 9.87 24.675 24.675 24.675h12.337c4.935 0 7.402 0 9.87-2.467v0 0 0c7.402-4.935 12.337-12.337 12.337-22.207v-12.337zM957.378-2.313c0-14.805-9.87-24.675-24.675-24.675h-12.337c-14.805 0-24.675 9.87-24.675 24.675v12.337c0 14.805 9.87 24.675 24.675 24.675h12.337c14.805 0 24.675-9.87 24.675-24.675v-12.337zM298.564 444.299h-278.824c-9.87 0-19.74-7.402-19.74-19.74 0-9.87 7.402-19.74 19.74-19.74h281.292c19.74 0 37.012-14.805 37.012-37.012 0-9.87-4.935-19.74-9.87-24.675-7.402-7.402-14.805-9.87-24.675-9.87h-283.759c-9.87 0-19.74-7.402-19.74-19.74 0-9.87 7.402-19.74 19.74-19.74v0h118.439v-254.149c0-9.87 7.402-19.74 19.74-19.74s14.805 12.337 14.805 22.207v254.149h81.427v-342.978c0-9.87 7.402-19.74 19.74-19.74s19.74 7.402 19.74 19.74v342.978h7.402c19.74 0 39.48 7.402 51.817 22.207 12.337 12.337 22.207 32.077 22.207 51.817s-7.402 39.48-22.207 51.817c-14.805 12.337-32.077 22.207-54.284 22.207z" />
<glyph unicode="&#xe906;" glyph-name="dry-cleaning" horiz-adv-x="772" d="M537.908 676.241c0 2.467 0 2.467-2.467 4.935-7.402 14.805-9.87 32.077-9.87 46.882s2.467 29.61 4.935 41.947c2.467 4.935 2.467 9.87 2.467 12.337v2.467c2.467 9.87 0 19.74-9.87 24.675s-19.74 0-24.675-9.87v0c0 0-12.337-32.077-12.337-71.557 0-12.337 0-22.207 4.935-34.545-29.61 7.402-59.219 12.337-88.829 14.805-2.467 7.402-4.935 17.272-9.87 27.142-12.337 29.61-17.272 61.687-17.272 91.296s4.935 59.219 9.87 78.959c2.467 9.87 4.935 17.272 7.402 24.675 2.467 0 2.467 2.467 2.467 2.467v2.467c2.467 9.87 0 19.74-9.87 24.675s-19.74 0-24.675-9.87v0c0 0-19.74-54.284-19.74-123.373 0-34.545 4.935-71.557 22.207-108.569 2.467-2.467 2.467-7.402 4.935-9.87-37.012-2.467-71.557-7.402-103.634-19.74-4.935 12.337-7.402 27.142-7.402 39.48 0 14.805 2.467 29.61 4.935 41.947 2.467 4.935 2.467 9.87 2.467 12.337v2.467c2.467 9.87 0 19.74-9.87 24.675s-19.74 0-24.675-9.87v0c0 0-12.337-32.077-12.337-71.557 0-17.272 2.467-34.545 9.87-54.284-133.243-61.687-227.007-194.93-227.007-352.848 0-212.202 172.723-384.925 384.925-384.925s384.925 172.723 384.925 384.925c2.467 160.386-93.764 296.096-231.942 355.316zM631.672 74.178c-64.154-64.154-150.516-101.166-246.747-101.166s-182.593 39.48-246.747 101.166c-64.154 64.154-101.166 150.516-101.166 246.747s39.48 182.593 101.166 246.747c29.61 29.61 64.154 51.817 101.166 69.089 2.467-9.87 4.935-19.74 4.935-29.61 0-14.805-2.467-27.142-4.935-34.545-2.467-4.935-2.467-7.402-4.935-9.87v-2.467c-4.935-7.402-2.467-19.74 4.935-24.675s19.74-2.467 24.675 4.935c2.467 2.467 17.272 27.142 17.272 66.622 0 12.337-2.467 27.142-7.402 41.947 32.077 9.87 66.622 17.272 103.634 17.272 4.935-22.207 7.402-41.947 7.402-59.219 0-29.61-4.935-51.817-12.337-69.089-2.467-7.402-4.935-14.805-7.402-17.272l-2.467-4.935c-4.935-7.402-2.467-19.74 4.935-24.675s19.74-2.467 24.675 4.935c2.467 2.467 29.61 44.414 29.61 113.504 0 17.272-2.467 37.012-7.402 59.219 32.077-2.467 64.154-9.87 93.764-22.207 4.935-14.805 7.402-27.142 7.402-39.48 0-14.805-2.467-27.142-4.935-34.545-2.467-4.935-2.467-7.402-4.935-9.87v-2.467c-4.935-7.402-2.467-19.74 4.935-24.675s19.74-2.467 24.675 4.935c2.467 2.467 17.272 27.142 17.272 66.622 0 4.935 0 12.337-2.467 19.74 29.61-17.272 56.752-37.012 81.427-59.219 64.154-64.154 101.166-150.516 101.166-246.747 2.467-96.231-37.012-182.593-101.166-246.747zM313.369 382.612c-14.805 12.337-34.545 19.74-56.752 19.74h-83.894v-222.072h39.48v81.427h41.947c24.675 0 44.414 4.935 59.219 17.272s22.207 29.61 22.207 51.817c0 19.74-7.402 37.012-22.207 51.817zM254.149 296.251h-41.947v69.089h44.414c12.337 0 22.207-4.935 27.142-9.87 7.402-7.402 9.87-14.805 9.87-24.675 0-12.337-2.467-19.74-9.87-24.675-4.935-7.402-14.805-9.87-29.61-9.87zM424.405 399.884l-91.296-239.345h34.545l2.467 4.935 91.296 234.41h-32.077zM491.027 180.28h39.48v91.296h86.361v34.545h-86.361v59.219h101.166v34.545h-140.646z" />
<glyph unicode="&#xe907;" glyph-name="fireplace" horiz-adv-x="1026" d="M1026.467 661.436v22.207c0 54.284-44.414 98.699-98.699 98.699h-123.373l-41.947 128.308c-9.87 29.61-37.012 49.349-66.622 49.349h-367.653c-29.61 0-54.284-19.74-64.154-46.882l-41.947-128.308h-123.373c-54.284 0-98.699-44.414-98.699-98.699v-22.207c0-49.349 34.545-88.829 81.427-98.699v-493.494h-12.337c-39.48 0-69.089-29.61-69.089-66.622v-24.675c0-24.675 19.74-41.947 44.414-41.947h940.106c24.675 0 41.947 19.74 41.947 41.947v24.675c0 37.012-29.61 66.622-66.622 69.089h-14.805v491.027c44.414 7.402 81.427 46.882 81.427 96.231zM298.564 900.781c4.935 12.337 17.272 22.207 29.61 22.207h367.653c12.337 0 24.675-7.402 29.61-22.207v0l39.48-115.971h-503.364l37.012 115.971zM37.012 661.436v22.207c0 34.545 27.142 61.687 61.687 61.687h826.602c34.545 0 61.687-27.142 61.687-61.687v-22.207c0-34.545-27.142-61.687-61.687-61.687h-826.602c-34.545 0-61.687 27.142-61.687 61.687zM718.034 71.711v32.077c0 37.012-29.61 66.622-66.622 69.089h-271.422c-37.012 0-66.622-29.61-69.089-69.089v-32.077h-41.947v491.027h488.559v-491.027h-39.48zM681.022 71.711h-335.576v32.077c0 17.272 14.805 29.61 32.077 32.077h271.422c17.272 0 29.61-14.805 32.077-32.077v-32.077zM118.439 562.737h113.504v-491.027h-113.504v491.027zM989.455 5.089v-24.675c0-2.467-2.467-4.935-7.402-7.402h-937.639c-2.467 0-4.935 2.467-7.402 7.402v24.675c0 17.272 14.805 29.61 32.077 32.077h890.757c14.805-2.467 29.61-17.272 29.61-32.077zM794.525 71.711v491.027h113.504v-491.027h-113.504zM759.981 913.118v0 0zM434.275 505.986c-7.402-7.402-9.87-17.272-2.467-27.142 22.207-29.61 29.61-51.817 29.61-69.089s-7.402-34.545-17.272-51.817c-9.87-17.272-19.74-39.48-19.74-66.622 0-17.272 4.935-37.012 19.74-59.219 4.935-7.402 17.272-12.337 24.675-4.935 7.402 4.935 12.337 17.272 4.935 24.675v0c-9.87 17.272-12.337 27.142-12.337 39.48 0 14.805 7.402 29.61 17.272 49.349s19.74 41.947 19.74 69.089c0 27.142-9.87 56.752-37.012 91.296-7.402 7.402-19.74 9.87-27.142 4.935zM589.725 350.535c0 19.74-7.402 39.48-24.675 64.154-7.402 7.402-17.272 9.87-27.142 2.467-7.402-7.402-9.87-17.272-2.467-27.142 14.805-19.74 17.272-32.077 17.272-39.48 0-9.87-4.935-19.74-9.87-32.077s-14.805-27.142-14.805-46.882c0-12.337 4.935-27.142 12.337-41.947 4.935-7.402 17.272-12.337 24.675-4.935 7.402 4.935 12.337 17.272 4.935 24.675v0c-2.467 12.337-2.467 19.74-4.935 24.675 0 7.402 4.935 17.272 9.87 29.61 7.402 9.87 14.805 27.142 14.805 46.882z" />
<glyph unicode="&#xe908;" glyph-name="spray" horiz-adv-x="1009" d="M957.538 546.462l-4.923 2.462 4.923 61.538v2.462c0 14.769-9.846 27.077-24.615 29.538l-34.462 9.846 2.462 4.923 9.846-2.462c2.462 0 4.923 0 7.385 0 14.769 0 24.615 9.846 29.538 22.154l14.769 54.154c0 2.462 0 4.923 0 7.385 0 12.308-9.846 24.615-22.154 29.538v0l-54.154 14.769c-2.462 0-4.923 0-7.385 0-14.769 0-27.077-9.846-29.538-22.154l-14.769-54.154c0-2.462 0-4.923 0-7.385 0-12.308 9.846-24.615 22.154-29.538l9.846-2.462-4.923-4.923-36.923 9.846c-2.462 0-4.923 2.462-9.846 2.462-9.846 0-22.154-4.923-27.077-14.769v0l-24.615-59.077-4.923 2.462c-4.923 2.462-12.308 2.462-17.231 2.462-29.538 0-56.615-19.692-66.462-49.231l-132.923-477.538c-2.462-4.923-2.462-12.308-2.462-17.231 0-29.538 19.692-56.615 49.231-66.462v0l201.846-56.615c4.923-2.462 12.308-2.462 17.231-2.462 29.538 0 56.615 19.692 66.462 49.231l132.923 477.538c2.462 4.923 2.462 12.308 2.462 17.231 0 32-19.692 59.077-51.692 66.462zM930.462 731.077l2.462 7.385 2.462 12.308-4.923-19.692zM925.538 733.538l-12.308-41.846-41.846 12.308 12.308 41.846 41.846-12.308zM819.692 635.077l100.923-27.077-4.923-49.231-115.692 32 19.692 44.308zM969.846 472.615l-132.923-477.538c-2.462-12.308-17.231-22.154-29.538-22.154-2.462 0-4.923 0-7.385 0l-201.846 56.615c-12.308 2.462-22.154 17.231-22.154 29.538 0 2.462 0 4.923 0 7.385l132.923 477.538c2.462 12.308 17.231 22.154 29.538 22.154 2.462 0 4.923 0 7.385 0l201.846-56.615c12.308-2.462 22.154-17.231 22.154-29.538 2.462 0 0-4.923 0-7.385zM600.615 957.538v0 0zM524.308 657.231v0h-4.923c-17.231 7.385-27.077 22.154-27.077 36.923 0 2.462 0 7.385 2.462 9.846 0 4.923 2.462 7.385 4.923 9.846l12.308 17.231-19.692 9.846c-22.154 12.308-36.923 34.462-36.923 59.077 0 4.923 0 12.308 2.462 17.231 7.385 29.538 34.462 49.231 66.462 49.231h22.154v19.692c0 2.462 0 4.923 0 7.385 2.462 17.231 19.692 29.538 34.462 29.538 2.462 0 7.385 0 9.846-2.462v0l4.923-2.462c9.846-4.923 19.692 0 24.615 9.846s0 19.692-9.846 24.615c-2.462 2.462-7.385 2.462-12.308 4.923-2.462 2.462-9.846 2.462-17.231 2.462-32 0-61.538-22.154-71.385-54.154-41.846-4.923-78.769-32-88.615-76.308-2.462-9.846-4.923-17.231-4.923-27.077 0-32 14.769-64 41.846-83.692 0 0 0-2.462 0-2.462-2.462-7.385-2.462-12.308-2.462-19.692 0-32 22.154-64 54.154-71.385v0c4.923 0 7.385-2.462 12.308-2.462 9.846 0 19.692 7.385 19.692 17.231s-7.385 17.231-17.231 17.231zM800 366.769c-9.846 2.462-17.231 2.462-27.077 2.462-44.308 0-83.692-29.538-96-73.846-2.462-9.846-2.462-17.231-2.462-27.077 0-44.308 29.538-83.692 73.846-96 9.846-2.462 17.231-2.462 27.077-2.462 44.308 0 83.692 29.538 96 73.846 2.462 9.846 2.462 17.231 2.462 27.077 0 44.308-29.538 83.692-73.846 96zM834.462 253.538c-7.385-27.077-32-46.769-61.538-46.769-4.923 0-12.308 0-17.231 2.462-27.077 7.385-46.769 32-46.769 61.538 0 4.923 0 12.308 2.462 17.231 7.385 27.077 32 46.769 61.538 46.769 4.923 0 12.308 0 17.231-2.462 27.077-7.385 46.769-32 46.769-61.538 0-4.923 0-9.846-2.462-17.231zM615.385 876.308c-4.923-9.846-2.462-19.692 7.385-24.615l147.692-83.692c9.846-4.923 19.692-2.462 24.615 7.385s2.462 19.692-7.385 24.615l-147.692 83.692c-7.385 4.923-19.692 2.462-24.615-7.385zM608 676.923l98.462 7.385c9.846 0 17.231 9.846 17.231 19.692s-9.846 17.231-19.692 17.231l-98.462-7.385c-9.846 0-17.231-9.846-17.231-19.692s9.846-17.231 19.692-17.231zM679.385 758.154c2.462 9.846-2.462 19.692-12.308 22.154l-123.077 32c-9.846 2.462-19.692-2.462-22.154-12.308-4.923-12.308 2.462-22.154 12.308-24.615l123.077-32c9.846 0 19.692 4.923 22.154 14.769zM388.923 920.615c0-10.876-8.817-19.692-19.692-19.692s-19.692 8.817-19.692 19.692c0 10.876 8.817 19.692 19.692 19.692s19.692-8.817 19.692-19.692zM88.615 763.077c0-10.876-8.817-19.692-19.692-19.692s-19.692 8.817-19.692 19.692c0 10.876 8.817 19.692 19.692 19.692s19.692-8.817 19.692-19.692zM206.769 856.615c0-10.876-8.817-19.692-19.692-19.692s-19.692 8.817-19.692 19.692c0 10.876 8.817 19.692 19.692 19.692s19.692-8.817 19.692-19.692zM364.308 834.462c0-10.876-8.817-19.692-19.692-19.692s-19.692 8.817-19.692 19.692c0 10.876 8.817 19.692 19.692 19.692s19.692-8.817 19.692-19.692zM241.231 745.846c0-10.876-8.817-19.692-19.692-19.692s-19.692 8.817-19.692 19.692c0 10.876 8.817 19.692 19.692 19.692s19.692-8.817 19.692-19.692zM169.846 920.615c0-10.876-8.817-19.692-19.692-19.692s-19.692 8.817-19.692 19.692c0 10.876 8.817 19.692 19.692 19.692s19.692-8.817 19.692-19.692zM39.385 834.462c0-10.876-8.817-19.692-19.692-19.692s-19.692 8.817-19.692 19.692c0 10.876 8.817 19.692 19.692 19.692s19.692-8.817 19.692-19.692zM83.692 886.154c0-10.876-8.817-19.692-19.692-19.692s-19.692 8.817-19.692 19.692c0 10.876 8.817 19.692 19.692 19.692s19.692-8.817 19.692-19.692z" />
<glyph unicode="&#xe909;" glyph-name="window" d="M957.378 960h-888.289c-39.48 0-69.089-29.61-69.089-69.089v-888.289c0-37.012 29.61-66.622 69.089-66.622h888.289c37.012 0 66.622 29.61 69.089 66.622v888.289c-2.467 39.48-32.077 69.089-69.089 69.089zM986.988 2.622c0-17.272-14.805-29.61-32.077-32.077h-888.289c-17.272 0-29.61 14.805-32.077 32.077v888.289c0 17.272 14.805 29.61 32.077 32.077h888.289c17.272 0 29.61-14.805 32.077-32.077v-888.289zM900.627 212.357v579.855c0 24.675-19.74 41.947-44.414 44.414h-690.892c-22.207 0-41.947-19.74-41.947-44.414v-690.892c0-24.675 19.74-41.947 44.414-41.947h293.629c0 0 0 0 0 0s0 0 0 0h83.894c0 0 0 0 0 0s0 0 0 0h310.901c24.675 0 41.947 19.74 44.414 41.947v111.036c0 0 0 0 0 0zM863.614 792.212v-552.713c-81.427 32.077-175.19 51.817-271.422 51.817-9.87 0-17.272 0-27.142 0v508.299h291.161c4.935 0 7.402-2.467 7.402-7.402zM160.386 387.547h283.759v-108.569c-113.504-19.74-207.267-66.622-283.759-130.776v239.345zM481.157 404.819c0 9.87-7.402 19.74-19.74 19.74h-301.031v46.882h301.031c9.87 0 19.74 7.402 19.74 19.74v308.434h46.882v-703.229h-46.882v308.434zM167.788 799.614h276.357v-291.161h-283.759v283.759c0 4.935 2.467 7.402 7.402 7.402zM160.386 98.853c74.024 69.089 165.32 118.439 281.292 140.646v-143.113h-273.889c-2.467 0-4.935 2.467-7.402 2.467zM858.68 96.386h-293.629v157.918c9.87 0 17.272 0 27.142 0 98.699 0 192.463-19.74 271.422-54.284v-98.699c0-2.467-2.467-4.935-4.935-4.935z" />
<glyph unicode="&#xe90a;" glyph-name="hours" horiz-adv-x="999" d="M499.619 935.238c-94.68 0-183.533-26.219-257.821-71.374l24.762 87.397-27.676 8.74-40.785-141.292 132.552-20.393 4.37 29.132-78.657 11.653c71.374 42.242 154.401 67.004 243.255 67.004 129.639 0 247.624-52.438 333.565-138.378 84.484-84.484 136.922-202.469 136.922-332.108 0-101.963-32.046-196.643-88.853-273.844l23.306-17.479c59.721 81.57 93.223 182.077 93.223 291.323 1.457 276.757-221.405 499.619-498.162 499.619zM732.677 84.575v0l81.57 1.457c-83.027-74.287-193.73-119.442-313.172-119.442-129.639 0-247.624 52.438-333.565 138.378-85.94 83.027-138.378 201.013-138.378 330.651 0 48.068 7.283 93.223 20.393 135.465l-27.676 8.74c-14.566-45.155-21.849-93.223-21.849-144.205 0-276.757 224.319-499.619 499.619-499.619 126.725 0 241.798 46.612 329.195 123.812l-10.196-85.94 29.132-2.913 17.479 144.205-132.552-1.457v-29.132zM302.976 537.582c-7.283-13.11-11.653-29.132-11.653-45.155v-2.913h30.589v2.913c0 18.936 5.826 33.502 16.023 43.698 10.196 11.653 24.762 17.479 42.242 17.479s30.589-4.37 40.785-14.566c10.196-10.196 14.566-21.849 14.566-39.329 0-10.196-2.913-21.849-8.74-33.502s-16.023-26.219-32.046-45.155v0l-96.137-109.246v-21.849h182.077v26.219h-142.748l72.831 81.57c20.393 23.306 34.959 42.242 43.698 58.265s13.11 30.589 13.11 43.698c0 23.306-7.283 43.698-23.306 56.808-14.566 14.566-36.415 20.393-62.634 20.393-17.479 0-33.502-4.37-46.612-11.653v0c-13.11-2.913-24.762-14.566-32.046-27.676zM633.627 576.91l-131.095-198.1v-17.479h131.095v-69.917h30.589v69.917h43.698v26.219h-43.698v189.36c0 0-30.589 0-30.589 0zM540.404 387.55l88.853 136.922 2.913 5.826v-142.748h-91.767z" />
<glyph unicode="&#xe90b;" glyph-name="detergents" horiz-adv-x="903" d="M455.805 425.522v-2.498c0-7.493 4.995-12.488 12.488-12.488h1.249c6.244 0 12.488 3.746 12.488 11.239 7.493 61.19 26.224 107.395 48.702 142.361 33.717 52.449 78.673 78.673 117.385 93.659 38.712 13.737 72.429 14.985 82.42 14.985h2.498c7.493 0 12.488 4.995 12.488 12.488s-4.995 12.488-12.488 12.488v0 0c-61.19 7.493-107.395 26.224-142.361 48.702-52.449 33.717-78.673 78.673-93.659 117.385-13.737 38.712-14.985 72.429-14.985 82.42v2.498c0 1.249 0 1.249 0 2.498v1.249c0 1.249-1.249 1.249-1.249 2.498 0 0 0 1.249-1.249 1.249 0 1.249-1.249 1.249-2.498 2.498l-1.249 1.249c-1.249 0-1.249 0-2.498 1.249h-1.249c-1.249 0-1.249 0-2.498 0s-1.249 0-2.498 0-1.249 0-1.249-1.249c-1.249 0-1.249-1.249-2.498-1.249l-1.249-1.249c-1.249-1.249-1.249-1.249-1.249-2.498v-1.249c0-1.249-1.249-1.249-1.249-2.498-7.493-61.19-26.224-107.395-48.702-142.361-33.717-52.449-78.673-78.673-117.385-93.659-38.712-13.737-72.429-14.985-82.42-14.985h-2.498c-1.249 0-1.249 0-2.498 0h-1.249c-1.249 0-2.498-1.249-2.498-1.249s-1.249 0-1.249-1.249-1.249-1.249-2.498-2.498l-1.249-1.249c0-1.249-1.249-1.249-1.249-2.498v-1.249c0-1.249 0-1.249 0-2.498s0-1.249 0-2.498 0-1.249 1.249-1.249c0-1.249 1.249-1.249 1.249-2.498l1.249-1.249c1.249-1.249 1.249-1.249 2.498-1.249h1.249c1.249 0 1.249-1.249 2.498-1.249 61.19-7.493 107.395-26.224 142.361-48.702 52.449-33.717 78.673-78.673 93.659-117.385 12.488-43.707 13.737-77.424 13.737-86.166zM360.898 645.307c-22.478 14.985-49.951 27.473-82.42 37.463 19.98 4.995 42.459 13.737 66.185 27.473 29.971 17.483 61.19 43.707 84.917 82.42 14.985 22.478 27.473 49.951 37.463 82.42 4.995-19.98 13.737-42.459 27.473-66.185 17.483-29.971 43.707-61.19 82.42-84.917 22.478-14.985 49.951-27.473 82.42-37.463-19.98-4.995-42.459-13.737-64.937-27.473-29.971-17.483-61.19-43.707-84.917-82.42-14.985-23.727-28.722-51.2-37.463-83.668-4.995 21.229-13.737 43.707-28.722 67.434-17.483 29.971-43.707 59.941-82.42 84.917zM325.932 368.078v0 0 0 0c-36.215 4.995-62.439 14.985-82.42 27.473-29.971 19.98-44.956 44.956-53.698 67.434s-8.741 41.21-8.741 47.454v1.249c0 1.249 0 1.249 0 2.498s0 1.249 0 2.498-1.249 1.249-1.249 2.498c0 0 0 1.249-1.249 1.249 0 1.249-1.249 1.249-2.498 1.249l-1.249 1.249c-1.249 0-1.249 0-2.498 1.249h-1.249c-1.249 0-1.249 0-2.498 0s-1.249 0-2.498 0-1.249-1.249-2.498-1.249c-1.249 0-1.249-1.249-2.498-1.249l-1.249-1.249c0-1.249-1.249-1.249-1.249-2.498 0 0 0-1.249-1.249-2.498 0-1.249-1.249-1.249-1.249-2.498-4.995-36.215-14.985-62.439-27.473-82.42-19.98-29.971-44.956-44.956-67.434-53.698s-41.21-8.741-47.454-8.741h-1.249c-1.249 0-1.249 0-2.498 0s-1.249 0-2.498 0-1.249-1.249-2.498-1.249c0 0-1.249 0-1.249-1.249-1.249 0-1.249-1.249-1.249-2.498l-1.249-1.249c0-1.249 0-1.249-1.249-2.498v-1.249c0-1.249 0-1.249 0-2.498s0-1.249 0-2.498 0-1.249 1.249-2.498c0-1.249 1.249-1.249 1.249-2.498l1.249-1.249c1.249 0 1.249-1.249 2.498-1.249h1.249c1.249 0 1.249-1.249 2.498-1.249 36.215-4.995 62.439-14.985 82.42-27.473 29.971-19.98 44.956-44.956 53.698-67.434s8.741-41.21 8.741-47.454v-1.249c0-6.244 4.995-12.488 11.239-12.488v0 0 0h1.249c6.244 0 11.239 4.995 12.488 11.239 4.995 36.215 14.985 62.439 27.473 82.42 19.98 29.971 44.956 44.956 67.434 53.698s41.21 8.741 47.454 8.741h1.249c1.249 0 2.498 0 2.498 0v0c4.995 1.249 8.741 6.244 9.99 11.239 1.249 6.244-3.746 11.239-9.99 12.488zM187.317 294.4c-6.244-9.99-12.488-22.478-17.483-36.215-3.746 8.741-7.493 17.483-12.488 26.224-11.239 18.732-27.473 37.463-49.951 52.449-9.99 6.244-22.478 12.488-34.966 17.483 8.741 2.498 17.483 7.493 26.224 12.488 18.732 11.239 37.463 27.473 52.449 49.951 6.244 9.99 12.488 22.478 17.483 34.966 2.498-8.741 7.493-17.483 12.488-26.224 11.239-18.732 27.473-37.463 49.951-52.449 9.99-6.244 22.478-12.488 36.215-17.483-8.741-2.498-16.234-7.493-24.976-12.488-21.229-8.741-38.712-24.976-54.946-48.702zM890.38 178.263v0 0c-51.2 6.244-88.663 21.229-117.385 39.961-42.459 27.473-64.937 63.688-76.176 96.156s-12.488 59.941-12.488 67.434v1.249c0 1.249 0 1.249 0 2.498v1.249c0 1.249-1.249 1.249-1.249 2.498 0 0 0 1.249-1.249 1.249 0 1.249-1.249 1.249-2.498 1.249l-1.249 1.249c-1.249 0-1.249 0-2.498 1.249h-1.249c-1.249 0-1.249 0-2.498 0s-1.249 0-2.498 0-1.249 0-1.249-1.249c-1.249 0-1.249-1.249-2.498-1.249l-1.249-1.249c-1.249-1.249-1.249-1.249-1.249-2.498v-1.249c0-1.249-1.249-1.249-1.249-2.498-6.244-51.2-21.229-88.663-39.961-117.385-27.473-42.459-63.688-64.937-96.156-76.176s-59.941-12.488-67.434-12.488h-1.249c-1.249 0-1.249 0-2.498 0h-1.249c-1.249 0-1.249-1.249-2.498-1.249 0 0-1.249 0-1.249-1.249-1.249 0-1.249-1.249-1.249-2.498l-1.249-1.249c0-1.249 0-1.249-1.249-2.498v-1.249c0-1.249 0-1.249 0-2.498s0-1.249 0-2.498 0-1.249 1.249-1.249c0-1.249 1.249-1.249 1.249-2.498l1.249-1.249c1.249-1.249 1.249-1.249 2.498-1.249h1.249c1.249 0 1.249-1.249 2.498-1.249 51.2-6.244 88.663-21.229 117.385-39.961 42.459-27.473 64.937-63.688 76.176-96.156s12.488-59.941 12.488-67.434v-1.249c0-7.493 4.995-12.488 12.488-12.488h1.249c6.244 0 11.239 3.746 12.488 11.239 6.244 51.2 21.229 88.663 39.961 117.385 27.473 42.459 64.937 64.937 96.156 76.176 32.468 11.239 59.941 12.488 67.434 12.488h1.249c7.493 0 12.488 4.995 12.488 12.488-2.498 3.746-7.493 9.99-14.985 9.99zM774.244 147.044c-24.976-14.985-51.2-37.463-71.18-68.683-11.239-17.483-21.229-38.712-29.971-63.688-4.995 14.985-11.239 32.468-21.229 49.951-14.985 24.976-37.463 51.2-68.683 71.18-17.483 11.239-38.712 21.229-62.439 28.722 14.985 4.995 31.22 11.239 48.702 21.229 24.976 14.985 51.2 37.463 71.18 68.683 11.239 17.483 21.229 38.712 28.722 62.439 4.995-14.985 11.239-31.22 21.229-48.702 14.985-24.976 37.463-51.2 68.683-71.18 17.483-11.239 38.712-21.229 62.439-28.722-14.985-4.995-31.22-11.239-47.454-21.229z" />
<glyph unicode="&#xe90c;" glyph-name="quality" d="M163.66 944.985v0 0zM693.677 314.37h-139.636l-15.015 45.044-28.528 88.587-28.528-88.587-15.015-45.044h-138.135l112.61-81.079-15.015-45.044-28.528-88.587 112.61 81.079 112.61-81.079-28.528 88.587-15.015 45.044 37.537 27.026 76.575 54.053zM545.032 243.801l21.021-66.065-55.554 40.54-55.554-40.54 21.021 66.065-55.554 40.54h69.067l21.021 66.065 21.021-66.065h69.067l-55.554-40.54zM635.12 539.589v138.135h-109.607v70.569c141.138 6.006 264.258 82.581 333.326 196.692l-25.525 15.015c-66.065-109.607-184.68-181.677-321.314-181.677-138.135 0-256.751 72.070-322.815 181.677l-25.525-15.015c69.067-114.111 190.686-190.686 331.824-196.692v-70.569h-109.607v-138.135c-111.109-49.548-189.185-159.155-189.185-289.783 0-174.17 141.138-313.806 313.806-313.806 174.17 0 313.806 141.138 313.806 313.806 1.501 130.628-76.575 240.235-189.185 289.783zM417.408 647.695h189.185v-97.595c-30.029 9.009-61.56 15.015-94.592 15.015s-64.563-4.504-94.592-15.015c0 0 0 97.595 0 97.595zM711.695 48.61c-51.050-51.050-123.12-82.581-201.196-82.581s-150.147 31.531-201.196 82.581-82.581 123.12-82.581 201.196 31.531 150.147 82.581 201.196 123.12 82.581 201.196 82.581 150.147-31.531 201.196-82.581 82.581-123.12 82.581-201.196c1.501-78.076-30.029-148.645-82.581-201.196z" />
<glyph unicode="&#xe90d;" glyph-name="ruble-square" d="M860.394 960l-860.394-163.606 163.606-860.394 860.394 163.606-163.606 860.394zM33.598 773.021l803.424 151.92 151.92-803.424-803.424-151.92-151.92 803.424zM541.946 660.542h-144.616v-236.645h-54.049v-30.676h54.049v-58.431h-54.049v-32.137h54.049v-94.95h30.676v94.95h165.067v30.676h-165.067v58.431h115.401c45.284 0 81.803 11.686 108.097 35.058s39.441 56.97 39.441 97.872-13.147 75.96-39.441 99.332c-26.294 24.833-62.813 36.519-109.558 36.519zM428.006 629.866h113.94c37.98 0 67.195-10.225 87.646-27.755 20.451-18.99 30.676-43.823 30.676-77.421 0-32.137-10.225-56.97-30.676-74.499s-49.666-26.294-87.646-26.294h-113.94c0 0 0 205.969 0 205.969z" />
<glyph unicode="&#xe90e;" glyph-name="chek" d="M40.96 448l382.293-218.453-88.747-6.827 634.88 587.093 54.613-47.787-593.92-641.707-40.96-40.96-47.787 34.133-341.333 279.893z" />
<glyph unicode="&#xe90f;" glyph-name="dash" d="M0 482.133h1024v-68.267h-1024v68.267z" />
<glyph unicode="&#xe910;" glyph-name="quote2" d="M1024 542.208c0-110.592-28.672-208.896-86.016-299.008-57.344-86.016-143.36-159.744-253.952-212.992l-28.672 61.44c69.632 28.672 126.976 73.728 176.128 135.168s73.728 122.88 73.728 188.416c0 28.672-4.096 49.152-8.192 69.632-36.864-28.672-77.824-45.056-122.88-45.056-57.344 0-110.592 20.48-151.552 57.344s-61.44 90.112-61.44 155.648c0 40.96 8.192 77.824 28.672 106.496 20.48 32.768 45.056 57.344 77.824 77.824s65.536 28.672 106.496 28.672c86.016 0 151.552-36.864 196.608-106.496 32.768-57.344 53.248-126.976 53.248-217.088zM462.848 542.208c0-110.592-28.672-208.896-86.016-299.008-53.248-86.016-139.264-155.648-253.952-208.896l-28.672 61.44c69.632 28.672 126.976 73.728 176.128 135.168s73.728 122.88 73.728 188.416c0 28.672-4.096 49.152-8.192 69.632-36.864-28.672-77.824-45.056-122.88-45.056-61.44 0-110.592 20.48-151.552 57.344s-61.44 90.112-61.44 151.552 20.48 110.592 61.44 151.552 90.112 61.44 151.552 61.44c86.016 0 151.552-36.864 196.608-106.496 32.768-57.344 53.248-126.976 53.248-217.088z" />
<glyph unicode="&#xe911;" glyph-name="menu" d="M36.032 795.664h941.936c17.984 0 32.544 14.56 32.544 32.544 0 17.968-14.56 32.544-32.544 32.544h-941.936c-17.984 0-32.544-14.576-32.544-32.544s14.56-32.544 32.544-32.544zM977.968 479.76h-941.936c-17.984 0-32.544-14.592-32.544-32.56 0-17.952 14.56-32.544 32.544-32.544h941.936c17.984 0 32.544 14.592 32.544 32.544 0 17.968-14.56 32.56-32.544 32.56zM977.968 97.984h-941.936c-17.984 0-32.544-14.56-32.544-32.544 0-17.968 14.56-32.544 32.544-32.544h941.936c17.984 0 32.544 14.576 32.544 32.544 0 17.984-14.56 32.544-32.544 32.544z" />
<glyph unicode="&#xe912;" glyph-name="plus" d="M36.441 411.559c-20.158 0-36.181 16.543-36.181 36.702s16.022 36.181 36.181 36.181h438.825v438.857c0.033 20.158 16.576 36.702 36.734 36.702s36.181-16.543 36.181-36.702v-438.857h438.825c20.158 0 36.702-16.022 36.702-36.181s-16.543-36.702-36.702-36.702h-438.825v-438.857c0-20.158-16.022-36.702-36.181-36.702s-36.702 16.543-36.702 36.702v438.857h-438.857z" />
<glyph unicode="&#xe913;" glyph-name="right-arrow" d="M320.695-2.878c-6.35-6.35-14.288-9.526-23.020-9.526s-16.67 3.175-23.020 9.526c-12.701 12.701-12.701 33.34 0 46.040l404.837 404.837-404.837 404.837c-12.701 12.701-12.701 33.34 0 46.040s33.34 12.701 46.040 0l427.857-427.857c12.701-12.701 12.701-33.34 0-46.040l-427.857-427.857z" />
<glyph unicode="&#xe914;" glyph-name="close" d="M581.458 448l428.205 428.205c19.181 19.181 19.181 50.277 0 69.458s-50.277 19.181-69.458 0l-428.205-428.205-428.205 428.14c-19.181 19.181-50.277 19.181-69.458 0s-19.181-50.277 0-69.458l428.205-428.205-428.14-428.14c-19.181-19.181-19.181-50.277 0-69.458 9.623-9.558 22.127-14.402 34.696-14.402s25.138 4.779 34.696 14.402l428.205 428.205 428.205-428.205c9.623-9.558 22.127-14.402 34.696-14.402s25.138 4.779 34.696 14.402c19.181 19.181 19.181 50.277 0 69.458l-428.14 428.205z" />
<glyph unicode="&#xe915;" glyph-name="check-round" d="M512-64c-47.104 0-92.501 6.144-136.192 18.432-43.691 12.293-84.48 29.525-122.368 51.712s-72.363 48.811-103.424 79.872c-31.061 31.058-57.685 65.536-79.872 103.424-22.187 37.891-39.424 78.677-51.712 122.37-12.288 43.689-18.432 89.086-18.432 136.19s6.144 92.501 18.432 136.192 29.525 84.48 51.712 122.368 48.811 72.363 79.872 103.424 65.536 57.685 103.424 79.872 78.677 39.424 122.368 51.712 89.088 18.432 136.192 18.432c70.315 0 136.704-13.483 199.168-40.448s116.736-63.488 162.816-109.568 82.603-100.352 109.568-162.816 40.448-128.853 40.448-199.168c0-47.104-6.144-92.501-18.432-136.192-12.293-43.686-29.525-84.475-51.712-122.368-22.187-37.888-48.811-72.363-79.872-103.424-31.058-31.061-65.536-57.69-103.424-79.872-37.891-22.187-78.677-39.424-122.371-51.712-43.687-12.288-89.085-18.432-136.189-18.432zM826.368 592.384l-81.92 82.944c-2.731 2.731-6.485 4.096-11.259 4.096-4.779 0-8.538-1.365-11.264-4.096l-321.539-321.536-98.306 99.328c-7.509 6.144-15.019 6.144-22.528 0l-81.92-82.944c-2.731-2.732-4.096-6.485-4.096-11.264 0-4.096 1.365-7.509 4.096-10.24l191.488-191.488c3.413-3.413 7.168-5.125 11.264-5.125h1.024c4.779 0 8.192 1.708 10.24 5.125l414.72 413.696c3.413 3.413 5.125 7.168 5.125 11.264-0.005 4.096-1.712 7.509-5.125 10.24z" />
<glyph unicode="&#xe916;" glyph-name="minus-round" d="M512 960c-282.752 0-512-229.248-512-512s229.248-512 512-512 512 229.248 512 512-229.248 512-512 512zM768 384h-512v128h512v-128z" />
</font>
</defs>
</svg>
