<?xml version="1.0" encoding="utf-8"?>
<!-- Generator: Adobe Illustrator 21.0.0, SVG Export Plug-In . SVG Version: 6.00 Build 0)  -->
<svg version="1.1" id="Layer_1" xmlns="http://www.w3.org/2000/svg" xmlns:xlink="http://www.w3.org/1999/xlink" x="0px" y="0px"
	 viewBox="0 0 54.662 36.774" enable-background="new 0 0 54.662 36.774" xml:space="preserve">
<g>
	<g>
		<rect x="0.5" y="0.5" fill="#FFFFFF" width="31.303" height="31.303"/>
		<path d="M32.304,32.303H0V0h32.304V32.303z M1,31.303h30.304V1H1V31.303z"/>
	</g>
	<g>
		<rect x="31.803" y="22.859" fill="#B84843" width="22.359" height="8.944"/>
		<path d="M54.662,32.303H31.304v-9.943h23.358V32.303z M32.304,31.303h21.358v-7.943H32.304V31.303z"/>
	</g>
	<g>
		<path d="M54.662,23.359H31.304v-8.453h15.405c4.386,0,7.953,3.567,7.953,7.953V23.359z M32.304,22.359h21.341
			c-0.257-3.602-3.27-6.453-6.936-6.453H32.304V22.359z"/>
	</g>
	<g>
		<circle fill="#FFFFFF" cx="12.425" cy="31.803" r="4.472"/>
		<path d="M12.425,36.774c-2.741,0-4.972-2.23-4.972-4.972s2.23-4.972,4.972-4.972c2.742,0,4.973,2.23,4.973,4.972
			S15.167,36.774,12.425,36.774z M12.425,27.831c-2.19,0-3.972,1.781-3.972,3.972s1.781,3.972,3.972,3.972s3.973-1.781,3.973-3.972
			S14.615,27.831,12.425,27.831z"/>
	</g>
	<g>
		<circle fill="#FFFFFF" cx="42.238" cy="31.803" r="4.472"/>
		<path d="M42.237,36.774c-2.741,0-4.972-2.23-4.972-4.972s2.23-4.972,4.972-4.972s4.972,2.23,4.972,4.972
			S44.979,36.774,42.237,36.774z M42.237,27.831c-2.19,0-3.972,1.781-3.972,3.972s1.781,3.972,3.972,3.972s3.972-1.781,3.972-3.972
			S44.428,27.831,42.237,27.831z"/>
	</g>
	<g>
		<path d="M12.925,23.359H5.963v-6.963h6.962V23.359z M6.963,22.359h4.962v-4.963H6.963V22.359z"/>
	</g>
	<g>
		<rect x="18.388" y="16.897" fill="#B84843" width="5.962" height="5.962"/>
		<path d="M24.851,23.359h-6.963v-6.963h6.963V23.359z M18.888,22.359h4.963v-4.963h-4.963V22.359z"/>
	</g>
	<g>
		<path d="M18.888,17.396h-6.963v-6.962h6.963V17.396z M12.925,16.396h4.963v-4.962h-4.963V16.396z"/>
	</g>
</g>
</svg>
