<?xml version="1.0" encoding="utf-8"?>
<!-- Generator: Adobe Illustrator 21.0.0, SVG Export Plug-In . SVG Version: 6.00 Build 0)  -->
<svg version="1.1" id="Layer_1" xmlns="http://www.w3.org/2000/svg" xmlns:xlink="http://www.w3.org/1999/xlink" x="0px" y="0px"
	 viewBox="0 0 33.86 38.629" enable-background="new 0 0 33.86 38.629" xml:space="preserve">
<g>
	<g>
		<path fill="#B84843" d="M17.808,4.951H8.916c0-2.457,1.995-4.451,4.451-4.451C15.814,0.5,17.808,2.495,17.808,4.951z"/>
		<path d="M18.308,5.451H8.416v-0.5C8.416,2.221,10.637,0,13.367,0c2.725,0,4.941,2.221,4.941,4.951V5.451z M9.447,4.451h7.83
			C17.031,2.508,15.372,1,13.367,1C11.357,1,9.694,2.508,9.447,4.451z"/>
	</g>
	<g>
		<path fill="#FFFFFF" d="M17.808,4.951c0,2.457-1.995,4.441-4.441,4.441c-2.457,0-4.451-1.984-4.451-4.441H17.808z"/>
		<path d="M13.367,9.892c-2.73,0-4.951-2.216-4.951-4.94v-0.5h9.893v0.5C18.308,7.676,16.092,9.892,13.367,9.892z M9.447,5.451
			c0.247,1.938,1.911,3.44,3.92,3.44c2.004,0,3.663-1.503,3.91-3.44H9.447z"/>
	</g>
	<g>
		<path fill="#FFFFFF" d="M26.733,16.269h-6.231l-3.33-5.167H7.414l-6.273,6.72c-0.899,0.963-0.846,2.472,0.116,3.371
			c0.963,0.896,2.47,0.846,3.371-0.116l4.857-5.204h1.526l-2.534,8.238l8.319,4.625v7.01c0,1.317,1.068,2.385,2.385,2.385
			c1.317,0,2.385-1.068,2.385-2.385v-9.684l-6.738-4.119l1.143-3.922l1.889,3.018h8.873c1.317,0,2.385-1.068,2.385-2.385
			C29.118,17.337,28.05,16.269,26.733,16.269z"/>
		<path d="M19.181,38.629c-1.591,0-2.885-1.294-2.885-2.885v-6.716l-8.062-4.482C8.028,24.432,7.931,24.188,8,23.962l2.335-7.591
			H9.703l-4.709,5.045c-1.086,1.16-2.915,1.225-4.077,0.142c-0.563-0.526-0.889-1.24-0.915-2.01
			c-0.027-0.771,0.248-1.505,0.774-2.067l6.272-6.72c0.095-0.102,0.227-0.159,0.365-0.159h9.758c0.17,0,0.328,0.086,0.42,0.229
			l3.183,4.938h5.959c1.591,0,2.885,1.294,2.885,2.885s-1.294,2.885-2.885,2.885H17.86c-0.172,0-0.332-0.089-0.424-0.234
			l-1.298-2.073l-0.725,2.483l6.413,3.92c0.148,0.091,0.239,0.253,0.239,0.427v9.684C22.066,37.335,20.771,38.629,19.181,38.629z
			 M9.074,23.869l7.965,4.429c0.158,0.088,0.257,0.255,0.257,0.437v7.01c0,1.039,0.846,1.885,1.885,1.885
			c1.04,0,1.886-0.846,1.886-1.885v-9.403l-6.5-3.973c-0.192-0.118-0.282-0.35-0.22-0.566l1.144-3.921
			c0.056-0.189,0.217-0.328,0.412-0.355c0.194-0.024,0.389,0.063,0.492,0.229l1.742,2.783h8.597c1.039,0,1.885-0.846,1.885-1.885
			s-0.846-1.885-1.885-1.885h-6.231c-0.17,0-0.328-0.086-0.42-0.229l-3.183-4.938H7.631l-6.124,6.561
			c-0.344,0.368-0.523,0.848-0.506,1.352c0.018,0.503,0.229,0.969,0.598,1.312c0.76,0.706,1.955,0.666,2.665-0.093L9.12,15.53
			c0.095-0.102,0.227-0.159,0.365-0.159h1.526c0.158,0,0.308,0.075,0.402,0.203c0.094,0.127,0.122,0.292,0.075,0.444L9.074,23.869z"
			/>
	</g>
	<g>
		<path fill="#FFFFFF" d="M7.895,25.808l-2.54,5.469L1.562,33.76c-1.096,0.731-1.393,2.211-0.661,3.307
			c0.46,0.689,1.216,1.062,1.986,1.062c0.455,0,0.914-0.129,1.321-0.401l5.085-3.343l2.972-6.094L7.895,25.808z"/>
		<path d="M2.887,38.629c-0.968,0-1.866-0.48-2.402-1.284c-0.883-1.323-0.523-3.118,0.801-4.001l3.677-2.406l2.479-5.34
			c0.059-0.126,0.168-0.223,0.301-0.266s0.277-0.027,0.399,0.042l4.37,2.483c0.229,0.13,0.318,0.417,0.202,0.653l-2.972,6.094
			c-0.039,0.081-0.1,0.149-0.175,0.199l-5.085,3.343C4.01,38.461,3.457,38.629,2.887,38.629z M8.119,26.512l-2.311,4.977
			c-0.039,0.084-0.102,0.156-0.18,0.207l-3.793,2.482c-0.415,0.277-0.701,0.704-0.8,1.197s0.001,0.996,0.28,1.415
			c0.557,0.834,1.775,1.082,2.614,0.522l4.973-3.27l2.706-5.548L8.119,26.512z"/>
	</g>
	<g>
		<rect x="17.808" y="4.451" width="4.262" height="1"/>
	</g>
	<g>
		<rect x="24.079" y="4.95" fill="#B84843" width="9.281" height="9.281"/>
		<path d="M33.86,14.731H23.579V4.45H33.86V14.731z M24.579,13.731h8.281V5.45h-8.281V13.731z"/>
	</g>
</g>
</svg>
