<svg xmlns="http://www.w3.org/2000/svg" xmlns:xlink="http://www.w3.org/1999/xlink" width="196" height="43" viewBox="0 0 196 43"><defs><path id="15kma" d="M190.17 119.66c0 2.89-5.78 13.36-12.17 17.26v-34.5c6.42 3.97 12.17 14.4 12.17 17.24z"/><path id="15kmb" d="M157.78 119.67a10.9 10.9 0 0 1 18.67-7.6V101.6l-.13-.05a19.67 19.67 0 1 0 .13 36.17v-10.47a10.9 10.9 0 0 1-18.66-7.59z"/><path id="15kmc" d="M161.55 119.66a7.12 7.12 0 1 1 14.24.02 7.12 7.12 0 0 1-14.24-.02z"/><path id="15kmd" d="M200.26 117.23l1.38-.2 5.86-16.75h3.96l5.83 16.76 1.37.19v2.33h-6.56v-2.33l1.33-.23-.84-2.51h-6.25l-.85 2.51 1.34.23v2.33h-6.57zm6.99-5.72h4.42l-2.17-6.8h-.08z"/><path id="15kme" d="M219.61 107.56v-2.33h5.65l.18 2.06a5.25 5.25 0 0 1 1.76-1.71c.7-.4 1.47-.61 2.34-.61a4.3 4.3 0 0 1 3.38 1.36c.81.91 1.21 2.33 1.21 4.27v6.23l1.87.4v2.33h-7.4v-2.33l1.67-.4v-6.23c0-.96-.2-1.64-.58-2.05-.4-.4-.98-.6-1.77-.6a2.85 2.85 0 0 0-2.4 1.2v7.68l1.57.4v2.33h-7.28v-2.33l1.85-.4v-8.9l-2.05-.36"/><path id="15kmf" d="M237.34 112.52c0-2.26.5-4.08 1.48-5.47a4.79 4.79 0 0 1 4.13-2.08 4.13 4.13 0 0 1 3.68 2.05l.28-1.78h3.35v13.9c0 1.88-.59 3.4-1.77 4.52-1.19 1.12-2.82 1.69-4.89 1.69a10.6 10.6 0 0 1-4.55-1.12l.71-2.72c.62.26 1.24.47 1.86.63.61.15 1.27.23 1.96.23.94 0 1.65-.29 2.11-.86.47-.58.7-1.38.7-2.4v-.94c-.42.54-.92.96-1.49 1.24-.57.29-1.23.43-1.97.43a4.88 4.88 0 0 1-4.11-1.94c-.99-1.3-1.48-3-1.48-5.1zm3.87.28c0 1.26.2 2.25.63 2.97.42.73 1.11 1.09 2.07 1.09.59 0 1.09-.11 1.5-.33.41-.21.74-.53.99-.95v-6.26a2.68 2.68 0 0 0-2.47-1.37c-.94 0-1.63.42-2.07 1.26a7.2 7.2 0 0 0-.65 3.3z"/><path id="15kmg" d="M252.69 107.56v-2.33h5.65l.18 2.1a4.5 4.5 0 0 1 1.3-1.74 2.9 2.9 0 0 1 1.83-.62 4.7 4.7 0 0 1 1.2.16l-.4 3.52-1.6-.04c-.56 0-1.02.11-1.4.33-.37.22-.65.54-.84.94v6.95l1.85.4v2.33h-7.57v-2.33l1.85-.4v-8.87l-2.05-.4"/><path id="15kmh" d="M263.76 107.56v-2.33h7.02v2.33l-1.6.27 1.95 5.74.2 1.04.08.01 2.27-6.8-1.62-.26v-2.33h7.02v2.33l-1.34.2-5.27 13.94a7.71 7.71 0 0 1-1.66 2.6c-.7.7-1.74 1.04-3.13 1.04-.33 0-.63-.02-.92-.08-.29-.05-.63-.12-1.01-.22l.45-2.76.38.06.34.02c.65 0 1.14-.16 1.49-.47.34-.32.6-.7.8-1.18l.43-1.09-4.54-11.85-1.34-.21"/><path id="15kmi" d="M281.06 117.19v-3.59h1.99l.48 2.77a6.35 6.35 0 0 0 4.3 1.41 5.2 5.2 0 0 0 3.11-.83 2.66 2.66 0 0 0 1.15-2.26c0-.88-.33-1.62-1-2.22-.66-.6-1.83-1.1-3.5-1.5a11.75 11.75 0 0 1-4.78-2.14 4.6 4.6 0 0 1 .2-7.33c1.28-1 2.94-1.5 4.99-1.5 1.35 0 2.57.23 3.68.7 1.1.46 1.99 1.02 2.66 1.68v3.59h-1.96l-.49-2.75a4.8 4.8 0 0 0-1.59-.84 7.32 7.32 0 0 0-2.3-.33c-1.39 0-2.45.3-3.2.88a2.79 2.79 0 0 0-1.1 2.3c0 .83.37 1.53 1.13 2.1.75.55 1.97 1.05 3.66 1.47 2.03.5 3.57 1.24 4.62 2.22a4.77 4.77 0 0 1 1.59 3.64c0 1.56-.64 2.8-1.9 3.75a8.11 8.11 0 0 1-4.97 1.42c-1.49 0-2.8-.24-3.96-.73a7.98 7.98 0 0 1-2.81-1.91"/><path id="15kmj" d="M296.83 107.17v-1.93h2.27v-3.46h2.6v3.46h2.72v1.93h-2.72v8.72c0 .67.14 1.15.42 1.42.28.27.65.41 1.1.41a5.81 5.81 0 0 0 1.5-.19l.36 1.77c-.25.16-.61.29-1.09.39-.47.1-.95.15-1.43.15-1.06 0-1.9-.32-2.53-.96-.62-.64-.93-1.65-.93-3.01v-8.7h-2.27"/><path id="15kmk" d="M306.83 112.27c0-2.12.57-3.87 1.72-5.24a5.77 5.77 0 0 1 4.67-2.06c1.98 0 3.55.68 4.7 2.05a7.86 7.86 0 0 1 1.73 5.25v.29c0 2.13-.58 3.88-1.72 5.24a5.8 5.8 0 0 1-4.68 2.04 5.82 5.82 0 0 1-4.7-2.05 7.86 7.86 0 0 1-1.72-5.23zm2.6.28c0 1.52.33 2.77.97 3.76.64.98 1.59 1.48 2.85 1.48 1.24 0 2.18-.5 2.82-1.49.65-.98.97-2.23.97-3.75v-.29c0-1.5-.33-2.75-.97-3.74-.64-1-1.6-1.5-2.84-1.5-1.26 0-2.2.5-2.84 1.5-.63 1-.95 2.24-.95 3.74z"/><path id="15kml" d="M322.03 117.88l2.16-.37v-10.22l-2.16-.38v-1.68h4.49l.25 2.08a5 5 0 0 1 1.5-1.72 3.5 3.5 0 0 1 2.05-.62 4.45 4.45 0 0 1 1.12.15l-.34 2.42-1.48-.08c-.7 0-1.27.16-1.74.48-.47.32-.83.77-1.08 1.36v8.2l2.15.38v1.68h-6.92z"/><path id="15kmm" d="M333 112.1c0-2.04.6-3.74 1.82-5.1a5.61 5.61 0 0 1 4.31-2.03c1.92 0 3.38.58 4.38 1.75a6.94 6.94 0 0 1 1.49 4.66V113h-9.3l-.04.06c.03 1.38.38 2.5 1.05 3.39a3.33 3.33 0 0 0 2.82 1.33c.88 0 1.65-.13 2.32-.38.67-.25 1.24-.6 1.73-1.04l1.02 1.7c-.52.5-1.2.91-2.03 1.26-.85.34-1.86.5-3.04.5-2 0-3.59-.65-4.76-1.98a7.5 7.5 0 0 1-1.77-5.17zm2.78-1.15h6.6v-.34c0-1.02-.27-1.87-.81-2.56-.55-.69-1.36-1.03-2.44-1.03-.87 0-1.62.37-2.24 1.1a5.2 5.2 0 0 0-1.14 2.77z"/><path id="15kmn" d="M200.26 139.36h1.22v-10.81h-1.22z"/><path id="15kmo" d="M204.15 131.53h1.22v7.83h-1.22zm.6-2.75c.45 0 .83.37.83.83 0 .45-.38.8-.83.8a.81.81 0 0 1-.81-.8c0-.46.37-.83.81-.83z"/><path id="15kmp" d="M208.38 139.36v-6.76h-1.3v-1.07h1.3v-.6c0-1.6.87-2.54 2.27-2.54.61 0 1.16.15 1.65.6l-.5.8a1.43 1.43 0 0 0-.98-.4c-.79 0-1.23.56-1.23 1.55v.6h1.6v1.06h-1.6v6.76z"/><path id="15kmq" d="M216.25 132.34c1.79 0 2.56 1.45 2.58 2.61h-5.14c.07-1.2.9-2.6 2.56-2.6zm-3.84 3.1c0 2.45 1.67 4.12 3.99 4.12 1.28 0 2.33-.42 3.1-1.2l-.57-.8c-.62.63-1.53 1-2.42 1-1.68 0-2.72-1.24-2.82-2.72h6.34v-.3c0-2.35-1.4-4.2-3.76-4.2-2.24 0-3.86 1.83-3.86 4.1z"/><path id="15kmr" d="M221.55 138.32l.63-.87c.52.6 1.51 1.12 2.58 1.12 1.2 0 1.85-.57 1.85-1.35 0-1.9-4.85-.73-4.85-3.63 0-1.21 1.05-2.25 2.92-2.25 1.33 0 2.27.5 2.9 1.13l-.57.85a3.05 3.05 0 0 0-2.33-1c-1.07 0-1.74.54-1.74 1.24 0 1.72 4.85.58 4.85 3.63 0 1.31-1.05 2.37-3.08 2.37a4.16 4.16 0 0 1-3.16-1.24"/><path id="15kms" d="M230.25 137.72v-5.12h-1.3v-1.07h1.3v-2.14h1.21v2.14h1.6v1.07h-1.6v4.86c0 .58.26 1 .8 1 .34 0 .66-.14.82-.32l.36.91c-.3.3-.75.5-1.46.5-1.15 0-1.73-.66-1.73-1.83"/><path id="15kmt" d="M234.76 141.32c.18.08.47.13.67.13.53 0 .89-.18 1.16-.83l.52-1.18-3.27-7.91h1.31l2.61 6.42 2.6-6.42h1.32l-3.92 9.42c-.47 1.13-1.26 1.57-2.3 1.59-.26 0-.66-.05-.89-.12z"/><path id="15kmu" d="M243.19 139.36h1.22v-10.81h-1.22z"/><path id="15kmv" d="M250.46 132.34c1.78 0 2.56 1.45 2.58 2.61h-5.14c.07-1.2.9-2.6 2.56-2.6zm-3.84 3.1c0 2.45 1.67 4.12 3.99 4.12 1.28 0 2.33-.42 3.1-1.2l-.57-.8c-.62.63-1.53 1-2.42 1-1.68 0-2.72-1.24-2.82-2.72h6.34v-.3c0-2.35-1.4-4.2-3.76-4.2-2.24 0-3.86 1.83-3.86 4.1z"/><path id="15kmw" d="M265.76 137.71c-.47.65-1.3.97-2.15.97-1.14 0-1.93-.71-1.93-1.7 0-1 .8-1.72 1.93-1.72.86 0 1.68.33 2.15.98zm1.22 1.65v-5.38c0-1.9-1.38-2.64-3.03-2.64a4.1 4.1 0 0 0-3.13 1.3l.57.84a3.1 3.1 0 0 1 2.4-1.09c1.13 0 1.97.6 1.97 1.66v1.4a3.27 3.27 0 0 0-2.6-1.06c-1.32 0-2.73.82-2.73 2.57 0 1.7 1.41 2.6 2.74 2.6 1.05 0 1.94-.38 2.6-1.09v.9z"/><path id="15kmx" d="M269.19 135.44c0-2.32 1.57-4.1 3.9-4.1 1.43 0 2.28.58 2.88 1.36l-.81.75a2.32 2.32 0 0 0-2-1.02c-1.67 0-2.7 1.28-2.7 3.01 0 1.73 1.03 3.03 2.7 3.03.81 0 1.48-.32 2-1.02l.8.75a3.35 3.35 0 0 1-2.86 1.36c-2.34 0-3.91-1.79-3.91-4.12"/><path id="15kmy" d="M277.46 135.44c0-2.32 1.57-4.1 3.9-4.1 1.43 0 2.27.58 2.87 1.36l-.8.75a2.32 2.32 0 0 0-2-1.02c-1.67 0-2.7 1.28-2.7 3.01 0 1.73 1.03 3.03 2.7 3.03.81 0 1.48-.32 2-1.02l.8.75a3.35 3.35 0 0 1-2.86 1.36c-2.34 0-3.91-1.79-3.91-4.12"/><path id="15kmz" d="M289.56 132.34c1.79 0 2.56 1.45 2.58 2.61H287c.07-1.2.9-2.6 2.56-2.6zm-3.84 3.1c0 2.45 1.67 4.12 3.99 4.12 1.28 0 2.33-.42 3.1-1.2l-.57-.8c-.62.63-1.53 1-2.42 1-1.69 0-2.72-1.24-2.82-2.72h6.34v-.3c0-2.35-1.4-4.2-3.76-4.2-2.24 0-3.86 1.83-3.86 4.1z"/><path id="15kmA" d="M294.85 138.32l.63-.87c.52.6 1.51 1.12 2.58 1.12 1.2 0 1.85-.57 1.85-1.35 0-1.9-4.85-.73-4.85-3.63 0-1.21 1.05-2.25 2.92-2.25 1.33 0 2.27.5 2.9 1.13l-.57.85a3.05 3.05 0 0 0-2.33-1c-1.07 0-1.74.54-1.74 1.24 0 1.72 4.85.58 4.85 3.63 0 1.31-1.05 2.37-3.08 2.37a4.16 4.16 0 0 1-3.16-1.24"/><path id="15kmB" d="M302.63 138.32l.63-.87c.52.6 1.51 1.12 2.58 1.12 1.2 0 1.85-.57 1.85-1.35 0-1.9-4.85-.73-4.85-3.63 0-1.21 1.05-2.25 2.92-2.25 1.33 0 2.27.5 2.9 1.13l-.57.85a3.05 3.05 0 0 0-2.33-1c-1.07 0-1.74.54-1.74 1.24 0 1.72 4.85.58 4.85 3.63 0 1.31-1.05 2.37-3.08 2.37a4.16 4.16 0 0 1-3.16-1.24"/><path id="15kmC" d="M317.1 135.44c0 1.6-.92 3.03-2.59 3.03s-2.6-1.42-2.6-3.03c0-1.59.93-3.01 2.6-3.01s2.6 1.42 2.6 3.01zm-6.46 0c0 2.27 1.5 4.12 3.87 4.12 2.39 0 3.88-1.85 3.88-4.12s-1.5-4.1-3.88-4.1-3.87 1.83-3.87 4.1z"/><path id="15kmD" d="M320.6 139.36v-7.83h1.22v1.27a3.33 3.33 0 0 1 2.6-1.43v1.25c-.14-.03-.29-.05-.48-.05-.75 0-1.77.62-2.12 1.25v5.54z"/><path id="15kmE" d="M326.2 131.53h1.2v7.83h-1.2zm.6-2.75c.44 0 .82.37.82.83 0 .45-.37.8-.83.8a.81.81 0 0 1-.81-.8c0-.46.37-.83.81-.83z"/><path id="15kmF" d="M333.46 132.34c1.78 0 2.56 1.45 2.58 2.61h-5.14c.07-1.2.9-2.6 2.56-2.6zm-3.84 3.1c0 2.45 1.67 4.12 3.99 4.12 1.28 0 2.33-.42 3.1-1.2l-.57-.8c-.62.63-1.53 1-2.42 1-1.69 0-2.72-1.24-2.82-2.72h6.34v-.3c0-2.35-1.4-4.2-3.76-4.2-2.24 0-3.86 1.83-3.86 4.1z"/><path id="15kmG" d="M338.76 138.32l.63-.87c.52.6 1.5 1.12 2.58 1.12 1.2 0 1.85-.57 1.85-1.35 0-1.9-4.85-.73-4.85-3.63 0-1.21 1.05-2.25 2.92-2.25 1.33 0 2.27.5 2.9 1.13l-.57.85a3.05 3.05 0 0 0-2.33-1c-1.07 0-1.74.54-1.74 1.24 0 1.72 4.85.58 4.85 3.63 0 1.31-1.05 2.37-3.08 2.37a4.16 4.16 0 0 1-3.16-1.24"/></defs><g><g transform="translate(-149 -100)"><use fill="#f20f23" xlink:href="#15kma"/></g><g clip-path="url(#clip-7D61E38D-FC22-41D4-AAC6-8C4A2E3540A2)" transform="translate(-149 -100)"><use fill="#b7b7be" xlink:href="#15kmb"/></g><g transform="translate(-149 -100)"><use fill="#f20f23" xlink:href="#15kmc"/></g><g transform="translate(-149 -100)"><use xlink:href="#15kmd"/></g><g transform="translate(-149 -100)"><use xlink:href="#15kme"/></g><g transform="translate(-149 -100)"><use xlink:href="#15kmf"/></g><g transform="translate(-149 -100)"><use xlink:href="#15kmg"/></g><g transform="translate(-149 -100)"><use xlink:href="#15kmh"/></g><g transform="translate(-149 -100)"><use xlink:href="#15kmi"/></g><g transform="translate(-149 -100)"><use xlink:href="#15kmj"/></g><g transform="translate(-149 -100)"><use xlink:href="#15kmk"/></g><g transform="translate(-149 -100)"><use xlink:href="#15kml"/></g><g clip-path="url(#clip-FA560A3B-1D5D-4C3C-BFE4-10FA54D33A68)" transform="translate(-149 -100)"><use xlink:href="#15kmm"/></g><g clip-path="url(#clip-E5C1A7C9-329C-4B1A-8A5A-640DD3D4D64A)" transform="translate(-149 -100)"><use xlink:href="#15kmn"/></g><g clip-path="url(#clip-E5C1A7C9-329C-4B1A-8A5A-640DD3D4D64A)" transform="translate(-149 -100)"><use xlink:href="#15kmo"/></g><g clip-path="url(#clip-E5C1A7C9-329C-4B1A-8A5A-640DD3D4D64A)" transform="translate(-149 -100)"><use xlink:href="#15kmp"/></g><g clip-path="url(#clip-E5C1A7C9-329C-4B1A-8A5A-640DD3D4D64A)" transform="translate(-149 -100)"><use xlink:href="#15kmq"/></g><g clip-path="url(#clip-E5C1A7C9-329C-4B1A-8A5A-640DD3D4D64A)" transform="translate(-149 -100)"><use xlink:href="#15kmr"/></g><g clip-path="url(#clip-E5C1A7C9-329C-4B1A-8A5A-640DD3D4D64A)" transform="translate(-149 -100)"><use xlink:href="#15kms"/></g><g clip-path="url(#clip-E5C1A7C9-329C-4B1A-8A5A-640DD3D4D64A)" transform="translate(-149 -100)"><use xlink:href="#15kmt"/></g><g clip-path="url(#clip-E5C1A7C9-329C-4B1A-8A5A-640DD3D4D64A)" transform="translate(-149 -100)"><use xlink:href="#15kmu"/></g><g clip-path="url(#clip-E5C1A7C9-329C-4B1A-8A5A-640DD3D4D64A)" transform="translate(-149 -100)"><use xlink:href="#15kmv"/></g><g clip-path="url(#clip-E5C1A7C9-329C-4B1A-8A5A-640DD3D4D64A)" transform="translate(-149 -100)"><use xlink:href="#15kmw"/></g><g clip-path="url(#clip-E5C1A7C9-329C-4B1A-8A5A-640DD3D4D64A)" transform="translate(-149 -100)"><use xlink:href="#15kmx"/></g><g clip-path="url(#clip-E5C1A7C9-329C-4B1A-8A5A-640DD3D4D64A)" transform="translate(-149 -100)"><use xlink:href="#15kmy"/></g><g clip-path="url(#clip-E5C1A7C9-329C-4B1A-8A5A-640DD3D4D64A)" transform="translate(-149 -100)"><use xlink:href="#15kmz"/></g><g clip-path="url(#clip-E5C1A7C9-329C-4B1A-8A5A-640DD3D4D64A)" transform="translate(-149 -100)"><use xlink:href="#15kmA"/></g><g clip-path="url(#clip-E5C1A7C9-329C-4B1A-8A5A-640DD3D4D64A)" transform="translate(-149 -100)"><use xlink:href="#15kmB"/></g><g clip-path="url(#clip-E5C1A7C9-329C-4B1A-8A5A-640DD3D4D64A)" transform="translate(-149 -100)"><use xlink:href="#15kmC"/></g><g clip-path="url(#clip-E5C1A7C9-329C-4B1A-8A5A-640DD3D4D64A)" transform="translate(-149 -100)"><use xlink:href="#15kmD"/></g><g clip-path="url(#clip-E5C1A7C9-329C-4B1A-8A5A-640DD3D4D64A)" transform="translate(-149 -100)"><use xlink:href="#15kmE"/></g><g clip-path="url(#clip-E5C1A7C9-329C-4B1A-8A5A-640DD3D4D64A)" transform="translate(-149 -100)"><use xlink:href="#15kmF"/></g><g clip-path="url(#clip-E5C1A7C9-329C-4B1A-8A5A-640DD3D4D64A)" transform="translate(-149 -100)"><use xlink:href="#15kmG"/></g></g></svg>