<?xml version="1.0" encoding="utf-8"?>
<!-- Generator: Adobe Illustrator 21.0.0, SVG Export Plug-In . SVG Version: 6.00 Build 0)  -->
<svg version="1.1" id="Layer_1" xmlns="http://www.w3.org/2000/svg" xmlns:xlink="http://www.w3.org/1999/xlink" x="0px" y="0px"
	 viewBox="0 0 50.349 39.573" enable-background="new 0 0 50.349 39.573" xml:space="preserve">
<g>
	<g>
		<g>
			<g>
				<path d="M23.32,12.839h-0.803l-0.004-8.736h-4.695v0.855c0,2.666-0.097,5.752-1.02,7.881h-0.623v3.149h1.404v-1.875h4.335v1.875
					h1.405L23.32,12.839L23.32,12.839z M29.557,12.273c-0.402,0.279-1.104,0.677-1.987,0.677c-1.244,0-1.886-1.194-1.886-3.462
					h4.214V8.632c0-3.402-1.104-4.656-2.789-4.656c-2.147,0-3.05,2.348-3.05,5.571c0,3.084,1.284,4.735,3.371,4.735
					c1.003,0,1.846-0.318,2.488-0.815L29.557,12.273z M13.53,4.09v4.28h-2.328V4.09H9.637v10.028h1.565V9.594h2.328v4.524h1.545
					V4.09H13.53z M35.702,14.114h1.706l-2.869-5.313l2.508-4.716h-1.585l-2.428,4.636V4.086h-1.565v10.028h1.565V9.119
					L35.702,14.114L35.702,14.114z M43.317,13.487l-0.361-1.154c-0.361,0.318-0.943,0.617-1.706,0.617
					c-1.264,0-1.867-1.433-1.867-3.94c0-2.527,0.803-3.78,1.926-3.78c0.642,0,1.244,0.338,1.666,0.696l0.221-1.472
					c-0.442-0.278-0.963-0.517-1.867-0.517c-2.368,0-3.592,2.009-3.592,5.153c0,3.422,1.304,5.154,3.472,5.154
					C42.133,14.243,42.775,13.944,43.317,13.487L43.317,13.487z M20.989,12.874H18.3c0.842-2.129,0.943-5.213,0.943-7.322V5.373
					h1.746L20.989,12.874L20.989,12.874z M28.279,8.232H25.69c0.1-1.791,0.441-2.965,1.404-2.965
					C27.998,5.268,28.279,6.521,28.279,8.232z"/>
			</g>
			<g>
				<path fill="#FF0000" d="M6.17,8.813v5.313h1.545V0H5.407C3.14,0,1.233,1.532,1.233,4.516c0,2.129,0.843,3.283,2.107,3.92
					l-2.689,5.69h1.786l2.448-5.313H6.17z M6.165,7.574H5.342c-1.345,0-2.448-0.736-2.448-3.024c0-2.367,1.204-3.213,2.448-3.213
					h0.822L6.165,7.574z"/>
			</g>
		</g>
	</g>
	<g>
		<path fill="#FCC330" d="M43.755,39.573H0V24.156h43.75l6.599,7.585L43.755,39.573z M1,38.573h42.29l5.742-6.822l-5.737-6.595H1
			V38.573z"/>
	</g>
	<g>
		<path d="M7.256,33.338h0.387c0.33-0.604,0.606-1.281,0.83-2.033c0.224-0.752,0.367-1.506,0.431-2.263h2.581v4.296h0.646v2.078
			h-0.786v-1.377H8.042v1.377H7.256V33.338z M9.587,29.75c-0.05,0.517-0.178,1.116-0.383,1.799c-0.205,0.683-0.438,1.279-0.7,1.789
			h2.163V29.75H9.587z"/>
		<path d="M16.204,32.143c0,0.617-0.159,1.099-0.476,1.445s-0.758,0.52-1.323,0.52c-0.353,0-0.665-0.08-0.936-0.239
			c-0.271-0.159-0.48-0.389-0.626-0.687c-0.146-0.299-0.219-0.646-0.219-1.039c0-0.613,0.157-1.092,0.472-1.436
			c0.314-0.345,0.758-0.517,1.33-0.517c0.547,0,0.979,0.176,1.299,0.528C16.044,31.071,16.204,31.545,16.204,32.143z M13.452,32.143
			c0,0.872,0.322,1.309,0.967,1.309c0.639,0,0.957-0.437,0.957-1.309c0-0.864-0.32-1.296-0.963-1.296
			c-0.338,0-0.582,0.111-0.733,0.335S13.452,31.725,13.452,32.143z"/>
		<path d="M18.651,34.108c-0.572,0-1.007-0.167-1.304-0.501c-0.298-0.334-0.446-0.812-0.446-1.437c0-0.637,0.155-1.125,0.467-1.467
			c0.311-0.342,0.761-0.513,1.349-0.513c0.398,0,0.757,0.074,1.076,0.222l-0.242,0.646c-0.34-0.132-0.62-0.198-0.842-0.198
			c-0.653,0-0.98,0.435-0.98,1.302c0,0.424,0.081,0.743,0.244,0.956s0.402,0.319,0.717,0.319c0.357,0,0.695-0.089,1.015-0.267v0.7
			c-0.144,0.085-0.297,0.146-0.46,0.182S18.884,34.108,18.651,34.108z"/>
		<path d="M23.433,30.259v0.629h-1.23v3.151h-0.807v-3.151h-1.23v-0.629H23.433z"/>
		<path d="M26.526,34.039l-0.16-0.526h-0.027c-0.183,0.23-0.366,0.387-0.551,0.47s-0.422,0.125-0.711,0.125
			c-0.371,0-0.661-0.101-0.87-0.301c-0.208-0.2-0.312-0.484-0.312-0.852c0-0.389,0.145-0.684,0.435-0.881
			c0.289-0.199,0.729-0.307,1.322-0.325l0.652-0.021v-0.201c0-0.242-0.056-0.423-0.169-0.542c-0.112-0.12-0.287-0.18-0.524-0.18
			c-0.193,0-0.379,0.028-0.557,0.085c-0.178,0.058-0.35,0.125-0.514,0.202l-0.26-0.574c0.205-0.107,0.43-0.188,0.674-0.244
			s0.474-0.084,0.69-0.084c0.48,0,0.844,0.104,1.089,0.314s0.367,0.539,0.367,0.987v2.547H26.526z M25.33,33.493
			c0.292,0,0.525-0.081,0.702-0.244s0.266-0.392,0.266-0.686v-0.328l-0.486,0.021c-0.378,0.014-0.653,0.077-0.825,0.189
			c-0.172,0.113-0.258,0.286-0.258,0.519c0,0.168,0.05,0.299,0.15,0.391C24.979,33.447,25.13,33.493,25.33,33.493z"/>
		<path d="M31.503,31.227c0,0.446-0.261,0.716-0.783,0.81v0.027c0.292,0.034,0.516,0.126,0.67,0.276
			c0.155,0.15,0.232,0.346,0.232,0.585c0,0.357-0.136,0.633-0.408,0.825s-0.668,0.289-1.188,0.289h-1.805v-3.78h1.798
			C31.009,30.259,31.503,30.581,31.503,31.227z M30.7,31.295c0-0.15-0.06-0.26-0.177-0.327s-0.292-0.101-0.524-0.101h-0.975v0.909
			h0.855c0.269,0,0.473-0.035,0.611-0.104S30.7,31.477,30.7,31.295z M30.799,32.877c0-0.183-0.07-0.312-0.212-0.388
			s-0.354-0.114-0.636-0.114h-0.927v1.069h0.947C30.523,33.445,30.799,33.255,30.799,32.877z"/>
		<path d="M34.795,30.259h0.882l-1.562,1.821l1.695,1.959h-0.922l-1.635-1.918v1.918H32.45v-3.78h0.803v1.835L34.795,30.259z"/>
		<path d="M38.797,34.039l-0.16-0.526h-0.027c-0.183,0.23-0.366,0.387-0.551,0.47s-0.422,0.125-0.711,0.125
			c-0.371,0-0.661-0.101-0.87-0.301c-0.208-0.2-0.312-0.484-0.312-0.852c0-0.389,0.145-0.684,0.435-0.881
			c0.289-0.199,0.729-0.307,1.322-0.325l0.652-0.021v-0.201c0-0.242-0.056-0.423-0.169-0.542c-0.112-0.12-0.287-0.18-0.524-0.18
			c-0.193,0-0.379,0.028-0.557,0.085c-0.178,0.058-0.35,0.125-0.514,0.202l-0.26-0.574c0.205-0.107,0.43-0.188,0.674-0.244
			s0.474-0.084,0.69-0.084c0.48,0,0.844,0.104,1.089,0.314s0.367,0.539,0.367,0.987v2.547H38.797z M37.601,33.493
			c0.292,0,0.525-0.081,0.702-0.244s0.266-0.392,0.266-0.686v-0.328l-0.486,0.021c-0.378,0.014-0.653,0.077-0.825,0.189
			c-0.172,0.113-0.258,0.286-0.258,0.519c0,0.168,0.05,0.299,0.15,0.391C37.25,33.447,37.4,33.493,37.601,33.493z"/>
	</g>
</g>
</svg>
