<?xml version="1.0" encoding="utf-8"?>
<!-- Generator: Adobe Illustrator 21.0.0, SVG Export Plug-In . SVG Version: 6.00 Build 0)  -->
<svg version="1.1" id="Layer_1" xmlns="http://www.w3.org/2000/svg" xmlns:xlink="http://www.w3.org/1999/xlink" x="0px" y="0px"
	 viewBox="0 0 94.461 76.887" enable-background="new 0 0 94.461 76.887" xml:space="preserve">
<rect x="0.5" y="0.5" fill="#FFFFFF" stroke="#BDBDBD" stroke-miterlimit="10" width="93.461" height="75.887"/>
<g>
	<g>
		<g>
			<g>
				<path fill="none" stroke="#424242" stroke-width="0.25" stroke-linecap="round" stroke-miterlimit="10" d="M68.534,18.249
					c0,0,0.621-0.262,0.621-0.532c0-0.953-0.798-1.206-0.798-2.067c0-1.064,0.842-1.796,2.217-1.796h1.208"/>
				<path fill="none" stroke="#424242" stroke-width="0.25" stroke-linecap="round" stroke-miterlimit="10" d="M72.447,13.006
					c0,0,0.732-0.116,0.732,0.599c0,0.848-0.815,0.848-0.815,0.848h-2.145c0,0-1.042,0.075-1.042,0.838"/>
				<path fill="none" stroke="#424242" stroke-width="0.25" stroke-linecap="round" stroke-miterlimit="10" d="M70.941,14.998h2.145
					c0,0,0.815,0,0.815-0.848"/>
				
					<path fill="none" stroke="#424242" stroke-width="0.25" stroke-linecap="round" stroke-linejoin="round" stroke-miterlimit="10" d="
					M69.72,19.712l0.654-0.643c0,0,0.044-0.144,0.82-0.144s0.953,0,0.953,0c-0.024,0.01,0.576,0.067,0.576-0.391
					c0-0.344-0.162-0.439-0.162-0.439l0.107-0.355l0.055-0.277h0.687l-0.876-1.796"/>
			</g>
			
				<path fill="none" stroke="#424242" stroke-width="0.25" stroke-linecap="round" stroke-linejoin="round" stroke-miterlimit="10" d="
				M69.742,20.797c0,0,1.388-0.638,1.929-0.509c1.397,0.333,0.844,1.569,0.844,1.569l-0.944-0.483l-1.204,0.299"/>
			<circle cx="71.571" cy="22.169" r="0.998"/>
			<g>
				<g>
					<path d="M49.553,26.93c0,0,1.734-0.457,2.133-0.678c0.399-0.222,1.87-1.05,1.87-1.05l0.258,0.208l-0.887,1.773
						c0,0-1.108,0.443-1.685,0.488s-1.341-0.043-1.472-0.222C49.647,27.278,49.553,26.93,49.553,26.93z"/>
				</g>
				<g>
					<path fill="#C86414" d="M49.647,27.242c0,0,1.906-0.503,2.306-0.725c0.399-0.222,1.862-1.108,1.862-1.108l0.399,0.516
						l-1.02,1.524c0,0-1.108,0.443-1.685,0.488c-0.576,0.044-1.33-0.089-1.507-0.222C49.824,27.581,49.647,27.242,49.647,27.242z"/>
				</g>
			</g>
			<g>
				<g>
					<path d="M60.745,33.884l0.049,0.962c0,0,1.123-0.748,2.116-0.844s2.55,0.098,2.55,0.098s0.074-0.884-0.554-1.022
						c-0.627-0.138-3.762-0.034-3.762-0.034L60.745,33.884z"/>
				</g>
				<g>
					<path fill="#C86414" d="M60.693,33.663l0.101,1.01c0,0,1.123-0.803,2.116-0.899c0.993-0.096,2.55,0.098,2.55,0.098
						s0.023-0.898-0.605-1.036c-0.627-0.138-3.711-0.019-3.711-0.019L60.693,33.663z"/>
				</g>
			</g>
			<path fill="#CADAE6" d="M80.818,26.537v-0.26h-1.2v-0.771h0.09v-0.26h-0.09V24.87c0-0.072-0.056-0.13-0.124-0.13
				c-0.068,0-0.124,0.058-0.124,0.13v0.375H77.86v-0.771c0-0.072-0.056-0.13-0.124-0.13c-0.068,0-0.124,0.058-0.124,0.13v0.771
				H76.08v-1.171c0-0.072-0.056-0.13-0.124-0.13c-0.068,0-0.124,0.058-0.124,0.13v1.171h-1.312v-1.112
				c0-0.072-0.056-0.13-0.124-0.13c-0.068,0-0.124,0.058-0.124,0.13v1.112H72.83v-1.112h-0.247v5.465h0.247V28.6h1.443v1.171
				c0,0.072,0.056,0.13,0.124,0.13c0.068,0,0.124-0.058,0.124-0.13V28.6h1.312v0.998c0,0.072,0.056,0.13,0.124,0.13
				c0.068,0,0.124-0.058,0.124-0.13V28.6h1.533v1.171c0,0.072,0.056,0.13,0.124,0.13c0.068,0,0.124-0.058,0.124-0.13V28.6h1.511
				v1.171c0,0.072,0.056,0.13,0.124,0.13c0.068,0,0.124-0.058,0.124-0.13V28.6h1.2v-0.26h-1.2v-0.771h1.2v-0.26h-1.2v-0.771H80.818z
				 M74.273,28.34H72.83v-0.771h1.443V28.34z M74.273,27.308H72.83v-0.771h1.443V27.308z M74.273,26.276H72.83v-0.771h1.443V26.276z
				 M75.833,28.34h-1.312v-0.771h1.312V28.34z M75.833,27.308h-1.312v-0.771h1.312V27.308z M75.833,26.276h-1.312v-0.771h1.312
				V26.276z M77.613,28.34H76.08v-0.771h1.533V28.34z M77.613,27.308H76.08v-0.771h1.533V27.308z M77.613,26.276H76.08v-0.771h1.533
				V26.276z M79.371,28.34H77.86v-0.771h1.511V28.34z M79.371,27.308H77.86v-0.771h1.511V27.308z M79.371,26.276H77.86v-0.771h1.511
				V26.276z"/>
			<path fill="#174E88" d="M63.62,24.749c0,0-0.058,0.074-0.154,0.197c-0.021,0.027-0.043,0.053-0.064,0.08
				c-0.335,0.42-0.984,1.218-1.415,1.649c-0.16,0.16-0.346,0.319-0.564,0.479c0,0,0,0-0.005,0.005h-0.005
				c-0.064,0.048-0.128,0.096-0.197,0.144c-0.037,0.027-0.069,0.048-0.106,0.069c0,0.005-0.005,0.005-0.005,0.005
				c-1.123,0.745-2.703,1.405-3.82,1.405c-1.463,0-4.278-1.261-4.278-1.261l1.064-1.766c0,0,2.916,0.686,3.245,0.936
				c0.048-0.17,0.708-1.011,1.421-1.899c0.266-0.33,0.543-0.665,0.798-0.974c0.356-0.431,0.676-0.814,0.873-1.059h0.005
				c0.032-0.037,0.059-0.074,0.085-0.106c0.032-0.032,0.053-0.064,0.074-0.085c0.032-0.037,0.053-0.059,0.064-0.069
				c0.005-0.011,0.011-0.016,0.011-0.016c0.005-0.011,0.011-0.016,0.011-0.016l0.021,0.016l0.021,0.016l0.027,0.021l0.011,0.005
				l0.005,0.005l0.112,0.085l0.021,0.016l0.117,0.09h0.005l0.021,0.016l0.016,0.016l0.122,0.096L63.62,24.749z"/>
			<path fill="#174E88" d="M60.742,33.326c-0.101,0.266,0.064,0.596,0.064,0.596h-0.016c0,0-0.165-0.33-0.064-0.596
				c0.096-0.266,1.623-2.149,2.112-2.66c0.58-0.623,1.527-1.814,1.527-1.814s-0.053-0.027-0.144-0.074
				c0.101,0.048,0.16,0.074,0.16,0.074s-0.942,1.192-1.527,1.814C62.37,31.176,60.843,33.06,60.742,33.326z"/>
			<path fill="#174E88" d="M64.04,28.686c-0.192-0.096-0.458-0.229-0.755-0.399C63.588,28.447,63.849,28.585,64.04,28.686z"/>
			<g>
				<path fill="#1B3E65" d="M61.417,27.159h-0.005c-0.064,0.048-0.022,0.022-0.11,0.083c-0.101-0.069-1.662-1.03-2.045-1.413
					c-0.351-0.351-0.495-0.697-0.505-1.032c0.266-0.33,0.543-0.665,0.798-0.974c0.356-0.431,0.676-0.814,0.872-1.059h0.005
					c0.011,0.011,0.027,0.016,0.037,0.027c-0.463,0.623-1.809,1.804-0.575,3.038C60.273,26.212,60.784,26.723,61.417,27.159z"/>
			</g>
			<path fill="#174E88" d="M67.364,28.617c0,0.766-0.468,1.165-0.468,1.165l-4.32,3.938l-1.883,0.201c0,0-0.113-0.33-0.012-0.596
				c0.096-0.266,1.623-2.149,2.112-2.66c0.58-0.623,1.527-1.814,1.527-1.814s-0.053-0.027-0.144-0.074c0-0.005,0-0.005-0.005,0
				c-0.048-0.027-0.106-0.059-0.176-0.09c-0.192-0.096-0.458-0.229-0.755-0.399c-0.021-0.016-0.048-0.027-0.069-0.037
				c-0.011-0.011-0.026-0.016-0.037-0.021c-0.075-0.043-0.149-0.085-0.229-0.128c-0.08-0.048-0.16-0.096-0.245-0.144
				c-0.005,0-0.011-0.005-0.016-0.005c-0.415-0.234-0.857-0.505-1.272-0.793c0,0-0.005-0.005-0.005,0
				c-0.638-0.436-1.153-0.951-1.538-1.335c-1.309-1.309,0.293-2.564,0.649-3.15c0.021-0.037,0.043-0.064,0.059-0.09
				c0.027-0.048,0.053-0.08,0.064-0.101c0.005-0.011,0.011-0.016,0.011-0.016l0.021,0.016l0.021,0.016l0.027,0.021l0.011,0.005
				l0.005,0.005l0.112,0.085l0.021,0.016l0.117,0.09h0.005l0.021,0.016l0.016,0.016c0.037,0.021,0.08,0.053,0.128,0.09
				c0.947,0.713,2.985,2.245,3.809,2.921c0.138,0.112,0.245,0.202,0.303,0.261C65.741,26.521,67.364,27.851,67.364,28.617z"/>
			<path fill="#C86414" d="M69.287,18.941c0.111,0.176,0.249,0.889,0.249,0.889s-1.845,1.721-2.144,2.287
				c-0.299,0.565-0.466,3.796-0.466,3.796s-1.338,0.083-2.128-0.2c-0.931-0.333-3.416-2.292-3.857-2.699
				c-0.329-0.304-0.865-0.765,0.333-1.563c1.197-0.798,4.812-2.66,5.722-2.889C67.88,18.341,68.878,18.293,69.287,18.941z"/>
			<path fill="#AA5418" d="M69.286,18.941c-0.3-0.475-0.916-0.574-1.572-0.507c0.831-0.064,1.343,0.148,1.539,0.459
				c0.111,0.176-0.371,0.937-0.371,0.937s-1.845,1.721-2.144,2.287c-0.299,0.565-0.466,3.796-0.466,3.796s-0.046,0.003-0.125,0.006
				c0.438,0.015,0.778-0.006,0.778-0.006s0.166-3.231,0.466-3.796c0.299-0.565,2.144-2.287,2.144-2.287S69.398,19.117,69.286,18.941
				z"/>
			<g>
				<path fill="#F0902A" d="M60.94,23.015c0.014,0.012,0.034,0.03,0.051,0.046c0.09-0.131,0.211-0.274,0.38-0.436
					c1.038-0.996,4.269-3.466,5.124-3.851c0.206-0.093,0.42-0.176,0.635-0.24c-0.045,0.01-0.091,0.019-0.136,0.03
					c-0.91,0.228-4.525,2.091-5.722,2.889C60.076,22.25,60.611,22.711,60.94,23.015z"/>
			</g>
			<path fill="#954114" d="M68.454,18.941c-0.366-0.382-0.13-0.354-1.047,0.092c-1.26,0.612-2.951,1.893-3.958,2.729
				c-0.388,0.322-1.048,1.379-0.466,1.962c0.823,0.823,3.313,0.001,4.423-0.51c1.264-0.582,2.127-2.405,2.127-2.405l-0.358-0.639
				l-3.815,2.246c0,0,2.867-1.853,3.109-2.095C68.787,20.005,68.82,19.324,68.454,18.941z"/>
			<path fill="#F29537" d="M69.287,18.859c-0.366-0.382-0.848-0.599-1.696-0.033c-0.848,0.565-2.578,1.929-3.309,2.71
				c-0.344,0.368-1.048,1.379-0.466,1.962c0.823,0.823,2.914,0.062,4.024-0.449c1.264-0.582,2.527-0.981,2.527-0.981l-0.898-1.446
				l-3.275,1.713c0,0,2.867-1.853,3.109-2.095C69.619,19.923,69.652,19.242,69.287,18.859z"/>
			<g>
				<g opacity="0.75">
					<path d="M74.693,35.668H64.574c-0.903,0-1.513-0.247-1.814-0.733c-0.269-0.435-0.247-1.015,0.062-1.633
						c0.46-0.922,3.117-2.696,4.834-2.997c1.483-0.261,9.62-0.312,9.62-0.312c2.139,0,3.545-0.911,3.545-1.858
						c0-1.277-0.307-2.442-2.582-2.885c-1.585-0.309-5.855-0.632-5.855-0.632l-1.204-1.584c-0.182-0.231-0.141-0.566,0.089-0.747
						c0.232-0.183,0.566-0.141,0.747,0.089l1.091,1.389c0.9,0.045,3.982,0.252,5.44,0.669c2.986,0.853,3.164,2.343,3.164,3.569
						c0,3.027-5.859,2.748-5.859,2.748c-2.896-0.009-6.904,0.107-8.294,0.351c-1.403,0.247-3.593,1.851-3.903,2.471
						c-0.13,0.26-0.056,0.699,0.008,0.802c0.069,0.111,0.343,0.229,0.909,0.229h10.119c0.294,0,0.532,0.238,0.532,0.532
						C75.225,35.43,74.987,35.668,74.693,35.668z"/>
				</g>
				<g>
					<path fill="#CADAE6" d="M74.693,35.168H64.574c-0.903,0-1.513-0.247-1.814-0.733c-0.269-0.435-0.247-1.015,0.062-1.633
						c0.46-0.922,3.117-2.696,4.834-2.997c1.483-0.261,9.62-0.312,9.62-0.312c2.139,0,3.545-0.911,3.545-1.858
						c0-1.277-0.307-2.442-2.582-2.885c-1.585-0.309-5.855-0.632-5.855-0.632l-1.204-1.584c-0.182-0.231-0.141-0.566,0.089-0.747
						c0.232-0.183,0.566-0.141,0.747,0.089l1.091,1.389c0.9,0.045,3.982,0.252,5.44,0.669c2.986,0.853,3.164,2.343,3.164,3.569
						c0,3.027-5.859,2.748-5.859,2.748c-2.896-0.009-6.904,0.107-8.294,0.351c-1.403,0.247-3.593,1.851-3.903,2.471
						c-0.13,0.26-0.056,0.699,0.008,0.802c0.069,0.111,0.343,0.229,0.909,0.229h10.119c0.294,0,0.532,0.238,0.532,0.532
						C75.225,34.93,74.987,35.168,74.693,35.168z"/>
				</g>
			</g>
			<g>
				<g>
					
						<ellipse transform="matrix(0.3654 -0.9308 0.9308 0.3654 9.5139 84.2924)" fill="#5D5E5E" cx="66.58" cy="35.168" rx="1.596" ry="1.264"/>
					<path d="M67.757,35.331c-0.322,0.821-1.11,1.279-1.76,1.024c-0.421-0.165-0.677-0.59-0.72-1.091
						c-0.051,0.626,0.217,1.193,0.72,1.39c0.65,0.255,1.437-0.203,1.76-1.024c0.114-0.289,0.15-0.584,0.127-0.856
						C67.868,34.957,67.83,35.145,67.757,35.331z"/>
					
						<ellipse transform="matrix(0.3654 -0.9308 0.9308 0.3654 9.5139 84.2924)" fill="#5D5E5E" cx="66.58" cy="35.168" rx="1.596" ry="1.264"/>
					<path d="M67.757,35.331c-0.322,0.821-1.11,1.279-1.76,1.024c-0.421-0.165-0.677-0.59-0.72-1.091
						c-0.051,0.626,0.217,1.193,0.72,1.39c0.65,0.255,1.437-0.203,1.76-1.024c0.114-0.289,0.15-0.584,0.127-0.856
						C67.868,34.957,67.83,35.145,67.757,35.331z"/>
				</g>
				<g>
					<g>
						<path fill-rule="evenodd" clip-rule="evenodd" fill="#5B5C5C" d="M66.496,35.694c-0.039,0-0.078-0.007-0.113-0.021
							c-0.208-0.082-0.289-0.375-0.18-0.653c0.087-0.222,0.277-0.377,0.462-0.377c0.04,0,0.078,0.007,0.114,0.021
							c0.096,0.038,0.169,0.123,0.205,0.241c0.038,0.127,0.03,0.273-0.025,0.412C66.872,35.539,66.681,35.694,66.496,35.694z"/>
					</g>
					<g>
						<path d="M66.496,35.694c-0.039,0-0.078-0.007-0.113-0.021c-0.208-0.082-0.289-0.375-0.18-0.653
							c0.087-0.222,0.277-0.377,0.462-0.377c0.04,0,0.078,0.007,0.114,0.021c0.096,0.038,0.169,0.123,0.205,0.241
							c0.038,0.127,0.03,0.273-0.025,0.412C66.872,35.539,66.681,35.694,66.496,35.694z"/>
					</g>
				</g>
			</g>
			<g>
				<g>
					
						<ellipse transform="matrix(0.3654 -0.9308 0.9308 0.3654 13.2198 89.7285)" fill="#5D5E5E" cx="72.42" cy="35.168" rx="1.596" ry="1.264"/>
					<path d="M73.597,35.331c-0.322,0.821-1.11,1.279-1.76,1.024c-0.421-0.165-0.677-0.59-0.72-1.091
						c-0.051,0.626,0.217,1.193,0.72,1.39c0.65,0.255,1.437-0.203,1.76-1.024c0.114-0.289,0.15-0.584,0.127-0.856
						C73.708,34.957,73.669,35.145,73.597,35.331z"/>
					
						<ellipse transform="matrix(0.3654 -0.9308 0.9308 0.3654 13.2198 89.7285)" fill="#5D5E5E" cx="72.42" cy="35.168" rx="1.596" ry="1.264"/>
					<path d="M73.597,35.331c-0.322,0.821-1.11,1.279-1.76,1.024c-0.421-0.165-0.677-0.59-0.72-1.091
						c-0.051,0.626,0.217,1.193,0.72,1.39c0.65,0.255,1.437-0.203,1.76-1.024c0.114-0.289,0.15-0.584,0.127-0.856
						C73.708,34.957,73.669,35.145,73.597,35.331z"/>
				</g>
				<g>
					<g>
						<path fill-rule="evenodd" clip-rule="evenodd" fill="#5B5C5C" d="M72.336,35.694c-0.039,0-0.078-0.007-0.113-0.021
							c-0.208-0.082-0.289-0.375-0.18-0.653c0.087-0.222,0.277-0.377,0.462-0.377c0.04,0,0.078,0.007,0.114,0.021
							c0.096,0.038,0.169,0.123,0.205,0.241c0.039,0.127,0.03,0.273-0.025,0.412C72.711,35.539,72.521,35.694,72.336,35.694z"/>
					</g>
					<g>
						<path d="M72.336,35.694c-0.039,0-0.078-0.007-0.113-0.021c-0.208-0.082-0.289-0.375-0.18-0.653
							c0.087-0.222,0.277-0.377,0.462-0.377c0.04,0,0.078,0.007,0.114,0.021c0.096,0.038,0.169,0.123,0.205,0.241
							c0.039,0.127,0.03,0.273-0.025,0.412C72.711,35.539,72.521,35.694,72.336,35.694z"/>
					</g>
				</g>
			</g>
		</g>
		<g>
			<g>
				<path d="M28.071,22.6h-0.628l-0.003-6.829h-3.67v0.668c0,2.084-0.076,4.496-0.797,6.16h-0.487v2.461h1.098v-1.466h3.388v1.465
					h1.098L28.071,22.6L28.071,22.6z M32.947,22.157c-0.314,0.218-0.863,0.529-1.553,0.529c-0.972,0-1.474-0.933-1.474-2.706h3.294
					v-0.669c0-2.659-0.863-3.639-2.18-3.639c-1.678,0-2.384,1.835-2.384,4.355c0,2.411,1.004,3.701,2.635,3.701
					c0.784,0,1.443-0.249,1.945-0.637L32.947,22.157z M20.419,15.761v3.346H18.6v-3.345h-1.224V23.6H18.6v-3.536h1.819V23.6h1.208
					v-7.839H20.419z M37.75,23.597h1.333l-2.243-4.153l1.961-3.686h-1.239l-1.898,3.624v-3.624H34.44v7.839h1.224v-3.904
					L37.75,23.597L37.75,23.597z M43.702,23.106l-0.283-0.902c-0.283,0.249-0.737,0.482-1.333,0.482
					c-0.988,0-1.459-1.12-1.459-3.079c0-1.975,0.628-2.955,1.506-2.955c0.502,0,0.972,0.264,1.302,0.544l0.173-1.151
					c-0.345-0.218-0.753-0.404-1.459-0.404c-1.851,0-2.808,1.571-2.808,4.028c0,2.675,1.02,4.028,2.714,4.028
					C42.777,23.697,43.279,23.464,43.702,23.106L43.702,23.106z M26.25,22.628h-2.102c0.658-1.664,0.737-4.075,0.737-5.723v-0.14
					h1.365L26.25,22.628L26.25,22.628z M31.948,18.999h-2.023c0.078-1.4,0.345-2.317,1.098-2.317
					C31.728,16.682,31.948,17.662,31.948,18.999z"/>
				<path fill="#FF0000" d="M14.666,19.454v4.153h1.208V12.564H14.07c-1.772,0-3.262,1.197-3.262,3.53
					c0,1.664,0.659,2.566,1.647,3.064l-2.102,4.448h1.396l1.914-4.153H14.666z M14.662,18.485h-0.643
					c-1.051,0-1.914-0.575-1.914-2.364c0-1.851,0.941-2.511,1.914-2.511h0.643L14.662,18.485z"/>
			</g>
			<g>
				<path fill="#FCC330" d="M11.443,34.369v-6.271h1.515l1.103,3.344c0.098,0.308,0.227,0.869,0.386,1.683l0.06-0.272
					c0.124-0.567,0.232-1.003,0.324-1.307l1.129-3.448h1.515v6.271h-1.076v-5.063l-0.085,0.369c-0.137,0.605-0.253,1.05-0.347,1.335
					l-1.106,3.359h-0.814l-1.106-3.402c-0.153-0.491-0.292-1.045-0.421-1.661v5.063H11.443z"/>
				<path fill="#FCC330" d="M18.112,32.535c0-1.261,0.78-1.921,2.34-1.982l0.87-0.034v-0.331c0-0.789-0.311-1.183-0.932-1.183
					c-0.411,0-0.889,0.157-1.43,0.472l-0.341-0.948c0.554-0.363,1.157-0.544,1.808-0.544c0.652,0,1.142,0.174,1.47,0.522
					c0.328,0.348,0.492,0.894,0.492,1.639v4.224H21.62l-0.215-0.877h-0.037c-0.245,0.383-0.491,0.644-0.739,0.782
					s-0.592,0.208-1.034,0.208c-0.441,0-0.799-0.167-1.072-0.501C18.248,33.647,18.112,33.166,18.112,32.535z M19.553,31.725
					c-0.231,0.187-0.347,0.447-0.347,0.78c0,0.333,0.067,0.575,0.202,0.729c0.134,0.153,0.367,0.23,0.698,0.23
					c0.33,0,0.614-0.135,0.851-0.405c0.237-0.27,0.356-0.649,0.356-1.137v-0.544l-0.652,0.034
					C20.154,31.433,19.784,31.537,19.553,31.725z"/>
				<path fill="#FCC330" d="M23.535,37.159v-9.06h0.87c0.024,0.117,0.075,0.397,0.151,0.839h0.055
					c0.336-0.635,0.83-0.952,1.482-0.952c0.652,0,1.153,0.283,1.502,0.85c0.35,0.567,0.524,1.363,0.524,2.387
					c0,1.024-0.178,1.824-0.534,2.398c-0.356,0.575-0.852,0.862-1.489,0.862s-1.132-0.285-1.486-0.856h-0.064
					c0.043,0.529,0.064,0.85,0.064,0.964v2.568H23.535z M24.611,31.223c0,0.764,0.098,1.316,0.293,1.658
					c0.195,0.342,0.497,0.513,0.905,0.513s0.712-0.189,0.914-0.567s0.302-0.917,0.302-1.616c0-1.425-0.403-2.137-1.209-2.137
					c-0.409,0-0.712,0.155-0.909,0.465s-0.295,0.805-0.295,1.485V31.223z"/>
				<path fill="#FCC330" d="M29.004,34.369v-6.271h1.076v3.045l2.066-3.045h1.182l-2.093,3.022l2.272,3.249h-1.237l-2.189-3.181
					v3.181H29.004z"/>
				<path fill="#FCC330" d="M34.138,33.63c-0.442-0.569-0.663-1.358-0.663-2.367c0-1.009,0.204-1.808,0.611-2.395
					c0.408-0.588,0.96-0.882,1.656-0.882s1.241,0.251,1.635,0.754c0.394,0.503,0.591,1.194,0.591,2.075v0.72h-3.398
					c0.015,0.609,0.148,1.076,0.399,1.403c0.251,0.327,0.631,0.49,1.14,0.49c0.509,0,1.043-0.151,1.602-0.454v1.083
					c-0.483,0.283-1.061,0.425-1.733,0.425C35.194,34.483,34.581,34.198,34.138,33.63z M34.588,30.571h2.304
					c-0.006-0.514-0.107-0.903-0.303-1.168c-0.195-0.265-0.465-0.397-0.808-0.397c-0.343,0-0.618,0.133-0.824,0.4
					C34.75,29.672,34.627,30.06,34.588,30.571z"/>
				<path fill="#FCC330" d="M38.229,29.153v-1.055h4.383v1.055h-1.653v5.216h-1.076v-5.216H38.229z"/>
			</g>
		</g>
	</g>
	<g>
		<g>
			<g>
				<g>
					<g>
						<defs>
							<polygon id="SVGID_12_" points="25.861,45.305 27.137,47.891 29.991,48.305 27.926,50.318 28.413,53.16 25.861,51.818 
								23.309,53.16 23.796,50.318 21.731,48.305 24.585,47.891 							"/>
						</defs>
						<clipPath id="SVGID_2_">
							<use xlink:href="#SVGID_12_"  overflow="visible"/>
						</clipPath>
						<polygon clip-path="url(#SVGID_2_)" fill="#FCE130" points="24.732,45.305 21.731,48.305 21.731,45.305 						"/>
						<polygon clip-path="url(#SVGID_2_)" fill="#FCE130" points="24.868,45.305 21.731,48.442 21.731,48.305 24.732,45.305 						
							"/>
						<polygon clip-path="url(#SVGID_2_)" fill="#FCE130" points="25.005,45.305 21.731,48.578 21.731,48.442 24.868,45.305 						
							"/>
						<polygon clip-path="url(#SVGID_2_)" fill="#FCE130" points="25.142,45.305 21.731,48.715 21.731,48.578 25.005,45.305 						
							"/>
						<polygon clip-path="url(#SVGID_2_)" fill="#FCE130" points="25.278,45.305 21.731,48.852 21.731,48.715 25.142,45.305 						
							"/>
						<polygon clip-path="url(#SVGID_2_)" fill="#FCE130" points="25.415,45.305 21.731,48.988 21.731,48.852 25.278,45.305 						
							"/>
						<polygon clip-path="url(#SVGID_2_)" fill="#FCE130" points="25.551,45.305 21.731,49.125 21.731,48.988 25.415,45.305 						
							"/>
						<polygon clip-path="url(#SVGID_2_)" fill="#FCE130" points="25.688,45.305 21.731,49.261 21.731,49.125 25.551,45.305 						
							"/>
						<polygon clip-path="url(#SVGID_2_)" fill="#FCE130" points="25.825,45.305 21.731,49.398 21.731,49.261 25.688,45.305 						
							"/>
						<polygon clip-path="url(#SVGID_2_)" fill="#FCE130" points="25.961,45.305 21.731,49.535 21.731,49.398 25.825,45.305 						
							"/>
						<polygon clip-path="url(#SVGID_2_)" fill="#FCE130" points="26.098,45.305 21.731,49.671 21.731,49.535 25.961,45.305 						
							"/>
						<polygon clip-path="url(#SVGID_2_)" fill="#FCE030" points="26.234,45.305 21.731,49.808 21.731,49.671 26.098,45.305 						
							"/>
						<polygon clip-path="url(#SVGID_2_)" fill="#FCE030" points="26.371,45.305 21.731,49.944 21.731,49.808 26.234,45.305 						
							"/>
						<polygon clip-path="url(#SVGID_2_)" fill="#FCE030" points="26.508,45.305 21.731,50.081 21.731,49.944 26.371,45.305 						
							"/>
						<polygon clip-path="url(#SVGID_2_)" fill="#FCE030" points="26.644,45.305 21.731,50.218 21.731,50.081 26.508,45.305 						
							"/>
						<polygon clip-path="url(#SVGID_2_)" fill="#FCE030" points="26.781,45.305 21.731,50.354 21.731,50.218 26.644,45.305 						
							"/>
						<polygon clip-path="url(#SVGID_2_)" fill="#FCE030" points="26.917,45.305 21.731,50.491 21.731,50.354 26.781,45.305 						
							"/>
						<polygon clip-path="url(#SVGID_2_)" fill="#FCDF30" points="27.054,45.305 21.731,50.627 21.731,50.491 26.917,45.305 						
							"/>
						<polygon clip-path="url(#SVGID_2_)" fill="#FCDF2F" points="27.191,45.305 21.731,50.764 21.731,50.627 27.054,45.305 						
							"/>
						<polygon clip-path="url(#SVGID_2_)" fill="#FCDF2F" points="27.327,45.305 21.731,50.901 21.731,50.764 27.191,45.305 						
							"/>
						<polygon clip-path="url(#SVGID_2_)" fill="#FCDF2F" points="27.464,45.305 21.731,51.037 21.731,50.901 27.327,45.305 						
							"/>
						<polygon clip-path="url(#SVGID_2_)" fill="#FCDE2F" points="27.6,45.305 21.731,51.174 21.731,51.037 27.464,45.305 						"/>
						<polygon clip-path="url(#SVGID_2_)" fill="#FCDE2F" points="27.737,45.305 21.731,51.311 21.731,51.174 27.6,45.305 						"/>
						<polygon clip-path="url(#SVGID_2_)" fill="#FCDE2F" points="27.874,45.305 21.731,51.447 21.731,51.311 27.737,45.305 						
							"/>
						<polygon clip-path="url(#SVGID_2_)" fill="#FCDD2F" points="28.01,45.305 21.731,51.584 21.731,51.447 27.874,45.305 						
							"/>
						<polygon clip-path="url(#SVGID_2_)" fill="#FBDD2F" points="28.147,45.305 21.731,51.72 21.731,51.584 28.01,45.305 						"/>
						<polygon clip-path="url(#SVGID_2_)" fill="#FBDC2F" points="28.283,45.305 21.731,51.857 21.731,51.72 28.147,45.305 						
							"/>
						<polygon clip-path="url(#SVGID_2_)" fill="#FBDC2E" points="28.42,45.305 21.731,51.994 21.731,51.857 28.283,45.305 						
							"/>
						<polygon clip-path="url(#SVGID_2_)" fill="#FBDB2E" points="28.557,45.305 21.731,52.13 21.731,51.994 28.42,45.305 						"/>
						<polygon clip-path="url(#SVGID_2_)" fill="#FBDB2E" points="28.693,45.305 21.731,52.267 21.731,52.13 28.557,45.305 						
							"/>
						<polygon clip-path="url(#SVGID_2_)" fill="#FBDA2E" points="28.83,45.305 21.731,52.403 21.731,52.267 28.693,45.305 						
							"/>
						<polygon clip-path="url(#SVGID_2_)" fill="#FBDA2E" points="28.966,45.305 21.731,52.54 21.731,52.403 28.83,45.305 						"/>
						<polygon clip-path="url(#SVGID_2_)" fill="#FBD92E" points="29.103,45.305 21.731,52.677 21.731,52.54 28.966,45.305 						
							"/>
						<polygon clip-path="url(#SVGID_2_)" fill="#FBD82E" points="29.24,45.305 21.731,52.813 21.731,52.677 29.103,45.305 						
							"/>
						<polygon clip-path="url(#SVGID_2_)" fill="#FBD82D" points="29.376,45.305 21.731,52.95 21.731,52.813 29.24,45.305 						"/>
						<polygon clip-path="url(#SVGID_2_)" fill="#FBD72D" points="29.513,45.305 21.731,53.086 21.731,52.95 29.376,45.305 						
							"/>
						<polygon clip-path="url(#SVGID_2_)" fill="#FBD62D" points="29.649,45.305 21.794,53.16 21.731,53.16 21.731,53.086 
							29.513,45.305 						"/>
						<polygon clip-path="url(#SVGID_2_)" fill="#FBD62D" points="29.786,45.305 21.931,53.16 21.794,53.16 29.649,45.305 						"/>
						<polygon clip-path="url(#SVGID_2_)" fill="#FBD52C" points="29.819,45.305 29.871,45.357 22.067,53.16 21.931,53.16 
							29.786,45.305 						"/>
						<polygon clip-path="url(#SVGID_2_)" fill="#FAD42C" points="29.871,45.357 29.939,45.425 22.204,53.16 22.067,53.16 						"/>
						<polygon clip-path="url(#SVGID_2_)" fill="#FAD32C" points="29.939,45.425 29.991,45.477 29.991,45.51 22.34,53.16 
							22.204,53.16 						"/>
						<polygon clip-path="url(#SVGID_2_)" fill="#FAD22C" points="29.991,45.646 22.477,53.16 22.34,53.16 29.991,45.51 						"/>
						<polygon clip-path="url(#SVGID_2_)" fill="#FAD12B" points="29.991,45.783 22.614,53.16 22.477,53.16 29.991,45.646 						"/>
						<polygon clip-path="url(#SVGID_2_)" fill="#FAD02B" points="29.991,45.919 22.75,53.16 22.614,53.16 29.991,45.783 						"/>
						<polygon clip-path="url(#SVGID_2_)" fill="#FACF2B" points="29.991,46.056 22.887,53.16 22.75,53.16 29.991,45.919 						"/>
						<polygon clip-path="url(#SVGID_2_)" fill="#FACE2B" points="29.991,46.193 23.023,53.16 22.887,53.16 29.991,46.056 						"/>
						<polygon clip-path="url(#SVGID_2_)" fill="#FACD2A" points="29.991,46.329 23.16,53.16 23.023,53.16 29.991,46.193 						"/>
						<polygon clip-path="url(#SVGID_2_)" fill="#FACC2A" points="29.991,46.466 23.297,53.16 23.16,53.16 29.991,46.329 						"/>
						<polygon clip-path="url(#SVGID_2_)" fill="#F9CB2A" points="29.991,46.603 23.433,53.16 23.297,53.16 29.991,46.466 						"/>
						<polygon clip-path="url(#SVGID_2_)" fill="#F9CA29" points="29.991,46.739 23.57,53.16 23.433,53.16 29.991,46.603 						"/>
						<polygon clip-path="url(#SVGID_2_)" fill="#F9C929" points="29.991,46.876 23.706,53.16 23.57,53.16 29.991,46.739 						"/>
						<polygon clip-path="url(#SVGID_2_)" fill="#F9C829" points="29.991,47.012 23.843,53.16 23.706,53.16 29.991,46.876 						"/>
						<polygon clip-path="url(#SVGID_2_)" fill="#F9C728" points="29.991,47.149 23.98,53.16 23.843,53.16 29.991,47.012 						"/>
						<polygon clip-path="url(#SVGID_2_)" fill="#F9C528" points="29.991,47.286 24.116,53.16 23.98,53.16 29.991,47.149 						"/>
						<polygon clip-path="url(#SVGID_2_)" fill="#F9C428" points="29.991,47.422 24.253,53.16 24.116,53.16 29.991,47.286 						"/>
						<polygon clip-path="url(#SVGID_2_)" fill="#F8C327" points="29.991,47.559 24.389,53.16 24.253,53.16 29.991,47.422 						"/>
						<polygon clip-path="url(#SVGID_2_)" fill="#F8C127" points="29.991,47.695 24.526,53.16 24.389,53.16 29.991,47.559 						"/>
						<polygon clip-path="url(#SVGID_2_)" fill="#F8C026" points="29.991,47.832 24.663,53.16 24.526,53.16 29.991,47.695 						"/>
						<polygon clip-path="url(#SVGID_2_)" fill="#F8BE26" points="29.991,47.969 24.799,53.16 24.663,53.16 29.991,47.832 						"/>
						<polygon clip-path="url(#SVGID_2_)" fill="#F8BD26" points="29.991,48.105 24.936,53.16 24.799,53.16 29.991,47.969 						"/>
						<polygon clip-path="url(#SVGID_2_)" fill="#F7BB25" points="29.991,48.242 25.072,53.16 24.936,53.16 29.991,48.105 						"/>
						<polygon clip-path="url(#SVGID_2_)" fill="#F7BA25" points="29.991,48.378 25.209,53.16 25.072,53.16 29.991,48.242 						"/>
						<polygon clip-path="url(#SVGID_2_)" fill="#F7B824" points="29.991,48.515 25.346,53.16 25.209,53.16 29.991,48.378 						"/>
						<polygon clip-path="url(#SVGID_2_)" fill="#F7B724" points="29.991,48.652 25.482,53.16 25.346,53.16 29.991,48.515 						"/>
						<polygon clip-path="url(#SVGID_2_)" fill="#F7B523" points="29.991,48.788 25.619,53.16 25.482,53.16 29.991,48.652 						"/>
						<polygon clip-path="url(#SVGID_2_)" fill="#F6B323" points="29.991,48.925 25.755,53.16 25.619,53.16 29.991,48.788 						"/>
						<polygon clip-path="url(#SVGID_2_)" fill="#F6B222" points="29.991,49.061 25.892,53.16 25.755,53.16 29.991,48.925 						"/>
						<polygon clip-path="url(#SVGID_2_)" fill="#F6B022" points="29.991,49.198 26.029,53.16 25.892,53.16 29.991,49.061 						"/>
						<polygon clip-path="url(#SVGID_2_)" fill="#F6AE21" points="29.991,49.335 26.165,53.16 26.029,53.16 29.991,49.198 						"/>
						<polygon clip-path="url(#SVGID_2_)" fill="#F6AC21" points="29.991,49.471 26.302,53.16 26.165,53.16 29.991,49.335 						"/>
						<polygon clip-path="url(#SVGID_2_)" fill="#F5AA20" points="29.991,49.608 26.438,53.16 26.302,53.16 29.991,49.471 						"/>
						<polygon clip-path="url(#SVGID_2_)" fill="#F5A820" points="29.991,49.744 26.575,53.16 26.438,53.16 29.991,49.608 						"/>
						<polygon clip-path="url(#SVGID_2_)" fill="#F5A61F" points="29.991,49.881 26.712,53.16 26.575,53.16 29.991,49.744 						"/>
						<polygon clip-path="url(#SVGID_2_)" fill="#F5A41E" points="29.991,50.018 26.848,53.16 26.712,53.16 29.991,49.881 						"/>
						<polygon clip-path="url(#SVGID_2_)" fill="#F4A21E" points="29.991,50.154 26.985,53.16 26.848,53.16 29.991,50.018 						"/>
						<polygon clip-path="url(#SVGID_2_)" fill="#F4A01D" points="29.991,50.291 27.121,53.16 26.985,53.16 29.991,50.154 						"/>
						<polygon clip-path="url(#SVGID_2_)" fill="#F49E1D" points="29.991,50.427 27.258,53.16 27.121,53.16 29.991,50.291 						"/>
						<polygon clip-path="url(#SVGID_2_)" fill="#F49C1C" points="29.991,50.564 27.395,53.16 27.258,53.16 29.991,50.427 						"/>
						<polygon clip-path="url(#SVGID_2_)" fill="#F39A1B" points="29.991,50.701 27.531,53.16 27.395,53.16 29.991,50.564 						"/>
						<polygon clip-path="url(#SVGID_2_)" fill="#F3971B" points="29.991,50.837 27.668,53.16 27.531,53.16 29.991,50.701 						"/>
						<polygon clip-path="url(#SVGID_2_)" fill="#F3951A" points="29.991,50.974 27.804,53.16 27.668,53.16 29.991,50.837 						"/>
						<polygon clip-path="url(#SVGID_2_)" fill="#F39319" points="29.991,51.11 27.941,53.16 27.804,53.16 29.991,50.974 						"/>
						<polygon clip-path="url(#SVGID_2_)" fill="#F29019" points="29.991,51.247 28.078,53.16 27.941,53.16 29.991,51.11 						"/>
						<polygon clip-path="url(#SVGID_2_)" fill="#F28E18" points="29.991,51.384 28.214,53.16 28.078,53.16 29.991,51.247 						"/>
						<polygon clip-path="url(#SVGID_2_)" fill="#F28E18" points="28.214,53.16 29.991,51.384 29.991,53.16 						"/>
					</g>
					<path fill="#F29039" d="M28.413,53.535c-0.06,0-0.119-0.015-0.175-0.043l-2.378-1.25l-2.377,1.25
						c-0.127,0.065-0.28,0.055-0.396-0.028c-0.115-0.084-0.173-0.227-0.148-0.367l0.453-2.647l-1.923-1.875
						c-0.103-0.1-0.139-0.249-0.095-0.385s0.161-0.234,0.303-0.255l2.658-0.387l1.188-2.409c0.125-0.256,0.547-0.256,0.672,0
						l1.189,2.409l2.658,0.387c0.142,0.021,0.259,0.119,0.303,0.255s0.008,0.285-0.095,0.385l-1.923,1.875l0.453,2.647
						c0.024,0.141-0.033,0.283-0.148,0.367C28.569,53.51,28.491,53.535,28.413,53.535z M25.861,51.443
						c0.06,0,0.12,0.015,0.175,0.043l1.88,0.988l-0.358-2.093c-0.021-0.122,0.019-0.246,0.107-0.332l1.521-1.482l-2.102-0.306
						c-0.122-0.018-0.228-0.095-0.282-0.205l-0.94-1.904l-0.939,1.904c-0.055,0.11-0.16,0.188-0.282,0.205l-2.102,0.306l1.521,1.482
						c0.089,0.086,0.129,0.21,0.107,0.332l-0.358,2.093l1.879-0.988C25.74,51.458,25.801,51.443,25.861,51.443z"/>
				</g>
				<g>
					<g>
						<defs>
							<polygon id="SVGID_14_" points="35.947,45.305 37.223,47.891 40.077,48.305 38.012,50.318 38.499,53.16 35.947,51.818 
								33.395,53.16 33.882,50.318 31.817,48.305 34.671,47.891 							"/>
						</defs>
						<clipPath id="SVGID_3_">
							<use xlink:href="#SVGID_14_"  overflow="visible"/>
						</clipPath>
						<polygon clip-path="url(#SVGID_3_)" fill="#FCE130" points="34.818,45.305 31.817,48.305 31.817,45.305 						"/>
						<polygon clip-path="url(#SVGID_3_)" fill="#FCE130" points="34.954,45.305 31.817,48.442 31.817,48.305 34.818,45.305 						
							"/>
						<polygon clip-path="url(#SVGID_3_)" fill="#FCE130" points="35.091,45.305 31.817,48.578 31.817,48.442 34.954,45.305 						
							"/>
						<polygon clip-path="url(#SVGID_3_)" fill="#FCE130" points="35.227,45.305 31.817,48.715 31.817,48.578 35.091,45.305 						
							"/>
						<polygon clip-path="url(#SVGID_3_)" fill="#FCE130" points="35.364,45.305 31.817,48.852 31.817,48.715 35.227,45.305 						
							"/>
						<polygon clip-path="url(#SVGID_3_)" fill="#FCE130" points="35.501,45.305 31.817,48.988 31.817,48.852 35.364,45.305 						
							"/>
						<polygon clip-path="url(#SVGID_3_)" fill="#FCE130" points="35.637,45.305 31.817,49.125 31.817,48.988 35.501,45.305 						
							"/>
						<polygon clip-path="url(#SVGID_3_)" fill="#FCE130" points="35.774,45.305 31.817,49.261 31.817,49.125 35.637,45.305 						
							"/>
						<polygon clip-path="url(#SVGID_3_)" fill="#FCE130" points="35.91,45.305 31.817,49.398 31.817,49.261 35.774,45.305 						
							"/>
						<polygon clip-path="url(#SVGID_3_)" fill="#FCE130" points="36.047,45.305 31.817,49.535 31.817,49.398 35.91,45.305 						
							"/>
						<polygon clip-path="url(#SVGID_3_)" fill="#FCE130" points="36.184,45.305 31.817,49.671 31.817,49.535 36.047,45.305 						
							"/>
						<polygon clip-path="url(#SVGID_3_)" fill="#FCE030" points="36.32,45.305 31.817,49.808 31.817,49.671 36.184,45.305 						
							"/>
						<polygon clip-path="url(#SVGID_3_)" fill="#FCE030" points="36.457,45.305 31.817,49.944 31.817,49.808 36.32,45.305 						
							"/>
						<polygon clip-path="url(#SVGID_3_)" fill="#FCE030" points="36.593,45.305 31.817,50.081 31.817,49.944 36.457,45.305 						
							"/>
						<polygon clip-path="url(#SVGID_3_)" fill="#FCE030" points="36.73,45.305 31.817,50.218 31.817,50.081 36.593,45.305 						
							"/>
						<polygon clip-path="url(#SVGID_3_)" fill="#FCE030" points="36.867,45.305 31.817,50.354 31.817,50.218 36.73,45.305 						
							"/>
						<polygon clip-path="url(#SVGID_3_)" fill="#FCE030" points="37.003,45.305 31.817,50.491 31.817,50.354 36.867,45.305 						
							"/>
						<polygon clip-path="url(#SVGID_3_)" fill="#FCDF30" points="37.14,45.305 31.817,50.627 31.817,50.491 37.003,45.305 						
							"/>
						<polygon clip-path="url(#SVGID_3_)" fill="#FCDF2F" points="37.276,45.305 31.817,50.764 31.817,50.627 37.14,45.305 						
							"/>
						<polygon clip-path="url(#SVGID_3_)" fill="#FCDF2F" points="37.413,45.305 31.817,50.901 31.817,50.764 37.276,45.305 						
							"/>
						<polygon clip-path="url(#SVGID_3_)" fill="#FCDF2F" points="37.55,45.305 31.817,51.037 31.817,50.901 37.413,45.305 						
							"/>
						<polygon clip-path="url(#SVGID_3_)" fill="#FCDE2F" points="37.686,45.305 31.817,51.174 31.817,51.037 37.55,45.305 						
							"/>
						<polygon clip-path="url(#SVGID_3_)" fill="#FCDE2F" points="37.823,45.305 31.817,51.311 31.817,51.174 37.686,45.305 						
							"/>
						<polygon clip-path="url(#SVGID_3_)" fill="#FCDE2F" points="37.96,45.305 31.817,51.447 31.817,51.311 37.823,45.305 						
							"/>
						<polygon clip-path="url(#SVGID_3_)" fill="#FCDD2F" points="38.096,45.305 31.817,51.584 31.817,51.447 37.96,45.305 						
							"/>
						<polygon clip-path="url(#SVGID_3_)" fill="#FBDD2F" points="38.233,45.305 31.817,51.72 31.817,51.584 38.096,45.305 						
							"/>
						<polygon clip-path="url(#SVGID_3_)" fill="#FBDC2F" points="38.369,45.305 31.817,51.857 31.817,51.72 38.233,45.305 						
							"/>
						<polygon clip-path="url(#SVGID_3_)" fill="#FBDC2E" points="38.506,45.305 31.817,51.994 31.817,51.857 38.369,45.305 						
							"/>
						<polygon clip-path="url(#SVGID_3_)" fill="#FBDB2E" points="38.643,45.305 31.817,52.13 31.817,51.994 38.506,45.305 						
							"/>
						<polygon clip-path="url(#SVGID_3_)" fill="#FBDB2E" points="38.779,45.305 31.817,52.267 31.817,52.13 38.643,45.305 						
							"/>
						<polygon clip-path="url(#SVGID_3_)" fill="#FBDA2E" points="38.916,45.305 31.817,52.403 31.817,52.267 38.779,45.305 						
							"/>
						<polygon clip-path="url(#SVGID_3_)" fill="#FBDA2E" points="39.052,45.305 31.817,52.54 31.817,52.403 38.916,45.305 						
							"/>
						<polygon clip-path="url(#SVGID_3_)" fill="#FBD92E" points="39.189,45.305 31.817,52.677 31.817,52.54 39.052,45.305 						
							"/>
						<polygon clip-path="url(#SVGID_3_)" fill="#FBD82E" points="39.326,45.305 31.817,52.813 31.817,52.677 39.189,45.305 						
							"/>
						<polygon clip-path="url(#SVGID_3_)" fill="#FBD82D" points="39.462,45.305 31.817,52.95 31.817,52.813 39.326,45.305 						
							"/>
						<polygon clip-path="url(#SVGID_3_)" fill="#FBD72D" points="39.599,45.305 31.817,53.086 31.817,52.95 39.462,45.305 						
							"/>
						<polygon clip-path="url(#SVGID_3_)" fill="#FBD62D" points="39.735,45.305 31.88,53.16 31.817,53.16 31.817,53.086 
							39.599,45.305 						"/>
						<polygon clip-path="url(#SVGID_3_)" fill="#FBD62D" points="39.872,45.305 32.017,53.16 31.88,53.16 39.735,45.305 						"/>
						<polygon clip-path="url(#SVGID_3_)" fill="#FBD52C" points="39.905,45.305 39.957,45.357 32.153,53.16 32.017,53.16 
							39.872,45.305 						"/>
						<polygon clip-path="url(#SVGID_3_)" fill="#FAD42C" points="39.957,45.357 40.025,45.425 32.29,53.16 32.153,53.16 						"/>
						<polygon clip-path="url(#SVGID_3_)" fill="#FAD32C" points="40.025,45.425 40.077,45.477 40.077,45.51 32.426,53.16 
							32.29,53.16 						"/>
						<polygon clip-path="url(#SVGID_3_)" fill="#FAD22C" points="40.077,45.646 32.563,53.16 32.426,53.16 40.077,45.51 						"/>
						<polygon clip-path="url(#SVGID_3_)" fill="#FAD12B" points="40.077,45.783 32.7,53.16 32.563,53.16 40.077,45.646 						"/>
						<polygon clip-path="url(#SVGID_3_)" fill="#FAD02B" points="40.077,45.919 32.836,53.16 32.7,53.16 40.077,45.783 						"/>
						<polygon clip-path="url(#SVGID_3_)" fill="#FACF2B" points="40.077,46.056 32.973,53.16 32.836,53.16 40.077,45.919 						"/>
						<polygon clip-path="url(#SVGID_3_)" fill="#FACE2B" points="40.077,46.193 33.109,53.16 32.973,53.16 40.077,46.056 						"/>
						<polygon clip-path="url(#SVGID_3_)" fill="#FACD2A" points="40.077,46.329 33.246,53.16 33.109,53.16 40.077,46.193 						"/>
						<polygon clip-path="url(#SVGID_3_)" fill="#FACC2A" points="40.077,46.466 33.383,53.16 33.246,53.16 40.077,46.329 						"/>
						<polygon clip-path="url(#SVGID_3_)" fill="#F9CB2A" points="40.077,46.603 33.519,53.16 33.383,53.16 40.077,46.466 						"/>
						<polygon clip-path="url(#SVGID_3_)" fill="#F9CA29" points="40.077,46.739 33.656,53.16 33.519,53.16 40.077,46.603 						"/>
						<polygon clip-path="url(#SVGID_3_)" fill="#F9C929" points="40.077,46.876 33.792,53.16 33.656,53.16 40.077,46.739 						"/>
						<polygon clip-path="url(#SVGID_3_)" fill="#F9C829" points="40.077,47.012 33.929,53.16 33.792,53.16 40.077,46.876 						"/>
						<polygon clip-path="url(#SVGID_3_)" fill="#F9C728" points="40.077,47.149 34.066,53.16 33.929,53.16 40.077,47.012 						"/>
						<polygon clip-path="url(#SVGID_3_)" fill="#F9C528" points="40.077,47.286 34.202,53.16 34.066,53.16 40.077,47.149 						"/>
						<polygon clip-path="url(#SVGID_3_)" fill="#F9C428" points="40.077,47.422 34.339,53.16 34.202,53.16 40.077,47.286 						"/>
						<polygon clip-path="url(#SVGID_3_)" fill="#F8C327" points="40.077,47.559 34.475,53.16 34.339,53.16 40.077,47.422 						"/>
						<polygon clip-path="url(#SVGID_3_)" fill="#F8C127" points="40.077,47.695 34.612,53.16 34.475,53.16 40.077,47.559 						"/>
						<polygon clip-path="url(#SVGID_3_)" fill="#F8C026" points="40.077,47.832 34.749,53.16 34.612,53.16 40.077,47.695 						"/>
						<polygon clip-path="url(#SVGID_3_)" fill="#F8BE26" points="40.077,47.969 34.885,53.16 34.749,53.16 40.077,47.832 						"/>
						<polygon clip-path="url(#SVGID_3_)" fill="#F8BD26" points="40.077,48.105 35.022,53.16 34.885,53.16 40.077,47.969 						"/>
						<polygon clip-path="url(#SVGID_3_)" fill="#F7BB25" points="40.077,48.242 35.158,53.16 35.022,53.16 40.077,48.105 						"/>
						<polygon clip-path="url(#SVGID_3_)" fill="#F7BA25" points="40.077,48.378 35.295,53.16 35.158,53.16 40.077,48.242 						"/>
						<polygon clip-path="url(#SVGID_3_)" fill="#F7B824" points="40.077,48.515 35.432,53.16 35.295,53.16 40.077,48.378 						"/>
						<polygon clip-path="url(#SVGID_3_)" fill="#F7B724" points="40.077,48.652 35.568,53.16 35.432,53.16 40.077,48.515 						"/>
						<polygon clip-path="url(#SVGID_3_)" fill="#F7B523" points="40.077,48.788 35.705,53.16 35.568,53.16 40.077,48.652 						"/>
						<polygon clip-path="url(#SVGID_3_)" fill="#F6B323" points="40.077,48.925 35.841,53.16 35.705,53.16 40.077,48.788 						"/>
						<polygon clip-path="url(#SVGID_3_)" fill="#F6B222" points="40.077,49.061 35.978,53.16 35.841,53.16 40.077,48.925 						"/>
						<polygon clip-path="url(#SVGID_3_)" fill="#F6B022" points="40.077,49.198 36.115,53.16 35.978,53.16 40.077,49.061 						"/>
						<polygon clip-path="url(#SVGID_3_)" fill="#F6AE21" points="40.077,49.335 36.251,53.16 36.115,53.16 40.077,49.198 						"/>
						<polygon clip-path="url(#SVGID_3_)" fill="#F6AC21" points="40.077,49.471 36.388,53.16 36.251,53.16 40.077,49.335 						"/>
						<polygon clip-path="url(#SVGID_3_)" fill="#F5AA20" points="40.077,49.608 36.524,53.16 36.388,53.16 40.077,49.471 						"/>
						<polygon clip-path="url(#SVGID_3_)" fill="#F5A820" points="40.077,49.744 36.661,53.16 36.524,53.16 40.077,49.608 						"/>
						<polygon clip-path="url(#SVGID_3_)" fill="#F5A61F" points="40.077,49.881 36.798,53.16 36.661,53.16 40.077,49.744 						"/>
						<polygon clip-path="url(#SVGID_3_)" fill="#F5A41E" points="40.077,50.018 36.934,53.16 36.798,53.16 40.077,49.881 						"/>
						<polygon clip-path="url(#SVGID_3_)" fill="#F4A21E" points="40.077,50.154 37.071,53.16 36.934,53.16 40.077,50.018 						"/>
						<polygon clip-path="url(#SVGID_3_)" fill="#F4A01D" points="40.077,50.291 37.207,53.16 37.071,53.16 40.077,50.154 						"/>
						<polygon clip-path="url(#SVGID_3_)" fill="#F49E1D" points="40.077,50.427 37.344,53.16 37.207,53.16 40.077,50.291 						"/>
						<polygon clip-path="url(#SVGID_3_)" fill="#F49C1C" points="40.077,50.564 37.481,53.16 37.344,53.16 40.077,50.427 						"/>
						<polygon clip-path="url(#SVGID_3_)" fill="#F39A1B" points="40.077,50.701 37.617,53.16 37.481,53.16 40.077,50.564 						"/>
						<polygon clip-path="url(#SVGID_3_)" fill="#F3971B" points="40.077,50.837 37.754,53.16 37.617,53.16 40.077,50.701 						"/>
						<polygon clip-path="url(#SVGID_3_)" fill="#F3951A" points="40.077,50.974 37.89,53.16 37.754,53.16 40.077,50.837 						"/>
						<polygon clip-path="url(#SVGID_3_)" fill="#F39319" points="40.077,51.11 38.027,53.16 37.89,53.16 40.077,50.974 						"/>
						<polygon clip-path="url(#SVGID_3_)" fill="#F29019" points="40.077,51.247 38.164,53.16 38.027,53.16 40.077,51.11 						"/>
						<polygon clip-path="url(#SVGID_3_)" fill="#F28E18" points="40.077,51.384 38.3,53.16 38.164,53.16 40.077,51.247 						"/>
						<polygon clip-path="url(#SVGID_3_)" fill="#F28E18" points="38.3,53.16 40.077,51.384 40.077,53.16 						"/>
					</g>
					<path fill="#F29039" d="M38.499,53.535c-0.06,0-0.119-0.015-0.175-0.043l-2.378-1.25l-2.377,1.25
						c-0.126,0.065-0.28,0.055-0.396-0.028c-0.115-0.084-0.173-0.227-0.148-0.367l0.453-2.647l-1.923-1.875
						c-0.103-0.1-0.139-0.249-0.095-0.385s0.161-0.234,0.303-0.255l2.658-0.387l1.188-2.409c0.125-0.256,0.547-0.256,0.672,0
						l1.189,2.409l2.658,0.387c0.142,0.021,0.259,0.119,0.303,0.255s0.008,0.285-0.095,0.385l-1.923,1.875l0.453,2.647
						c0.024,0.141-0.033,0.283-0.148,0.367C38.655,53.51,38.577,53.535,38.499,53.535z M35.947,51.443
						c0.06,0,0.12,0.015,0.175,0.043l1.88,0.988l-0.358-2.093c-0.021-0.122,0.019-0.246,0.107-0.332l1.521-1.482l-2.102-0.306
						c-0.122-0.018-0.228-0.095-0.282-0.205l-0.94-1.904l-0.939,1.904c-0.055,0.11-0.16,0.188-0.282,0.205l-2.102,0.306l1.521,1.482
						c0.089,0.086,0.129,0.21,0.107,0.332l-0.358,2.093l1.879-0.988C35.826,51.458,35.887,51.443,35.947,51.443z"/>
				</g>
				<g>
					<g>
						<defs>
							<polygon id="SVGID_16_" points="46.033,45.305 47.309,47.891 50.163,48.305 48.098,50.318 48.585,53.16 46.033,51.818 
								43.481,53.16 43.968,50.318 41.903,48.305 44.757,47.891 							"/>
						</defs>
						<clipPath id="SVGID_4_">
							<use xlink:href="#SVGID_16_"  overflow="visible"/>
						</clipPath>
						<polygon clip-path="url(#SVGID_4_)" fill="#FCE130" points="44.904,45.305 41.903,48.305 41.903,45.305 						"/>
						<polygon clip-path="url(#SVGID_4_)" fill="#FCE130" points="45.04,45.305 41.903,48.442 41.903,48.305 44.904,45.305 						
							"/>
						<polygon clip-path="url(#SVGID_4_)" fill="#FCE130" points="45.177,45.305 41.903,48.578 41.903,48.442 45.04,45.305 						
							"/>
						<polygon clip-path="url(#SVGID_4_)" fill="#FCE130" points="45.313,45.305 41.903,48.715 41.903,48.578 45.177,45.305 						
							"/>
						<polygon clip-path="url(#SVGID_4_)" fill="#FCE130" points="45.45,45.305 41.903,48.852 41.903,48.715 45.313,45.305 						
							"/>
						<polygon clip-path="url(#SVGID_4_)" fill="#FCE130" points="45.587,45.305 41.903,48.988 41.903,48.852 45.45,45.305 						
							"/>
						<polygon clip-path="url(#SVGID_4_)" fill="#FCE130" points="45.723,45.305 41.903,49.125 41.903,48.988 45.587,45.305 						
							"/>
						<polygon clip-path="url(#SVGID_4_)" fill="#FCE130" points="45.86,45.305 41.903,49.261 41.903,49.125 45.723,45.305 						
							"/>
						<polygon clip-path="url(#SVGID_4_)" fill="#FCE130" points="45.996,45.305 41.903,49.398 41.903,49.261 45.86,45.305 						
							"/>
						<polygon clip-path="url(#SVGID_4_)" fill="#FCE130" points="46.133,45.305 41.903,49.535 41.903,49.398 45.996,45.305 						
							"/>
						<polygon clip-path="url(#SVGID_4_)" fill="#FCE130" points="46.27,45.305 41.903,49.671 41.903,49.535 46.133,45.305 						
							"/>
						<polygon clip-path="url(#SVGID_4_)" fill="#FCE030" points="46.406,45.305 41.903,49.808 41.903,49.671 46.27,45.305 						
							"/>
						<polygon clip-path="url(#SVGID_4_)" fill="#FCE030" points="46.543,45.305 41.903,49.944 41.903,49.808 46.406,45.305 						
							"/>
						<polygon clip-path="url(#SVGID_4_)" fill="#FCE030" points="46.679,45.305 41.903,50.081 41.903,49.944 46.543,45.305 						
							"/>
						<polygon clip-path="url(#SVGID_4_)" fill="#FCE030" points="46.816,45.305 41.903,50.218 41.903,50.081 46.679,45.305 						
							"/>
						<polygon clip-path="url(#SVGID_4_)" fill="#FCE030" points="46.953,45.305 41.903,50.354 41.903,50.218 46.816,45.305 						
							"/>
						<polygon clip-path="url(#SVGID_4_)" fill="#FCE030" points="47.089,45.305 41.903,50.491 41.903,50.354 46.953,45.305 						
							"/>
						<polygon clip-path="url(#SVGID_4_)" fill="#FCDF30" points="47.226,45.305 41.903,50.627 41.903,50.491 47.089,45.305 						
							"/>
						<polygon clip-path="url(#SVGID_4_)" fill="#FCDF2F" points="47.362,45.305 41.903,50.764 41.903,50.627 47.226,45.305 						
							"/>
						<polygon clip-path="url(#SVGID_4_)" fill="#FCDF2F" points="47.499,45.305 41.903,50.901 41.903,50.764 47.362,45.305 						
							"/>
						<polygon clip-path="url(#SVGID_4_)" fill="#FCDF2F" points="47.636,45.305 41.903,51.037 41.903,50.901 47.499,45.305 						
							"/>
						<polygon clip-path="url(#SVGID_4_)" fill="#FCDE2F" points="47.772,45.305 41.903,51.174 41.903,51.037 47.636,45.305 						
							"/>
						<polygon clip-path="url(#SVGID_4_)" fill="#FCDE2F" points="47.909,45.305 41.903,51.311 41.903,51.174 47.772,45.305 						
							"/>
						<polygon clip-path="url(#SVGID_4_)" fill="#FCDE2F" points="48.045,45.305 41.903,51.447 41.903,51.311 47.909,45.305 						
							"/>
						<polygon clip-path="url(#SVGID_4_)" fill="#FCDD2F" points="48.182,45.305 41.903,51.584 41.903,51.447 48.045,45.305 						
							"/>
						<polygon clip-path="url(#SVGID_4_)" fill="#FBDD2F" points="48.319,45.305 41.903,51.72 41.903,51.584 48.182,45.305 						
							"/>
						<polygon clip-path="url(#SVGID_4_)" fill="#FBDC2F" points="48.455,45.305 41.903,51.857 41.903,51.72 48.319,45.305 						
							"/>
						<polygon clip-path="url(#SVGID_4_)" fill="#FBDC2E" points="48.592,45.305 41.903,51.994 41.903,51.857 48.455,45.305 						
							"/>
						<polygon clip-path="url(#SVGID_4_)" fill="#FBDB2E" points="48.728,45.305 41.903,52.13 41.903,51.994 48.592,45.305 						
							"/>
						<polygon clip-path="url(#SVGID_4_)" fill="#FBDB2E" points="48.865,45.305 41.903,52.267 41.903,52.13 48.728,45.305 						
							"/>
						<polygon clip-path="url(#SVGID_4_)" fill="#FBDA2E" points="49.002,45.305 41.903,52.403 41.903,52.267 48.865,45.305 						
							"/>
						<polygon clip-path="url(#SVGID_4_)" fill="#FBDA2E" points="49.138,45.305 41.903,52.54 41.903,52.403 49.002,45.305 						
							"/>
						<polygon clip-path="url(#SVGID_4_)" fill="#FBD92E" points="49.275,45.305 41.903,52.677 41.903,52.54 49.138,45.305 						
							"/>
						<polygon clip-path="url(#SVGID_4_)" fill="#FBD82E" points="49.411,45.305 41.903,52.813 41.903,52.677 49.275,45.305 						
							"/>
						<polygon clip-path="url(#SVGID_4_)" fill="#FBD82D" points="49.548,45.305 41.903,52.95 41.903,52.813 49.411,45.305 						
							"/>
						<polygon clip-path="url(#SVGID_4_)" fill="#FBD72D" points="49.685,45.305 41.903,53.086 41.903,52.95 49.548,45.305 						
							"/>
						<polygon clip-path="url(#SVGID_4_)" fill="#FBD62D" points="49.821,45.305 41.966,53.16 41.903,53.16 41.903,53.086 
							49.685,45.305 						"/>
						<polygon clip-path="url(#SVGID_4_)" fill="#FBD62D" points="49.958,45.305 42.102,53.16 41.966,53.16 49.821,45.305 						"/>
						<polygon clip-path="url(#SVGID_4_)" fill="#FBD52C" points="49.991,45.305 50.043,45.357 42.239,53.16 42.102,53.16 
							49.958,45.305 						"/>
						<polygon clip-path="url(#SVGID_4_)" fill="#FAD42C" points="50.043,45.357 50.111,45.425 42.376,53.16 42.239,53.16 						"/>
						<polygon clip-path="url(#SVGID_4_)" fill="#FAD32C" points="50.111,45.425 50.163,45.477 50.163,45.51 42.512,53.16 
							42.376,53.16 						"/>
						<polygon clip-path="url(#SVGID_4_)" fill="#FAD22C" points="50.163,45.646 42.649,53.16 42.512,53.16 50.163,45.51 						"/>
						<polygon clip-path="url(#SVGID_4_)" fill="#FAD12B" points="50.163,45.783 42.786,53.16 42.649,53.16 50.163,45.646 						"/>
						<polygon clip-path="url(#SVGID_4_)" fill="#FAD02B" points="50.163,45.919 42.922,53.16 42.786,53.16 50.163,45.783 						"/>
						<polygon clip-path="url(#SVGID_4_)" fill="#FACF2B" points="50.163,46.056 43.059,53.16 42.922,53.16 50.163,45.919 						"/>
						<polygon clip-path="url(#SVGID_4_)" fill="#FACE2B" points="50.163,46.193 43.195,53.16 43.059,53.16 50.163,46.056 						"/>
						<polygon clip-path="url(#SVGID_4_)" fill="#FACD2A" points="50.163,46.329 43.332,53.16 43.195,53.16 50.163,46.193 						"/>
						<polygon clip-path="url(#SVGID_4_)" fill="#FACC2A" points="50.163,46.466 43.469,53.16 43.332,53.16 50.163,46.329 						"/>
						<polygon clip-path="url(#SVGID_4_)" fill="#F9CB2A" points="50.163,46.603 43.605,53.16 43.469,53.16 50.163,46.466 						"/>
						<polygon clip-path="url(#SVGID_4_)" fill="#F9CA29" points="50.163,46.739 43.742,53.16 43.605,53.16 50.163,46.603 						"/>
						<polygon clip-path="url(#SVGID_4_)" fill="#F9C929" points="50.163,46.876 43.878,53.16 43.742,53.16 50.163,46.739 						"/>
						<polygon clip-path="url(#SVGID_4_)" fill="#F9C829" points="50.163,47.012 44.015,53.16 43.878,53.16 50.163,46.876 						"/>
						<polygon clip-path="url(#SVGID_4_)" fill="#F9C728" points="50.163,47.149 44.152,53.16 44.015,53.16 50.163,47.012 						"/>
						<polygon clip-path="url(#SVGID_4_)" fill="#F9C528" points="50.163,47.286 44.288,53.16 44.152,53.16 50.163,47.149 						"/>
						<polygon clip-path="url(#SVGID_4_)" fill="#F9C428" points="50.163,47.422 44.425,53.16 44.288,53.16 50.163,47.286 						"/>
						<polygon clip-path="url(#SVGID_4_)" fill="#F8C327" points="50.163,47.559 44.561,53.16 44.425,53.16 50.163,47.422 						"/>
						<polygon clip-path="url(#SVGID_4_)" fill="#F8C127" points="50.163,47.695 44.698,53.16 44.561,53.16 50.163,47.559 						"/>
						<polygon clip-path="url(#SVGID_4_)" fill="#F8C026" points="50.163,47.832 44.835,53.16 44.698,53.16 50.163,47.695 						"/>
						<polygon clip-path="url(#SVGID_4_)" fill="#F8BE26" points="50.163,47.969 44.971,53.16 44.835,53.16 50.163,47.832 						"/>
						<polygon clip-path="url(#SVGID_4_)" fill="#F8BD26" points="50.163,48.105 45.108,53.16 44.971,53.16 50.163,47.969 						"/>
						<polygon clip-path="url(#SVGID_4_)" fill="#F7BB25" points="50.163,48.242 45.244,53.16 45.108,53.16 50.163,48.105 						"/>
						<polygon clip-path="url(#SVGID_4_)" fill="#F7BA25" points="50.163,48.378 45.381,53.16 45.244,53.16 50.163,48.242 						"/>
						<polygon clip-path="url(#SVGID_4_)" fill="#F7B824" points="50.163,48.515 45.518,53.16 45.381,53.16 50.163,48.378 						"/>
						<polygon clip-path="url(#SVGID_4_)" fill="#F7B724" points="50.163,48.652 45.654,53.16 45.518,53.16 50.163,48.515 						"/>
						<polygon clip-path="url(#SVGID_4_)" fill="#F7B523" points="50.163,48.788 45.791,53.16 45.654,53.16 50.163,48.652 						"/>
						<polygon clip-path="url(#SVGID_4_)" fill="#F6B323" points="50.163,48.925 45.927,53.16 45.791,53.16 50.163,48.788 						"/>
						<polygon clip-path="url(#SVGID_4_)" fill="#F6B222" points="50.163,49.061 46.064,53.16 45.927,53.16 50.163,48.925 						"/>
						<polygon clip-path="url(#SVGID_4_)" fill="#F6B022" points="50.163,49.198 46.201,53.16 46.064,53.16 50.163,49.061 						"/>
						<polygon clip-path="url(#SVGID_4_)" fill="#F6AE21" points="50.163,49.335 46.337,53.16 46.201,53.16 50.163,49.198 						"/>
						<polygon clip-path="url(#SVGID_4_)" fill="#F6AC21" points="50.163,49.471 46.474,53.16 46.337,53.16 50.163,49.335 						"/>
						<polygon clip-path="url(#SVGID_4_)" fill="#F5AA20" points="50.163,49.608 46.61,53.16 46.474,53.16 50.163,49.471 						"/>
						<polygon clip-path="url(#SVGID_4_)" fill="#F5A820" points="50.163,49.744 46.747,53.16 46.61,53.16 50.163,49.608 						"/>
						<polygon clip-path="url(#SVGID_4_)" fill="#F5A61F" points="50.163,49.881 46.884,53.16 46.747,53.16 50.163,49.744 						"/>
						<polygon clip-path="url(#SVGID_4_)" fill="#F5A41E" points="50.163,50.018 47.02,53.16 46.884,53.16 50.163,49.881 						"/>
						<polygon clip-path="url(#SVGID_4_)" fill="#F4A21E" points="50.163,50.154 47.157,53.16 47.02,53.16 50.163,50.018 						"/>
						<polygon clip-path="url(#SVGID_4_)" fill="#F4A01D" points="50.163,50.291 47.293,53.16 47.157,53.16 50.163,50.154 						"/>
						<polygon clip-path="url(#SVGID_4_)" fill="#F49E1D" points="50.163,50.427 47.43,53.16 47.293,53.16 50.163,50.291 						"/>
						<polygon clip-path="url(#SVGID_4_)" fill="#F49C1C" points="50.163,50.564 47.567,53.16 47.43,53.16 50.163,50.427 						"/>
						<polygon clip-path="url(#SVGID_4_)" fill="#F39A1B" points="50.163,50.701 47.703,53.16 47.567,53.16 50.163,50.564 						"/>
						<polygon clip-path="url(#SVGID_4_)" fill="#F3971B" points="50.163,50.837 47.84,53.16 47.703,53.16 50.163,50.701 						"/>
						<polygon clip-path="url(#SVGID_4_)" fill="#F3951A" points="50.163,50.974 47.976,53.16 47.84,53.16 50.163,50.837 						"/>
						<polygon clip-path="url(#SVGID_4_)" fill="#F39319" points="50.163,51.11 48.113,53.16 47.976,53.16 50.163,50.974 						"/>
						<polygon clip-path="url(#SVGID_4_)" fill="#F29019" points="50.163,51.247 48.25,53.16 48.113,53.16 50.163,51.11 						"/>
						<polygon clip-path="url(#SVGID_4_)" fill="#F28E18" points="50.163,51.384 48.386,53.16 48.25,53.16 50.163,51.247 						"/>
						<polygon clip-path="url(#SVGID_4_)" fill="#F28E18" points="48.386,53.16 50.163,51.384 50.163,53.16 						"/>
					</g>
					<path fill="#F29039" d="M48.585,53.535c-0.06,0-0.119-0.015-0.175-0.043l-2.378-1.25l-2.377,1.25
						c-0.126,0.065-0.28,0.055-0.396-0.028c-0.115-0.084-0.173-0.227-0.148-0.367l0.453-2.647l-1.923-1.875
						c-0.103-0.1-0.139-0.249-0.095-0.385s0.161-0.234,0.303-0.255l2.658-0.387l1.188-2.409c0.125-0.256,0.547-0.256,0.672,0
						l1.189,2.409l2.658,0.387c0.142,0.021,0.259,0.119,0.303,0.255s0.008,0.285-0.095,0.385l-1.923,1.875l0.453,2.647
						c0.024,0.141-0.033,0.283-0.148,0.367C48.74,53.51,48.663,53.535,48.585,53.535z M46.032,51.443c0.06,0,0.12,0.015,0.175,0.043
						l1.88,0.988l-0.358-2.093c-0.021-0.122,0.019-0.246,0.107-0.332l1.521-1.482l-2.102-0.306
						c-0.122-0.018-0.228-0.095-0.282-0.205l-0.94-1.904l-0.939,1.904c-0.055,0.11-0.16,0.188-0.282,0.205l-2.102,0.306l1.521,1.482
						c0.089,0.086,0.129,0.21,0.107,0.332l-0.358,2.093l1.879-0.988C45.912,51.458,45.973,51.443,46.032,51.443z"/>
				</g>
				<g>
					<g>
						<defs>
							<polygon id="SVGID_18_" points="56.119,45.305 57.395,47.891 60.249,48.305 58.184,50.318 58.671,53.16 56.119,51.818 
								53.567,53.16 54.054,50.318 51.989,48.305 54.843,47.891 							"/>
						</defs>
						<clipPath id="SVGID_5_">
							<use xlink:href="#SVGID_18_"  overflow="visible"/>
						</clipPath>
						<polygon clip-path="url(#SVGID_5_)" fill="#FCE130" points="54.99,45.305 51.989,48.305 51.989,45.305 						"/>
						<polygon clip-path="url(#SVGID_5_)" fill="#FCE130" points="55.126,45.305 51.989,48.442 51.989,48.305 54.99,45.305 						
							"/>
						<polygon clip-path="url(#SVGID_5_)" fill="#FCE130" points="55.263,45.305 51.989,48.578 51.989,48.442 55.126,45.305 						
							"/>
						<polygon clip-path="url(#SVGID_5_)" fill="#FCE130" points="55.399,45.305 51.989,48.715 51.989,48.578 55.263,45.305 						
							"/>
						<polygon clip-path="url(#SVGID_5_)" fill="#FCE130" points="55.536,45.305 51.989,48.852 51.989,48.715 55.399,45.305 						
							"/>
						<polygon clip-path="url(#SVGID_5_)" fill="#FCE130" points="55.673,45.305 51.989,48.988 51.989,48.852 55.536,45.305 						
							"/>
						<polygon clip-path="url(#SVGID_5_)" fill="#FCE130" points="55.809,45.305 51.989,49.125 51.989,48.988 55.673,45.305 						
							"/>
						<polygon clip-path="url(#SVGID_5_)" fill="#FCE130" points="55.946,45.305 51.989,49.261 51.989,49.125 55.809,45.305 						
							"/>
						<polygon clip-path="url(#SVGID_5_)" fill="#FCE130" points="56.082,45.305 51.989,49.398 51.989,49.261 55.946,45.305 						
							"/>
						<polygon clip-path="url(#SVGID_5_)" fill="#FCE130" points="56.219,45.305 51.989,49.535 51.989,49.398 56.082,45.305 						
							"/>
						<polygon clip-path="url(#SVGID_5_)" fill="#FCE130" points="56.356,45.305 51.989,49.671 51.989,49.535 56.219,45.305 						
							"/>
						<polygon clip-path="url(#SVGID_5_)" fill="#FCE030" points="56.492,45.305 51.989,49.808 51.989,49.671 56.356,45.305 						
							"/>
						<polygon clip-path="url(#SVGID_5_)" fill="#FCE030" points="56.629,45.305 51.989,49.944 51.989,49.808 56.492,45.305 						
							"/>
						<polygon clip-path="url(#SVGID_5_)" fill="#FCE030" points="56.765,45.305 51.989,50.081 51.989,49.944 56.629,45.305 						
							"/>
						<polygon clip-path="url(#SVGID_5_)" fill="#FCE030" points="56.902,45.305 51.989,50.218 51.989,50.081 56.765,45.305 						
							"/>
						<polygon clip-path="url(#SVGID_5_)" fill="#FCE030" points="57.039,45.305 51.989,50.354 51.989,50.218 56.902,45.305 						
							"/>
						<polygon clip-path="url(#SVGID_5_)" fill="#FCE030" points="57.175,45.305 51.989,50.491 51.989,50.354 57.039,45.305 						
							"/>
						<polygon clip-path="url(#SVGID_5_)" fill="#FCDF30" points="57.312,45.305 51.989,50.627 51.989,50.491 57.175,45.305 						
							"/>
						<polygon clip-path="url(#SVGID_5_)" fill="#FCDF2F" points="57.448,45.305 51.989,50.764 51.989,50.627 57.312,45.305 						
							"/>
						<polygon clip-path="url(#SVGID_5_)" fill="#FCDF2F" points="57.585,45.305 51.989,50.901 51.989,50.764 57.448,45.305 						
							"/>
						<polygon clip-path="url(#SVGID_5_)" fill="#FCDF2F" points="57.722,45.305 51.989,51.037 51.989,50.901 57.585,45.305 						
							"/>
						<polygon clip-path="url(#SVGID_5_)" fill="#FCDE2F" points="57.858,45.305 51.989,51.174 51.989,51.037 57.722,45.305 						
							"/>
						<polygon clip-path="url(#SVGID_5_)" fill="#FCDE2F" points="57.995,45.305 51.989,51.311 51.989,51.174 57.858,45.305 						
							"/>
						<polygon clip-path="url(#SVGID_5_)" fill="#FCDE2F" points="58.131,45.305 51.989,51.447 51.989,51.311 57.995,45.305 						
							"/>
						<polygon clip-path="url(#SVGID_5_)" fill="#FCDD2F" points="58.268,45.305 51.989,51.584 51.989,51.447 58.131,45.305 						
							"/>
						<polygon clip-path="url(#SVGID_5_)" fill="#FBDD2F" points="58.405,45.305 51.989,51.72 51.989,51.584 58.268,45.305 						
							"/>
						<polygon clip-path="url(#SVGID_5_)" fill="#FBDC2F" points="58.541,45.305 51.989,51.857 51.989,51.72 58.405,45.305 						
							"/>
						<polygon clip-path="url(#SVGID_5_)" fill="#FBDC2E" points="58.678,45.305 51.989,51.994 51.989,51.857 58.541,45.305 						
							"/>
						<polygon clip-path="url(#SVGID_5_)" fill="#FBDB2E" points="58.814,45.305 51.989,52.13 51.989,51.994 58.678,45.305 						
							"/>
						<polygon clip-path="url(#SVGID_5_)" fill="#FBDB2E" points="58.951,45.305 51.989,52.267 51.989,52.13 58.814,45.305 						
							"/>
						<polygon clip-path="url(#SVGID_5_)" fill="#FBDA2E" points="59.088,45.305 51.989,52.403 51.989,52.267 58.951,45.305 						
							"/>
						<polygon clip-path="url(#SVGID_5_)" fill="#FBDA2E" points="59.224,45.305 51.989,52.54 51.989,52.403 59.088,45.305 						
							"/>
						<polygon clip-path="url(#SVGID_5_)" fill="#FBD92E" points="59.361,45.305 51.989,52.677 51.989,52.54 59.224,45.305 						
							"/>
						<polygon clip-path="url(#SVGID_5_)" fill="#FBD82E" points="59.497,45.305 51.989,52.813 51.989,52.677 59.361,45.305 						
							"/>
						<polygon clip-path="url(#SVGID_5_)" fill="#FBD82D" points="59.634,45.305 51.989,52.95 51.989,52.813 59.497,45.305 						
							"/>
						<polygon clip-path="url(#SVGID_5_)" fill="#FBD72D" points="59.771,45.305 51.989,53.086 51.989,52.95 59.634,45.305 						
							"/>
						<polygon clip-path="url(#SVGID_5_)" fill="#FBD62D" points="59.907,45.305 52.052,53.16 51.989,53.16 51.989,53.086 
							59.771,45.305 						"/>
						<polygon clip-path="url(#SVGID_5_)" fill="#FBD62D" points="60.044,45.305 52.188,53.16 52.052,53.16 59.907,45.305 						"/>
						<polygon clip-path="url(#SVGID_5_)" fill="#FBD52C" points="60.077,45.305 60.129,45.357 52.325,53.16 52.188,53.16 
							60.044,45.305 						"/>
						<polygon clip-path="url(#SVGID_5_)" fill="#FAD42C" points="60.129,45.357 60.197,45.425 52.462,53.16 52.325,53.16 						"/>
						<polygon clip-path="url(#SVGID_5_)" fill="#FAD32C" points="60.197,45.425 60.249,45.477 60.249,45.51 52.598,53.16 
							52.462,53.16 						"/>
						<polygon clip-path="url(#SVGID_5_)" fill="#FAD22C" points="60.249,45.646 52.735,53.16 52.598,53.16 60.249,45.51 						"/>
						<polygon clip-path="url(#SVGID_5_)" fill="#FAD12B" points="60.249,45.783 52.871,53.16 52.735,53.16 60.249,45.646 						"/>
						<polygon clip-path="url(#SVGID_5_)" fill="#FAD02B" points="60.249,45.919 53.008,53.16 52.871,53.16 60.249,45.783 						"/>
						<polygon clip-path="url(#SVGID_5_)" fill="#FACF2B" points="60.249,46.056 53.145,53.16 53.008,53.16 60.249,45.919 						"/>
						<polygon clip-path="url(#SVGID_5_)" fill="#FACE2B" points="60.249,46.193 53.281,53.16 53.145,53.16 60.249,46.056 						"/>
						<polygon clip-path="url(#SVGID_5_)" fill="#FACD2A" points="60.249,46.329 53.418,53.16 53.281,53.16 60.249,46.193 						"/>
						<polygon clip-path="url(#SVGID_5_)" fill="#FACC2A" points="60.249,46.466 53.554,53.16 53.418,53.16 60.249,46.329 						"/>
						<polygon clip-path="url(#SVGID_5_)" fill="#F9CB2A" points="60.249,46.603 53.691,53.16 53.554,53.16 60.249,46.466 						"/>
						<polygon clip-path="url(#SVGID_5_)" fill="#F9CA29" points="60.249,46.739 53.828,53.16 53.691,53.16 60.249,46.603 						"/>
						<polygon clip-path="url(#SVGID_5_)" fill="#F9C929" points="60.249,46.876 53.964,53.16 53.828,53.16 60.249,46.739 						"/>
						<polygon clip-path="url(#SVGID_5_)" fill="#F9C829" points="60.249,47.012 54.101,53.16 53.964,53.16 60.249,46.876 						"/>
						<polygon clip-path="url(#SVGID_5_)" fill="#F9C728" points="60.249,47.149 54.237,53.16 54.101,53.16 60.249,47.012 						"/>
						<polygon clip-path="url(#SVGID_5_)" fill="#F9C528" points="60.249,47.286 54.374,53.16 54.237,53.16 60.249,47.149 						"/>
						<polygon clip-path="url(#SVGID_5_)" fill="#F9C428" points="60.249,47.422 54.511,53.16 54.374,53.16 60.249,47.286 						"/>
						<polygon clip-path="url(#SVGID_5_)" fill="#F8C327" points="60.249,47.559 54.647,53.16 54.511,53.16 60.249,47.422 						"/>
						<polygon clip-path="url(#SVGID_5_)" fill="#F8C127" points="60.249,47.695 54.784,53.16 54.647,53.16 60.249,47.559 						"/>
						<polygon clip-path="url(#SVGID_5_)" fill="#F8C026" points="60.249,47.832 54.92,53.16 54.784,53.16 60.249,47.695 						"/>
						<polygon clip-path="url(#SVGID_5_)" fill="#F8BE26" points="60.249,47.969 55.057,53.16 54.92,53.16 60.249,47.832 						"/>
						<polygon clip-path="url(#SVGID_5_)" fill="#F8BD26" points="60.249,48.105 55.194,53.16 55.057,53.16 60.249,47.969 						"/>
						<polygon clip-path="url(#SVGID_5_)" fill="#F7BB25" points="60.249,48.242 55.33,53.16 55.194,53.16 60.249,48.105 						"/>
						<polygon clip-path="url(#SVGID_5_)" fill="#F7BA25" points="60.249,48.378 55.467,53.16 55.33,53.16 60.249,48.242 						"/>
						<polygon clip-path="url(#SVGID_5_)" fill="#F7B824" points="60.249,48.515 55.604,53.16 55.467,53.16 60.249,48.378 						"/>
						<polygon clip-path="url(#SVGID_5_)" fill="#F7B724" points="60.249,48.652 55.74,53.16 55.604,53.16 60.249,48.515 						"/>
						<polygon clip-path="url(#SVGID_5_)" fill="#F7B523" points="60.249,48.788 55.877,53.16 55.74,53.16 60.249,48.652 						"/>
						<polygon clip-path="url(#SVGID_5_)" fill="#F6B323" points="60.249,48.925 56.013,53.16 55.877,53.16 60.249,48.788 						"/>
						<polygon clip-path="url(#SVGID_5_)" fill="#F6B222" points="60.249,49.061 56.15,53.16 56.013,53.16 60.249,48.925 						"/>
						<polygon clip-path="url(#SVGID_5_)" fill="#F6B022" points="60.249,49.198 56.287,53.16 56.15,53.16 60.249,49.061 						"/>
						<polygon clip-path="url(#SVGID_5_)" fill="#F6AE21" points="60.249,49.335 56.423,53.16 56.287,53.16 60.249,49.198 						"/>
						<polygon clip-path="url(#SVGID_5_)" fill="#F6AC21" points="60.249,49.471 56.56,53.16 56.423,53.16 60.249,49.335 						"/>
						<polygon clip-path="url(#SVGID_5_)" fill="#F5AA20" points="60.249,49.608 56.696,53.16 56.56,53.16 60.249,49.471 						"/>
						<polygon clip-path="url(#SVGID_5_)" fill="#F5A820" points="60.249,49.744 56.833,53.16 56.696,53.16 60.249,49.608 						"/>
						<polygon clip-path="url(#SVGID_5_)" fill="#F5A61F" points="60.249,49.881 56.97,53.16 56.833,53.16 60.249,49.744 						"/>
						<polygon clip-path="url(#SVGID_5_)" fill="#F5A41E" points="60.249,50.018 57.106,53.16 56.97,53.16 60.249,49.881 						"/>
						<polygon clip-path="url(#SVGID_5_)" fill="#F4A21E" points="60.249,50.154 57.243,53.16 57.106,53.16 60.249,50.018 						"/>
						<polygon clip-path="url(#SVGID_5_)" fill="#F4A01D" points="60.249,50.291 57.379,53.16 57.243,53.16 60.249,50.154 						"/>
						<polygon clip-path="url(#SVGID_5_)" fill="#F49E1D" points="60.249,50.427 57.516,53.16 57.379,53.16 60.249,50.291 						"/>
						<polygon clip-path="url(#SVGID_5_)" fill="#F49C1C" points="60.249,50.564 57.653,53.16 57.516,53.16 60.249,50.427 						"/>
						<polygon clip-path="url(#SVGID_5_)" fill="#F39A1B" points="60.249,50.701 57.789,53.16 57.653,53.16 60.249,50.564 						"/>
						<polygon clip-path="url(#SVGID_5_)" fill="#F3971B" points="60.249,50.837 57.926,53.16 57.789,53.16 60.249,50.701 						"/>
						<polygon clip-path="url(#SVGID_5_)" fill="#F3951A" points="60.249,50.974 58.062,53.16 57.926,53.16 60.249,50.837 						"/>
						<polygon clip-path="url(#SVGID_5_)" fill="#F39319" points="60.249,51.11 58.199,53.16 58.062,53.16 60.249,50.974 						"/>
						<polygon clip-path="url(#SVGID_5_)" fill="#F29019" points="60.249,51.247 58.336,53.16 58.199,53.16 60.249,51.11 						"/>
						<polygon clip-path="url(#SVGID_5_)" fill="#F28E18" points="60.249,51.384 58.472,53.16 58.336,53.16 60.249,51.247 						"/>
						<polygon clip-path="url(#SVGID_5_)" fill="#F28E18" points="58.472,53.16 60.249,51.384 60.249,53.16 						"/>
					</g>
					<path fill="#F29039" d="M53.567,53.535c-0.078,0-0.155-0.024-0.221-0.071c-0.115-0.084-0.173-0.227-0.148-0.367l0.453-2.647
						l-1.923-1.875c-0.103-0.1-0.139-0.249-0.095-0.385s0.161-0.234,0.303-0.255l2.658-0.387l1.189-2.409
						c0.062-0.128,0.193-0.209,0.336-0.209l0,0c0.143,0,0.273,0.081,0.336,0.209l1.188,2.409l2.658,0.387
						c0.142,0.021,0.259,0.119,0.303,0.255s0.008,0.285-0.095,0.385l-1.923,1.875l0.453,2.647c0.024,0.141-0.033,0.283-0.148,0.367
						c-0.115,0.082-0.27,0.094-0.396,0.028l-2.377-1.25l-2.378,1.25C53.686,53.52,53.626,53.535,53.567,53.535z M52.795,48.567
						l1.521,1.482c0.089,0.086,0.129,0.21,0.107,0.332l-0.358,2.093l1.88-0.988c0.109-0.057,0.24-0.057,0.35,0l1.879,0.988
						l-0.358-2.093c-0.021-0.122,0.019-0.246,0.107-0.332l1.521-1.482l-2.102-0.306c-0.122-0.018-0.228-0.095-0.282-0.205
						l-0.939-1.904l-0.94,1.904c-0.055,0.11-0.16,0.188-0.282,0.205L52.795,48.567z"/>
				</g>
				<g>
					<g>
						<defs>
							<polygon id="SVGID_20_" points="66.205,45.305 67.481,47.891 70.335,48.305 68.27,50.318 68.757,53.16 66.205,51.818 
								63.652,53.16 64.14,50.318 62.075,48.305 64.929,47.891 							"/>
						</defs>
						<clipPath id="SVGID_6_">
							<use xlink:href="#SVGID_20_"  overflow="visible"/>
						</clipPath>
						<polygon clip-path="url(#SVGID_6_)" fill="#FCE130" points="65.076,45.305 62.075,48.305 62.075,45.305 						"/>
						<polygon clip-path="url(#SVGID_6_)" fill="#FCE130" points="65.212,45.305 62.075,48.442 62.075,48.305 65.076,45.305 						
							"/>
						<polygon clip-path="url(#SVGID_6_)" fill="#FCE130" points="65.349,45.305 62.075,48.578 62.075,48.442 65.212,45.305 						
							"/>
						<polygon clip-path="url(#SVGID_6_)" fill="#FCE130" points="65.485,45.305 62.075,48.715 62.075,48.578 65.349,45.305 						
							"/>
						<polygon clip-path="url(#SVGID_6_)" fill="#FCE130" points="65.622,45.305 62.075,48.852 62.075,48.715 65.485,45.305 						
							"/>
						<polygon clip-path="url(#SVGID_6_)" fill="#FCE130" points="65.759,45.305 62.075,48.988 62.075,48.852 65.622,45.305 						
							"/>
						<polygon clip-path="url(#SVGID_6_)" fill="#FCE130" points="65.895,45.305 62.075,49.125 62.075,48.988 65.759,45.305 						
							"/>
						<polygon clip-path="url(#SVGID_6_)" fill="#FCE130" points="66.032,45.305 62.075,49.261 62.075,49.125 65.895,45.305 						
							"/>
						<polygon clip-path="url(#SVGID_6_)" fill="#FCE130" points="66.168,45.305 62.075,49.398 62.075,49.261 66.032,45.305 						
							"/>
						<polygon clip-path="url(#SVGID_6_)" fill="#FCE130" points="66.305,45.305 62.075,49.535 62.075,49.398 66.168,45.305 						
							"/>
						<polygon clip-path="url(#SVGID_6_)" fill="#FCE130" points="66.442,45.305 62.075,49.671 62.075,49.535 66.305,45.305 						
							"/>
						<polygon clip-path="url(#SVGID_6_)" fill="#FCE030" points="66.578,45.305 62.075,49.808 62.075,49.671 66.442,45.305 						
							"/>
						<polygon clip-path="url(#SVGID_6_)" fill="#FCE030" points="66.715,45.305 62.075,49.944 62.075,49.808 66.578,45.305 						
							"/>
						<polygon clip-path="url(#SVGID_6_)" fill="#FCE030" points="66.851,45.305 62.075,50.081 62.075,49.944 66.715,45.305 						
							"/>
						<polygon clip-path="url(#SVGID_6_)" fill="#FCE030" points="66.988,45.305 62.075,50.218 62.075,50.081 66.851,45.305 						
							"/>
						<polygon clip-path="url(#SVGID_6_)" fill="#FCE030" points="67.125,45.305 62.075,50.354 62.075,50.218 66.988,45.305 						
							"/>
						<polygon clip-path="url(#SVGID_6_)" fill="#FCE030" points="67.261,45.305 62.075,50.491 62.075,50.354 67.125,45.305 						
							"/>
						<polygon clip-path="url(#SVGID_6_)" fill="#FCDF30" points="67.398,45.305 62.075,50.627 62.075,50.491 67.261,45.305 						
							"/>
						<polygon clip-path="url(#SVGID_6_)" fill="#FCDF2F" points="67.534,45.305 62.075,50.764 62.075,50.627 67.398,45.305 						
							"/>
						<polygon clip-path="url(#SVGID_6_)" fill="#FCDF2F" points="67.671,45.305 62.075,50.901 62.075,50.764 67.534,45.305 						
							"/>
						<polygon clip-path="url(#SVGID_6_)" fill="#FCDF2F" points="67.808,45.305 62.075,51.037 62.075,50.901 67.671,45.305 						
							"/>
						<polygon clip-path="url(#SVGID_6_)" fill="#FCDE2F" points="67.944,45.305 62.075,51.174 62.075,51.037 67.808,45.305 						
							"/>
						<polygon clip-path="url(#SVGID_6_)" fill="#FCDE2F" points="68.081,45.305 62.075,51.311 62.075,51.174 67.944,45.305 						
							"/>
						<polygon clip-path="url(#SVGID_6_)" fill="#FCDE2F" points="68.217,45.305 62.075,51.447 62.075,51.311 68.081,45.305 						
							"/>
						<polygon clip-path="url(#SVGID_6_)" fill="#FCDD2F" points="68.354,45.305 62.075,51.584 62.075,51.447 68.217,45.305 						
							"/>
						<polygon clip-path="url(#SVGID_6_)" fill="#FBDD2F" points="68.491,45.305 62.075,51.72 62.075,51.584 68.354,45.305 						
							"/>
						<polygon clip-path="url(#SVGID_6_)" fill="#FBDC2F" points="68.627,45.305 62.075,51.857 62.075,51.72 68.491,45.305 						
							"/>
						<polygon clip-path="url(#SVGID_6_)" fill="#FBDC2E" points="68.764,45.305 62.075,51.994 62.075,51.857 68.627,45.305 						
							"/>
						<polygon clip-path="url(#SVGID_6_)" fill="#FBDB2E" points="68.9,45.305 62.075,52.13 62.075,51.994 68.764,45.305 						"/>
						<polygon clip-path="url(#SVGID_6_)" fill="#FBDB2E" points="69.037,45.305 62.075,52.267 62.075,52.13 68.9,45.305 						"/>
						<polygon clip-path="url(#SVGID_6_)" fill="#FBDA2E" points="69.174,45.305 62.075,52.403 62.075,52.267 69.037,45.305 						
							"/>
						<polygon clip-path="url(#SVGID_6_)" fill="#FBDA2E" points="69.31,45.305 62.075,52.54 62.075,52.403 69.174,45.305 						"/>
						<polygon clip-path="url(#SVGID_6_)" fill="#FBD92E" points="69.447,45.305 62.075,52.677 62.075,52.54 69.31,45.305 						"/>
						<polygon clip-path="url(#SVGID_6_)" fill="#FBD82E" points="69.583,45.305 62.075,52.813 62.075,52.677 69.447,45.305 						
							"/>
						<polygon clip-path="url(#SVGID_6_)" fill="#FBD82D" points="69.72,45.305 62.075,52.95 62.075,52.813 69.583,45.305 						"/>
						<polygon clip-path="url(#SVGID_6_)" fill="#FBD72D" points="69.857,45.305 62.075,53.086 62.075,52.95 69.72,45.305 						"/>
						<polygon clip-path="url(#SVGID_6_)" fill="#FBD62D" points="69.993,45.305 62.138,53.16 62.075,53.16 62.075,53.086 
							69.857,45.305 						"/>
						<polygon clip-path="url(#SVGID_6_)" fill="#FBD62D" points="70.13,45.305 62.274,53.16 62.138,53.16 69.993,45.305 						"/>
						<polygon clip-path="url(#SVGID_6_)" fill="#FBD52C" points="70.163,45.305 70.215,45.357 62.411,53.16 62.274,53.16 
							70.13,45.305 						"/>
						<polygon clip-path="url(#SVGID_6_)" fill="#FAD42C" points="70.215,45.357 70.283,45.425 62.548,53.16 62.411,53.16 						"/>
						<polygon clip-path="url(#SVGID_6_)" fill="#FAD32C" points="70.283,45.425 70.335,45.477 70.335,45.51 62.684,53.16 
							62.548,53.16 						"/>
						<polygon clip-path="url(#SVGID_6_)" fill="#FAD22C" points="70.335,45.646 62.821,53.16 62.684,53.16 70.335,45.51 						"/>
						<polygon clip-path="url(#SVGID_6_)" fill="#FAD12B" points="70.335,45.783 62.957,53.16 62.821,53.16 70.335,45.646 						"/>
						<polygon clip-path="url(#SVGID_6_)" fill="#FAD02B" points="70.335,45.919 63.094,53.16 62.957,53.16 70.335,45.783 						"/>
						<polygon clip-path="url(#SVGID_6_)" fill="#FACF2B" points="70.335,46.056 63.231,53.16 63.094,53.16 70.335,45.919 						"/>
						<polygon clip-path="url(#SVGID_6_)" fill="#FACE2B" points="70.335,46.193 63.367,53.16 63.231,53.16 70.335,46.056 						"/>
						<polygon clip-path="url(#SVGID_6_)" fill="#FACD2A" points="70.335,46.329 63.504,53.16 63.367,53.16 70.335,46.193 						"/>
						<polygon clip-path="url(#SVGID_6_)" fill="#FACC2A" points="70.335,46.466 63.64,53.16 63.504,53.16 70.335,46.329 						"/>
						<polygon clip-path="url(#SVGID_6_)" fill="#F9CB2A" points="70.335,46.603 63.777,53.16 63.64,53.16 70.335,46.466 						"/>
						<polygon clip-path="url(#SVGID_6_)" fill="#F9CA29" points="70.335,46.739 63.914,53.16 63.777,53.16 70.335,46.603 						"/>
						<polygon clip-path="url(#SVGID_6_)" fill="#F9C929" points="70.335,46.876 64.05,53.16 63.914,53.16 70.335,46.739 						"/>
						<polygon clip-path="url(#SVGID_6_)" fill="#F9C829" points="70.335,47.012 64.187,53.16 64.05,53.16 70.335,46.876 						"/>
						<polygon clip-path="url(#SVGID_6_)" fill="#F9C728" points="70.335,47.149 64.323,53.16 64.187,53.16 70.335,47.012 						"/>
						<polygon clip-path="url(#SVGID_6_)" fill="#F9C528" points="70.335,47.286 64.46,53.16 64.323,53.16 70.335,47.149 						"/>
						<polygon clip-path="url(#SVGID_6_)" fill="#F9C428" points="70.335,47.422 64.597,53.16 64.46,53.16 70.335,47.286 						"/>
						<polygon clip-path="url(#SVGID_6_)" fill="#F8C327" points="70.335,47.559 64.733,53.16 64.597,53.16 70.335,47.422 						"/>
						<polygon clip-path="url(#SVGID_6_)" fill="#F8C127" points="70.335,47.695 64.87,53.16 64.733,53.16 70.335,47.559 						"/>
						<polygon clip-path="url(#SVGID_6_)" fill="#F8C026" points="70.335,47.832 65.006,53.16 64.87,53.16 70.335,47.695 						"/>
						<polygon clip-path="url(#SVGID_6_)" fill="#F8BE26" points="70.335,47.969 65.143,53.16 65.006,53.16 70.335,47.832 						"/>
						<polygon clip-path="url(#SVGID_6_)" fill="#F8BD26" points="70.335,48.105 65.28,53.16 65.143,53.16 70.335,47.969 						"/>
						<polygon clip-path="url(#SVGID_6_)" fill="#F7BB25" points="70.335,48.242 65.416,53.16 65.28,53.16 70.335,48.105 						"/>
						<polygon clip-path="url(#SVGID_6_)" fill="#F7BA25" points="70.335,48.378 65.553,53.16 65.416,53.16 70.335,48.242 						"/>
						<polygon clip-path="url(#SVGID_6_)" fill="#F7B824" points="70.335,48.515 65.689,53.16 65.553,53.16 70.335,48.378 						"/>
						<polygon clip-path="url(#SVGID_6_)" fill="#F7B724" points="70.335,48.652 65.826,53.16 65.689,53.16 70.335,48.515 						"/>
						<polygon clip-path="url(#SVGID_6_)" fill="#F7B523" points="70.335,48.788 65.963,53.16 65.826,53.16 70.335,48.652 						"/>
						<polygon clip-path="url(#SVGID_6_)" fill="#F6B323" points="70.335,48.925 66.099,53.16 65.963,53.16 70.335,48.788 						"/>
						<polygon clip-path="url(#SVGID_6_)" fill="#F6B222" points="70.335,49.061 66.236,53.16 66.099,53.16 70.335,48.925 						"/>
						<polygon clip-path="url(#SVGID_6_)" fill="#F6B022" points="70.335,49.198 66.372,53.16 66.236,53.16 70.335,49.061 						"/>
						<polygon clip-path="url(#SVGID_6_)" fill="#F6AE21" points="70.335,49.335 66.509,53.16 66.372,53.16 70.335,49.198 						"/>
						<polygon clip-path="url(#SVGID_6_)" fill="#F6AC21" points="70.335,49.471 66.646,53.16 66.509,53.16 70.335,49.335 						"/>
						<polygon clip-path="url(#SVGID_6_)" fill="#F5AA20" points="70.335,49.608 66.782,53.16 66.646,53.16 70.335,49.471 						"/>
						<polygon clip-path="url(#SVGID_6_)" fill="#F5A820" points="70.335,49.744 66.919,53.16 66.782,53.16 70.335,49.608 						"/>
						<polygon clip-path="url(#SVGID_6_)" fill="#F5A61F" points="70.335,49.881 67.055,53.16 66.919,53.16 70.335,49.744 						"/>
						<polygon clip-path="url(#SVGID_6_)" fill="#F5A41E" points="70.335,50.018 67.192,53.16 67.055,53.16 70.335,49.881 						"/>
						<polygon clip-path="url(#SVGID_6_)" fill="#F4A21E" points="70.335,50.154 67.329,53.16 67.192,53.16 70.335,50.018 						"/>
						<polygon clip-path="url(#SVGID_6_)" fill="#F4A01D" points="70.335,50.291 67.465,53.16 67.329,53.16 70.335,50.154 						"/>
						<polygon clip-path="url(#SVGID_6_)" fill="#F49E1D" points="70.335,50.427 67.602,53.16 67.465,53.16 70.335,50.291 						"/>
						<polygon clip-path="url(#SVGID_6_)" fill="#F49C1C" points="70.335,50.564 67.739,53.16 67.602,53.16 70.335,50.427 						"/>
						<polygon clip-path="url(#SVGID_6_)" fill="#F39A1B" points="70.335,50.701 67.875,53.16 67.739,53.16 70.335,50.564 						"/>
						<polygon clip-path="url(#SVGID_6_)" fill="#F3971B" points="70.335,50.837 68.012,53.16 67.875,53.16 70.335,50.701 						"/>
						<polygon clip-path="url(#SVGID_6_)" fill="#F3951A" points="70.335,50.974 68.148,53.16 68.012,53.16 70.335,50.837 						"/>
						<polygon clip-path="url(#SVGID_6_)" fill="#F39319" points="70.335,51.11 68.285,53.16 68.148,53.16 70.335,50.974 						"/>
						<polygon clip-path="url(#SVGID_6_)" fill="#F29019" points="70.335,51.247 68.422,53.16 68.285,53.16 70.335,51.11 						"/>
						<polygon clip-path="url(#SVGID_6_)" fill="#F28E18" points="70.335,51.384 68.558,53.16 68.422,53.16 70.335,51.247 						"/>
						<polygon clip-path="url(#SVGID_6_)" fill="#F28E18" points="68.558,53.16 70.335,51.384 70.335,53.16 						"/>
					</g>
					<path fill="#F29039" d="M63.653,53.535c-0.078,0-0.155-0.024-0.221-0.071c-0.115-0.084-0.173-0.227-0.148-0.367l0.453-2.647
						l-1.923-1.875c-0.103-0.1-0.139-0.249-0.095-0.385s0.161-0.234,0.303-0.255l2.658-0.387l1.189-2.409
						c0.062-0.128,0.193-0.209,0.336-0.209l0,0c0.143,0,0.273,0.081,0.336,0.209l1.188,2.409l2.658,0.387
						c0.142,0.021,0.259,0.119,0.303,0.255s0.008,0.285-0.095,0.385l-1.923,1.875l0.453,2.647c0.024,0.141-0.033,0.283-0.148,0.367
						c-0.115,0.082-0.271,0.094-0.396,0.028l-2.377-1.25l-2.378,1.25C63.772,53.52,63.712,53.535,63.653,53.535z M62.881,48.567
						l1.521,1.482c0.089,0.086,0.129,0.21,0.107,0.332l-0.358,2.093l1.88-0.988c0.109-0.057,0.24-0.057,0.35,0l1.879,0.988
						l-0.358-2.093c-0.021-0.122,0.019-0.246,0.107-0.332l1.521-1.482l-2.102-0.306c-0.122-0.018-0.228-0.095-0.282-0.205
						l-0.939-1.904l-0.94,1.904c-0.055,0.11-0.16,0.188-0.282,0.205L62.881,48.567z"/>
				</g>
			</g>
			<g>
				<path fill="#F29039" d="M70.33,56.829H61.52c-0.276,0-0.5-0.224-0.5-0.5s0.224-0.5,0.5-0.5h8.811
					c1.376,0,2.495-1.12,2.495-2.496v-8.2c0-1.376-1.119-2.496-2.495-2.496H21.736c-1.376,0-2.495,1.12-2.495,2.496v8.2
					c0,1.376,1.119,2.496,2.495,2.496h33.643c0.276,0,0.5,0.224,0.5,0.5s-0.224,0.5-0.5,0.5H21.736
					c-1.927,0-3.495-1.568-3.495-3.496v-8.2c0-1.928,1.568-3.496,3.495-3.496H70.33c1.927,0,3.495,1.568,3.495,3.496v8.2
					C73.825,55.26,72.257,56.829,70.33,56.829z"/>
			</g>
			<g>
				<path fill="#F29039" d="M55.597,62.527c-0.157,0-0.31-0.075-0.404-0.207c-0.121-0.165-0.128-0.388-0.018-0.562
					c0.426-0.672,1.441-2.693,1.029-3.963c-0.15-0.464-0.481-0.792-1.011-1.002c-0.257-0.102-0.382-0.393-0.28-0.649
					s0.393-0.379,0.649-0.28c0.812,0.322,1.349,0.869,1.594,1.625c0.388,1.197-0.084,2.664-0.533,3.661
					c3.382-1.47,4.404-4.919,4.415-4.958c0.076-0.266,0.349-0.42,0.618-0.344c0.265,0.075,0.419,0.351,0.345,0.616
					c-0.056,0.195-1.406,4.805-6.281,6.047C55.68,62.522,55.638,62.527,55.597,62.527z"/>
			</g>
		</g>
		<g>
			<path d="M28.289,67.288h-0.747v-2.052h-2.099v2.052h-0.745v-4.553h0.745v1.862h2.099v-1.862h0.747V67.288z"/>
			<path d="M31.31,67.288l-0.146-0.479h-0.024c-0.166,0.21-0.333,0.353-0.501,0.428c-0.169,0.076-0.385,0.114-0.648,0.114
				c-0.338,0-0.603-0.092-0.792-0.274c-0.19-0.183-0.285-0.441-0.285-0.775c0-0.354,0.132-0.623,0.396-0.804
				c0.264-0.18,0.665-0.278,1.205-0.295l0.595-0.02v-0.184c0-0.22-0.052-0.385-0.154-0.493c-0.103-0.109-0.262-0.164-0.478-0.164
				c-0.177,0-0.346,0.026-0.508,0.078s-0.317,0.113-0.467,0.184l-0.237-0.522c0.188-0.098,0.392-0.172,0.613-0.223
				c0.223-0.051,0.433-0.077,0.63-0.077c0.438,0,0.769,0.096,0.991,0.287c0.224,0.19,0.335,0.491,0.335,0.899v2.32H31.31z
				 M30.22,66.79c0.266,0,0.479-0.074,0.641-0.223c0.16-0.148,0.241-0.356,0.241-0.625v-0.299l-0.442,0.019
				c-0.345,0.013-0.596,0.07-0.752,0.173c-0.157,0.104-0.235,0.261-0.235,0.473c0,0.153,0.046,0.272,0.137,0.356
				C29.901,66.748,30.037,66.79,30.22,66.79z"/>
			<path d="M34.577,66.588l0.04-0.15c0.085-0.309,0.159-0.547,0.221-0.713l0.772-1.881h0.975v3.444h-0.676v-2.781l-0.056,0.188
				c-0.094,0.334-0.173,0.58-0.236,0.738l-0.754,1.855h-0.555l-0.753-1.868c-0.104-0.271-0.199-0.574-0.287-0.913v2.781H32.6v-3.444
				h0.968l0.748,1.825C34.382,65.837,34.469,66.143,34.577,66.588z"/>
			<path d="M42.082,68.506h-0.682v-1.218h-2.36v1.218h-0.676v-1.784h0.28c0.244-0.352,0.439-0.775,0.583-1.272
				c0.145-0.497,0.23-1.032,0.258-1.605h2.092v2.878h0.505V68.506z M40.859,66.721v-2.317h-0.741
				c-0.04,0.428-0.122,0.85-0.248,1.265c-0.125,0.415-0.278,0.766-0.459,1.053H40.859z"/>
			<path d="M45.521,65.559c0,0.562-0.145,1.002-0.433,1.317c-0.289,0.315-0.69,0.474-1.205,0.474c-0.322,0-0.606-0.073-0.854-0.218
				c-0.247-0.146-0.438-0.354-0.57-0.626c-0.133-0.272-0.199-0.588-0.199-0.947c0-0.559,0.144-0.994,0.43-1.308
				c0.287-0.313,0.69-0.471,1.212-0.471c0.498,0,0.893,0.161,1.183,0.481C45.375,64.584,45.521,65.015,45.521,65.559z
				 M43.014,65.559c0,0.795,0.294,1.193,0.881,1.193c0.582,0,0.872-0.398,0.872-1.193c0-0.786-0.293-1.18-0.878-1.18
				c-0.308,0-0.53,0.102-0.668,0.305C43.083,64.888,43.014,65.179,43.014,65.559z"/>
			<path d="M49.096,64.725c0,0.406-0.238,0.652-0.713,0.737v0.025c0.266,0.031,0.469,0.115,0.61,0.252
				c0.141,0.138,0.212,0.314,0.212,0.532c0,0.326-0.125,0.577-0.373,0.753c-0.248,0.175-0.608,0.263-1.082,0.263h-1.644v-3.444
				h1.638C48.646,63.843,49.096,64.137,49.096,64.725z M48.364,64.787c0-0.137-0.054-0.235-0.161-0.297
				c-0.106-0.062-0.266-0.092-0.478-0.092h-0.888v0.828h0.778c0.245,0,0.431-0.031,0.558-0.095S48.364,64.954,48.364,64.787z
				 M48.454,66.229c0-0.166-0.064-0.284-0.193-0.354s-0.321-0.104-0.579-0.104h-0.844v0.975H47.7
				C48.203,66.746,48.454,66.574,48.454,66.229z"/>
			<path d="M51.207,67.35c-0.536,0-0.954-0.156-1.257-0.469c-0.302-0.312-0.453-0.743-0.453-1.291c0-0.562,0.141-1.005,0.421-1.326
				c0.28-0.322,0.665-0.483,1.155-0.483c0.454,0,0.813,0.139,1.077,0.415c0.264,0.275,0.396,0.655,0.396,1.14v0.396h-2.295
				c0.011,0.334,0.101,0.591,0.271,0.771c0.171,0.18,0.41,0.27,0.72,0.27c0.203,0,0.393-0.02,0.568-0.058
				c0.176-0.039,0.363-0.103,0.565-0.191v0.595c-0.179,0.085-0.359,0.145-0.542,0.181C51.651,67.333,51.442,67.35,51.207,67.35z
				 M51.073,64.336c-0.232,0-0.419,0.074-0.56,0.221c-0.14,0.147-0.224,0.362-0.25,0.646h1.562c-0.004-0.285-0.072-0.5-0.205-0.646
				S51.306,64.336,51.073,64.336z"/>
			<path d="M54.869,67.35c-0.437,0-0.774-0.157-1.016-0.471H53.81c0.029,0.291,0.044,0.468,0.044,0.529v1.411h-0.731v-4.977h0.592
				c0.017,0.064,0.051,0.218,0.103,0.461h0.037c0.229-0.349,0.571-0.523,1.027-0.523c0.43,0,0.765,0.156,1.005,0.468
				c0.239,0.312,0.359,0.748,0.359,1.311s-0.122,1.002-0.366,1.317C55.636,67.192,55.299,67.35,54.869,67.35z M54.692,64.38
				c-0.291,0-0.503,0.085-0.637,0.255c-0.134,0.171-0.201,0.442-0.201,0.816v0.108c0,0.42,0.066,0.724,0.199,0.911
				s0.35,0.282,0.651,0.282c0.253,0,0.448-0.104,0.585-0.312c0.137-0.208,0.206-0.504,0.206-0.888c0-0.387-0.068-0.679-0.204-0.877
				C55.155,64.478,54.955,64.38,54.692,64.38z"/>
			<path d="M57.193,67.288h-0.819l0.96-1.41c-0.233-0.067-0.416-0.186-0.549-0.357c-0.133-0.171-0.199-0.383-0.199-0.637
				c0-0.325,0.116-0.58,0.349-0.765c0.232-0.184,0.551-0.275,0.953-0.275h1.569v3.444h-0.734v-1.326h-0.694L57.193,67.288z
				 M57.298,64.89c0,0.176,0.067,0.309,0.201,0.396c0.134,0.089,0.314,0.133,0.54,0.133h0.683v-1.021h-0.798
				c-0.199,0-0.354,0.042-0.462,0.128C57.353,64.611,57.298,64.732,57.298,64.89z"/>
			<path d="M64.847,65.559c0,0.565-0.137,1.005-0.412,1.319s-0.658,0.472-1.15,0.472c-0.453,0-0.812-0.134-1.079-0.4
				s-0.422-0.649-0.466-1.147h-0.76v1.485h-0.731v-3.444h0.731v1.383h0.766c0.053-0.457,0.213-0.812,0.481-1.064
				c0.269-0.254,0.626-0.381,1.069-0.381c0.478,0,0.855,0.161,1.134,0.481C64.708,64.584,64.847,65.015,64.847,65.559z
				 M62.487,65.559c0,0.393,0.063,0.689,0.188,0.891c0.126,0.201,0.331,0.303,0.615,0.303c0.282,0,0.487-0.102,0.613-0.303
				c0.127-0.201,0.19-0.498,0.19-0.891c0-0.388-0.063-0.682-0.19-0.881c-0.126-0.199-0.331-0.299-0.613-0.299
				c-0.284,0-0.489,0.1-0.615,0.299C62.55,64.878,62.487,65.172,62.487,65.559z"/>
			<path d="M68.028,63.843v0.573h-1.121v2.871h-0.735v-2.871H65.05v-0.573H68.028z"/>
		</g>
	</g>
</g>
</svg>
