<?xml version="1.0" encoding="utf-8"?>
<!-- Generator: Adobe Illustrator 21.0.0, SVG Export Plug-In . SVG Version: 6.00 Build 0)  -->
<svg version="1.1" id="Layer_1" xmlns="http://www.w3.org/2000/svg" xmlns:xlink="http://www.w3.org/1999/xlink" x="0px" y="0px"
	 viewBox="0 0 361.858 159.66" enable-background="new 0 0 361.858 159.66" xml:space="preserve">
<g>
	<g>
		<g>
			<g>
				<g>
					<rect x="290.358" y="0.5" fill="#FFFFFF" width="35" height="21"/>
					<path d="M325.858,22h-36V0h36V22z M290.858,21h34V1h-34V21z"/>
				</g>
				<g>
					<rect x="314.358" y="11.5" fill="#B84843" width="6" height="10"/>
					<path d="M320.858,22h-7V11h7V22z M314.858,21h5v-9h-5V21z"/>
				</g>
				<g>
					<rect x="295.358" y="11.5" fill="#B84843" width="6" height="6"/>
					<path d="M301.858,18h-7v-7h7V18z M295.858,17h5v-5h-5V17z"/>
				</g>
				<g>
					<rect x="305.358" y="11.5" fill="#B84843" width="6" height="6"/>
					<path d="M311.858,18h-7v-7h7V18z M305.858,17h5v-5h-5V17z"/>
				</g>
				<g>
					<rect x="295.358" y="3.5" fill="#B84843" width="6" height="6"/>
					<path d="M301.858,10h-7V3h7V10z M295.858,9h5V4h-5V9z"/>
				</g>
				<g>
					<rect x="305.358" y="3.5" fill="#B84843" width="6" height="6"/>
					<path d="M311.858,10h-7V3h7V10z M305.858,9h5V4h-5V9z"/>
				</g>
				<g>
					<rect x="314.358" y="3.5" fill="#B84843" width="6" height="6"/>
					<path d="M320.858,10h-7V3h7V10z M314.858,9h5V4h-5V9z"/>
				</g>
			</g>
			<g>
				<g>
					<path d="M359.858,22h-19v-5.5c0-3.032,2.468-5.5,5.5-5.5h8c3.032,0,5.5,2.468,5.5,5.5V22z M341.858,21h17v-4.5
						c0-2.481-2.019-4.5-4.5-4.5h-8c-2.481,0-4.5,2.019-4.5,4.5V21z"/>
				</g>
				<g>
					<path d="M350.358,11c-3.032,0-5.5-2.468-5.5-5.5s2.468-5.5,5.5-5.5s5.5,2.468,5.5,5.5S353.391,11,350.358,11z M350.358,1
						c-2.481,0-4.5,2.019-4.5,4.5s2.019,4.5,4.5,4.5s4.5-2.019,4.5-4.5S352.84,1,350.358,1z"/>
				</g>
				<g>
					<path d="M350.358,8.25c-1.517,0-2.75-1.233-2.75-2.75h0.5c0,1.24,1.01,2.25,2.25,2.25s2.25-1.01,2.25-2.25h0.5
						C353.108,7.017,351.875,8.25,350.358,8.25z"/>
				</g>
				<g>
					<g>
						<rect x="335.358" y="16.5" fill="#FFFFFF" width="8" height="5"/>
						<path d="M343.858,22h-9v-6h9V22z M335.858,21h7v-4h-7V21z"/>
					</g>
					<g>
						<rect x="335.358" y="13.5" fill="#B84843" width="8" height="3"/>
						<path d="M343.858,17h-9v-4h9V17z M335.858,16h7v-2h-7V16z"/>
					</g>
				</g>
				<g>
					<circle cx="348.858" cy="4" r="0.5"/>
				</g>
				<g>
					<circle cx="351.858" cy="4" r="0.5"/>
				</g>
			</g>
		</g>
		<g>
			<g>
				<g>
					<rect x="289.358" y="58.5" fill="#FFFFFF" width="21" height="21"/>
					<path d="M310.858,80h-22V58h22V80z M289.858,79h20V59h-20V79z"/>
				</g>
				<g>
					<rect x="310.358" y="73.5" fill="#B84843" width="15" height="6"/>
					<path d="M325.858,80h-16v-7h16V80z M310.858,79h14v-5h-14V79z"/>
				</g>
				<g>
					<path d="M325.858,74h-16v-6h10.5c3.032,0,5.5,2.468,5.5,5.5V74z M310.858,73h13.973c-0.25-2.247-2.16-4-4.473-4h-9.5V73z"/>
				</g>
				<g>
					<circle fill="#FFFFFF" cx="297.358" cy="79.5" r="3"/>
					<path d="M297.358,83c-1.93,0-3.5-1.57-3.5-3.5s1.57-3.5,3.5-3.5s3.5,1.57,3.5,3.5S299.288,83,297.358,83z M297.358,77
						c-1.379,0-2.5,1.121-2.5,2.5s1.121,2.5,2.5,2.5s2.5-1.121,2.5-2.5S298.737,77,297.358,77z"/>
				</g>
				<g>
					<circle fill="#FFFFFF" cx="317.358" cy="79.5" r="3"/>
					<path d="M317.358,83c-1.93,0-3.5-1.57-3.5-3.5s1.57-3.5,3.5-3.5s3.5,1.57,3.5,3.5S319.288,83,317.358,83z M317.358,77
						c-1.379,0-2.5,1.121-2.5,2.5s1.121,2.5,2.5,2.5s2.5-1.121,2.5-2.5S318.737,77,317.358,77z"/>
				</g>
				<g>
					<path d="M297.858,74h-5v-5h5V74z M293.858,73h3v-3h-3V73z"/>
				</g>
				<g>
					<rect x="301.358" y="69.5" fill="#B84843" width="4" height="4"/>
					<path d="M305.858,74h-5v-5h5V74z M301.858,73h3v-3h-3V73z"/>
				</g>
				<g>
					<path d="M301.858,70h-5v-5h5V70z M297.858,69h3v-3h-3V69z"/>
				</g>
			</g>
			<g>
				<g>
					<path d="M359.858,83h-19v-5.5c0-3.032,2.468-5.5,5.5-5.5h8c3.032,0,5.5,2.468,5.5,5.5V83z M341.858,82h17v-4.5
						c0-2.481-2.019-4.5-4.5-4.5h-8c-2.481,0-4.5,2.019-4.5,4.5V82z"/>
				</g>
				<g>
					<path d="M350.358,72c-3.032,0-5.5-2.468-5.5-5.5s2.468-5.5,5.5-5.5s5.5,2.468,5.5,5.5S353.391,72,350.358,72z M350.358,62
						c-2.481,0-4.5,2.019-4.5,4.5s2.019,4.5,4.5,4.5s4.5-2.019,4.5-4.5S352.84,62,350.358,62z"/>
				</g>
				<g>
					<path d="M350.358,69.25c-1.517,0-2.75-1.233-2.75-2.75h0.5c0,1.24,1.01,2.25,2.25,2.25s2.25-1.01,2.25-2.25h0.5
						C353.108,68.017,351.875,69.25,350.358,69.25z"/>
				</g>
				<g>
					<g>
						<rect x="335.358" y="77.5" fill="#FFFFFF" width="8" height="5"/>
						<path d="M343.858,83h-9v-6h9V83z M335.858,82h7v-4h-7V82z"/>
					</g>
					<g>
						<rect x="335.358" y="74.5" fill="#B84843" width="8" height="3"/>
						<path d="M343.858,78h-9v-4h9V78z M335.858,77h7v-2h-7V77z"/>
					</g>
				</g>
				<g>
					<circle cx="348.858" cy="65" r="0.5"/>
				</g>
				<g>
					<circle cx="351.858" cy="65" r="0.5"/>
				</g>
			</g>
		</g>
		<g>
			<g>
				<g>
					<rect x="290.358" y="126.5" fill="#FFFFFF" width="35" height="14"/>
					<path d="M325.858,141h-36v-15h36V141z M290.858,140h34v-13h-34V140z"/>
				</g>
				<g>
					<path fill="#B84843" d="M325.358,126.5h-35v-1c0-2.761,2.239-5,5-5h25c2.761,0,5,2.239,5,5V126.5z"/>
					<path d="M325.858,127h-36v-1.5c0-3.032,2.468-5.5,5.5-5.5h25c3.032,0,5.5,2.468,5.5,5.5V127z M290.858,126h34v-0.5
						c0-2.481-2.019-4.5-4.5-4.5h-25c-2.481,0-4.5,2.019-4.5,4.5V126z"/>
				</g>
				<g>
					<rect x="315.358" y="130.5" fill="#B84843" width="6" height="10"/>
					<path d="M321.858,141h-7v-11h7V141z M315.858,140h5v-9h-5V140z"/>
				</g>
				<g>
					<rect x="295.358" y="130.5" fill="#B84843" width="6" height="6"/>
					<path d="M301.858,137h-7v-7h7V137z M295.858,136h5v-5h-5V136z"/>
				</g>
				<g>
					<rect x="305.358" y="130.5" fill="#B84843" width="6" height="6"/>
					<path d="M311.858,137h-7v-7h7V137z M305.858,136h5v-5h-5V136z"/>
				</g>
			</g>
			<g>
				<g>
					<path d="M361.858,141h-19v-5.5c0-3.032,2.468-5.5,5.5-5.5h8c3.032,0,5.5,2.468,5.5,5.5V141z M343.858,140h17v-4.5
						c0-2.481-2.019-4.5-4.5-4.5h-8c-2.481,0-4.5,2.019-4.5,4.5V140z"/>
				</g>
				<g>
					<path d="M352.358,130c-3.032,0-5.5-2.468-5.5-5.5s2.468-5.5,5.5-5.5s5.5,2.468,5.5,5.5S355.391,130,352.358,130z M352.358,120
						c-2.481,0-4.5,2.019-4.5,4.5s2.019,4.5,4.5,4.5s4.5-2.019,4.5-4.5S354.84,120,352.358,120z"/>
				</g>
				<g>
					<path d="M352.358,127.25c-1.517,0-2.75-1.233-2.75-2.75h0.5c0,1.24,1.01,2.25,2.25,2.25s2.25-1.01,2.25-2.25h0.5
						C355.108,126.017,353.875,127.25,352.358,127.25z"/>
				</g>
				<g>
					<g>
						<rect x="337.358" y="135.5" fill="#FFFFFF" width="8" height="5"/>
						<path d="M345.858,141h-9v-6h9V141z M337.858,140h7v-4h-7V140z"/>
					</g>
					<g>
						<rect x="337.358" y="132.5" fill="#B84843" width="8" height="3"/>
						<path d="M345.858,136h-9v-4h9V136z M337.858,135h7v-2h-7V135z"/>
					</g>
				</g>
				<g>
					<circle cx="350.858" cy="123" r="0.5"/>
				</g>
				<g>
					<circle cx="353.858" cy="123" r="0.5"/>
				</g>
			</g>
		</g>
	</g>
	<g>
		<g id="path14_1_">
			<path fill="#B84843" d="M45.858,79c0,3.015-6.052,13.97-12.734,18.05V60.964C39.839,65.118,45.858,76.018,45.858,79"/>
			<path d="M33.125,97.55c-0.084,0-0.169-0.021-0.245-0.063c-0.157-0.089-0.255-0.256-0.255-0.437V60.964
				c0-0.182,0.099-0.349,0.257-0.437s0.353-0.084,0.506,0.012C40.088,64.684,46.358,75.74,46.358,79
				c0,3.298-6.272,14.386-12.973,18.477C33.306,97.525,33.216,97.55,33.125,97.55z M33.625,61.893v34.234
				C39.871,91.794,45.358,81.691,45.358,79C45.358,76.341,39.871,66.273,33.625,61.893z"/>
		</g>
		<g id="path16_1_">
			<path fill="#CFCFCF" d="M22.362,90.379c-6.274,0-11.379-5.105-11.379-11.379c0-6.274,5.105-11.379,11.379-11.379
				c3.189,0,6.074,1.32,8.142,3.441V60.108l-0.134-0.06c-2.464-1.037-5.168-1.616-8.006-1.616c-11.359,0-20.569,9.21-20.569,20.569
				c0,11.359,9.21,20.569,20.569,20.569c2.889,0,5.644-0.602,8.14-1.681v-10.95C28.436,89.058,25.551,90.379,22.362,90.379"/>
			<path d="M22.363,100.068c-11.617,0-21.068-9.451-21.068-21.068s9.451-21.068,21.068-21.068c2.835,0,5.594,0.557,8.201,1.655
				l0.143,0.063c0.181,0.081,0.297,0.26,0.297,0.457v10.955c0,0.203-0.123,0.387-0.312,0.463c-0.189,0.077-0.404,0.031-0.547-0.114
				c-2.068-2.121-4.833-3.29-7.783-3.29c-5.999,0-10.879,4.88-10.879,10.879s4.88,10.879,10.879,10.879
				c2.95,0,5.715-1.169,7.783-3.29c0.143-0.146,0.358-0.193,0.547-0.114c0.188,0.076,0.312,0.26,0.312,0.463v10.95
				c0,0.199-0.118,0.38-0.302,0.459C28.06,99.489,25.254,100.068,22.363,100.068z M22.363,58.932
				C11.298,58.932,2.295,67.935,2.295,79s9.003,20.068,20.068,20.068c2.644,0,5.213-0.509,7.641-1.512v-9.471
				c-2.139,1.809-4.812,2.793-7.642,2.793c-6.55,0-11.879-5.329-11.879-11.879s5.329-11.879,11.879-11.879
				c2.83,0,5.503,0.984,7.642,2.793v-9.478C27.577,59.439,25.005,58.932,22.363,58.932z"/>
		</g>
		<g id="path18_1_">
			<path fill="#B84843" d="M22.362,86.441c-4.103,0-7.441-3.338-7.441-7.442c0-4.103,3.338-7.441,7.441-7.441
				c4.103,0,7.442,3.338,7.442,7.441C29.803,83.103,26.465,86.441,22.362,86.441"/>
			<path d="M22.362,86.941c-4.379,0-7.941-3.562-7.941-7.941s3.562-7.941,7.941-7.941s7.941,3.562,7.941,7.941
				S26.741,86.941,22.362,86.941z M22.362,72.059c-3.827,0-6.941,3.114-6.941,6.941s3.114,6.941,6.941,6.941
				s6.941-3.114,6.941-6.941S26.189,72.059,22.362,72.059z"/>
		</g>
	</g>
	<g>
		<rect x="109.089" y="90.305" fill="#999999" width="40.63" height="0.75"/>
	</g>
	<g>
		<path fill="#999999" d="M347.858,91.055h-148.9v-0.75h148.9c0.896,0,1.625-0.729,1.625-1.625v-3h0.75v3
			C350.233,89.989,349.168,91.055,347.858,91.055z"/>
	</g>
	<g>
		<rect x="165.078" y="90.305" fill="#999999" width="3.5" height="0.75"/>
	</g>
	<g>
		<rect x="180.198" y="90.305" fill="#999999" width="2.601" height="0.75"/>
	</g>
	<g>
		<rect x="42.608" y="90.305" fill="#999999" width="46.6" height="0.75"/>
	</g>
	<g>
		<path fill="#999999" d="M221.124,90.942l-0.531-0.531l62.586-62.586c0.856-0.855,2.471-1.51,3.686-1.492l61,0.938
			c0.439-0.009,0.837-0.157,1.144-0.458c0.307-0.302,0.476-0.706,0.476-1.137v-2h0.75v2c0,0.634-0.248,1.227-0.699,1.671
			c-0.452,0.444-1.053,0.674-1.682,0.674l-61-0.938c-0.014,0-0.026,0-0.04,0c-0.996,0-2.406,0.576-3.103,1.273L221.124,90.942z"/>
	</g>
	<g>
		<path fill="#999999" d="M347.858,150.052h-61c-1.205,0-2.841-0.639-3.725-1.455l-62.529-57.645l0.508-0.551l62.529,57.645
			c0.738,0.681,2.211,1.256,3.217,1.256h61c0.896,0,1.625-0.729,1.625-1.625v-3h0.75v3
			C350.233,148.986,349.168,150.052,347.858,150.052z"/>
	</g>
	<g>
		<g>
			<path fill="#F0E000" d="M174.343,106.75c-15.302,0-27.75-12.448-27.75-27.75s12.448-27.75,27.75-27.75s27.75,12.448,27.75,27.75
				S189.645,106.75,174.343,106.75z M174.343,52.25c-14.75,0-26.75,12-26.75,26.75s12,26.75,26.75,26.75s26.75-12,26.75-26.75
				S189.093,52.25,174.343,52.25z"/>
		</g>
		<g>
			<circle fill="#FFFFFF" cx="174.343" cy="79" r="22.25"/>
			<path d="M174.343,101.75c-12.544,0-22.75-10.206-22.75-22.75s10.206-22.75,22.75-22.75s22.75,10.206,22.75,22.75
				S186.887,101.75,174.343,101.75z M174.343,57.25c-11.993,0-21.75,9.757-21.75,21.75s9.757,21.75,21.75,21.75
				s21.75-9.757,21.75-21.75S186.336,57.25,174.343,57.25z"/>
		</g>
		<g>
			<g>
				<path d="M169.056,85.671l-4.249-13.209c-0.001-0.004-0.003-0.008-0.004-0.012l-2.127-4.756h-2.864c-0.276,0-0.5-0.224-0.5-0.5
					s0.224-0.5,0.5-0.5h3.513l2.285,5.104h22.129v6.131c0,1.416-0.948,2.675-2.307,3.061L169.056,85.671z M165.965,72.798
					l3.747,11.646l15.445-4.416c0.932-0.265,1.581-1.127,1.581-2.099v-5.131H165.965z"/>
			</g>
			<g>
				<rect x="169.38" y="67.194" fill="#B84843" width="14.033" height="5.103"/>
				<path d="M183.913,72.797H168.88v-6.103h15.033V72.797z M169.88,71.797h13.033v-4.103H169.88V71.797z"/>
			</g>
			<g>
				<path d="M166.828,93.847c-1.331,0-2.413-1.082-2.413-2.413s1.082-2.414,2.413-2.414s2.414,1.083,2.414,2.414
					S168.159,93.847,166.828,93.847z M166.828,90.02c-0.779,0-1.413,0.635-1.413,1.414s0.634,1.413,1.413,1.413
					s1.414-0.634,1.414-1.413S167.607,90.02,166.828,90.02z"/>
			</g>
			<g>
				<path d="M181.5,94.484c-1.331,0-2.414-1.082-2.414-2.413s1.083-2.414,2.414-2.414s2.413,1.083,2.413,2.414
					S182.831,94.484,181.5,94.484z M181.5,90.657c-0.779,0-1.414,0.635-1.414,1.414s0.635,1.413,1.414,1.413
					s1.413-0.634,1.413-1.413S182.279,90.657,181.5,90.657z"/>
			</g>
		</g>
	</g>
	<g>
		<path d="M99.152,95.133c-8.271,0-15-6.729-15-15s6.729-15,15-15s15,6.729,15,15S107.424,95.133,99.152,95.133z M99.152,66.133
			c-7.72,0-14,6.28-14,14s6.28,14,14,14s14-6.28,14-14S106.872,66.133,99.152,66.133z"/>
	</g>
	<g>
		<g>
			<rect x="92.064" y="78.361" fill="#FFFFFF" width="14.177" height="8.861"/>
			<path d="M106.741,87.722H91.564V77.86h15.177V87.722z M92.564,86.722h13.177V78.86H92.564V86.722z"/>
		</g>
		<g>
			<rect x="92.064" y="73.044" fill="#B84843" width="14.177" height="5.316"/>
			<path d="M106.741,78.86H91.564v-6.316h15.177V78.86z M92.564,77.86h13.177v-4.316H92.564V77.86z"/>
		</g>
	</g>
	<g>
		<path d="M2.593,108.411c0.074,0,0.1,0.025,0.1,0.101v3.353c0,0.075-0.025,0.101-0.1,0.101H2.427c-0.074,0-0.1-0.025-0.1-0.101
			v-1.967c0-0.325,0.02-0.665,0.064-1.021h-0.01c-0.12,0.23-0.3,0.525-0.535,0.886L0.37,111.91
			c-0.025,0.034-0.061,0.055-0.105,0.055H0.1c-0.075,0-0.1-0.025-0.1-0.101v-3.353c0-0.075,0.024-0.101,0.1-0.101h0.165
			c0.075,0,0.096,0.025,0.096,0.101v1.911c0,0.371-0.021,0.731-0.061,1.076h0.016c0.145-0.28,0.33-0.596,0.565-0.94l1.441-2.097
			c0.024-0.035,0.06-0.051,0.104-0.051H2.593z"/>
		<path d="M5.446,109.393c0.061,0,0.09,0.03,0.09,0.09v2.393c0,0.06-0.029,0.09-0.09,0.09h-0.16c-0.06,0-0.09-0.03-0.09-0.09v-1.076
			H3.75v1.076c0,0.06-0.03,0.09-0.091,0.09h-0.16c-0.06,0-0.09-0.03-0.09-0.09v-2.393c0-0.06,0.03-0.09,0.09-0.09h0.16
			c0.061,0,0.091,0.03,0.091,0.09v1.006h1.446v-1.006c0-0.06,0.03-0.09,0.09-0.09H5.446z"/>
		<path d="M7.951,109.393c0.075,0,0.09,0.024,0.09,0.09v0.13c0,0.061-0.029,0.09-0.09,0.09H7.16v2.173c0,0.06-0.029,0.09-0.09,0.09
			H6.915c-0.06,0-0.09-0.03-0.09-0.09v-2.173H6.024c-0.061,0-0.09-0.029-0.09-0.09v-0.13c0-0.06,0.029-0.09,0.09-0.09H7.951z"/>
		<path d="M8.314,110.373c0-0.665,0.386-1.056,1.106-1.056c0.726,0,1.11,0.41,1.11,1.036v0.275c0,0.095-0.05,0.14-0.149,0.14H8.649
			v0.29c0,0.436,0.266,0.687,0.751,0.687c0.37,0,0.631-0.141,0.786-0.416c0.04-0.055,0.09-0.064,0.145-0.035l0.105,0.056
			c0.064,0.034,0.075,0.08,0.035,0.145c-0.2,0.36-0.556,0.541-1.071,0.541c-0.726,0-1.086-0.386-1.086-1.011V110.373z
			 M10.196,110.333c0-0.455-0.271-0.726-0.775-0.726c-0.501,0-0.771,0.271-0.771,0.726v0.176h1.547V110.333z"/>
		<path d="M12.126,109.317c0.695,0,1.041,0.335,1.041,1.001v0.721c0,0.665-0.341,0.996-1.026,0.996
			c-0.215,0-0.465-0.056-0.751-0.171v1.111c0,0.061-0.029,0.09-0.09,0.09h-0.16c-0.06,0-0.09-0.029-0.09-0.09v-3.232
			c0-0.16,0.04-0.216,0.2-0.281C11.495,109.367,11.785,109.317,12.126,109.317z M12.831,110.328c0-0.466-0.25-0.7-0.745-0.7
			c-0.226,0-0.426,0.029-0.601,0.095c-0.085,0.035-0.096,0.055-0.096,0.135v1.697c0.246,0.115,0.486,0.175,0.727,0.175
			c0.475,0,0.715-0.235,0.715-0.7V110.328z"/>
		<path d="M15.781,109.393c0.061,0,0.09,0.03,0.09,0.09v2.393c0,0.06-0.029,0.09-0.09,0.09h-0.16c-0.06,0-0.09-0.03-0.09-0.09
			v-1.076h-1.446v1.076c0,0.06-0.03,0.09-0.09,0.09h-0.16c-0.061,0-0.091-0.03-0.091-0.09v-2.393c0-0.06,0.03-0.09,0.091-0.09h0.16
			c0.06,0,0.09,0.03,0.09,0.09v1.006h1.446v-1.006c0-0.06,0.03-0.09,0.09-0.09H15.781z"/>
		<path d="M16.435,110.373c0-0.665,0.385-1.056,1.105-1.056c0.727,0,1.111,0.41,1.111,1.036v0.275c0,0.095-0.05,0.14-0.15,0.14
			H16.77v0.29c0,0.436,0.266,0.687,0.751,0.687c0.37,0,0.631-0.141,0.786-0.416c0.04-0.055,0.09-0.064,0.145-0.035l0.105,0.056
			c0.065,0.034,0.075,0.08,0.035,0.145c-0.2,0.36-0.556,0.541-1.071,0.541c-0.726,0-1.086-0.386-1.086-1.011V110.373z
			 M18.316,110.333c0-0.455-0.271-0.726-0.776-0.726c-0.5,0-0.771,0.271-0.771,0.726v0.176h1.547V110.333z"/>
		<path d="M20.916,109.393c0.075,0,0.09,0.024,0.09,0.09v0.13c0,0.061-0.029,0.09-0.09,0.09h-0.791v2.173
			c0,0.06-0.029,0.09-0.09,0.09H19.88c-0.06,0-0.09-0.03-0.09-0.09v-2.173h-0.801c-0.061,0-0.09-0.029-0.09-0.09v-0.13
			c0-0.06,0.029-0.09,0.09-0.09H20.916z"/>
		<path d="M25.017,109.393c0.08,0,0.1,0.02,0.1,0.095v2.383c0,0.074-0.02,0.095-0.095,0.095h-0.125c-0.08,0-0.095-0.021-0.095-0.095
			v-1.361c0-0.155,0.02-0.365,0.055-0.636h-0.015c-0.056,0.149-0.141,0.315-0.245,0.495l-0.586,1.036
			c-0.025,0.045-0.065,0.07-0.115,0.07h-0.08c-0.055,0-0.095-0.025-0.12-0.075l-0.581-1.011c-0.09-0.155-0.175-0.331-0.255-0.516
			h-0.015c0.035,0.285,0.055,0.511,0.055,0.665v1.332c0,0.074-0.015,0.095-0.09,0.095h-0.13c-0.075,0-0.096-0.021-0.096-0.095
			v-2.383c0-0.075,0.025-0.095,0.105-0.095h0.11c0.06,0,0.104,0.024,0.135,0.075l0.921,1.631l0.911-1.626
			c0.024-0.056,0.07-0.08,0.125-0.08H25.017z"/>
		<path d="M26.721,109.317c0.74,0,1.001,0.385,1.001,0.991v1.311c0,0.176-0.04,0.226-0.181,0.286c-0.2,0.085-0.476,0.13-0.83,0.13
			c-0.416,0-0.696-0.061-0.852-0.19c-0.155-0.125-0.229-0.32-0.229-0.586c0-0.565,0.305-0.775,1.101-0.775
			c0.136,0,0.355,0.015,0.655,0.05v-0.229c0-0.436-0.17-0.687-0.675-0.687c-0.331,0-0.565,0.12-0.701,0.366
			c-0.035,0.05-0.08,0.064-0.125,0.039l-0.12-0.05c-0.065-0.024-0.08-0.064-0.05-0.13C25.899,109.492,26.235,109.317,26.721,109.317
			z M27.386,110.809c-0.3-0.03-0.53-0.045-0.69-0.045c-0.525,0-0.721,0.146-0.721,0.49c0,0.341,0.155,0.501,0.711,0.501
			c0.255,0,0.455-0.025,0.605-0.08c0.08-0.035,0.095-0.051,0.095-0.146V110.809z"/>
		<path d="M29.966,109.393c0.065,0,0.09,0.024,0.09,0.09v0.13c0,0.061-0.029,0.09-0.09,0.09h-1.291v2.173
			c0,0.06-0.03,0.09-0.09,0.09h-0.16c-0.061,0-0.091-0.03-0.091-0.09v-2.393c0-0.06,0.03-0.09,0.091-0.09H29.966z"/>
		<path d="M31.375,109.317c0.74,0,1.001,0.385,1.001,0.991v1.311c0,0.176-0.04,0.226-0.181,0.286c-0.2,0.085-0.476,0.13-0.83,0.13
			c-0.416,0-0.696-0.061-0.852-0.19c-0.155-0.125-0.229-0.32-0.229-0.586c0-0.565,0.305-0.775,1.101-0.775
			c0.136,0,0.355,0.015,0.655,0.05v-0.229c0-0.436-0.17-0.687-0.675-0.687c-0.331,0-0.565,0.12-0.701,0.366
			c-0.035,0.05-0.08,0.064-0.125,0.039l-0.12-0.05c-0.065-0.024-0.08-0.064-0.05-0.13C30.554,109.492,30.89,109.317,31.375,109.317z
			 M32.04,110.809c-0.3-0.03-0.53-0.045-0.69-0.045c-0.525,0-0.721,0.146-0.721,0.49c0,0.341,0.155,0.501,0.711,0.501
			c0.255,0,0.455-0.025,0.605-0.08c0.08-0.035,0.095-0.051,0.095-0.146V110.809z"/>
		<path d="M33.985,109.317c0.686,0,1.011,0.3,1.011,0.746c0,0.285-0.12,0.475-0.36,0.561v0.02c0.275,0.085,0.411,0.295,0.411,0.631
			c0,0.465-0.325,0.761-1.041,0.761c-0.376,0-0.676-0.115-0.852-0.28c-0.175-0.165-0.24-0.28-0.295-0.405
			c-0.025-0.065,0-0.105,0.065-0.126l0.13-0.045c0.065-0.015,0.104,0.006,0.13,0.065c0.141,0.33,0.416,0.495,0.821,0.495
			c0.476,0,0.695-0.189,0.695-0.495c0-0.3-0.17-0.45-0.506-0.45H33.65c-0.061,0-0.091-0.03-0.091-0.096v-0.095
			c0-0.065,0.03-0.095,0.091-0.095h0.521c0.305,0,0.48-0.155,0.48-0.416c0-0.285-0.205-0.476-0.661-0.476
			c-0.265,0-0.48,0.085-0.596,0.206c-0.114,0.125-0.149,0.185-0.175,0.26c-0.025,0.065-0.065,0.085-0.13,0.065l-0.13-0.046
			c-0.065-0.02-0.086-0.064-0.061-0.13C32.949,109.817,33.229,109.317,33.985,109.317z"/>
		<path d="M35.804,109.393c0.061,0,0.091,0.03,0.091,0.09v1.446c0,0.186-0.021,0.381-0.056,0.586h0.011
			c0.075-0.141,0.16-0.275,0.26-0.41l1.262-1.667c0.02-0.03,0.05-0.045,0.085-0.045h0.16c0.06,0,0.09,0.03,0.09,0.09v2.393
			c0,0.06-0.03,0.09-0.09,0.09h-0.16c-0.061,0-0.09-0.03-0.09-0.09v-1.417c0-0.16,0.02-0.365,0.06-0.61h-0.015
			c-0.045,0.09-0.141,0.23-0.275,0.426l-1.241,1.642c-0.021,0.035-0.05,0.05-0.091,0.05h-0.16c-0.06,0-0.09-0.03-0.09-0.09v-2.393
			c0-0.06,0.03-0.09,0.09-0.09H35.804z"/>
		<path d="M40.401,109.393c0.061,0,0.09,0.03,0.09,0.09v2.393c0,0.06-0.029,0.09-0.09,0.09h-0.16c-0.06,0-0.09-0.03-0.09-0.09
			v-1.076h-1.446v1.076c0,0.06-0.03,0.09-0.091,0.09h-0.16c-0.06,0-0.09-0.03-0.09-0.09v-2.393c0-0.06,0.03-0.09,0.09-0.09h0.16
			c0.061,0,0.091,0.03,0.091,0.09v1.006h1.446v-1.006c0-0.06,0.03-0.09,0.09-0.09H40.401z"/>
		<path d="M10.345,117.87c0.024,0.064,0.005,0.095-0.07,0.095h-0.146c-0.104,0-0.165-0.03-0.18-0.09l-0.376-0.951H8.007
			l-0.375,0.951c-0.021,0.075-0.055,0.09-0.176,0.09H7.321c-0.07,0-0.09-0.03-0.064-0.095l1.341-3.389
			c0.021-0.055,0.06-0.085,0.125-0.085h0.15c0.065,0,0.11,0.024,0.13,0.08L10.345,117.87z M8.873,115.087
			c-0.045-0.135-0.07-0.25-0.07-0.346H8.778c0,0.105-0.021,0.221-0.061,0.346l-0.605,1.537h1.361L8.873,115.087z"/>
		<path d="M11.803,115.317c0.666,0,0.996,0.325,0.996,0.98v1.577c0,0.06-0.03,0.09-0.09,0.09h-0.155c-0.065,0-0.09-0.025-0.09-0.09
			v-1.566c0-0.456-0.235-0.681-0.701-0.681c-0.235,0-0.461,0.035-0.666,0.109c-0.05,0.025-0.074,0.065-0.074,0.125v2.013
			c0,0.06-0.03,0.09-0.091,0.09h-0.16c-0.06,0-0.09-0.03-0.09-0.09v-2.112c0-0.155,0.035-0.21,0.19-0.275
			C11.147,115.372,11.457,115.317,11.803,115.317z"/>
		<path d="M13.352,116.343c0-0.686,0.36-1.025,1.081-1.025c0.325,0,0.605,0.05,0.846,0.15c0.16,0.074,0.19,0.109,0.19,0.275v2.377
			c0,0.721-0.351,1.081-1.056,1.081c-0.466,0-0.796-0.181-0.991-0.536c-0.045-0.064-0.03-0.114,0.035-0.149l0.11-0.056
			c0.06-0.035,0.109-0.02,0.145,0.035c0.146,0.266,0.375,0.4,0.69,0.4c0.485,0,0.731-0.255,0.731-0.761v-0.31
			c-0.271,0.1-0.536,0.149-0.791,0.149c-0.661,0-0.991-0.325-0.991-0.976V116.343z M14.453,115.628c-0.506,0-0.761,0.24-0.761,0.721
			v0.641c0,0.45,0.229,0.676,0.69,0.676c0.245,0,0.495-0.051,0.751-0.146v-1.667c0-0.08-0.011-0.095-0.096-0.13
			C14.868,115.657,14.673,115.628,14.453,115.628z"/>
		<path d="M17.357,115.317c0.061,0,0.091,0.03,0.091,0.09v0.13c0,0.061-0.03,0.091-0.091,0.091h-0.165
			c-0.25,0-0.471,0.035-0.66,0.104c-0.056,0.025-0.086,0.065-0.086,0.13v2.013c0,0.06-0.029,0.09-0.09,0.09h-0.16
			c-0.06,0-0.09-0.03-0.09-0.09v-2.122c0-0.155,0.045-0.216,0.19-0.28c0.255-0.096,0.556-0.15,0.905-0.155H17.357z"/>
		<path d="M19.839,115.393c0.06,0,0.09,0.03,0.09,0.09v2.638c0,0.721-0.355,1.081-1.066,1.081c-0.471,0-0.801-0.181-0.996-0.536
			c-0.04-0.064-0.029-0.114,0.035-0.149l0.11-0.056c0.06-0.035,0.11-0.02,0.146,0.035c0.145,0.266,0.375,0.4,0.7,0.4
			c0.485,0,0.73-0.255,0.73-0.761v-0.295c-0.295,0.085-0.556,0.13-0.785,0.13c-0.661,0-0.991-0.325-0.991-0.976v-1.512
			c0-0.065,0.025-0.09,0.09-0.09h0.155c0.075,0,0.09,0.024,0.09,0.09v1.496c0,0.456,0.235,0.687,0.701,0.687
			c0.215,0,0.46-0.046,0.74-0.136v-2.047c0-0.06,0.03-0.09,0.091-0.09H19.839z"/>
		<path d="M23.013,114.341c0.68,0,1.056,0.235,1.315,0.771c0.03,0.055,0.011,0.1-0.055,0.13l-0.155,0.07
			c-0.064,0.024-0.09,0.02-0.13-0.045c-0.2-0.4-0.48-0.581-0.976-0.581c-0.596,0-0.922,0.235-0.922,0.661
			c0.021,0.31,0.16,0.46,0.451,0.545c0.2,0.065,0.325,0.085,0.585,0.11c0.296,0.035,0.451,0.055,0.696,0.146
			c0.125,0.045,0.22,0.1,0.295,0.165c0.146,0.13,0.266,0.365,0.266,0.67c0,0.661-0.48,1.052-1.361,1.052
			c-0.716,0-1.121-0.275-1.356-0.861c-0.021-0.064,0-0.11,0.06-0.135l0.155-0.056c0.056-0.02,0.101,0,0.13,0.061
			c0.186,0.436,0.521,0.65,1.012,0.65c0.665,0,0.996-0.235,0.996-0.7c-0.021-0.311-0.15-0.456-0.416-0.541
			c-0.189-0.06-0.315-0.075-0.561-0.1c-0.155-0.016-0.285-0.035-0.38-0.05c-0.096-0.016-0.21-0.051-0.346-0.096
			c-0.135-0.045-0.24-0.1-0.315-0.165c-0.155-0.13-0.28-0.36-0.28-0.676C21.721,114.741,22.196,114.341,23.013,114.341z"/>
		<path d="M25.377,114.792c0.075,0,0.09,0.024,0.09,0.09v0.511h0.726c0.061,0,0.09,0.03,0.09,0.09v0.13
			c0,0.061-0.029,0.09-0.09,0.09h-0.726v1.302c0,0.29,0.05,0.48,0.15,0.57c0.095,0.096,0.285,0.141,0.565,0.141
			c0.061,0,0.09,0.03,0.09,0.095v0.135c0,0.065-0.024,0.091-0.09,0.091c-0.391,0.005-0.66-0.061-0.815-0.21
			c-0.155-0.146-0.235-0.416-0.235-0.812v-1.312h-0.476c-0.061,0-0.09-0.029-0.09-0.09v-0.13c0-0.06,0.029-0.09,0.09-0.09h0.476
			v-0.511c0-0.061,0.029-0.09,0.09-0.09H25.377z"/>
		<path d="M26.586,116.238c0-0.575,0.416-0.921,1.097-0.921c0.686,0,1.105,0.346,1.105,0.921v0.881c0,0.575-0.42,0.916-1.105,0.916
			c-0.681,0-1.097-0.351-1.097-0.916V116.238z M28.448,116.238c0-0.381-0.291-0.616-0.766-0.616c-0.466,0-0.761,0.235-0.761,0.616
			v0.881c0,0.38,0.3,0.61,0.761,0.61c0.475,0,0.766-0.23,0.766-0.61V116.238z"/>
		<path d="M30.603,115.317c0.061,0,0.09,0.03,0.09,0.09v0.13c0,0.061-0.029,0.091-0.09,0.091h-0.165c-0.25,0-0.471,0.035-0.66,0.104
			c-0.056,0.025-0.085,0.065-0.085,0.13v2.013c0,0.06-0.03,0.09-0.091,0.09h-0.16c-0.06,0-0.09-0.03-0.09-0.09v-2.122
			c0-0.155,0.045-0.216,0.19-0.28c0.255-0.096,0.556-0.15,0.905-0.155H30.603z"/>
		<path d="M30.856,116.373c0-0.665,0.385-1.056,1.105-1.056c0.727,0,1.111,0.41,1.111,1.036v0.275c0,0.095-0.05,0.14-0.15,0.14
			h-1.731v0.29c0,0.436,0.266,0.687,0.751,0.687c0.37,0,0.631-0.141,0.786-0.416c0.04-0.055,0.09-0.064,0.145-0.035l0.105,0.056
			c0.065,0.034,0.075,0.08,0.035,0.145c-0.2,0.36-0.556,0.541-1.071,0.541c-0.726,0-1.086-0.386-1.086-1.011V116.373z
			 M32.738,116.333c0-0.455-0.271-0.726-0.776-0.726c-0.5,0-0.771,0.271-0.771,0.726v0.176h1.547V116.333z"/>
	</g>
	<g>
		<path d="M89.319,99.411c0.615,0,0.966,0.325,0.966,0.911c0,0.396-0.155,0.666-0.471,0.801v0.01
			c0.396,0.105,0.596,0.396,0.596,0.876c0,0.605-0.4,0.956-1.036,0.956h-1.467c-0.075,0-0.1-0.025-0.1-0.101v-3.353
			c0-0.075,0.024-0.101,0.1-0.101H89.319z M89.273,99.752h-1.105v1.241h1.105c0.416,0,0.641-0.211,0.641-0.626
			C89.914,99.957,89.699,99.752,89.273,99.752z M90.029,101.974c0-0.215-0.055-0.375-0.17-0.49c-0.115-0.11-0.285-0.165-0.501-0.165
			h-1.19v1.306h1.19c0.216,0,0.386-0.055,0.501-0.165C89.975,102.35,90.029,102.189,90.029,101.974z"/>
		<path d="M91.908,100.317c0.74,0,1.001,0.385,1.001,0.991v1.311c0,0.176-0.04,0.226-0.181,0.286c-0.2,0.085-0.476,0.13-0.83,0.13
			c-0.416,0-0.696-0.061-0.852-0.19c-0.155-0.125-0.229-0.32-0.229-0.586c0-0.565,0.305-0.775,1.101-0.775
			c0.136,0,0.355,0.015,0.655,0.05v-0.229c0-0.436-0.17-0.687-0.675-0.687c-0.331,0-0.565,0.12-0.701,0.366
			c-0.035,0.05-0.08,0.064-0.125,0.039l-0.12-0.05c-0.065-0.024-0.08-0.064-0.05-0.13C91.087,100.492,91.423,100.317,91.908,100.317
			z M92.573,101.809c-0.3-0.03-0.53-0.045-0.69-0.045c-0.525,0-0.721,0.146-0.721,0.49c0,0.341,0.155,0.501,0.711,0.501
			c0.255,0,0.455-0.025,0.605-0.08c0.08-0.035,0.095-0.051,0.095-0.146V101.809z"/>
		<path d="M96.586,100.393c0.064,0,0.09,0.024,0.09,0.09v2.393c0,0.064-0.025,0.09-0.09,0.09h-2.974c-0.06,0-0.09-0.03-0.09-0.09
			v-2.393c0-0.06,0.03-0.09,0.09-0.09h0.16c0.061,0,0.091,0.03,0.091,0.09v2.172h1.071v-2.172c0-0.065,0.024-0.09,0.09-0.09h0.155
			c0.06,0,0.09,0.03,0.09,0.09v2.172h1.071v-2.172c0-0.06,0.029-0.09,0.09-0.09H96.586z"/>
		<path d="M99.513,100.317c0.686,0,1.011,0.3,1.011,0.746c0,0.285-0.12,0.475-0.36,0.561v0.02c0.275,0.085,0.411,0.295,0.411,0.631
			c0,0.465-0.325,0.761-1.041,0.761c-0.376,0-0.676-0.115-0.852-0.28c-0.175-0.165-0.24-0.28-0.295-0.405
			c-0.025-0.065,0-0.105,0.065-0.126l0.13-0.045c0.065-0.015,0.104,0.006,0.13,0.065c0.141,0.33,0.416,0.495,0.821,0.495
			c0.476,0,0.695-0.189,0.695-0.495c0-0.3-0.17-0.45-0.506-0.45h-0.545c-0.061,0-0.091-0.03-0.091-0.096v-0.095
			c0-0.065,0.03-0.095,0.091-0.095h0.521c0.305,0,0.48-0.155,0.48-0.416c0-0.285-0.205-0.476-0.661-0.476
			c-0.265,0-0.48,0.085-0.596,0.206c-0.114,0.125-0.149,0.185-0.175,0.26c-0.025,0.065-0.065,0.085-0.13,0.065l-0.13-0.046
			c-0.065-0.02-0.086-0.064-0.061-0.13C98.477,100.817,98.757,100.317,99.513,100.317z"/>
		<path d="M102.028,100.317c0.74,0,1.001,0.385,1.001,0.991v1.311c0,0.176-0.04,0.226-0.181,0.286c-0.2,0.085-0.475,0.13-0.83,0.13
			c-0.416,0-0.696-0.061-0.852-0.19c-0.154-0.125-0.229-0.32-0.229-0.586c0-0.565,0.305-0.775,1.101-0.775
			c0.135,0,0.355,0.015,0.656,0.05v-0.229c0-0.436-0.171-0.687-0.676-0.687c-0.331,0-0.566,0.12-0.701,0.366
			c-0.035,0.05-0.08,0.064-0.125,0.039l-0.12-0.05c-0.065-0.024-0.08-0.064-0.05-0.13
			C101.207,100.492,101.543,100.317,102.028,100.317z M102.694,101.809c-0.301-0.03-0.531-0.045-0.691-0.045
			c-0.525,0-0.721,0.146-0.721,0.49c0,0.341,0.155,0.501,0.711,0.501c0.255,0,0.455-0.025,0.605-0.08
			c0.08-0.035,0.096-0.051,0.096-0.146V101.809z"/>
		<path d="M105.784,102.859c0.04,0.075,0.024,0.105-0.056,0.105h-0.149c-0.101,0-0.12-0.015-0.155-0.08l-0.381-0.78
			c-0.1-0.216-0.24-0.306-0.485-0.306h-0.575v1.071c0,0.074-0.021,0.095-0.096,0.095h-0.149c-0.075,0-0.096-0.021-0.096-0.095
			v-2.388c0-0.06,0.03-0.09,0.096-0.09h0.149c0.065,0,0.096,0.03,0.096,0.09v1.006h0.53h0.05l0.801-1.026
			c0.045-0.064,0.075-0.069,0.181-0.069h0.14c0.091,0,0.11,0.035,0.061,0.104l-0.846,1.057c0.18,0.045,0.325,0.18,0.435,0.405
			L105.784,102.859z"/>
		<path d="M107.163,100.317c0.74,0,1.001,0.385,1.001,0.991v1.311c0,0.176-0.04,0.226-0.181,0.286c-0.2,0.085-0.475,0.13-0.83,0.13
			c-0.416,0-0.696-0.061-0.852-0.19c-0.154-0.125-0.229-0.32-0.229-0.586c0-0.565,0.305-0.775,1.101-0.775
			c0.135,0,0.355,0.015,0.656,0.05v-0.229c0-0.436-0.171-0.687-0.676-0.687c-0.331,0-0.566,0.12-0.701,0.366
			c-0.035,0.05-0.08,0.064-0.125,0.039l-0.12-0.05c-0.065-0.024-0.08-0.064-0.05-0.13
			C106.342,100.492,106.678,100.317,107.163,100.317z M107.829,101.809c-0.301-0.03-0.531-0.045-0.691-0.045
			c-0.525,0-0.721,0.146-0.721,0.49c0,0.341,0.155,0.501,0.711,0.501c0.255,0,0.455-0.025,0.605-0.08
			c0.08-0.035,0.096-0.051,0.096-0.146V101.809z"/>
		<path d="M109.772,100.317c0.686,0,1.011,0.3,1.011,0.746c0,0.285-0.12,0.475-0.36,0.561v0.02c0.275,0.085,0.411,0.295,0.411,0.631
			c0,0.465-0.325,0.761-1.041,0.761c-0.376,0-0.676-0.115-0.852-0.28c-0.175-0.165-0.24-0.28-0.295-0.405
			c-0.025-0.065,0-0.105,0.065-0.126l0.13-0.045c0.065-0.015,0.104,0.006,0.13,0.065c0.141,0.33,0.416,0.495,0.821,0.495
			c0.476,0,0.695-0.189,0.695-0.495c0-0.3-0.17-0.45-0.506-0.45h-0.545c-0.061,0-0.091-0.03-0.091-0.096v-0.095
			c0-0.065,0.03-0.095,0.091-0.095h0.521c0.305,0,0.48-0.155,0.48-0.416c0-0.285-0.205-0.476-0.661-0.476
			c-0.265,0-0.48,0.085-0.596,0.206c-0.114,0.125-0.149,0.185-0.175,0.26c-0.025,0.065-0.065,0.085-0.13,0.065l-0.13-0.046
			c-0.065-0.02-0.086-0.064-0.061-0.13C108.736,100.817,109.017,100.317,109.772,100.317z"/>
	</g>
	<g>
		<path d="M154.913,113.411h1.422c0.074,0,0.1,0.025,0.1,0.101v3.353c0,0.075-0.025,0.101-0.1,0.101h-0.166
			c-0.074,0-0.1-0.025-0.1-0.101v-1.391h-0.69c-0.386,0-0.565,0.115-0.711,0.436l-0.45,0.966c-0.035,0.075-0.075,0.09-0.2,0.09
			h-0.16c-0.07,0-0.085-0.035-0.051-0.101l0.526-1.091c0.074-0.17,0.175-0.285,0.3-0.345c-0.495-0.096-0.771-0.436-0.771-0.981
			C153.862,113.792,154.258,113.411,154.913,113.411z M154.948,113.752c-0.455,0-0.706,0.25-0.706,0.695
			c0,0.44,0.261,0.686,0.706,0.686h1.121v-1.381H154.948z"/>
		<path d="M159.129,114.393c0.061,0,0.09,0.03,0.09,0.09v2.393c0,0.06-0.029,0.09-0.09,0.09h-0.16c-0.06,0-0.09-0.03-0.09-0.09
			v-1.076h-1.446v1.076c0,0.06-0.03,0.09-0.09,0.09h-0.16c-0.061,0-0.091-0.03-0.091-0.09v-2.393c0-0.06,0.03-0.09,0.091-0.09h0.16
			c0.06,0,0.09,0.03,0.09,0.09v1.006h1.446v-1.006c0-0.06,0.03-0.09,0.09-0.09H159.129z"/>
		<path d="M162.335,116.654c0.074,0,0.09,0.025,0.09,0.091v0.825c0,0.075-0.016,0.09-0.09,0.09h-0.146c-0.06,0-0.09-0.029-0.09-0.09
			v-0.605h-2.143v0.605c0,0.061-0.03,0.09-0.095,0.09h-0.146c-0.06,0-0.09-0.029-0.09-0.09v-0.825c0-0.061,0.03-0.091,0.09-0.091
			h0.15c0.115-0.095,0.2-0.235,0.266-0.431c0.06-0.189,0.09-0.51,0.09-0.966v-0.775c0-0.065,0.015-0.09,0.09-0.09h1.657
			c0.06,0,0.09,0.03,0.09,0.09v2.172H162.335z M160.548,115.278c0,0.681-0.095,1.141-0.285,1.376h1.456v-1.952h-1.171V115.278z"/>
		<path d="M162.752,115.373c0-0.665,0.386-1.056,1.106-1.056c0.726,0,1.11,0.41,1.11,1.036v0.275c0,0.095-0.05,0.14-0.149,0.14
			h-1.732v0.29c0,0.436,0.266,0.687,0.751,0.687c0.37,0,0.631-0.141,0.786-0.416c0.04-0.055,0.09-0.064,0.145-0.035l0.105,0.056
			c0.064,0.034,0.075,0.08,0.035,0.145c-0.2,0.36-0.556,0.541-1.071,0.541c-0.726,0-1.086-0.386-1.086-1.011V115.373z
			 M164.634,115.333c0-0.455-0.271-0.726-0.775-0.726c-0.501,0-0.771,0.271-0.771,0.726v0.176h1.547V115.333z"/>
		<path d="M167.64,116.859c0.04,0.075,0.024,0.105-0.056,0.105h-0.149c-0.101,0-0.12-0.015-0.155-0.08l-0.381-0.78
			c-0.1-0.216-0.24-0.306-0.485-0.306h-0.575v1.071c0,0.074-0.021,0.095-0.096,0.095h-0.149c-0.075,0-0.096-0.021-0.096-0.095
			v-2.388c0-0.06,0.03-0.09,0.096-0.09h0.149c0.065,0,0.096,0.03,0.096,0.09v1.006h0.53h0.05l0.801-1.026
			c0.045-0.064,0.075-0.069,0.181-0.069h0.14c0.091,0,0.11,0.035,0.061,0.104l-0.846,1.057c0.18,0.045,0.325,0.18,0.435,0.405
			L167.64,116.859z"/>
		<path d="M167.977,115.304c0-0.621,0.37-0.986,1.091-0.986c0.561,0,0.911,0.225,1.047,0.676c0.02,0.064,0,0.104-0.061,0.13
			l-0.13,0.045c-0.061,0.021-0.101,0-0.125-0.06c-0.105-0.341-0.32-0.491-0.741-0.491c-0.485,0-0.746,0.251-0.746,0.676v0.766
			c0,0.426,0.266,0.681,0.746,0.681c0.391,0,0.641-0.17,0.746-0.516c0.024-0.055,0.064-0.074,0.13-0.06l0.13,0.04
			c0.065,0.025,0.085,0.065,0.061,0.13c-0.155,0.466-0.511,0.701-1.076,0.701c-0.701,0-1.071-0.365-1.071-0.986V115.304z"/>
		<path d="M174.435,113.411c0.074,0,0.1,0.025,0.1,0.101v3.112h0.315c0.075,0,0.101,0.025,0.101,0.101v0.906
			c0,0.075-0.025,0.1-0.101,0.1h-0.16c-0.075,0-0.095-0.024-0.095-0.1v-0.666h-2.678v0.666c0,0.064-0.03,0.1-0.096,0.1h-0.16
			c-0.074,0-0.1-0.024-0.1-0.1v-0.906c0-0.075,0.025-0.101,0.1-0.101h0.176c0.14-0.095,0.225-0.199,0.345-0.49
			c0.115-0.29,0.176-0.83,0.176-1.606v-1.016c0-0.075,0.024-0.101,0.1-0.101H174.435z M172.708,113.752v0.775
			c0,0.641-0.041,1.111-0.115,1.417c-0.08,0.305-0.186,0.535-0.315,0.68h1.892v-2.872H172.708z"/>
		<path d="M175.271,115.238c0-0.575,0.416-0.921,1.097-0.921c0.686,0,1.105,0.346,1.105,0.921v0.881c0,0.575-0.42,0.916-1.105,0.916
			c-0.681,0-1.097-0.351-1.097-0.916V115.238z M177.134,115.238c0-0.381-0.291-0.616-0.766-0.616c-0.466,0-0.761,0.235-0.761,0.616
			v0.881c0,0.38,0.3,0.61,0.761,0.61c0.475,0,0.766-0.23,0.766-0.61V115.238z"/>
		<path d="M177.962,115.304c0-0.621,0.37-0.986,1.091-0.986c0.561,0,0.911,0.225,1.046,0.676c0.021,0.064,0,0.104-0.06,0.13
			l-0.13,0.045c-0.061,0.021-0.101,0-0.125-0.06c-0.105-0.341-0.32-0.491-0.741-0.491c-0.485,0-0.745,0.251-0.745,0.676v0.766
			c0,0.426,0.265,0.681,0.745,0.681c0.391,0,0.641-0.17,0.746-0.516c0.024-0.055,0.064-0.074,0.13-0.06l0.13,0.04
			c0.065,0.025,0.085,0.065,0.061,0.13c-0.155,0.466-0.511,0.701-1.076,0.701c-0.701,0-1.071-0.365-1.071-0.986V115.304z"/>
		<path d="M182.379,114.393c0.075,0,0.09,0.024,0.09,0.09v0.13c0,0.061-0.029,0.09-0.09,0.09h-0.791v2.173
			c0,0.06-0.029,0.09-0.09,0.09h-0.155c-0.06,0-0.09-0.03-0.09-0.09v-2.173h-0.801c-0.061,0-0.09-0.029-0.09-0.09v-0.13
			c0-0.06,0.029-0.09,0.09-0.09H182.379z"/>
		<path d="M183.793,114.317c0.74,0,1.001,0.385,1.001,0.991v1.311c0,0.176-0.04,0.226-0.181,0.286c-0.2,0.085-0.476,0.13-0.83,0.13
			c-0.416,0-0.696-0.061-0.852-0.19c-0.155-0.125-0.229-0.32-0.229-0.586c0-0.565,0.305-0.775,1.101-0.775
			c0.136,0,0.355,0.015,0.655,0.05v-0.229c0-0.436-0.17-0.687-0.675-0.687c-0.331,0-0.565,0.12-0.701,0.366
			c-0.035,0.05-0.08,0.064-0.125,0.039l-0.12-0.05c-0.065-0.024-0.08-0.064-0.05-0.13
			C182.972,114.492,183.308,114.317,183.793,114.317z M184.458,115.809c-0.3-0.03-0.53-0.045-0.69-0.045
			c-0.525,0-0.721,0.146-0.721,0.49c0,0.341,0.155,0.501,0.711,0.501c0.255,0,0.455-0.025,0.605-0.08
			c0.08-0.035,0.095-0.051,0.095-0.146V115.809z"/>
		<path d="M187.138,115.618c0.266,0.115,0.396,0.326,0.396,0.636c0,0.44-0.28,0.711-0.74,0.711h-1.291
			c-0.065,0-0.096-0.03-0.096-0.095v-2.388c0-0.06,0.03-0.09,0.096-0.09h1.226c0.456,0,0.716,0.25,0.716,0.671
			C187.443,115.328,187.344,115.514,187.138,115.618z M186.692,115.498c0.246,0,0.411-0.155,0.411-0.41
			c0-0.275-0.146-0.41-0.431-0.41h-0.926v0.82H186.692z M186.732,116.675c0.286,0,0.451-0.165,0.451-0.451
			c0-0.279-0.165-0.445-0.461-0.445h-0.976v0.896H186.732z"/>
		<path d="M190.214,116.859c0.04,0.075,0.024,0.105-0.056,0.105h-0.149c-0.101,0-0.12-0.015-0.155-0.08l-0.381-0.78
			c-0.1-0.216-0.24-0.306-0.485-0.306h-0.575v1.071c0,0.074-0.021,0.095-0.096,0.095h-0.149c-0.075,0-0.096-0.021-0.096-0.095
			v-2.388c0-0.06,0.03-0.09,0.096-0.09h0.149c0.065,0,0.096,0.03,0.096,0.09v1.006h0.53h0.05l0.801-1.026
			c0.045-0.064,0.075-0.069,0.181-0.069h0.14c0.091,0,0.11,0.035,0.061,0.104l-0.846,1.057c0.18,0.045,0.325,0.18,0.435,0.405
			L190.214,116.859z"/>
		<path d="M191.593,114.317c0.74,0,1.001,0.385,1.001,0.991v1.311c0,0.176-0.04,0.226-0.181,0.286c-0.2,0.085-0.475,0.13-0.83,0.13
			c-0.416,0-0.696-0.061-0.852-0.19c-0.154-0.125-0.229-0.32-0.229-0.586c0-0.565,0.305-0.775,1.101-0.775
			c0.135,0,0.355,0.015,0.656,0.05v-0.229c0-0.436-0.171-0.687-0.676-0.687c-0.331,0-0.566,0.12-0.701,0.366
			c-0.035,0.05-0.08,0.064-0.125,0.039l-0.12-0.05c-0.065-0.024-0.08-0.064-0.05-0.13
			C190.771,114.492,191.107,114.317,191.593,114.317z M192.259,115.809c-0.301-0.03-0.531-0.045-0.691-0.045
			c-0.525,0-0.721,0.146-0.721,0.49c0,0.341,0.155,0.501,0.711,0.501c0.255,0,0.455-0.025,0.605-0.08
			c0.08-0.035,0.096-0.051,0.096-0.146V115.809z"/>
	</g>
	<g>
		<path d="M302.622,35.864c0.034,0.065,0.02,0.101-0.056,0.101h-0.16c-0.125,0-0.16-0.015-0.2-0.09l-0.556-1.111
			c-0.16-0.32-0.33-0.436-0.715-0.436h-0.511v1.536c0,0.075-0.021,0.101-0.096,0.101h-0.165c-0.075,0-0.1-0.025-0.1-0.101v-3.353
			c0-0.075,0.024-0.101,0.1-0.101h0.165c0.075,0,0.096,0.025,0.096,0.101v1.486h0.48h0.11l1.121-1.502
			c0.045-0.055,0.109-0.085,0.199-0.085h0.181c0.075,0,0.09,0.051,0.05,0.096l-1.186,1.562c0.25,0.069,0.45,0.255,0.605,0.561
			L302.622,35.864z"/>
		<path d="M305.021,33.393c0.06,0,0.09,0.03,0.09,0.09v2.393c0,0.06-0.03,0.09-0.09,0.09h-0.16c-0.061,0-0.091-0.03-0.091-0.09
			v-2.167h-1.131v0.615c0,0.615-0.07,1.041-0.21,1.281c-0.146,0.24-0.266,0.33-0.471,0.426c-0.05,0.02-0.085,0.005-0.11-0.045
			l-0.075-0.155c-0.024-0.046-0.01-0.075,0.035-0.101c0.125-0.06,0.17-0.08,0.275-0.215c0.055-0.065,0.096-0.146,0.125-0.24
			c0.056-0.181,0.105-0.525,0.105-0.971v-0.821c0-0.065,0.025-0.09,0.09-0.09H305.021z"/>
		<path d="M305.984,33.393c0.06,0,0.09,0.03,0.09,0.09v1.446c0,0.186-0.021,0.381-0.056,0.586h0.011
			c0.074-0.141,0.16-0.275,0.26-0.41l1.262-1.667c0.02-0.03,0.05-0.045,0.085-0.045h0.16c0.06,0,0.09,0.03,0.09,0.09v2.393
			c0,0.06-0.03,0.09-0.09,0.09h-0.16c-0.061,0-0.091-0.03-0.091-0.09v-1.417c0-0.16,0.021-0.365,0.061-0.61h-0.015
			c-0.046,0.09-0.141,0.23-0.275,0.426l-1.241,1.642c-0.021,0.035-0.051,0.05-0.09,0.05h-0.16c-0.061,0-0.091-0.03-0.091-0.09
			v-2.393c0-0.06,0.03-0.09,0.091-0.09H305.984z"/>
		<path d="M308.449,34.373c0-0.665,0.385-1.056,1.105-1.056c0.727,0,1.111,0.41,1.111,1.036v0.275c0,0.095-0.05,0.14-0.15,0.14
			h-1.731v0.29c0,0.436,0.266,0.687,0.751,0.687c0.37,0,0.631-0.141,0.786-0.416c0.04-0.055,0.09-0.064,0.145-0.035l0.105,0.056
			c0.065,0.034,0.075,0.08,0.035,0.145c-0.2,0.36-0.556,0.541-1.071,0.541c-0.726,0-1.086-0.386-1.086-1.011V34.373z
			 M310.331,34.333c0-0.455-0.271-0.726-0.776-0.726c-0.5,0-0.771,0.271-0.771,0.726v0.176h1.547V34.333z"/>
		<path d="M313.23,33.393c0.061,0,0.09,0.03,0.09,0.09v2.393c0,0.06-0.029,0.09-0.09,0.09h-0.16c-0.06,0-0.09-0.03-0.09-0.09v-1.076
			h-1.446v1.076c0,0.06-0.03,0.09-0.091,0.09h-0.16c-0.06,0-0.09-0.03-0.09-0.09v-2.393c0-0.06,0.03-0.09,0.09-0.09h0.16
			c0.061,0,0.091,0.03,0.091,0.09v1.006h1.446v-1.006c0-0.06,0.03-0.09,0.09-0.09H313.23z"/>
		<path d="M315.735,33.393c0.075,0,0.09,0.024,0.09,0.09v0.13c0,0.061-0.029,0.09-0.09,0.09h-0.791v2.173
			c0,0.06-0.029,0.09-0.09,0.09h-0.155c-0.06,0-0.09-0.03-0.09-0.09v-2.173h-0.801c-0.061,0-0.09-0.029-0.09-0.09v-0.13
			c0-0.06,0.029-0.09,0.09-0.09H315.735z"/>
		<path d="M318.236,33.393c0.06,0,0.09,0.03,0.09,0.09v2.638c0,0.721-0.355,1.081-1.066,1.081c-0.471,0-0.801-0.181-0.996-0.536
			c-0.04-0.064-0.029-0.114,0.035-0.149l0.11-0.056c0.06-0.035,0.11-0.02,0.146,0.035c0.145,0.266,0.375,0.4,0.7,0.4
			c0.485,0,0.73-0.255,0.73-0.761V35.84c-0.295,0.085-0.556,0.13-0.785,0.13c-0.661,0-0.991-0.325-0.991-0.976v-1.512
			c0-0.065,0.025-0.09,0.09-0.09h0.155c0.075,0,0.09,0.024,0.09,0.09v1.496c0,0.456,0.235,0.687,0.701,0.687
			c0.215,0,0.46-0.046,0.74-0.136v-2.047c0-0.06,0.03-0.09,0.091-0.09H318.236z"/>
		<path d="M322.616,35.654c0.075,0,0.09,0.025,0.09,0.091v0.825c0,0.075-0.015,0.09-0.09,0.09h-0.146c-0.061,0-0.09-0.029-0.09-0.09
			v-0.605h-2.143v0.605c0,0.061-0.029,0.09-0.095,0.09h-0.146c-0.06,0-0.09-0.029-0.09-0.09v-0.825c0-0.061,0.03-0.091,0.09-0.091
			h0.15c0.115-0.095,0.2-0.235,0.266-0.431c0.06-0.189,0.09-0.51,0.09-0.966v-0.775c0-0.065,0.015-0.09,0.09-0.09h1.656
			c0.061,0,0.091,0.03,0.091,0.09v2.172H322.616z M320.829,34.278c0,0.681-0.095,1.141-0.285,1.376H322v-1.952h-1.171V34.278z"/>
		<path d="M323.049,34.238c0-0.575,0.416-0.921,1.097-0.921c0.686,0,1.105,0.346,1.105,0.921v0.881c0,0.575-0.42,0.916-1.105,0.916
			c-0.681,0-1.097-0.351-1.097-0.916V34.238z M324.911,34.238c0-0.381-0.29-0.616-0.766-0.616c-0.466,0-0.761,0.235-0.761,0.616
			v0.881c0,0.38,0.3,0.61,0.761,0.61c0.476,0,0.766-0.23,0.766-0.61V34.238z"/>
		<path d="M329.462,35.654c0.075,0,0.09,0.025,0.09,0.091v0.825c0,0.075-0.015,0.09-0.09,0.09h-0.146c-0.061,0-0.09-0.029-0.09-0.09
			v-0.605h-2.143v0.605c0,0.061-0.029,0.09-0.095,0.09h-0.146c-0.06,0-0.09-0.029-0.09-0.09v-0.825c0-0.061,0.03-0.091,0.09-0.091
			h0.15c0.115-0.095,0.2-0.235,0.266-0.431c0.06-0.189,0.09-0.51,0.09-0.966v-0.775c0-0.065,0.015-0.09,0.09-0.09h1.656
			c0.061,0,0.091,0.03,0.091,0.09v2.172H329.462z M327.675,34.278c0,0.681-0.095,1.141-0.285,1.376h1.456v-1.952h-1.171V34.278z"/>
		<path d="M329.894,34.238c0-0.575,0.416-0.921,1.097-0.921c0.686,0,1.105,0.346,1.105,0.921v0.881c0,0.575-0.42,0.916-1.105,0.916
			c-0.681,0-1.097-0.351-1.097-0.916V34.238z M331.756,34.238c0-0.381-0.291-0.616-0.766-0.616c-0.466,0-0.761,0.235-0.761,0.616
			v0.881c0,0.38,0.3,0.61,0.761,0.61c0.475,0,0.766-0.23,0.766-0.61V34.238z"/>
		<path d="M335.101,33.393c0.08,0,0.101,0.02,0.101,0.095v2.383c0,0.074-0.021,0.095-0.096,0.095h-0.125
			c-0.08,0-0.095-0.021-0.095-0.095v-1.361c0-0.155,0.02-0.365,0.055-0.636h-0.015c-0.056,0.149-0.141,0.315-0.246,0.495
			l-0.585,1.036c-0.025,0.045-0.065,0.07-0.115,0.07h-0.08c-0.055,0-0.095-0.025-0.12-0.075l-0.58-1.011
			c-0.091-0.155-0.176-0.331-0.256-0.516h-0.015c0.035,0.285,0.055,0.511,0.055,0.665v1.332c0,0.074-0.015,0.095-0.09,0.095h-0.13
			c-0.075,0-0.096-0.021-0.096-0.095v-2.383c0-0.075,0.025-0.095,0.105-0.095h0.11c0.06,0,0.104,0.024,0.135,0.075l0.921,1.631
			l0.911-1.626c0.024-0.056,0.069-0.08,0.125-0.08H335.101z"/>
		<path d="M336.805,33.317c0.74,0,1.001,0.385,1.001,0.991v1.311c0,0.176-0.04,0.226-0.181,0.286c-0.2,0.085-0.475,0.13-0.83,0.13
			c-0.416,0-0.696-0.061-0.852-0.19c-0.154-0.125-0.229-0.32-0.229-0.586c0-0.565,0.305-0.775,1.101-0.775
			c0.135,0,0.355,0.015,0.656,0.05v-0.229c0-0.436-0.171-0.687-0.676-0.687c-0.331,0-0.566,0.12-0.701,0.366
			c-0.035,0.05-0.08,0.064-0.125,0.039l-0.12-0.05c-0.065-0.024-0.08-0.064-0.05-0.13C335.983,33.492,336.319,33.317,336.805,33.317
			z M337.471,34.809c-0.301-0.03-0.531-0.045-0.691-0.045c-0.525,0-0.721,0.146-0.721,0.49c0,0.341,0.155,0.501,0.711,0.501
			c0.255,0,0.455-0.025,0.605-0.08c0.08-0.035,0.096-0.051,0.096-0.146V34.809z"/>
	</g>
	<g>
		<path d="M299.892,94.411c0.065,0,0.096,0.035,0.096,0.101v3.353c0,0.065-0.03,0.101-0.096,0.101h-0.17
			c-0.065,0-0.095-0.035-0.095-0.101v-3.112h-1.877v3.112c0,0.075-0.021,0.101-0.096,0.101h-0.165c-0.075,0-0.1-0.025-0.1-0.101
			v-3.353c0-0.075,0.024-0.101,0.1-0.101H299.892z"/>
		<path d="M302.701,95.393c0.061,0,0.091,0.03,0.091,0.09v2.638c0,0.721-0.355,1.081-1.066,1.081c-0.471,0-0.801-0.181-0.996-0.536
			c-0.04-0.064-0.03-0.114,0.035-0.149l0.11-0.056c0.06-0.035,0.11-0.02,0.145,0.035c0.146,0.266,0.376,0.4,0.701,0.4
			c0.485,0,0.73-0.255,0.73-0.761V97.84c-0.295,0.085-0.556,0.13-0.785,0.13c-0.661,0-0.991-0.325-0.991-0.976v-1.512
			c0-0.065,0.024-0.09,0.09-0.09h0.155c0.075,0,0.09,0.024,0.09,0.09v1.496c0,0.456,0.235,0.687,0.701,0.687
			c0.215,0,0.46-0.046,0.74-0.136v-2.047c0-0.06,0.03-0.09,0.09-0.09H302.701z"/>
		<path d="M305.481,95.393c0.061,0,0.09,0.03,0.09,0.09v2.393c0,0.06-0.029,0.09-0.09,0.09h-0.16c-0.06,0-0.09-0.03-0.09-0.09
			v-1.076h-1.446v1.076c0,0.06-0.03,0.09-0.09,0.09h-0.16c-0.061,0-0.091-0.03-0.091-0.09v-2.393c0-0.06,0.03-0.09,0.091-0.09h0.16
			c0.06,0,0.09,0.03,0.09,0.09v1.006h1.446v-1.006c0-0.06,0.03-0.09,0.09-0.09H305.481z"/>
		<path d="M308.372,97.859c0.04,0.075,0.024,0.105-0.056,0.105h-0.149c-0.101,0-0.12-0.015-0.155-0.08l-0.381-0.78
			c-0.1-0.216-0.24-0.306-0.485-0.306h-0.575v1.071c0,0.074-0.021,0.095-0.096,0.095h-0.149c-0.075,0-0.096-0.021-0.096-0.095
			v-2.388c0-0.06,0.03-0.09,0.096-0.09h0.149c0.065,0,0.096,0.03,0.096,0.09v1.006h0.53h0.05l0.801-1.026
			c0.045-0.064,0.075-0.069,0.181-0.069h0.14c0.09,0,0.11,0.035,0.061,0.104l-0.846,1.057c0.18,0.045,0.325,0.18,0.436,0.405
			L308.372,97.859z"/>
		<path d="M310.571,95.393c0.075,0,0.09,0.024,0.09,0.09v0.13c0,0.061-0.029,0.09-0.09,0.09h-0.791v2.173
			c0,0.06-0.029,0.09-0.09,0.09h-0.155c-0.06,0-0.09-0.03-0.09-0.09v-2.173h-0.801c-0.061,0-0.09-0.029-0.09-0.09v-0.13
			c0-0.06,0.029-0.09,0.09-0.09H310.571z"/>
		<path d="M312.154,96.304c0-0.621,0.37-0.986,1.091-0.986c0.561,0,0.911,0.225,1.046,0.676c0.021,0.064,0,0.104-0.06,0.13
			l-0.13,0.045c-0.061,0.021-0.101,0-0.125-0.06c-0.105-0.341-0.32-0.491-0.741-0.491c-0.485,0-0.745,0.251-0.745,0.676v0.766
			c0,0.426,0.265,0.681,0.745,0.681c0.391,0,0.641-0.17,0.746-0.516c0.024-0.055,0.064-0.074,0.13-0.06l0.13,0.04
			c0.065,0.025,0.085,0.065,0.061,0.13c-0.155,0.466-0.511,0.701-1.076,0.701c-0.701,0-1.071-0.365-1.071-0.986V96.304z"/>
		<path d="M315.76,95.317c0.74,0,1.001,0.385,1.001,0.991v1.311c0,0.176-0.04,0.226-0.181,0.286c-0.2,0.085-0.475,0.13-0.83,0.13
			c-0.416,0-0.696-0.061-0.852-0.19c-0.154-0.125-0.229-0.32-0.229-0.586c0-0.565,0.305-0.775,1.101-0.775
			c0.135,0,0.355,0.015,0.656,0.05v-0.229c0-0.436-0.171-0.687-0.676-0.687c-0.331,0-0.566,0.12-0.701,0.366
			c-0.035,0.05-0.08,0.064-0.125,0.039l-0.12-0.05c-0.065-0.024-0.08-0.064-0.05-0.13C314.938,95.492,315.274,95.317,315.76,95.317z
			 M316.426,96.809c-0.301-0.03-0.531-0.045-0.691-0.045c-0.525,0-0.721,0.146-0.721,0.49c0,0.341,0.155,0.501,0.711,0.501
			c0.255,0,0.455-0.025,0.605-0.08c0.08-0.035,0.096-0.051,0.096-0.146V96.809z"/>
		<path d="M319.807,95.393c0.08,0,0.1,0.02,0.1,0.095v2.383c0,0.074-0.02,0.095-0.095,0.095h-0.125c-0.08,0-0.095-0.021-0.095-0.095
			v-1.361c0-0.155,0.02-0.365,0.055-0.636h-0.015c-0.056,0.149-0.141,0.315-0.245,0.495l-0.586,1.036
			c-0.025,0.045-0.065,0.07-0.115,0.07h-0.08c-0.055,0-0.095-0.025-0.12-0.075l-0.581-1.011c-0.09-0.155-0.175-0.331-0.255-0.516
			h-0.015c0.035,0.285,0.055,0.511,0.055,0.665v1.332c0,0.074-0.015,0.095-0.09,0.095h-0.13c-0.075,0-0.096-0.021-0.096-0.095
			v-2.383c0-0.075,0.025-0.095,0.105-0.095h0.11c0.06,0,0.104,0.024,0.135,0.075l0.921,1.631l0.911-1.626
			c0.024-0.056,0.07-0.08,0.125-0.08H319.807z"/>
		<path d="M320.483,96.238c0-0.575,0.416-0.921,1.097-0.921c0.686,0,1.105,0.346,1.105,0.921v0.881c0,0.575-0.42,0.916-1.105,0.916
			c-0.681,0-1.097-0.351-1.097-0.916V96.238z M322.346,96.238c0-0.381-0.291-0.616-0.766-0.616c-0.466,0-0.761,0.235-0.761,0.616
			v0.881c0,0.38,0.3,0.61,0.761,0.61c0.475,0,0.766-0.23,0.766-0.61V96.238z"/>
		<path d="M324.99,96.618c0.266,0.115,0.396,0.326,0.396,0.636c0,0.44-0.28,0.711-0.74,0.711h-1.291
			c-0.065,0-0.096-0.03-0.096-0.095v-2.388c0-0.06,0.03-0.09,0.096-0.09h1.226c0.456,0,0.716,0.25,0.716,0.671
			C325.296,96.328,325.196,96.514,324.99,96.618z M324.545,96.498c0.246,0,0.411-0.155,0.411-0.41c0-0.275-0.146-0.41-0.431-0.41
			H323.6v0.82H324.545z M324.585,97.675c0.286,0,0.451-0.165,0.451-0.451c0-0.279-0.165-0.445-0.461-0.445H323.6v0.896H324.585z"/>
		<path d="M327.13,96.203c0.561,0,0.901,0.32,0.901,0.876c0,0.561-0.336,0.886-0.901,0.886h-1.116c-0.06,0-0.09-0.03-0.09-0.09
			v-2.393c0-0.06,0.03-0.09,0.09-0.09h0.16c0.061,0,0.091,0.03,0.091,0.09v0.721H327.13z M327.09,97.659
			c0.376,0,0.591-0.215,0.591-0.58c0-0.36-0.215-0.57-0.591-0.57h-0.825v1.15H327.09z M328.682,95.393c0.061,0,0.09,0.03,0.09,0.09
			v2.393c0,0.06-0.029,0.09-0.09,0.09h-0.16c-0.06,0-0.09-0.03-0.09-0.09v-2.393c0-0.06,0.03-0.09,0.09-0.09H328.682z"/>
		<path d="M331.16,96.618c0.266,0.115,0.396,0.326,0.396,0.636c0,0.44-0.28,0.711-0.74,0.711h-1.291
			c-0.065,0-0.096-0.03-0.096-0.095v-2.388c0-0.06,0.03-0.09,0.096-0.09h1.226c0.456,0,0.716,0.25,0.716,0.671
			C331.466,96.328,331.366,96.514,331.16,96.618z M330.715,96.498c0.246,0,0.411-0.155,0.411-0.41c0-0.275-0.146-0.41-0.431-0.41
			h-0.926v0.82H330.715z M330.755,97.675c0.286,0,0.451-0.165,0.451-0.451c0-0.279-0.165-0.445-0.461-0.445h-0.976v0.896H330.755z"
			/>
		<path d="M332.014,96.238c0-0.575,0.416-0.921,1.097-0.921c0.686,0,1.105,0.346,1.105,0.921v0.881c0,0.575-0.42,0.916-1.105,0.916
			c-0.681,0-1.097-0.351-1.097-0.916V96.238z M333.876,96.238c0-0.381-0.29-0.616-0.766-0.616c-0.466,0-0.761,0.235-0.761,0.616
			v0.881c0,0.38,0.3,0.61,0.761,0.61c0.476,0,0.766-0.23,0.766-0.61V96.238z"/>
		<path d="M335.784,95.317c0.686,0,1.011,0.3,1.011,0.746c0,0.285-0.12,0.475-0.36,0.561v0.02c0.275,0.085,0.411,0.295,0.411,0.631
			c0,0.465-0.326,0.761-1.041,0.761c-0.376,0-0.676-0.115-0.852-0.28c-0.175-0.165-0.24-0.28-0.295-0.405
			c-0.025-0.065,0-0.105,0.065-0.126l0.13-0.045c0.064-0.015,0.105,0.006,0.13,0.065c0.141,0.33,0.415,0.495,0.821,0.495
			c0.475,0,0.695-0.189,0.695-0.495c0-0.3-0.17-0.45-0.506-0.45h-0.545c-0.061,0-0.09-0.03-0.09-0.096v-0.095
			c0-0.065,0.029-0.095,0.09-0.095h0.521c0.305,0,0.48-0.155,0.48-0.416c0-0.285-0.205-0.476-0.661-0.476
			c-0.265,0-0.48,0.085-0.596,0.206c-0.115,0.125-0.149,0.185-0.175,0.26c-0.025,0.065-0.065,0.085-0.13,0.065l-0.131-0.046
			c-0.064-0.02-0.085-0.064-0.06-0.13C334.748,95.817,335.028,95.317,335.784,95.317z"/>
		<path d="M338.3,95.317c0.74,0,1.001,0.385,1.001,0.991v1.311c0,0.176-0.04,0.226-0.181,0.286c-0.2,0.085-0.476,0.13-0.83,0.13
			c-0.416,0-0.696-0.061-0.852-0.19c-0.155-0.125-0.229-0.32-0.229-0.586c0-0.565,0.305-0.775,1.101-0.775
			c0.136,0,0.355,0.015,0.655,0.05v-0.229c0-0.436-0.17-0.687-0.675-0.687c-0.331,0-0.565,0.12-0.701,0.366
			c-0.035,0.05-0.08,0.064-0.125,0.039l-0.12-0.05c-0.065-0.024-0.08-0.064-0.05-0.13C337.479,95.492,337.814,95.317,338.3,95.317z
			 M338.965,96.809c-0.3-0.03-0.53-0.045-0.69-0.045c-0.525,0-0.721,0.146-0.721,0.49c0,0.341,0.155,0.501,0.711,0.501
			c0.255,0,0.455-0.025,0.605-0.08c0.08-0.035,0.095-0.051,0.095-0.146V96.809z"/>
		<path d="M293.543,101.393c0.075,0,0.09,0.024,0.09,0.09v0.13c0,0.061-0.029,0.09-0.09,0.09h-0.791v2.173
			c0,0.06-0.029,0.09-0.09,0.09h-0.155c-0.06,0-0.09-0.03-0.09-0.09v-2.173h-0.801c-0.06,0-0.09-0.029-0.09-0.09v-0.13
			c0-0.06,0.03-0.09,0.09-0.09H293.543z"/>
		<path d="M295.098,101.317c0.695,0,1.041,0.335,1.041,1.001v0.721c0,0.665-0.341,0.996-1.026,0.996
			c-0.215,0-0.465-0.056-0.751-0.171v1.111c0,0.061-0.029,0.09-0.09,0.09h-0.16c-0.06,0-0.09-0.029-0.09-0.09v-3.232
			c0-0.16,0.04-0.216,0.2-0.281C294.467,101.367,294.757,101.317,295.098,101.317z M295.803,102.328c0-0.466-0.25-0.7-0.745-0.7
			c-0.226,0-0.426,0.029-0.601,0.095c-0.085,0.035-0.096,0.055-0.096,0.135v1.697c0.246,0.115,0.486,0.175,0.727,0.175
			c0.475,0,0.715-0.235,0.715-0.7V102.328z"/>
		<path d="M297.662,101.317c0.74,0,1.001,0.385,1.001,0.991v1.311c0,0.176-0.04,0.226-0.181,0.286c-0.2,0.085-0.475,0.13-0.83,0.13
			c-0.416,0-0.696-0.061-0.852-0.19c-0.154-0.125-0.229-0.32-0.229-0.586c0-0.565,0.305-0.775,1.101-0.775
			c0.135,0,0.355,0.015,0.656,0.05v-0.229c0-0.436-0.171-0.687-0.676-0.687c-0.331,0-0.566,0.12-0.701,0.366
			c-0.035,0.05-0.08,0.064-0.125,0.039l-0.12-0.05c-0.065-0.024-0.08-0.064-0.05-0.13
			C296.841,101.492,297.177,101.317,297.662,101.317z M298.328,102.809c-0.301-0.03-0.531-0.045-0.691-0.045
			c-0.525,0-0.721,0.146-0.721,0.49c0,0.341,0.155,0.501,0.711,0.501c0.255,0,0.455-0.025,0.605-0.08
			c0.08-0.035,0.096-0.051,0.096-0.146V102.809z"/>
		<path d="M301.313,101.393c0.061,0,0.09,0.03,0.09,0.09v2.393c0,0.06-0.029,0.09-0.09,0.09h-0.16c-0.06,0-0.09-0.03-0.09-0.09
			v-1.076h-1.446v1.076c0,0.06-0.03,0.09-0.09,0.09h-0.16c-0.061,0-0.091-0.03-0.091-0.09v-2.393c0-0.06,0.03-0.09,0.091-0.09h0.16
			c0.06,0,0.09,0.03,0.09,0.09v1.006h1.446v-1.006c0-0.06,0.03-0.09,0.09-0.09H301.313z"/>
		<path d="M301.976,102.304c0-0.621,0.37-0.986,1.091-0.986c0.561,0,0.911,0.225,1.047,0.676c0.02,0.064,0,0.104-0.061,0.13
			l-0.13,0.045c-0.061,0.021-0.101,0-0.125-0.06c-0.105-0.341-0.32-0.491-0.741-0.491c-0.485,0-0.746,0.251-0.746,0.676v0.766
			c0,0.426,0.266,0.681,0.746,0.681c0.391,0,0.641-0.17,0.746-0.516c0.024-0.055,0.064-0.074,0.13-0.06l0.13,0.04
			c0.065,0.025,0.085,0.065,0.061,0.13c-0.155,0.466-0.511,0.701-1.076,0.701c-0.701,0-1.071-0.365-1.071-0.986V102.304z"/>
		<path d="M306.648,101.393c0.064,0,0.09,0.024,0.09,0.09v2.393c0,0.064-0.025,0.09-0.09,0.09h-0.155
			c-0.075,0-0.091-0.025-0.091-0.09v-2.173h-1.426v2.173c0,0.06-0.03,0.09-0.09,0.09h-0.16c-0.061,0-0.091-0.03-0.091-0.09v-2.393
			c0-0.06,0.03-0.09,0.091-0.09H306.648z"/>
		<path d="M307.315,102.238c0-0.575,0.416-0.921,1.097-0.921c0.686,0,1.105,0.346,1.105,0.921v0.881c0,0.575-0.42,0.916-1.105,0.916
			c-0.681,0-1.097-0.351-1.097-0.916V102.238z M309.178,102.238c0-0.381-0.291-0.616-0.766-0.616c-0.466,0-0.761,0.235-0.761,0.616
			v0.881c0,0.38,0.3,0.61,0.761,0.61c0.475,0,0.766-0.23,0.766-0.61V102.238z"/>
		<path d="M311.157,101.317c0.695,0,1.041,0.335,1.041,1.001v0.721c0,0.665-0.341,0.996-1.026,0.996
			c-0.215,0-0.465-0.056-0.75-0.171v1.111c0,0.061-0.03,0.09-0.091,0.09h-0.16c-0.06,0-0.09-0.029-0.09-0.09v-3.232
			c0-0.16,0.04-0.216,0.2-0.281C310.526,101.367,310.816,101.317,311.157,101.317z M311.863,102.328c0-0.466-0.251-0.7-0.746-0.7
			c-0.226,0-0.426,0.029-0.601,0.095c-0.085,0.035-0.095,0.055-0.095,0.135v1.697c0.245,0.115,0.485,0.175,0.726,0.175
			c0.476,0,0.716-0.235,0.716-0.7V102.328z"/>
		<path d="M314.503,101.393c0.075,0,0.09,0.024,0.09,0.09v0.13c0,0.061-0.029,0.09-0.09,0.09h-0.791v2.173
			c0,0.06-0.029,0.09-0.09,0.09h-0.155c-0.06,0-0.09-0.03-0.09-0.09v-2.173h-0.801c-0.061,0-0.09-0.029-0.09-0.09v-0.13
			c0-0.06,0.029-0.09,0.09-0.09H314.503z"/>
		<path d="M317.027,101.393c0.061,0,0.09,0.03,0.09,0.09v2.393c0,0.06-0.029,0.09-0.09,0.09h-0.16c-0.06,0-0.09-0.03-0.09-0.09
			v-1.076h-1.446v1.076c0,0.06-0.03,0.09-0.091,0.09h-0.16c-0.06,0-0.09-0.03-0.09-0.09v-2.393c0-0.06,0.03-0.09,0.09-0.09h0.16
			c0.061,0,0.091,0.03,0.091,0.09v1.006h1.446v-1.006c0-0.06,0.03-0.09,0.09-0.09H317.027z"/>
		<path d="M317.695,102.238c0-0.575,0.416-0.921,1.097-0.921c0.686,0,1.105,0.346,1.105,0.921v0.881c0,0.575-0.42,0.916-1.105,0.916
			c-0.681,0-1.097-0.351-1.097-0.916V102.238z M319.558,102.238c0-0.381-0.29-0.616-0.766-0.616c-0.466,0-0.761,0.235-0.761,0.616
			v0.881c0,0.38,0.3,0.61,0.761,0.61c0.476,0,0.766-0.23,0.766-0.61V102.238z"/>
		<path d="M320.721,101.393c0.061,0,0.091,0.03,0.091,0.09v1.446c0,0.186-0.021,0.381-0.056,0.586h0.011
			c0.075-0.141,0.16-0.275,0.26-0.41l1.262-1.667c0.02-0.03,0.05-0.045,0.085-0.045h0.16c0.06,0,0.09,0.03,0.09,0.09v2.393
			c0,0.06-0.03,0.09-0.09,0.09h-0.16c-0.061,0-0.09-0.03-0.09-0.09v-1.417c0-0.16,0.02-0.365,0.06-0.61h-0.015
			c-0.045,0.09-0.141,0.23-0.275,0.426l-1.241,1.642c-0.021,0.035-0.05,0.05-0.091,0.05h-0.16c-0.06,0-0.09-0.03-0.09-0.09v-2.393
			c0-0.06,0.03-0.09,0.09-0.09H320.721z M321.562,101.017c-0.4,0-0.651-0.18-0.756-0.545c-0.016-0.04,0-0.07,0.04-0.085l0.12-0.046
			c0.045-0.015,0.08,0,0.095,0.035c0.07,0.261,0.235,0.391,0.501,0.391c0.265,0,0.43-0.13,0.505-0.391
			c0.015-0.035,0.045-0.05,0.08-0.035l0.136,0.046c0.039,0.015,0.055,0.045,0.039,0.085
			C322.213,100.837,321.957,101.017,321.562,101.017z"/>
		<path d="M326.604,103.859c0.04,0.075,0.024,0.105-0.056,0.105h-0.149c-0.101,0-0.12-0.015-0.155-0.08l-0.381-0.78
			c-0.1-0.216-0.24-0.306-0.485-0.306h-0.575v1.071c0,0.074-0.021,0.095-0.096,0.095h-0.149c-0.075,0-0.096-0.021-0.096-0.095
			v-2.388c0-0.06,0.03-0.09,0.096-0.09h0.149c0.065,0,0.096,0.03,0.096,0.09v1.006h0.53h0.05l0.801-1.026
			c0.045-0.064,0.075-0.069,0.181-0.069h0.14c0.091,0,0.11,0.035,0.061,0.104l-0.846,1.057c0.18,0.045,0.325,0.18,0.435,0.405
			L326.604,103.859z"/>
		<path d="M326.945,102.238c0-0.575,0.416-0.921,1.097-0.921c0.686,0,1.105,0.346,1.105,0.921v0.881c0,0.575-0.42,0.916-1.105,0.916
			c-0.681,0-1.097-0.351-1.097-0.916V102.238z M328.808,102.238c0-0.381-0.29-0.616-0.766-0.616c-0.466,0-0.761,0.235-0.761,0.616
			v0.881c0,0.38,0.3,0.61,0.761,0.61c0.476,0,0.766-0.23,0.766-0.61V102.238z"/>
		<path d="M332.153,101.393c0.08,0,0.101,0.02,0.101,0.095v2.383c0,0.074-0.021,0.095-0.096,0.095h-0.125
			c-0.08,0-0.095-0.021-0.095-0.095v-1.361c0-0.155,0.02-0.365,0.055-0.636h-0.015c-0.056,0.149-0.141,0.315-0.246,0.495
			l-0.585,1.036c-0.025,0.045-0.065,0.07-0.115,0.07h-0.08c-0.055,0-0.095-0.025-0.12-0.075l-0.58-1.011
			c-0.091-0.155-0.176-0.331-0.256-0.516h-0.015c0.035,0.285,0.055,0.511,0.055,0.665v1.332c0,0.074-0.015,0.095-0.09,0.095h-0.13
			c-0.075,0-0.096-0.021-0.096-0.095v-2.383c0-0.075,0.025-0.095,0.105-0.095h0.11c0.06,0,0.104,0.024,0.135,0.075l0.921,1.631
			l0.911-1.626c0.024-0.056,0.069-0.08,0.125-0.08H332.153z"/>
		<path d="M334.922,101.393c0.065,0,0.091,0.024,0.091,0.09v2.393c0,0.064-0.025,0.09-0.091,0.09h-0.154
			c-0.075,0-0.091-0.025-0.091-0.09v-2.173h-1.426v2.173c0,0.06-0.03,0.09-0.091,0.09H333c-0.06,0-0.09-0.03-0.09-0.09v-2.393
			c0-0.06,0.03-0.09,0.09-0.09H334.922z"/>
		<path d="M336.616,101.317c0.74,0,1.001,0.385,1.001,0.991v1.311c0,0.176-0.04,0.226-0.181,0.286c-0.2,0.085-0.476,0.13-0.83,0.13
			c-0.416,0-0.696-0.061-0.852-0.19c-0.155-0.125-0.229-0.32-0.229-0.586c0-0.565,0.305-0.775,1.101-0.775
			c0.136,0,0.355,0.015,0.655,0.05v-0.229c0-0.436-0.17-0.687-0.675-0.687c-0.331,0-0.565,0.12-0.701,0.366
			c-0.035,0.05-0.08,0.064-0.125,0.039l-0.12-0.05c-0.065-0.024-0.08-0.064-0.05-0.13
			C335.795,101.492,336.131,101.317,336.616,101.317z M337.281,102.809c-0.3-0.03-0.53-0.045-0.69-0.045
			c-0.525,0-0.721,0.146-0.721,0.49c0,0.341,0.155,0.501,0.711,0.501c0.255,0,0.455-0.025,0.605-0.08
			c0.08-0.035,0.095-0.051,0.095-0.146V102.809z"/>
		<path d="M340.268,101.393c0.061,0,0.09,0.03,0.09,0.09v2.393c0,0.06-0.029,0.09-0.09,0.09h-0.16c-0.06,0-0.09-0.03-0.09-0.09
			v-1.076h-1.446v1.076c0,0.06-0.03,0.09-0.091,0.09h-0.16c-0.06,0-0.09-0.03-0.09-0.09v-2.393c0-0.06,0.03-0.09,0.09-0.09h0.16
			c0.061,0,0.091,0.03,0.091,0.09v1.006h1.446v-1.006c0-0.06,0.03-0.09,0.09-0.09H340.268z"/>
		<path d="M341.266,101.393c0.061,0,0.091,0.03,0.091,0.09v1.446c0,0.186-0.021,0.381-0.056,0.586h0.011
			c0.075-0.141,0.16-0.275,0.26-0.41l1.262-1.667c0.02-0.03,0.05-0.045,0.085-0.045h0.16c0.06,0,0.09,0.03,0.09,0.09v2.393
			c0,0.06-0.03,0.09-0.09,0.09h-0.16c-0.061,0-0.09-0.03-0.09-0.09v-1.417c0-0.16,0.02-0.365,0.06-0.61h-0.015
			c-0.045,0.09-0.141,0.23-0.275,0.426l-1.241,1.642c-0.021,0.035-0.05,0.05-0.091,0.05h-0.16c-0.06,0-0.09-0.03-0.09-0.09v-2.393
			c0-0.06,0.03-0.09,0.09-0.09H341.266z"/>
		<path d="M344.076,101.393c0.06,0,0.09,0.03,0.09,0.09v1.446c0,0.186-0.021,0.381-0.056,0.586h0.011
			c0.074-0.141,0.16-0.275,0.26-0.41l1.262-1.667c0.02-0.03,0.05-0.045,0.085-0.045h0.16c0.06,0,0.09,0.03,0.09,0.09v2.393
			c0,0.06-0.03,0.09-0.09,0.09h-0.16c-0.061,0-0.091-0.03-0.091-0.09v-1.417c0-0.16,0.021-0.365,0.061-0.61h-0.015
			c-0.046,0.09-0.141,0.23-0.275,0.426l-1.241,1.642c-0.021,0.035-0.051,0.05-0.09,0.05h-0.16c-0.061,0-0.091-0.03-0.091-0.09
			v-2.393c0-0.06,0.03-0.09,0.091-0.09H344.076z"/>
	</g>
	<g>
		<path d="M290.549,156.598c0-0.786,0.49-1.257,1.377-1.257c0.881,0,1.371,0.471,1.371,1.257v1.181c0,0.786-0.49,1.257-1.371,1.257
			c-0.887,0-1.377-0.471-1.377-1.257V156.598z M292.937,156.598c0-0.586-0.355-0.921-1.011-0.921c-0.656,0-1.017,0.335-1.017,0.921
			v1.181c0,0.586,0.36,0.921,1.017,0.921c0.655,0,1.011-0.335,1.011-0.921V156.598z"/>
		<path d="M295.666,156.393c0.075,0,0.09,0.024,0.09,0.09v0.13c0,0.061-0.029,0.09-0.09,0.09h-0.791v2.173
			c0,0.06-0.029,0.09-0.09,0.09h-0.155c-0.06,0-0.09-0.03-0.09-0.09v-2.173h-0.801c-0.06,0-0.09-0.029-0.09-0.09v-0.13
			c0-0.06,0.03-0.09,0.09-0.09H295.666z"/>
		<path d="M298.462,158.654c0.075,0,0.09,0.025,0.09,0.091v0.825c0,0.075-0.015,0.09-0.09,0.09h-0.146
			c-0.061,0-0.09-0.029-0.09-0.09v-0.605h-2.143v0.605c0,0.061-0.029,0.09-0.095,0.09h-0.146c-0.06,0-0.09-0.029-0.09-0.09v-0.825
			c0-0.061,0.03-0.091,0.09-0.091h0.15c0.115-0.095,0.2-0.235,0.266-0.431c0.06-0.189,0.09-0.51,0.09-0.966v-0.775
			c0-0.065,0.015-0.09,0.09-0.09h1.656c0.061,0,0.091,0.03,0.091,0.09v2.172H298.462z M296.675,157.278
			c0,0.681-0.095,1.141-0.285,1.376h1.456v-1.952h-1.171V157.278z"/>
		<path d="M298.879,157.373c0-0.665,0.385-1.056,1.105-1.056c0.727,0,1.111,0.41,1.111,1.036v0.275c0,0.095-0.05,0.14-0.15,0.14
			h-1.731v0.29c0,0.436,0.266,0.687,0.751,0.687c0.37,0,0.631-0.141,0.786-0.416c0.04-0.055,0.09-0.064,0.145-0.035l0.105,0.056
			c0.065,0.034,0.075,0.08,0.035,0.145c-0.2,0.36-0.556,0.541-1.071,0.541c-0.726,0-1.086-0.386-1.086-1.011V157.373z
			 M300.761,157.333c0-0.455-0.271-0.726-0.776-0.726c-0.5,0-0.771,0.271-0.771,0.726v0.176h1.547V157.333z"/>
		<path d="M303.58,156.393c0.061,0,0.091,0.03,0.091,0.09v2.393c0,0.06-0.03,0.09-0.091,0.09h-0.16c-0.06,0-0.09-0.03-0.09-0.09
			v-2.167h-1.131v0.615c0,0.615-0.07,1.041-0.21,1.281c-0.146,0.24-0.266,0.33-0.471,0.426c-0.05,0.02-0.085,0.005-0.11-0.045
			l-0.075-0.155c-0.024-0.046-0.01-0.075,0.035-0.101c0.125-0.06,0.171-0.08,0.275-0.215c0.056-0.065,0.095-0.146,0.125-0.24
			c0.056-0.181,0.105-0.525,0.105-0.971v-0.821c0-0.065,0.024-0.09,0.09-0.09H303.58z"/>
		<path d="M304.199,157.373c0-0.665,0.385-1.056,1.105-1.056c0.727,0,1.111,0.41,1.111,1.036v0.275c0,0.095-0.05,0.14-0.15,0.14
			h-1.731v0.29c0,0.436,0.266,0.687,0.751,0.687c0.37,0,0.631-0.141,0.786-0.416c0.04-0.055,0.09-0.064,0.145-0.035l0.105,0.056
			c0.065,0.034,0.075,0.08,0.035,0.145c-0.2,0.36-0.556,0.541-1.071,0.541c-0.726,0-1.086-0.386-1.086-1.011V157.373z
			 M306.081,157.333c0-0.455-0.271-0.726-0.776-0.726c-0.5,0-0.771,0.271-0.771,0.726v0.176h1.547V157.333z"/>
		<path d="M308.98,156.393c0.061,0,0.09,0.03,0.09,0.09v2.393c0,0.06-0.029,0.09-0.09,0.09h-0.16c-0.06,0-0.09-0.03-0.09-0.09
			v-1.076h-1.446v1.076c0,0.06-0.03,0.09-0.091,0.09h-0.16c-0.06,0-0.09-0.03-0.09-0.09v-2.393c0-0.06,0.03-0.09,0.09-0.09h0.16
			c0.061,0,0.091,0.03,0.091,0.09v1.006h1.446v-1.006c0-0.06,0.03-0.09,0.09-0.09H308.98z"/>
		<path d="M309.979,156.393c0.061,0,0.091,0.03,0.091,0.09v1.446c0,0.186-0.021,0.381-0.056,0.586h0.011
			c0.075-0.141,0.16-0.275,0.26-0.41l1.262-1.667c0.02-0.03,0.05-0.045,0.085-0.045h0.16c0.06,0,0.09,0.03,0.09,0.09v2.393
			c0,0.06-0.03,0.09-0.09,0.09h-0.16c-0.061,0-0.09-0.03-0.09-0.09v-1.417c0-0.16,0.02-0.365,0.06-0.61h-0.015
			c-0.045,0.09-0.141,0.23-0.275,0.426l-1.241,1.642c-0.021,0.035-0.05,0.05-0.091,0.05h-0.16c-0.06,0-0.09-0.03-0.09-0.09v-2.393
			c0-0.06,0.03-0.09,0.09-0.09H309.979z"/>
		<path d="M312.443,157.373c0-0.665,0.385-1.056,1.105-1.056c0.727,0,1.111,0.41,1.111,1.036v0.275c0,0.095-0.05,0.14-0.15,0.14
			h-1.731v0.29c0,0.436,0.266,0.687,0.751,0.687c0.37,0,0.631-0.141,0.786-0.416c0.04-0.055,0.09-0.064,0.145-0.035l0.105,0.056
			c0.065,0.034,0.075,0.08,0.035,0.145c-0.2,0.36-0.556,0.541-1.071,0.541c-0.726,0-1.086-0.386-1.086-1.011V157.373z
			 M314.325,157.333c0-0.455-0.271-0.726-0.776-0.726c-0.5,0-0.771,0.271-0.771,0.726v0.176h1.547V157.333z"/>
		<path d="M318.381,156.393c0.064,0,0.09,0.024,0.09,0.09v2.393c0,0.064-0.025,0.09-0.09,0.09h-0.155
			c-0.075,0-0.091-0.025-0.091-0.09v-2.173h-1.426v2.173c0,0.06-0.03,0.09-0.09,0.09h-0.16c-0.061,0-0.091-0.03-0.091-0.09v-2.393
			c0-0.06,0.03-0.09,0.091-0.09H318.381z"/>
		<path d="M319.049,157.238c0-0.575,0.416-0.921,1.097-0.921c0.686,0,1.105,0.346,1.105,0.921v0.881c0,0.575-0.42,0.916-1.105,0.916
			c-0.681,0-1.097-0.351-1.097-0.916V157.238z M320.911,157.238c0-0.381-0.29-0.616-0.766-0.616c-0.466,0-0.761,0.235-0.761,0.616
			v0.881c0,0.38,0.3,0.61,0.761,0.61c0.476,0,0.766-0.23,0.766-0.61V157.238z"/>
		<path d="M321.663,156.482c0-0.06,0.03-0.09,0.091-0.09h0.16c0.06,0,0.09,0.03,0.09,0.09v0.62c0,0.426,0.215,0.621,0.711,0.621
			c0.16,0,0.38-0.035,0.66-0.105v-1.136c0-0.065,0.02-0.09,0.085-0.09h0.16c0.061,0,0.09,0.03,0.09,0.09v2.393
			c0,0.06-0.029,0.09-0.09,0.09h-0.16c-0.065,0-0.085-0.025-0.085-0.09v-0.941c-0.255,0.065-0.49,0.096-0.706,0.096
			c-0.686,0-1.006-0.301-1.006-0.916V156.482z"/>
		<path d="M326.125,156.393c0.075,0,0.09,0.024,0.09,0.09v0.13c0,0.061-0.029,0.09-0.09,0.09h-0.791v2.173
			c0,0.06-0.029,0.09-0.09,0.09h-0.155c-0.06,0-0.09-0.03-0.09-0.09v-2.173h-0.801c-0.06,0-0.09-0.029-0.09-0.09v-0.13
			c0-0.06,0.03-0.09,0.09-0.09H326.125z"/>
		<path d="M327.819,157.203c0.561,0,0.901,0.32,0.901,0.876c0,0.561-0.336,0.886-0.901,0.886h-1.116c-0.06,0-0.09-0.03-0.09-0.09
			v-2.393c0-0.06,0.03-0.09,0.09-0.09h0.16c0.061,0,0.091,0.03,0.091,0.09v0.721H327.819z M327.779,158.659
			c0.376,0,0.591-0.215,0.591-0.58c0-0.36-0.215-0.57-0.591-0.57h-0.825v1.15H327.779z M329.371,156.393
			c0.061,0,0.09,0.03,0.09,0.09v2.393c0,0.06-0.029,0.09-0.09,0.09h-0.16c-0.06,0-0.09-0.03-0.09-0.09v-2.393
			c0-0.06,0.03-0.09,0.09-0.09H329.371z"/>
		<path d="M332.795,155.411c0.7,0,1.131,0.416,1.131,1.111s-0.431,1.106-1.131,1.106h-1.076v1.235c0,0.075-0.021,0.101-0.096,0.101
			h-0.165c-0.075,0-0.1-0.025-0.1-0.101v-3.353c0-0.075,0.024-0.101,0.1-0.101H332.795z M332.765,157.293
			c0.485,0,0.786-0.29,0.786-0.771s-0.301-0.771-0.786-0.771h-1.046v1.541H332.765z"/>
		<path d="M334.283,157.238c0-0.575,0.416-0.921,1.097-0.921c0.686,0,1.105,0.346,1.105,0.921v0.881c0,0.575-0.42,0.916-1.105,0.916
			c-0.681,0-1.097-0.351-1.097-0.916V157.238z M336.146,157.238c0-0.381-0.29-0.616-0.766-0.616c-0.466,0-0.761,0.235-0.761,0.616
			v0.881c0,0.38,0.3,0.61,0.761,0.61c0.476,0,0.766-0.23,0.766-0.61V157.238z"/>
		<path d="M336.974,157.304c0-0.621,0.37-0.986,1.091-0.986c0.561,0,0.911,0.225,1.047,0.676c0.02,0.064,0,0.104-0.061,0.13
			l-0.13,0.045c-0.061,0.021-0.101,0-0.125-0.06c-0.105-0.341-0.32-0.491-0.741-0.491c-0.485,0-0.746,0.251-0.746,0.676v0.766
			c0,0.426,0.266,0.681,0.746,0.681c0.391,0,0.641-0.17,0.746-0.516c0.024-0.055,0.064-0.074,0.13-0.06l0.13,0.04
			c0.065,0.025,0.085,0.065,0.061,0.13c-0.155,0.466-0.511,0.701-1.076,0.701c-0.701,0-1.071-0.365-1.071-0.986V157.304z"/>
		<path d="M339.548,157.304c0-0.621,0.37-0.986,1.091-0.986c0.561,0,0.911,0.225,1.047,0.676c0.02,0.064,0,0.104-0.061,0.13
			l-0.13,0.045c-0.061,0.021-0.101,0-0.125-0.06c-0.105-0.341-0.32-0.491-0.741-0.491c-0.485,0-0.746,0.251-0.746,0.676v0.766
			c0,0.426,0.266,0.681,0.746,0.681c0.391,0,0.641-0.17,0.746-0.516c0.024-0.055,0.064-0.074,0.13-0.06l0.13,0.04
			c0.065,0.025,0.085,0.065,0.061,0.13c-0.155,0.466-0.511,0.701-1.076,0.701c-0.701,0-1.071-0.365-1.071-0.986V157.304z"/>
		<path d="M342.459,156.393c0.06,0,0.09,0.03,0.09,0.09v1.446c0,0.186-0.021,0.381-0.056,0.586h0.011
			c0.074-0.141,0.16-0.275,0.26-0.41l1.262-1.667c0.02-0.03,0.05-0.045,0.085-0.045h0.16c0.06,0,0.09,0.03,0.09,0.09v2.393
			c0,0.06-0.03,0.09-0.09,0.09h-0.16c-0.061,0-0.091-0.03-0.091-0.09v-1.417c0-0.16,0.021-0.365,0.061-0.61h-0.015
			c-0.046,0.09-0.141,0.23-0.275,0.426l-1.241,1.642c-0.021,0.035-0.051,0.05-0.09,0.05h-0.16c-0.061,0-0.091-0.03-0.091-0.09
			v-2.393c0-0.06,0.03-0.09,0.091-0.09H342.459z"/>
		<path d="M345.27,156.393c0.06,0,0.09,0.03,0.09,0.09v1.446c0,0.186-0.021,0.381-0.056,0.586h0.011
			c0.074-0.141,0.16-0.275,0.26-0.41l1.262-1.667c0.02-0.03,0.05-0.045,0.085-0.045h0.16c0.06,0,0.09,0.03,0.09,0.09v2.393
			c0,0.06-0.03,0.09-0.09,0.09h-0.16c-0.061,0-0.091-0.03-0.091-0.09v-1.417c0-0.16,0.021-0.365,0.061-0.61h-0.015
			c-0.046,0.09-0.141,0.23-0.275,0.426l-1.241,1.642c-0.021,0.035-0.051,0.05-0.09,0.05h-0.16c-0.061,0-0.091-0.03-0.091-0.09
			v-2.393c0-0.06,0.03-0.09,0.091-0.09H345.27z"/>
	</g>
	<g>
		<g>
			<path fill="#FFFFFF" d="M304.172,121.786v3.373h-0.435v-3.008h-1.567v3.008h-0.435v-3.373H304.172z"/>
		</g>
		<g>
			<path fill="#FFFFFF" d="M307.107,123.928c0,0.896-0.621,1.286-1.206,1.286c-0.656,0-1.161-0.48-1.161-1.246
				c0-0.811,0.53-1.286,1.201-1.286C306.637,122.682,307.107,123.188,307.107,123.928z M305.186,123.953
				c0,0.53,0.306,0.931,0.735,0.931c0.421,0,0.736-0.396,0.736-0.94c0-0.411-0.205-0.932-0.727-0.932
				C305.411,123.012,305.186,123.492,305.186,123.953z"/>
		</g>
		<g>
			<path fill="#FFFFFF" d="M308.01,122.737v0.795c0,0.306,0.115,0.516,0.501,0.516c0.189,0,0.385-0.07,0.521-0.17v-1.141h0.435
				v2.422h-0.435v-0.971h-0.011c-0.165,0.109-0.425,0.185-0.655,0.185c-0.46,0-0.796-0.235-0.796-0.79v-0.846H308.01z"/>
		</g>
		<g>
			<path fill="#FFFFFF" d="M311.807,122.737v0.35h-0.756v2.072h-0.436v-2.072h-0.756v-0.35H311.807z"/>
		</g>
		<g>
			<path fill="#FFFFFF" d="M313.496,125.159l-0.035-0.306h-0.016c-0.135,0.19-0.396,0.36-0.74,0.36c-0.49,0-0.741-0.345-0.741-0.695
				c0-0.586,0.521-0.906,1.457-0.9v-0.051c0-0.2-0.056-0.561-0.551-0.561c-0.226,0-0.461,0.07-0.631,0.181l-0.1-0.29
				c0.2-0.131,0.49-0.216,0.796-0.216c0.74,0,0.921,0.506,0.921,0.991v0.906c0,0.21,0.01,0.415,0.04,0.58H313.496z M313.431,123.923
				c-0.48-0.01-1.026,0.075-1.026,0.546c0,0.285,0.19,0.42,0.416,0.42c0.315,0,0.516-0.2,0.585-0.405
				c0.016-0.045,0.025-0.095,0.025-0.14V123.923z"/>
		</g>
	</g>
	<g>
		<g>
			<path fill="#B84843" d="M177.469,78.594c-0.161,0-0.304-0.016-0.44,0.007c-0.064,0.011-0.136,0.085-0.169,0.149
				c-0.429,0.824-0.86,1.647-1.269,2.48c-0.11,0.223-0.24,0.324-0.486,0.292c-0.126-0.017-0.256-0.001-0.384-0.003
				c-0.223-0.004-0.254-0.055-0.145-0.251c0.437-0.79,0.876-1.58,1.314-2.37c0.078-0.14,0.154-0.28,0.235-0.429
				c-0.026-0.023-0.045-0.049-0.07-0.062c-0.971-0.49-1.303-1.325-1.26-2.353c0.019-0.457,0.11-0.903,0.331-1.312
				c0.397-0.731,1.021-1.092,1.845-1.112c0.365-0.009,0.731,0.002,1.097-0.003c0.156-0.002,0.21,0.053,0.209,0.215
				c-0.005,2.489-0.005,4.977,0.001,7.466c0,0.176-0.063,0.215-0.223,0.215c-0.574,0.001-0.574,0.005-0.574-0.572
				c0-0.718,0-1.437,0-2.155C177.48,78.738,177.474,78.681,177.469,78.594z M177.473,74.292c-0.162,0-0.307,0.004-0.453-0.001
				c-0.544-0.017-0.927,0.24-1.14,0.721c-0.308,0.697-0.329,1.418-0.036,2.125c0.262,0.631,0.84,0.897,1.628,0.758
				C177.473,76.708,177.473,75.518,177.473,74.292z"/>
		</g>
	</g>
</g>
</svg>
