<?xml version="1.0" encoding="utf-8"?>
<!-- Generator: Adobe Illustrator 21.0.0, SVG Export Plug-In . SVG Version: 6.00 Build 0)  -->
<svg version="1.1" xmlns="http://www.w3.org/2000/svg" xmlns:xlink="http://www.w3.org/1999/xlink" x="0px" y="0px"
	 viewBox="0 0 223.9 251.2" style="enable-background:new 0 0 223.9 251.2;" xml:space="preserve">
<style type="text/css">
	.st0{fill:#FFFFFF;}
	.st1{fill:none;stroke:#000000;stroke-width:4.8;stroke-linecap:round;stroke-linejoin:round;stroke-miterlimit:10;}
	
		.st2{fill:none;stroke:#000000;stroke-width:4.8;stroke-linecap:round;stroke-linejoin:round;stroke-miterlimit:10;stroke-dasharray:2.2222,12.2221;}
	.st3{fill:none;stroke:#000000;stroke-width:4.8;stroke-linecap:round;stroke-linejoin:round;}
	.st4{fill:none;stroke:#000000;stroke-width:4.8;stroke-linecap:round;stroke-linejoin:round;stroke-dasharray:2.3342,12.8383;}
	.st5{fill:none;stroke:#000000;stroke-width:4.8;stroke-linecap:round;stroke-linejoin:round;stroke-dasharray:0,11.7317;}
	.st6{stroke:#000000;stroke-width:4.8;stroke-linecap:round;stroke-linejoin:round;stroke-miterlimit:10;}
	.st7{stroke:#000000;stroke-width:4.8;stroke-miterlimit:10;}
	.st8{fill:none;stroke:#000000;stroke-width:4.8;stroke-linecap:round;stroke-linejoin:round;stroke-dasharray:0,15.9232;}
	.st9{fill:none;stroke:#000000;stroke-width:4.8;stroke-linecap:round;stroke-linejoin:round;stroke-dasharray:0,16.2101;}
	.st10{fill:none;stroke:#000000;stroke-width:4.8;stroke-linecap:round;stroke-linejoin:round;stroke-dasharray:0,16.564;}
	
		.st11{fill:none;stroke:#000000;stroke-width:4.8;stroke-linecap:round;stroke-linejoin:round;stroke-miterlimit:10;stroke-dasharray:1.1111,12.2221;}
</style>
<g id="Background">
</g>
<g id="Elements">
	<g id="_x30_2_15_">
	</g>
	<g id="_x30_2_14_">
	</g>
	<g id="_x30_2_11_">
	</g>
	<g id="_x30_2_10_">
	</g>
	<g id="_x30_7_17_">
	</g>
	<g id="_x30_7_16_">
	</g>
	<g id="_x30_7_15_">
	</g>
	<g id="_x30_7_14_">
	</g>
	<g id="_x30_7_11_">
	</g>
	<g id="_x30_7_10_">
	</g>
	<g id="_x31_4_17_">
	</g>
	<g id="_x31_4_16_">
	</g>
	<g id="_x31_4_15_">
	</g>
	<g id="_x31_4_14_">
	</g>
	<g id="_x31_4_11_">
	</g>
	<g id="_x31_4_10_">
	</g>
	<g id="_x31_8_15_">
	</g>
	<g id="_x31_8_14_">
	</g>
	<g id="_x31_8_11_">
	</g>
	<g id="_x31_8_10_">
	</g>
	<g id="_x30_5_17_">
	</g>
	<g id="_x30_5_16_">
	</g>
	<g id="_x30_5_15_">
	</g>
	<g id="_x30_5_14_">
	</g>
	<g id="_x30_5_11_">
	</g>
	<g id="_x30_5_10_">
	</g>
	<g id="_x32_0_17_">
	</g>
	<g id="_x32_0_16_">
	</g>
	<g id="_x32_0_15_">
	</g>
	<g id="_x32_0_14_">
	</g>
	<g id="_x32_0_11_">
	</g>
	<g id="_x32_0_10_">
	</g>
	<g id="_x31_7_15_">
	</g>
	<g id="_x31_7_14_">
	</g>
	<g id="_x31_7_11_">
	</g>
	<g id="_x31_7_10_">
		<g>
			<g>
				<g>
					<g>
						<path d="M221.5,133.4h-49.3c-1.3,0-2.4-1.1-2.4-2.4v-26.5c0-1.3,1.1-2.4,2.4-2.4h49.3c1.3,0,2.4,1.1,2.4,2.4V131
							C223.9,132.3,222.8,133.4,221.5,133.4z M174.6,128.6h44.5v-21.7h-44.5V128.6z"/>
					</g>
					<g>
						<path d="M221.5,147.9h-49.3c-1.3,0-2.4-1.1-2.4-2.4V131c0-1.3,1.1-2.4,2.4-2.4h49.3c1.3,0,2.4,1.1,2.4,2.4v14.6
							C223.9,146.9,222.8,147.9,221.5,147.9z M174.6,143.1h44.5v-9.8h-44.5V143.1z"/>
					</g>
					<g>
						<path d="M204.3,180.2c-1.3,0-2.4-1.1-2.4-2.4c0-10.4,7.5-18.9,17.1-20.2v-9.7h-44.5v9.7c9.7,1.2,17.1,9.8,17.1,20.2
							c0,1.3-1.1,2.4-2.4,2.4s-2.4-1.1-2.4-2.4c0-8.5-6.6-15.5-14.7-15.5c-1.3,0-2.4-1.1-2.4-2.4v-14.4c0-1.3,1.1-2.4,2.4-2.4h49.3
							c1.3,0,2.4,1.1,2.4,2.4v14.4c0,1.3-1.1,2.4-2.4,2.4c-8.1,0-14.7,7-14.7,15.5C206.7,179.1,205.7,180.2,204.3,180.2z"/>
					</g>
					<g>
						<path d="M196.8,251.2c-5.5,0-9.4-1.4-12-4.4c-5.1-5.9-3.5-16.7-1.3-31.6c1.5-10.3,3.4-23.2,3.4-37.4c0-1.3,1.1-2.4,2.4-2.4
							s2.4,1.1,2.4,2.4c0,14.5-1.9,27.6-3.5,38.1c-1.9,13.1-3.5,23.5,0.2,27.8c1.6,1.8,4.3,2.7,8.3,2.7c4,0,6.8-0.9,8.3-2.7
							c3.7-4.3,2.1-14.6,0.2-27.8c-1.5-10.5-3.5-23.5-3.5-38.1c0-1.3,1.1-2.4,2.4-2.4s2.4,1.1,2.4,2.4c0,14.2,1.9,27,3.4,37.4
							c2.2,14.9,3.8,25.7-1.3,31.6C206.3,249.8,202.4,251.2,196.8,251.2z"/>
					</g>
				</g>
				<g>
					<path d="M183.8,125.3c-1.3,0-2.4-1.1-2.4-2.4v-18.1c0-1.3,1.1-2.4,2.4-2.4s2.4,1.1,2.4,2.4v18.1
						C186.2,124.3,185.2,125.3,183.8,125.3z"/>
				</g>
				<g>
					<path d="M196.8,125.3c-1.3,0-2.4-1.1-2.4-2.4v-18.1c0-1.3,1.1-2.4,2.4-2.4s2.4,1.1,2.4,2.4v18.1
						C199.2,124.3,198.2,125.3,196.8,125.3z"/>
				</g>
				<g>
					<path d="M209.8,125.3c-1.3,0-2.4-1.1-2.4-2.4v-18.1c0-1.3,1.1-2.4,2.4-2.4s2.4,1.1,2.4,2.4v18.1
						C212.2,124.3,211.1,125.3,209.8,125.3z"/>
				</g>
			</g>
			<g>
				<g>
					<g>
						<g>
							<g>
								<path d="M83.4,180.7c-0.2,0-0.3,0-0.5-0.1c-0.1,0-0.3-0.1-0.5-0.1c-0.1-0.1-0.3-0.1-0.4-0.2c-0.1-0.1-0.3-0.2-0.4-0.3
									c-0.4-0.4-0.7-1.1-0.7-1.7c0-0.2,0-0.3,0.1-0.5c0-0.1,0.1-0.3,0.1-0.5c0.1-0.1,0.1-0.3,0.2-0.4c0.1-0.1,0.2-0.2,0.3-0.4
									c0.1-0.1,0.2-0.2,0.4-0.3c0.1-0.1,0.3-0.2,0.4-0.2c0.2-0.1,0.3-0.1,0.5-0.1c0.3-0.1,0.6-0.1,0.9,0c0.1,0,0.3,0.1,0.5,0.1
									c0.1,0.1,0.3,0.1,0.4,0.2c0.1,0.1,0.3,0.2,0.4,0.3c0.1,0.1,0.2,0.2,0.3,0.4c0.1,0.1,0.2,0.3,0.2,0.4
									c0.1,0.2,0.1,0.3,0.1,0.5c0,0.2,0.1,0.3,0.1,0.5c0,0.2,0,0.3-0.1,0.5c0,0.1-0.1,0.3-0.1,0.5c-0.1,0.1-0.1,0.3-0.2,0.4
									c-0.1,0.1-0.2,0.3-0.3,0.4C84.7,180.5,84.1,180.7,83.4,180.7z"/>
							</g>
							<g>
								<path d="M92.2,173.3c-0.5-1.2,0.2-2.6,1.4-3.1l0,0c1.2-0.5,2.6,0.2,3.1,1.4l0,0c0.5,1.2-0.2,2.6-1.4,3.1l0,0
									c-0.3,0.1-0.6,0.1-0.8,0.1l0,0C93.5,174.9,92.6,174.3,92.2,173.3z M118.6,172.5L118.6,172.5c-1.3-0.2-2.2-1.4-2-2.8l0,0
									c0.2-1.3,1.5-2.2,2.8-2l0,0c1.3,0.2,2.2,1.5,2,2.8l0,0c-0.2,1.2-1.2,2-2.4,2l0,0C118.9,172.6,118.8,172.5,118.6,172.5z
									 M104.2,170c-0.1-1.3,0.9-2.5,2.2-2.6l0,0c1.3-0.1,2.5,0.8,2.6,2.2l0,0c0.1,1.3-0.8,2.5-2.2,2.6l0,0c-0.1,0-0.2,0-0.2,0l0,0
									C105.4,172.1,104.3,171.2,104.2,170z"/>
							</g>
							<g>
								<path d="M130.9,176.2c-0.2,0-0.3,0-0.5,0c-0.2,0-0.3-0.1-0.5-0.1c-0.1-0.1-0.3-0.1-0.4-0.2c-0.1-0.1-0.2-0.2-0.4-0.3
									c-0.5-0.5-0.7-1.1-0.7-1.7c0-0.2,0-0.3,0-0.5c0-0.2,0.1-0.3,0.1-0.5c0.1-0.1,0.1-0.3,0.2-0.4c0.1-0.1,0.2-0.3,0.3-0.4
									c0.5-0.6,1.4-0.8,2.2-0.7c0.2,0,0.3,0.1,0.4,0.1c0.1,0.1,0.3,0.1,0.4,0.2c0.1,0.1,0.2,0.2,0.4,0.3c0.1,0.1,0.2,0.2,0.3,0.4
									c0.1,0.1,0.2,0.3,0.2,0.4c0.1,0.1,0.1,0.3,0.1,0.5c0,0.2,0,0.3,0,0.5c0,0.6-0.2,1.2-0.7,1.7c-0.1,0.1-0.2,0.2-0.4,0.3
									c-0.1,0.1-0.3,0.2-0.4,0.2c-0.1,0.1-0.3,0.1-0.4,0.1C131.3,176.1,131.1,176.2,130.9,176.2z"/>
							</g>
							<g>
								<path d="M137.2,169.9c-0.6,0-1.2-0.3-1.7-0.7c-0.5-0.5-0.7-1.1-0.7-1.7c0-0.2,0-0.3,0-0.5c0-0.2,0.1-0.3,0.1-0.5
									c0.1-0.1,0.1-0.3,0.2-0.4c0.1-0.1,0.2-0.3,0.3-0.4c0.9-0.9,2.5-0.9,3.4,0c0.4,0.4,0.7,1.1,0.7,1.7s-0.2,1.2-0.7,1.7
									C138.4,169.7,137.8,169.9,137.2,169.9z"/>
							</g>
							<g>
								<path d="M127.3,157.1L127.3,157.1L127.3,157.1c-0.6-1.2-0.1-2.6,1-3.2l0,0c1.2-0.6,2.6-0.1,3.2,1l0,0c0.6,1.2,0.1,2.6-1,3.2
									l0,0c-0.4,0.2-0.7,0.3-1.1,0.3l0,0C128.6,158.4,127.7,158,127.3,157.1z M122.3,143.6c-0.3-1.3,0.5-2.6,1.8-2.9l0,0
									c1.3-0.3,2.6,0.5,2.9,1.8l0,0c0.3,1.3-0.5,2.6-1.8,2.9l0,0c-0.2,0-0.4,0.1-0.6,0.1l0,0C123.5,145.5,122.5,144.7,122.3,143.6
									z M120.5,129.4c0-1.3,1.1-2.4,2.4-2.4l0,0c1.3,0,2.4,1.1,2.4,2.4l0,0c0,1.3-1.1,2.4-2.4,2.4l0,0c0,0,0,0,0,0l0,0
									C121.6,131.7,120.5,130.7,120.5,129.4z M123.9,117.9c-1.3-0.3-2.1-1.6-1.8-2.9l0,0c0,0,0,0,0,0l0,0c0.3-1.3,1.6-2.1,2.9-1.8
									l0,0c1.3,0.3,2.1,1.6,1.8,2.9l0,0c-0.3,1.1-1.2,1.9-2.3,1.9l0,0C124.3,118,124.1,118,123.9,117.9z M128.1,104.7
									c-1.2-0.6-1.7-2-1.1-3.2l0,0l0,0l0,0c0.6-1.2,2-1.7,3.2-1.1l0,0c1.2,0.6,1.7,2,1.1,3.2l0,0c-0.4,0.8-1.3,1.3-2.1,1.3l0,0
									C128.8,105,128.4,104.9,128.1,104.7z M135.2,92.8c-1-0.9-1.1-2.4-0.3-3.4l0,0c0.9-1,2.4-1.1,3.4-0.3l0,0
									c1,0.9,1.1,2.4,0.3,3.4l0,0c-0.5,0.6-1.1,0.9-1.8,0.9l0,0C136.2,93.4,135.7,93.2,135.2,92.8z"/>
							</g>
							<g>
								<path d="M146.9,83.9c-0.2,0-0.3,0-0.5-0.1c-0.1,0-0.3-0.1-0.5-0.1c-0.1-0.1-0.3-0.1-0.4-0.2c-0.1-0.1-0.2-0.2-0.4-0.3
									c-0.1-0.1-0.2-0.2-0.3-0.4c-0.1-0.1-0.2-0.3-0.2-0.4c-0.1-0.1-0.1-0.3-0.1-0.5c0-0.2,0-0.3,0-0.5c0-0.6,0.2-1.2,0.7-1.7
									c0.1-0.1,0.2-0.2,0.4-0.3c0.1-0.1,0.3-0.2,0.4-0.2c0.1-0.1,0.3-0.1,0.5-0.1c0.3-0.1,0.6-0.1,0.9,0c0.1,0,0.3,0.1,0.5,0.1
									c0.1,0.1,0.3,0.1,0.4,0.2c0.1,0.1,0.2,0.2,0.4,0.3c0.4,0.5,0.7,1.1,0.7,1.7c0,0.2,0,0.3-0.1,0.5c0,0.1-0.1,0.3-0.1,0.5
									c-0.1,0.1-0.1,0.3-0.2,0.4c-0.1,0.1-0.2,0.3-0.3,0.4C148.1,83.7,147.5,83.9,146.9,83.9z"/>
							</g>
							<g>
								<path d="M141.5,76.1c-0.6,0-1.3-0.3-1.7-0.7c-0.1-0.1-0.2-0.2-0.3-0.4c-0.1-0.1-0.2-0.3-0.2-0.4c-0.1-0.1-0.1-0.3-0.1-0.5
									c0-0.2,0-0.3,0-0.5c0-0.2,0-0.3,0-0.5s0.1-0.3,0.1-0.4c0.1-0.2,0.1-0.3,0.2-0.4c0.1-0.1,0.2-0.3,0.3-0.4
									c0.6-0.6,1.4-0.8,2.2-0.7c0.1,0,0.3,0.1,0.4,0.1c0.1,0.1,0.3,0.1,0.4,0.2c0.1,0.1,0.2,0.2,0.4,0.3c0.1,0.1,0.2,0.2,0.3,0.4
									c0.1,0.1,0.2,0.3,0.2,0.4c0.1,0.1,0.1,0.3,0.1,0.4c0,0.1,0,0.3,0,0.5c0,0.1,0,0.3,0,0.5c0,0.2-0.1,0.3-0.1,0.5
									c-0.1,0.1-0.1,0.3-0.2,0.4c-0.1,0.1-0.2,0.2-0.3,0.4c-0.1,0.1-0.2,0.2-0.4,0.3c-0.1,0.1-0.3,0.2-0.4,0.2
									c-0.1,0.1-0.3,0.1-0.4,0.1C141.9,76.1,141.7,76.1,141.5,76.1z"/>
							</g>
							<g>
								<path d="M126.8,75.8c0-1.3,1.1-2.4,2.4-2.4l0,0c1.3,0,2.4,1.1,2.4,2.4l0,0c0,1.3-1.1,2.4-2.4,2.4l0,0c0,0,0,0,0,0l0,0
									C127.8,78.1,126.8,77.1,126.8,75.8z M116,76.1c-1.3-0.4-2-1.8-1.6-3l0,0c0.4-1.3,1.8-2,3-1.6l0,0c1.3,0.4,2,1.8,1.6,3l0,0
									c-0.3,1-1.3,1.7-2.3,1.7l0,0C116.5,76.2,116.3,76.2,116,76.1z M104.2,70.1c-1.1-0.8-1.3-2.3-0.5-3.4l0,0
									c0.8-1.1,2.3-1.3,3.3-0.5h0c1.1,0.8,1.3,2.3,0.5,3.4l0,0c-0.5,0.6-1.2,1-1.9,1l0,0C105.1,70.6,104.6,70.4,104.2,70.1z
									 M94.7,60.7C94.7,60.7,94.7,60.7,94.7,60.7L94.7,60.7c-0.8-1.1-0.5-2.6,0.5-3.4l0,0c1.1-0.8,2.6-0.5,3.4,0.5l0,0
									c0.8,1.1,0.5,2.6-0.5,3.4l0,0c-0.4,0.3-0.9,0.5-1.4,0.5l0,0C95.9,61.7,95.2,61.4,94.7,60.7z"/>
							</g>
							<g>
								<path d="M91,50.5c-0.1,0-0.3,0-0.5,0c-0.2,0-0.3-0.1-0.4-0.1c-0.1-0.1-0.3-0.1-0.4-0.2c-0.1-0.1-0.2-0.2-0.4-0.3
									c-0.1-0.1-0.2-0.2-0.3-0.4c-0.1-0.1-0.2-0.3-0.2-0.4c-0.1-0.1-0.1-0.3-0.1-0.4c0-0.2,0-0.3,0-0.5c0-0.6,0.2-1.3,0.7-1.7
									c0.9-0.9,2.5-0.9,3.4,0c0.5,0.4,0.7,1.1,0.7,1.7c0,0.1,0,0.3,0,0.5c0,0.2-0.1,0.3-0.1,0.4c-0.1,0.1-0.1,0.3-0.2,0.4
									c-0.1,0.1-0.2,0.2-0.3,0.4C92.2,50.2,91.6,50.5,91,50.5z"/>
							</g>
							<g>
								<path d="M81,48.1c0-1.3,1.1-2.4,2.4-2.4l0,0c1.3,0,2.4,1.1,2.4,2.4l0,0c0,1.3-1.1,2.4-2.4,2.4l0,0
									C82.1,50.5,81,49.4,81,48.1z"/>
							</g>
							<g>
								<path d="M75.9,50.5c-0.6,0-1.2-0.2-1.7-0.7c-0.1-0.1-0.2-0.2-0.3-0.4c-0.1-0.1-0.2-0.3-0.2-0.4c-0.1-0.1-0.1-0.3-0.1-0.4
									c0-0.2,0-0.3,0-0.5c0-0.6,0.3-1.3,0.7-1.7c0.5-0.6,1.4-0.8,2.2-0.7c0.2,0,0.3,0.1,0.4,0.1c0.1,0.1,0.3,0.1,0.4,0.2
									c0.1,0.1,0.2,0.2,0.4,0.3c0.4,0.4,0.7,1.1,0.7,1.7c0,0.1,0,0.3,0,0.5c0,0.2-0.1,0.3-0.1,0.4c-0.1,0.1-0.1,0.3-0.2,0.4
									c-0.1,0.1-0.2,0.2-0.3,0.4c-0.1,0.1-0.2,0.2-0.4,0.3c-0.1,0.1-0.3,0.2-0.4,0.2c-0.1,0.1-0.3,0.1-0.4,0.1
									C76.2,50.5,76.1,50.5,75.9,50.5z"/>
							</g>
							<g>
								<path d="M37.7,78.1c-1.3,0-2.4-1.1-2.4-2.4l0,0c0-1.3,1.1-2.4,2.4-2.4l0,0c1.3,0,2.4,1.1,2.4,2.4l0,0
									C40.1,77.1,39.1,78.1,37.7,78.1L37.7,78.1C37.7,78.1,37.7,78.1,37.7,78.1z M47.9,74.6c-0.4-1.3,0.3-2.6,1.5-3l0,0
									c1.3-0.4,2.6,0.3,3,1.5l0,0c0.4,1.3-0.3,2.6-1.5,3l0,0c-0.2,0.1-0.5,0.1-0.7,0.1l0,0C49.1,76.2,48.2,75.6,47.9,74.6z
									 M59.4,69.6c-0.8-1.1-0.5-2.6,0.5-3.4l0,0c1.1-0.8,2.6-0.5,3.4,0.5l0,0c0.8,1.1,0.5,2.6-0.5,3.4l0,0l0,0l0,0
									c-0.4,0.3-0.9,0.5-1.4,0.5l0,0C60.6,70.5,59.9,70.2,59.4,69.6z M68.8,61.2c-1.1-0.8-1.3-2.3-0.5-3.4v0
									c0.8-1.1,2.3-1.3,3.4-0.5l0,0c1.1,0.8,1.3,2.3,0.5,3.4l0,0c0,0,0,0,0,0l0,0c-0.5,0.6-1.2,1-2,1l0,0
									C69.7,61.7,69.2,61.5,68.8,61.2z"/>
							</g>
							<g>
								<path d="M25.3,76.1c-0.6,0-1.2-0.3-1.7-0.7c-0.1-0.1-0.2-0.2-0.3-0.4c-0.1-0.1-0.2-0.3-0.2-0.4c-0.1-0.1-0.1-0.3-0.1-0.5
									c0-0.2-0.1-0.3-0.1-0.5c0-0.2,0-0.3,0.1-0.5c0-0.2,0.1-0.3,0.1-0.4c0.1-0.2,0.1-0.3,0.2-0.4c0.1-0.1,0.2-0.3,0.3-0.4
									c0.5-0.6,1.4-0.8,2.2-0.7c0.2,0,0.3,0.1,0.5,0.1c0.1,0.1,0.3,0.1,0.4,0.2c0.1,0.1,0.2,0.2,0.4,0.3c0.1,0.1,0.2,0.2,0.3,0.4
									c0.1,0.1,0.2,0.3,0.2,0.4c0.1,0.1,0.1,0.3,0.1,0.4c0,0.1,0,0.3,0,0.5c0,0.1,0,0.3,0,0.5c0,0.2-0.1,0.3-0.1,0.5
									c-0.1,0.1-0.1,0.3-0.2,0.4c-0.1,0.1-0.2,0.2-0.3,0.4c-0.1,0.1-0.2,0.2-0.4,0.3c-0.1,0.1-0.3,0.2-0.4,0.2
									C26.1,76,26,76,25.8,76.1C25.7,76.1,25.5,76.1,25.3,76.1z"/>
							</g>
							<g>
								<path d="M20,83.9c-0.6,0-1.2-0.3-1.7-0.7c-0.4-0.4-0.7-1.1-0.7-1.7c0-0.2,0-0.3,0.1-0.5c0-0.1,0.1-0.3,0.1-0.4
									c0.1-0.1,0.1-0.3,0.2-0.4c0.1-0.1,0.2-0.3,0.3-0.4c0.1-0.1,0.2-0.2,0.4-0.3c0.1-0.1,0.3-0.2,0.4-0.2
									c0.1-0.1,0.3-0.1,0.4-0.1c0.3-0.1,0.6-0.1,0.9,0c0.2,0,0.3,0.1,0.5,0.1c0.1,0.1,0.3,0.1,0.4,0.2c0.1,0.1,0.2,0.2,0.4,0.3
									c0.5,0.5,0.7,1.1,0.7,1.7c0,0.2,0,0.3,0,0.5c0,0.1-0.1,0.3-0.1,0.5c-0.1,0.1-0.1,0.3-0.2,0.4c-0.1,0.1-0.2,0.3-0.3,0.4
									C21.3,83.7,20.6,83.9,20,83.9z"/>
							</g>
							<g>
								<path d="M36.4,158.2c-1.2-0.6-1.6-2-1-3.2l0,0c0.6-1.2,2.1-1.6,3.2-1l0,0c1.2,0.6,1.6,2,1,3.2l0,0l0,0l0,0
									c-0.4,0.8-1.3,1.3-2.1,1.3l0,0C37.1,158.4,36.7,158.3,36.4,158.2z M41.7,145.4c-1.3-0.3-2.1-1.6-1.8-2.9h0
									c0.3-1.3,1.6-2.1,2.9-1.8l0,0c1.3,0.3,2.1,1.6,1.8,2.9l0,0l0,0l0,0c-0.3,1.1-1.2,1.8-2.3,1.8l0,0
									C42.1,145.5,41.9,145.4,41.7,145.4z M44,131.7c-1.3,0-2.4-1.1-2.4-2.4l0,0c0-1.3,1.1-2.4,2.4-2.4l0,0c1.3,0,2.4,1.1,2.4,2.4
									l0,0C46.4,130.7,45.3,131.7,44,131.7L44,131.7C44,131.7,44,131.7,44,131.7z M46.4,129.3L46.4,129.3L46.4,129.3L46.4,129.3
									L46.4,129.3L46.4,129.3z M40.1,116.1L40.1,116.1c-0.3-1.3,0.5-2.6,1.8-2.9l0,0c1.3-0.3,2.6,0.5,2.9,1.8l0,0
									c0.3,1.3-0.5,2.6-1.8,2.9l0,0c-0.2,0-0.4,0.1-0.5,0.1l0,0C41.3,118,40.4,117.2,40.1,116.1z M35.6,103.6
									c-0.6-1.2-0.1-2.6,1.1-3.2l0,0c1.2-0.6,2.6-0.1,3.2,1.1l0,0l0,0l0,0c0.6,1.2,0.1,2.6-1.1,3.2l0,0c-0.3,0.2-0.7,0.2-1.1,0.2
									l0,0C36.9,104.9,36,104.5,35.6,103.6z M28.3,92.5L28.3,92.5c-0.9-1-0.7-2.5,0.3-3.4l0,0c1-0.9,2.5-0.7,3.4,0.3l0,0l0,0l0,0
									c0.9,1,0.7,2.5-0.3,3.4l0,0c-0.5,0.4-1,0.6-1.6,0.6l0,0C29.4,93.4,28.8,93.1,28.3,92.5z"/>
							</g>
							<g>
								<path d="M29.7,169.9c-0.6,0-1.2-0.3-1.7-0.7c-0.4-0.5-0.7-1.1-0.7-1.7s0.3-1.2,0.7-1.7c0.9-0.9,2.5-0.9,3.4,0
									c0.1,0.1,0.2,0.2,0.3,0.4c0.1,0.1,0.2,0.3,0.2,0.4c0.1,0.1,0.1,0.3,0.1,0.5c0,0.1,0,0.3,0,0.5c0,0.6-0.3,1.2-0.7,1.7
									c-0.1,0.1-0.2,0.2-0.4,0.3c-0.1,0.1-0.3,0.2-0.4,0.2c-0.1,0.1-0.3,0.1-0.5,0.1C30,169.9,29.9,169.9,29.7,169.9z"/>
							</g>
							<g>
								<path d="M35.9,176.2c-0.1,0-0.3,0-0.5,0c-0.1,0-0.3-0.1-0.4-0.1c-0.1-0.1-0.3-0.1-0.4-0.2c-0.1-0.1-0.2-0.2-0.4-0.3
									c-0.4-0.5-0.7-1.1-0.7-1.7c0-0.2,0-0.3,0-0.5c0-0.2,0.1-0.3,0.1-0.5c0.1-0.1,0.1-0.3,0.2-0.4c0.1-0.1,0.2-0.3,0.3-0.4
									c0.1-0.1,0.2-0.2,0.4-0.3c0.1-0.1,0.3-0.2,0.4-0.2c0.1-0.1,0.3-0.1,0.4-0.1c0.8-0.2,1.6,0.1,2.2,0.7
									c0.1,0.1,0.2,0.2,0.3,0.4c0.1,0.1,0.2,0.3,0.2,0.4c0.1,0.1,0.1,0.3,0.1,0.5c0,0.2,0,0.3,0,0.5c0,0.6-0.3,1.2-0.7,1.7
									c-0.1,0.1-0.2,0.2-0.4,0.3c-0.1,0.1-0.3,0.2-0.4,0.2c-0.1,0.1-0.3,0.1-0.5,0.1C36.3,176.1,36.1,176.2,35.9,176.2z"/>
							</g>
							<g>
								<path d="M71.6,174.8c-1.2-0.5-1.9-1.9-1.4-3.1l0,0c0.5-1.2,1.8-1.9,3.1-1.4l0,0c1.2,0.5,1.9,1.8,1.4,3.1l0,0
									c-0.4,1-1.3,1.6-2.2,1.6l0,0C72.2,174.9,71.9,174.9,71.6,174.8z M45.5,170.5c-0.2-1.3,0.7-2.6,2-2.8l0,0l0,0l0,0
									c1.3-0.2,2.5,0.7,2.8,2l0,0c0.2,1.3-0.7,2.5-2,2.8l0,0c-0.1,0-0.3,0-0.4,0l0,0C46.7,172.6,45.7,171.7,45.5,170.5z
									 M60.1,172.1L60.1,172.1c-1.3-0.1-2.3-1.3-2.2-2.6l0,0c0.1-1.3,1.3-2.3,2.6-2.2l0,0c1.3,0.1,2.3,1.3,2.2,2.6l0,0
									c-0.1,1.2-1.2,2.2-2.4,2.2l0,0C60.2,172.1,60.2,172.1,60.1,172.1z"/>
							</g>
						</g>
					</g>
				</g>
				<g>
					<path d="M83.4,197.3L83.4,197.3c-0.7,0-1.4-0.3-1.9-0.9c-6.4-7.8-15.8-12.3-25.9-12.3c-7.4,0-14.4,2.4-20.3,6.9
						c-1,0.7-2.3,0.6-3.2-0.2l-21.9-21.9c-0.5-0.5-0.8-1.2-0.7-1.9c0.1-0.7,0.4-1.3,1-1.8c11.7-8.3,18.6-21.9,18.6-36.2
						c0-18.2-10.9-34.4-27.8-41.2c-0.7-0.3-1.2-0.8-1.4-1.5c-0.2-0.7-0.1-1.4,0.3-2.1l18.9-27.7c0.4-0.5,0.9-0.9,1.6-1
						c0.6-0.1,1.3,0.1,1.8,0.5c4.4,3.3,9.6,5.1,15.2,5.1c13.9,0,25.2-11.3,25.2-25.2c0-1.3,1.1-2.4,2.4-2.4h35.7
						c1.3,0,2.4,1.1,2.4,2.4c0,13.9,11.3,25.2,25.2,25.2c5.6,0,10.8-1.8,15.2-5.1c0.5-0.4,1.2-0.6,1.8-0.5c0.6,0.1,1.2,0.5,1.6,1
						l18.9,27.7c0.4,0.6,0.5,1.4,0.3,2.1c-0.2,0.7-0.7,1.3-1.4,1.5c-16.9,6.8-27.8,23-27.8,41.2c0,14.3,7,27.8,18.6,36.2
						c0.6,0.4,0.9,1.1,1,1.8c0.1,0.7-0.2,1.4-0.7,1.9l-21.9,21.9c-0.9,0.9-2.2,0.9-3.2,0.2c-5.9-4.5-12.9-6.9-20.3-6.9
						c-10.1,0-19.5,4.5-25.9,12.3C84.8,197,84.2,197.3,83.4,197.3z M55.7,179.3c10.6,0,20.5,4.3,27.7,11.9
						c7.2-7.6,17.1-11.9,27.7-11.9c7.8,0,15.1,2.3,21.5,6.6l18.5-18.5c-11.6-9.3-18.4-23.5-18.4-38.4c0-19.2,10.9-36.4,28.1-44.5
						L145,61.3c-4.8,3-10.3,4.6-16,4.6c-15.8,0-28.7-12.2-29.9-27.6H67.9C66.7,53.7,53.7,65.9,38,65.9c-5.8,0-11.3-1.6-16-4.6
						L6,84.6c17.2,8.1,28.1,25.3,28.1,44.5c0,14.9-6.8,29.1-18.4,38.4L34.2,186C40.6,181.6,48,179.3,55.7,179.3z"/>
				</g>
				<g>
					<path d="M83.4,89.8c-6.9,0-12.4-5.6-12.4-12.6c0-6.9,5.6-12.6,12.4-12.6c6.9,0,12.5,5.6,12.5,12.6
						C95.9,84.1,90.3,89.8,83.4,89.8z M83.4,69.4c-4.2,0-7.6,3.5-7.6,7.8c0,4.3,3.4,7.8,7.6,7.8c4.2,0,7.7-3.5,7.7-7.8
						C91.1,72.9,87.7,69.4,83.4,69.4z"/>
				</g>
				<g>
					<path d="M83.4,78.5c-0.2,0-0.4,0-0.6-0.1c-1.3-0.3-2.1-1.6-1.8-2.9c0.2-0.9,5.2-21.3,6.5-25.6c0-0.1,2.7-9.6,3.7-14.5
						C94,21.7,93.5,12.1,90,7.7c-1.5-1.9-3.7-2.9-6.6-2.9c-2.8,0.1-5,1-6.5,2.9c-3.5,4.4-4,14-1.2,27.7c0.3,1.3-0.6,2.6-1.9,2.8
						c-1.3,0.3-2.6-0.6-2.8-1.9c-3.1-15.3-2.3-26,2.2-31.6c2.4-3,5.9-4.6,10.3-4.7c4.5,0.1,7.9,1.7,10.4,4.7
						c4.5,5.6,5.3,16.3,2.2,31.6c-1,5.1-3.6,14.5-3.8,14.9c-1.2,4.1-6.4,25.2-6.4,25.4C85.5,77.7,84.5,78.5,83.4,78.5z"/>
				</g>
			</g>
		</g>
	</g>
	<g id="_x30_8_17_">
	</g>
	<g id="_x30_8_16_">
	</g>
	<g id="_x30_8_15_">
	</g>
	<g id="_x30_8_14_">
	</g>
	<g id="_x30_8_11_">
	</g>
	<g id="_x30_8_10_">
	</g>
	<g id="_x31_6_11_">
	</g>
	<g id="_x31_6_10_">
	</g>
	<g id="_x30_3_17_">
	</g>
	<g id="_x30_3_16_">
	</g>
	<g id="_x30_3_15_">
	</g>
	<g id="_x30_3_14_">
	</g>
	<g id="_x30_3_11_">
	</g>
	<g id="_x30_3_10_">
	</g>
	<g id="_x30_6_17_">
	</g>
	<g id="_x30_6_16_">
	</g>
	<g id="_x30_6_15_">
	</g>
	<g id="_x30_6_14_">
	</g>
	<g id="_x30_6_11_">
	</g>
	<g id="_x30_6_10_">
	</g>
	<g id="_x30_4_17_">
	</g>
	<g id="_x30_4_16_">
	</g>
	<g id="_x30_4_15_">
	</g>
	<g id="_x30_4_14_">
	</g>
	<g id="_x30_4_11_">
	</g>
	<g id="_x30_4_10_">
	</g>
	<g id="_x30_1_15_">
	</g>
	<g id="_x30_1_14_">
	</g>
	<g id="_x30_1_11_">
	</g>
	<g id="_x30_1_10_">
	</g>
	<g id="_x31_0_16_">
	</g>
	<g id="_x31_0_15_">
	</g>
	<g id="_x31_0_12_">
	</g>
	<g id="_x31_0_11_">
	</g>
	<g id="_x31_0_10_">
	</g>
	<g id="_x31_1_15_">
	</g>
	<g id="_x31_1_14_">
	</g>
	<g id="_x31_1_11_">
	</g>
	<g id="_x31_1_10_">
	</g>
	<g id="_x31_2_11_">
	</g>
	<g id="_x31_2_10_">
	</g>
	<g id="_x31_9_11_">
	</g>
	<g id="_x31_9_10_">
	</g>
	<g id="_x31_5_15_">
	</g>
	<g id="_x31_5_14_">
	</g>
	<g id="_x31_5_11_">
	</g>
	<g id="_x31_5_10_">
	</g>
	<g id="_x31_3_11_">
	</g>
	<g id="_x31_3_10_">
	</g>
	<g id="_x30_2_6_">
	</g>
	<g id="_x30_7_6_">
	</g>
	<g id="_x31_4_6_">
	</g>
	<g id="_x31_8_6_">
	</g>
	<g id="_x30_5_6_">
	</g>
	<g id="_x32_0_6_">
	</g>
	<g id="_x31_7_6_">
	</g>
	<g id="_x30_8_6_">
	</g>
	<g id="_x31_6_6_">
	</g>
	<g id="_x30_3_6_">
	</g>
	<g id="_x30_6_6_">
	</g>
	<g id="_x30_4_6_">
	</g>
	<g id="_x30_1_6_">
	</g>
	<g id="_x31_0_6_">
	</g>
	<g id="_x31_1_6_">
	</g>
	<g id="_x31_2_6_">
	</g>
	<g id="_x31_9_6_">
	</g>
	<g id="_x31_5_6_">
	</g>
	<g id="_x31_3_9_">
	</g>
	<g id="_x30_2_3_">
	</g>
	<g id="_x30_7_3_">
	</g>
	<g id="_x31_4_3_">
	</g>
	<g id="_x31_8_3_">
	</g>
	<g id="_x30_5_3_">
	</g>
	<g id="_x32_0_3_">
	</g>
	<g id="_x31_7_3_">
	</g>
	<g id="_x30_8_3_">
	</g>
	<g id="_x31_6_3_">
	</g>
	<g id="_x30_3_3_">
	</g>
	<g id="_x30_6_3_">
	</g>
	<g id="_x30_4_3_">
	</g>
	<g id="_x30_1_3_">
	</g>
	<g id="_x31_0_3_">
	</g>
	<g id="_x31_1_3_">
	</g>
	<g id="_x31_2_3_">
	</g>
	<g id="_x31_9_3_">
	</g>
	<g id="_x31_5_3_">
	</g>
	<g id="_x31_3_3_">
	</g>
	<g id="New_Symbol_16_">
	</g>
	<g id="New_Symbol_15_">
	</g>
	<g id="New_Symbol_14_">
	</g>
	<g id="New_Symbol_13_">
	</g>
	<g id="New_Symbol_10_">
	</g>
	<g id="New_Symbol_9_">
	</g>
	<g id="_x30_2_1_">
	</g>
	<g id="_x30_7_1_">
	</g>
	<g id="_x31_4_1_">
	</g>
	<g id="_x31_8_1_">
	</g>
	<g id="_x30_5_1_">
	</g>
	<g id="_x32_0_1_">
	</g>
	<g id="_x31_7_1_">
	</g>
	<g id="_x30_8_1_">
	</g>
	<g id="_x31_6_1_">
	</g>
	<g id="_x30_3_1_">
	</g>
	<g id="_x30_6_1_">
	</g>
	<g id="_x30_4_1_">
	</g>
	<g id="_x30_1_1_">
	</g>
	<g id="_x31_0_1_">
	</g>
	<g id="_x31_1_1_">
	</g>
	<g id="_x31_2_1_">
	</g>
	<g id="_x31_9_1_">
	</g>
	<g id="_x31_5_1_">
	</g>
	<g id="_x31_3_1_">
	</g>
	<g id="New_Symbol_6_">
	</g>
	<g id="New_Symbol_4_">
	</g>
	<g id="New_Symbol_1_">
	</g>
	<g id="New_Symbol">
	</g>
	<g id="_x30_2">
	</g>
	<g id="_x30_7">
	</g>
	<g id="_x31_4">
	</g>
	<g id="_x31_8">
	</g>
	<g id="_x30_5">
	</g>
	<g id="_x32_0">
	</g>
	<g id="_x31_7">
	</g>
	<g id="_x30_8">
	</g>
	<g id="_x31_6">
	</g>
	<g id="_x30_3">
	</g>
	<g id="_x30_6">
	</g>
	<g id="_x30_4">
	</g>
	<g id="_x30_1">
	</g>
	<g id="_x31_0">
	</g>
	<g id="_x31_1">
	</g>
	<g id="_x31_2">
	</g>
	<g id="_x31_9">
	</g>
	<g id="_x31_5">
	</g>
	<g id="_x31_3">
	</g>
</g>
<g id="Text">
</g>
</svg>
