<?xml version="1.0" encoding="utf-8"?>
<!-- Generator: Adobe Illustrator 21.0.0, SVG Export Plug-In . SVG Version: 6.00 Build 0)  -->
<svg version="1.1" xmlns="http://www.w3.org/2000/svg" xmlns:xlink="http://www.w3.org/1999/xlink" x="0px" y="0px"
	 viewBox="0 0 249.2 231.6" style="enable-background:new 0 0 249.2 231.6;" xml:space="preserve">
<style type="text/css">
	.st0{fill:#FFFFFF;}
	.st1{fill:none;stroke:#000000;stroke-width:4.8;stroke-linecap:round;stroke-linejoin:round;stroke-miterlimit:10;}
	
		.st2{fill:none;stroke:#000000;stroke-width:4.8;stroke-linecap:round;stroke-linejoin:round;stroke-miterlimit:10;stroke-dasharray:2.2222,12.2221;}
	.st3{fill:none;stroke:#000000;stroke-width:4.8;stroke-linecap:round;stroke-linejoin:round;}
	.st4{fill:none;stroke:#000000;stroke-width:4.8;stroke-linecap:round;stroke-linejoin:round;stroke-dasharray:2.3342,12.8383;}
	.st5{fill:none;stroke:#000000;stroke-width:4.8;stroke-linecap:round;stroke-linejoin:round;stroke-dasharray:0,11.7317;}
	.st6{stroke:#000000;stroke-width:4.8;stroke-linecap:round;stroke-linejoin:round;stroke-miterlimit:10;}
	.st7{stroke:#000000;stroke-width:4.8;stroke-miterlimit:10;}
	.st8{fill:none;stroke:#000000;stroke-width:4.8;stroke-linecap:round;stroke-linejoin:round;stroke-dasharray:0,15.9232;}
	.st9{fill:none;stroke:#000000;stroke-width:4.8;stroke-linecap:round;stroke-linejoin:round;stroke-dasharray:0,16.2101;}
	.st10{fill:none;stroke:#000000;stroke-width:4.8;stroke-linecap:round;stroke-linejoin:round;stroke-dasharray:0,16.564;}
	
		.st11{fill:none;stroke:#000000;stroke-width:4.8;stroke-linecap:round;stroke-linejoin:round;stroke-miterlimit:10;stroke-dasharray:1.1111,12.2221;}
</style>
<g id="Background">
</g>
<g id="Elements">
	<g id="_x30_2_15_">
	</g>
	<g id="_x30_2_14_">
	</g>
	<g id="_x30_2_11_">
	</g>
	<g id="_x30_2_10_">
	</g>
	<g id="_x30_7_17_">
	</g>
	<g id="_x30_7_16_">
	</g>
	<g id="_x30_7_15_">
	</g>
	<g id="_x30_7_14_">
	</g>
	<g id="_x30_7_11_">
	</g>
	<g id="_x30_7_10_">
	</g>
	<g id="_x31_4_17_">
	</g>
	<g id="_x31_4_16_">
	</g>
	<g id="_x31_4_15_">
	</g>
	<g id="_x31_4_14_">
	</g>
	<g id="_x31_4_11_">
	</g>
	<g id="_x31_4_10_">
	</g>
	<g id="_x31_8_15_">
	</g>
	<g id="_x31_8_14_">
	</g>
	<g id="_x31_8_11_">
	</g>
	<g id="_x31_8_10_">
	</g>
	<g id="_x30_5_17_">
	</g>
	<g id="_x30_5_16_">
	</g>
	<g id="_x30_5_15_">
	</g>
	<g id="_x30_5_14_">
	</g>
	<g id="_x30_5_11_">
	</g>
	<g id="_x30_5_10_">
	</g>
	<g id="_x32_0_17_">
	</g>
	<g id="_x32_0_16_">
	</g>
	<g id="_x32_0_15_">
	</g>
	<g id="_x32_0_14_">
	</g>
	<g id="_x32_0_11_">
	</g>
	<g id="_x32_0_10_">
	</g>
	<g id="_x31_7_15_">
	</g>
	<g id="_x31_7_14_">
	</g>
	<g id="_x31_7_11_">
	</g>
	<g id="_x31_7_10_">
	</g>
	<g id="_x30_8_17_">
	</g>
	<g id="_x30_8_16_">
	</g>
	<g id="_x30_8_15_">
	</g>
	<g id="_x30_8_14_">
	</g>
	<g id="_x30_8_11_">
	</g>
	<g id="_x30_8_10_">
	</g>
	<g id="_x31_6_11_">
	</g>
	<g id="_x31_6_10_">
	</g>
	<g id="_x30_3_17_">
	</g>
	<g id="_x30_3_16_">
	</g>
	<g id="_x30_3_15_">
	</g>
	<g id="_x30_3_14_">
	</g>
	<g id="_x30_3_11_">
	</g>
	<g id="_x30_3_10_">
	</g>
	<g id="_x30_6_17_">
	</g>
	<g id="_x30_6_16_">
	</g>
	<g id="_x30_6_15_">
	</g>
	<g id="_x30_6_14_">
	</g>
	<g id="_x30_6_11_">
	</g>
	<g id="_x30_6_10_">
	</g>
	<g id="_x30_4_17_">
	</g>
	<g id="_x30_4_16_">
	</g>
	<g id="_x30_4_15_">
	</g>
	<g id="_x30_4_14_">
	</g>
	<g id="_x30_4_11_">
	</g>
	<g id="_x30_4_10_">
	</g>
	<g id="_x30_1_15_">
	</g>
	<g id="_x30_1_14_">
	</g>
	<g id="_x30_1_11_">
	</g>
	<g id="_x30_1_10_">
	</g>
	<g id="_x31_0_16_">
	</g>
	<g id="_x31_0_15_">
	</g>
	<g id="_x31_0_12_">
	</g>
	<g id="_x31_0_11_">
	</g>
	<g id="_x31_0_10_">
	</g>
	<g id="_x31_1_15_">
	</g>
	<g id="_x31_1_14_">
	</g>
	<g id="_x31_1_11_">
	</g>
	<g id="_x31_1_10_">
	</g>
	<g id="_x31_2_11_">
	</g>
	<g id="_x31_2_10_">
	</g>
	<g id="_x31_9_11_">
	</g>
	<g id="_x31_9_10_">
	</g>
	<g id="_x31_5_15_">
	</g>
	<g id="_x31_5_14_">
	</g>
	<g id="_x31_5_11_">
	</g>
	<g id="_x31_5_10_">
	</g>
	<g id="_x31_3_11_">
	</g>
	<g id="_x31_3_10_">
		<g>
			<g>
				<path d="M203.1,32.4h-27.8c-1.3,0-2.4-1.1-2.4-2.4s1.1-2.4,2.4-2.4h27.8c1.3,0,2.4,1.1,2.4,2.4S204.5,32.4,203.1,32.4z"/>
			</g>
			<g>
				<path d="M203.1,32.4h-27.8c-1.3,0-2.4-1.1-2.4-2.4s1.1-2.4,2.4-2.4h27.8c1.3,0,2.4,1.1,2.4,2.4S204.5,32.4,203.1,32.4z"/>
			</g>
			<g>
				<path d="M223,212.7h-85.5c-1.3,0-2.4-1.1-2.4-2.4s1.1-2.4,2.4-2.4h83.1V100c0-1.3,1.1-2.4,2.4-2.4s2.4,1.1,2.4,2.4v110.4
					C225.4,211.7,224.3,212.7,223,212.7z"/>
			</g>
			<g>
				<path d="M223,102.4h-19.8c-1.3,0-2.4-1.1-2.4-2.4V30c0-1.3,1.1-2.4,2.4-2.4s2.4,1.1,2.4,2.4v67.6H223c1.3,0,2.4,1.1,2.4,2.4
					S224.3,102.4,223,102.4z"/>
			</g>
			<g>
				<path d="M137.5,91.4c-0.9,0-1.8-0.5-2.2-1.4c-0.5-1.2,0-2.6,1.2-3.2c22.3-10,36.7-32.3,36.7-56.7c0-1.3,1.1-2.4,2.4-2.4
					s2.4,1.1,2.4,2.4v0c0,26.3-15.5,50.3-39.6,61.1C138.2,91.3,137.8,91.4,137.5,91.4z"/>
			</g>
			<g>
				<path d="M137.5,62.9c-1.2,0-2.2-0.9-2.4-2.1c-0.2-1.3,0.7-2.5,2-2.7c16.4-2.4,30.1-13.5,35.9-29c0.5-1.2,1.8-1.9,3.1-1.4
					c1.2,0.5,1.9,1.8,1.4,3.1C171.2,48,156,60.3,137.8,62.9C137.7,62.9,137.6,62.9,137.5,62.9z"/>
			</g>
			<g>
				<path d="M137.5,231.6c-1.3,0-2.4-1.1-2.4-2.4v-8.7c0-1.3,1.1-2.4,2.4-2.4s2.4,1.1,2.4,2.4v8.7
					C139.9,230.5,138.8,231.6,137.5,231.6z M137.5,212.2c-1.3,0-2.4-1.1-2.4-2.4v-8.7c0-1.3,1.1-2.4,2.4-2.4s2.4,1.1,2.4,2.4v8.7
					C139.9,211.2,138.8,212.2,137.5,212.2z M137.5,192.9c-1.3,0-2.4-1.1-2.4-2.4v-8.7c0-1.3,1.1-2.4,2.4-2.4s2.4,1.1,2.4,2.4v8.7
					C139.9,191.8,138.8,192.9,137.5,192.9z M137.5,173.6c-1.3,0-2.4-1.1-2.4-2.4v-8.7c0-1.3,1.1-2.4,2.4-2.4s2.4,1.1,2.4,2.4v8.7
					C139.9,172.5,138.8,173.6,137.5,173.6z M137.5,154.2c-1.3,0-2.4-1.1-2.4-2.4v-8.7c0-1.3,1.1-2.4,2.4-2.4s2.4,1.1,2.4,2.4v8.7
					C139.9,153.2,138.8,154.2,137.5,154.2z M137.5,134.9c-1.3,0-2.4-1.1-2.4-2.4v-8.7c0-1.3,1.1-2.4,2.4-2.4s2.4,1.1,2.4,2.4v8.7
					C139.9,133.8,138.8,134.9,137.5,134.9z M137.5,115.6c-1.3,0-2.4-1.1-2.4-2.4v-8.7c0-1.3,1.1-2.4,2.4-2.4s2.4,1.1,2.4,2.4v8.7
					C139.9,114.5,138.8,115.6,137.5,115.6z M137.5,96.2c-1.3,0-2.4-1.1-2.4-2.4v-8.7c0-1.3,1.1-2.4,2.4-2.4s2.4,1.1,2.4,2.4v8.7
					C139.9,95.2,138.8,96.2,137.5,96.2z M137.5,76.9c-1.3,0-2.4-1.1-2.4-2.4v-8.7c0-1.3,1.1-2.4,2.4-2.4s2.4,1.1,2.4,2.4v8.7
					C139.9,75.8,138.8,76.9,137.5,76.9z"/>
			</g>
			<g>
				<path d="M210.4,231.6h-72.9c-1.3,0-2.4-1.1-2.4-2.4s1.1-2.4,2.4-2.4H208v-16.4c0-1.3,1.1-2.4,2.4-2.4s2.4,1.1,2.4,2.4v18.8
					C212.8,230.5,211.7,231.6,210.4,231.6z"/>
			</g>
			<g>
				<path d="M54.1,212.7c-1,0-2-0.7-2.3-1.7l-30.1-98.5c-0.2-0.3-0.2-0.6-0.3-1l0-0.1c0-1.2,0.8-2.2,2-2.4c0.4-0.1,0.8,0,1.2,0.1
					c20.3-0.4,24-15.9,28.3-33.8c5.4-22.4,11.6-47.8,51.5-47.8c1.3,0,2.4,1.1,2.4,2.4s-1.1,2.4-2.4,2.4c-36.2,0-41.6,22.4-46.8,44.1
					C53.3,94,49,112.1,27,113.8l29.3,95.9c0.4,1.3-0.3,2.6-1.6,3C54.5,212.7,54.3,212.7,54.1,212.7z"/>
			</g>
			<g>
				<path d="M104.5,32.3c-1.3,0-2.4-1-2.4-2.4v-0.1c0-1.3,1.1-2.4,2.4-2.4s2.4,1.1,2.4,2.4S105.8,32.3,104.5,32.3z"/>
			</g>
			<g>
				<path d="M104.5,231.6c-1.3,0-2.4-1.1-2.4-2.4v-8.7c0-1.3,1.1-2.4,2.4-2.4s2.4,1.1,2.4,2.4v8.7
					C106.9,230.5,105.8,231.6,104.5,231.6z M104.5,212.2c-1.3,0-2.4-1.1-2.4-2.4v-8.7c0-1.3,1.1-2.4,2.4-2.4s2.4,1.1,2.4,2.4v8.7
					C106.9,211.2,105.8,212.2,104.5,212.2z M104.5,192.9c-1.3,0-2.4-1.1-2.4-2.4v-8.7c0-1.3,1.1-2.4,2.4-2.4s2.4,1.1,2.4,2.4v8.7
					C106.9,191.8,105.8,192.9,104.5,192.9z M104.5,173.6c-1.3,0-2.4-1.1-2.4-2.4v-8.7c0-1.3,1.1-2.4,2.4-2.4s2.4,1.1,2.4,2.4v8.7
					C106.9,172.5,105.8,173.6,104.5,173.6z M104.5,154.2c-1.3,0-2.4-1.1-2.4-2.4v-8.7c0-1.3,1.1-2.4,2.4-2.4s2.4,1.1,2.4,2.4v8.7
					C106.9,153.2,105.8,154.2,104.5,154.2z M104.5,134.9c-1.3,0-2.4-1.1-2.4-2.4v-8.7c0-1.3,1.1-2.4,2.4-2.4s2.4,1.1,2.4,2.4v8.7
					C106.9,133.8,105.8,134.9,104.5,134.9z M104.5,115.6c-1.3,0-2.4-1.1-2.4-2.4v-8.7c0-1.3,1.1-2.4,2.4-2.4s2.4,1.1,2.4,2.4v8.7
					C106.9,114.5,105.8,115.6,104.5,115.6z M104.5,96.2c-1.3,0-2.4-1.1-2.4-2.4v-8.7c0-1.3,1.1-2.4,2.4-2.4s2.4,1.1,2.4,2.4v8.7
					C106.9,95.2,105.8,96.2,104.5,96.2z M104.5,76.9c-1.3,0-2.4-1.1-2.4-2.4v-8.7c0-1.3,1.1-2.4,2.4-2.4s2.4,1.1,2.4,2.4v8.7
					C106.9,75.8,105.8,76.9,104.5,76.9z M104.5,57.6c-1.3,0-2.4-1.1-2.4-2.4v-8.7c0-1.3,1.1-2.4,2.4-2.4s2.4,1.1,2.4,2.4v8.7
					C106.9,56.5,105.8,57.6,104.5,57.6z M104.5,38.2c-1.3,0-2.4-1.1-2.4-2.4V30c0-1.3,1.1-2.4,2.4-2.4s2.4,1.1,2.4,2.4v5.9
					C106.9,37.2,105.8,38.2,104.5,38.2z"/>
			</g>
			<g>
				<path d="M104.5,231.6H54.1c-1.3,0-2.4-1.1-2.4-2.4v-18.8c0-1.3,1.1-2.4,2.4-2.4h50.4c1.3,0,2.4,1.1,2.4,2.4s-1.1,2.4-2.4,2.4
					h-48v14h48c1.3,0,2.4,1.1,2.4,2.4S105.8,231.6,104.5,231.6z"/>
			</g>
			<g>
				<path d="M104.5,212.7H54.1c-1.3,0-2.4-1.1-2.4-2.4s1.1-2.4,2.4-2.4h50.4c1.3,0,2.4,1.1,2.4,2.4S105.8,212.7,104.5,212.7z"/>
			</g>
			<g>
				<path d="M199.5,231.6c-1.3,0-2.4-1.1-2.4-2.4v-18.8c0-1.3,1.1-2.4,2.4-2.4s2.4,1.1,2.4,2.4v18.8
					C201.9,230.5,200.8,231.6,199.5,231.6z"/>
			</g>
			<g>
				<path d="M186.8,231.6c-1.3,0-2.4-1.1-2.4-2.4v-18.8c0-1.3,1.1-2.4,2.4-2.4s2.4,1.1,2.4,2.4v18.8
					C189.2,230.5,188.2,231.6,186.8,231.6z"/>
			</g>
			<g>
				<path d="M174.2,231.6c-1.3,0-2.4-1.1-2.4-2.4v-18.8c0-1.3,1.1-2.4,2.4-2.4s2.4,1.1,2.4,2.4v18.8
					C176.6,230.5,175.5,231.6,174.2,231.6z"/>
			</g>
			<g>
				<path d="M161.5,231.6c-1.3,0-2.4-1.1-2.4-2.4v-18.8c0-1.3,1.1-2.4,2.4-2.4s2.4,1.1,2.4,2.4v18.8
					C163.9,230.5,162.8,231.6,161.5,231.6z"/>
			</g>
			<g>
				<path d="M148.8,231.6c-1.3,0-2.4-1.1-2.4-2.4v-18.8c0-1.3,1.1-2.4,2.4-2.4s2.4,1.1,2.4,2.4v18.8
					C151.2,230.5,150.1,231.6,148.8,231.6z"/>
			</g>
			<g>
				<path d="M92.7,231.6c-1.3,0-2.4-1.1-2.4-2.4v-18.8c0-1.3,1.1-2.4,2.4-2.4s2.4,1.1,2.4,2.4v18.8C95.1,230.5,94,231.6,92.7,231.6z
					"/>
			</g>
			<g>
				<path d="M79.3,231.6c-1.3,0-2.4-1.1-2.4-2.4v-18.8c0-1.3,1.1-2.4,2.4-2.4s2.4,1.1,2.4,2.4v18.8
					C81.7,230.5,80.6,231.6,79.3,231.6z"/>
			</g>
			<g>
				<path d="M65.8,231.6c-1.3,0-2.4-1.1-2.4-2.4v-18.8c0-1.3,1.1-2.4,2.4-2.4s2.4,1.1,2.4,2.4v18.8
					C68.2,230.5,67.2,231.6,65.8,231.6z"/>
			</g>
			<g>
				<path d="M246.8,43.4c-0.8,0-1.6-0.4-2.1-1.2l-4.4-7.6l-4.4,7.6c-0.7,1.1-2.1,1.5-3.3,0.9c-1.1-0.7-1.5-2.1-0.9-3.3l6.5-11.1
					c0.4-0.7,1.2-1.2,2.1-1.2c0.9,0,1.6,0.5,2.1,1.2l6.5,11.1c0.7,1.1,0.3,2.6-0.9,3.3C247.7,43.3,247.3,43.4,246.8,43.4z"/>
			</g>
			<g>
				<path d="M2.4,43.4c-0.4,0-0.8-0.1-1.2-0.3C0,42.4-0.3,41,0.3,39.8l6.5-11.1C7.3,28,8,27.5,8.9,27.5c0,0,0,0,0,0
					c0.9,0,1.6,0.5,2.1,1.2l6.5,11.1c0.7,1.1,0.3,2.6-0.9,3.3c-1.1,0.7-2.6,0.3-3.3-0.9l-4.4-7.6l-4.4,7.6C4,43,3.2,43.4,2.4,43.4z"
					/>
			</g>
			<g>
				<path d="M240.3,231.6C240.3,231.6,240.3,231.6,240.3,231.6c-0.9,0-1.6-0.5-2.1-1.2l-6.5-11.1c-0.7-1.1-0.3-2.6,0.9-3.3
					s2.6-0.3,3.3,0.9l4.4,7.6l4.4-7.6c0.7-1.1,2.1-1.5,3.3-0.9c1.1,0.7,1.5,2.1,0.9,3.3l-6.5,11.1
					C242,231.1,241.2,231.6,240.3,231.6z"/>
			</g>
			<g>
				<path d="M8.9,231.6c-0.9,0-1.6-0.5-2.1-1.2l-6.5-11.1c-0.7-1.1-0.3-2.6,0.9-3.3c1.1-0.7,2.6-0.3,3.3,0.9l4.4,7.6l4.4-7.6
					c0.7-1.1,2.1-1.5,3.3-0.9c1.1,0.7,1.5,2.1,0.9,3.3L11,230.4C10.5,231.1,9.7,231.6,8.9,231.6L8.9,231.6z"/>
			</g>
			<g>
				<path d="M240.3,231.6c-1.3,0-2.4-1.1-2.4-2.4V29.9c0-1.3,1.1-2.4,2.4-2.4s2.4,1.1,2.4,2.4v199.3
					C242.7,230.5,241.7,231.6,240.3,231.6z"/>
			</g>
			<g>
				<g>
					<path d="M148.6,17.8c-0.4,0-0.8-0.1-1.2-0.3L136.3,11c-0.7-0.4-1.2-1.2-1.2-2.1s0.5-1.6,1.2-2.1l11.1-6.5
						c1.1-0.7,2.6-0.3,3.3,0.9s0.3,2.6-0.9,3.3l-7.6,4.4l7.6,4.4c1.1,0.7,1.5,2.1,0.9,3.3C150.2,17.4,149.4,17.8,148.6,17.8z"/>
				</g>
				<g>
					<path d="M211.9,17.8c-0.8,0-1.6-0.4-2.1-1.2c-0.7-1.1-0.3-2.6,0.9-3.3l7.6-4.4l-7.6-4.4c-1.1-0.7-1.5-2.1-0.9-3.3
						s2.1-1.5,3.3-0.9l11.1,6.5c0.7,0.4,1.2,1.2,1.2,2.1s-0.5,1.6-1.2,2.1l-11.1,6.5C212.7,17.7,212.3,17.8,211.9,17.8z"/>
				</g>
				<g>
					<path d="M223,11.3h-85.5c-1.3,0-2.4-1.1-2.4-2.4s1.1-2.4,2.4-2.4H223c1.3,0,2.4,1.1,2.4,2.4S224.3,11.3,223,11.3z"/>
				</g>
			</g>
			<g>
				<g>
					<path d="M34.9,17.8c-0.4,0-0.8-0.1-1.2-0.3L22.6,11c-0.7-0.4-1.2-1.2-1.2-2.1s0.5-1.6,1.2-2.1l11.1-6.5C34.9-0.3,36.3,0,37,1.2
						s0.3,2.6-0.9,3.3l-7.6,4.4l7.6,4.4c1.1,0.7,1.5,2.1,0.9,3.3C36.5,17.4,35.7,17.8,34.9,17.8z"/>
				</g>
				<g>
					<path d="M93.3,17.8c-0.8,0-1.6-0.4-2.1-1.2c-0.7-1.1-0.3-2.6,0.9-3.3l7.6-4.4l-7.6-4.4c-1.1-0.7-1.5-2.1-0.9-3.3
						c0.7-1.1,2.1-1.5,3.3-0.9l11.1,6.5c0.7,0.4,1.2,1.2,1.2,2.1s-0.5,1.6-1.2,2.1l-11.1,6.5C94.2,17.7,93.8,17.8,93.3,17.8z"/>
				</g>
				<g>
					<path d="M104.5,11.3H23.8c-1.3,0-2.4-1.1-2.4-2.4s1.1-2.4,2.4-2.4h80.7c1.3,0,2.4,1.1,2.4,2.4S105.8,11.3,104.5,11.3z"/>
				</g>
			</g>
			<g>
				<path d="M8.9,231.6c-1.3,0-2.4-1.1-2.4-2.4V29.9c0-1.3,1.1-2.4,2.4-2.4s2.4,1.1,2.4,2.4v199.3C11.3,230.5,10.2,231.6,8.9,231.6z
					"/>
			</g>
			<g>
				<g>
					<path d="M157.6,127.4c-1.3,0-2.3-0.4-2.3-1.6c0-1,0.5-1.6,1.7-1.8c3-0.5,4.4-1.5,5.3-3.3c1-1.8,1.2-2,2.6-2
						c0.9,0,1.7,0.6,1.7,2.1v24.4c0,1.7-1.2,2.7-2.7,2.7c-1.4,0-2.6-1.1-2.6-2.7v-17.8H157.6z"/>
				</g>
				<g>
					<path d="M178.3,119.9c0.4-1,1.2-1.7,2.2-1.7c1,0,1.9,0.6,1.9,1.4c0,0.5-0.1,1-0.2,1.4l-9.1,25.3c-0.4,1-1.2,1.7-2.2,1.7
						c-1,0-1.9-0.6-1.9-1.4c0-0.5,0.1-1,0.2-1.4L178.3,119.9z"/>
				</g>
				<g>
					<path d="M186,147.4c-1.6,0-2.3-0.7-2.3-2.3c0-2.1,1-6.1,5.3-10.5l1.9-1.9c2.8-2.8,3.4-4.2,3.4-6.3c0-2.1-0.9-3.6-2.6-3.6
						c-2,0-2.6,1.5-2.8,3.9c-0.1,1.6-1.2,2.3-2.4,2.3c-2,0-2.4-1.6-2.4-2.9c0-4.2,2.8-7.2,7.4-7.2c5.3,0,8.2,2.6,8.2,7.6
						c0,2.6-1.1,5.3-3.5,7.6l-3.3,3.3c-2.1,2.1-3.2,3.7-3.6,5.4h7.8c1.8,0,2.8,0.5,2.8,2.3c0,1.7-1.1,2.3-2.8,2.3H186z"/>
				</g>
			</g>
			<g>
				<g>
					<path d="M49.8,127.4c-1.3,0-2.3-0.4-2.3-1.6c0-1,0.5-1.6,1.7-1.8c3-0.5,4.4-1.5,5.3-3.3c0.9-1.8,1.2-2,2.6-2
						c0.9,0,1.7,0.6,1.7,2.1v24.4c0,1.7-1.2,2.7-2.7,2.7c-1.4,0-2.7-1.1-2.7-2.7v-17.8H49.8z"/>
				</g>
				<g>
					<path d="M70.5,119.9c0.4-1,1.2-1.7,2.2-1.7c1,0,1.9,0.6,1.9,1.4c0,0.5-0.1,1-0.2,1.4l-9.1,25.3c-0.4,1-1.2,1.7-2.2,1.7
						c-1,0-1.9-0.6-1.9-1.4c0-0.5,0.1-1,0.2-1.4L70.5,119.9z"/>
				</g>
				<g>
					<path d="M78.2,147.4c-1.6,0-2.3-0.7-2.3-2.3c0-2.1,1-6.1,5.3-10.5l1.9-1.9c2.8-2.8,3.4-4.2,3.4-6.3c0-2.1-0.9-3.6-2.7-3.6
						c-2,0-2.6,1.5-2.8,3.9c-0.1,1.6-1.2,2.3-2.4,2.3c-2,0-2.4-1.6-2.4-2.9c0-4.2,2.8-7.2,7.4-7.2c5.3,0,8.1,2.6,8.1,7.6
						c0,2.6-1.1,5.3-3.5,7.6l-3.3,3.3c-2.1,2.1-3.2,3.7-3.6,5.4h7.8c1.8,0,2.8,0.5,2.8,2.3c0,1.7-1.1,2.3-2.8,2.3H78.2z"/>
				</g>
			</g>
		</g>
	</g>
	<g id="_x30_2_6_">
	</g>
	<g id="_x30_7_6_">
	</g>
	<g id="_x31_4_6_">
	</g>
	<g id="_x31_8_6_">
	</g>
	<g id="_x30_5_6_">
	</g>
	<g id="_x32_0_6_">
	</g>
	<g id="_x31_7_6_">
	</g>
	<g id="_x30_8_6_">
	</g>
	<g id="_x31_6_6_">
	</g>
	<g id="_x30_3_6_">
	</g>
	<g id="_x30_6_6_">
	</g>
	<g id="_x30_4_6_">
	</g>
	<g id="_x30_1_6_">
	</g>
	<g id="_x31_0_6_">
	</g>
	<g id="_x31_1_6_">
	</g>
	<g id="_x31_2_6_">
	</g>
	<g id="_x31_9_6_">
	</g>
	<g id="_x31_5_6_">
	</g>
	<g id="_x31_3_9_">
	</g>
	<g id="_x30_2_3_">
	</g>
	<g id="_x30_7_3_">
	</g>
	<g id="_x31_4_3_">
	</g>
	<g id="_x31_8_3_">
	</g>
	<g id="_x30_5_3_">
	</g>
	<g id="_x32_0_3_">
	</g>
	<g id="_x31_7_3_">
	</g>
	<g id="_x30_8_3_">
	</g>
	<g id="_x31_6_3_">
	</g>
	<g id="_x30_3_3_">
	</g>
	<g id="_x30_6_3_">
	</g>
	<g id="_x30_4_3_">
	</g>
	<g id="_x30_1_3_">
	</g>
	<g id="_x31_0_3_">
	</g>
	<g id="_x31_1_3_">
	</g>
	<g id="_x31_2_3_">
	</g>
	<g id="_x31_9_3_">
	</g>
	<g id="_x31_5_3_">
	</g>
	<g id="_x31_3_3_">
	</g>
	<g id="New_Symbol_16_">
	</g>
	<g id="New_Symbol_15_">
	</g>
	<g id="New_Symbol_14_">
	</g>
	<g id="New_Symbol_13_">
	</g>
	<g id="New_Symbol_10_">
	</g>
	<g id="New_Symbol_9_">
	</g>
	<g id="_x30_2_1_">
	</g>
	<g id="_x30_7_1_">
	</g>
	<g id="_x31_4_1_">
	</g>
	<g id="_x31_8_1_">
	</g>
	<g id="_x30_5_1_">
	</g>
	<g id="_x32_0_1_">
	</g>
	<g id="_x31_7_1_">
	</g>
	<g id="_x30_8_1_">
	</g>
	<g id="_x31_6_1_">
	</g>
	<g id="_x30_3_1_">
	</g>
	<g id="_x30_6_1_">
	</g>
	<g id="_x30_4_1_">
	</g>
	<g id="_x30_1_1_">
	</g>
	<g id="_x31_0_1_">
	</g>
	<g id="_x31_1_1_">
	</g>
	<g id="_x31_2_1_">
	</g>
	<g id="_x31_9_1_">
	</g>
	<g id="_x31_5_1_">
	</g>
	<g id="_x31_3_1_">
	</g>
	<g id="New_Symbol_6_">
	</g>
	<g id="New_Symbol_4_">
	</g>
	<g id="New_Symbol_1_">
	</g>
	<g id="New_Symbol">
	</g>
	<g id="_x30_2">
	</g>
	<g id="_x30_7">
	</g>
	<g id="_x31_4">
	</g>
	<g id="_x31_8">
	</g>
	<g id="_x30_5">
	</g>
	<g id="_x32_0">
	</g>
	<g id="_x31_7">
	</g>
	<g id="_x30_8">
	</g>
	<g id="_x31_6">
	</g>
	<g id="_x30_3">
	</g>
	<g id="_x30_6">
	</g>
	<g id="_x30_4">
	</g>
	<g id="_x30_1">
	</g>
	<g id="_x31_0">
	</g>
	<g id="_x31_1">
	</g>
	<g id="_x31_2">
	</g>
	<g id="_x31_9">
	</g>
	<g id="_x31_5">
	</g>
	<g id="_x31_3">
	</g>
</g>
<g id="Text">
</g>
</svg>
