<?xml version="1.0" encoding="utf-8"?>
<!-- Generator: Adobe Illustrator 21.0.0, SVG Export Plug-In . SVG Version: 6.00 Build 0)  -->
<svg version="1.1" xmlns="http://www.w3.org/2000/svg" xmlns:xlink="http://www.w3.org/1999/xlink" x="0px" y="0px"
	 viewBox="0 0 249.2 184.8" style="enable-background:new 0 0 249.2 184.8;" xml:space="preserve">
<style type="text/css">
	.st0{fill:#FFFFFF;}
	.st1{fill:none;stroke:#000000;stroke-width:4.8;stroke-linecap:round;stroke-linejoin:round;stroke-miterlimit:10;}
	
		.st2{fill:none;stroke:#000000;stroke-width:4.8;stroke-linecap:round;stroke-linejoin:round;stroke-miterlimit:10;stroke-dasharray:2.2222,12.2221;}
	.st3{fill:none;stroke:#000000;stroke-width:4.8;stroke-linecap:round;stroke-linejoin:round;}
	.st4{fill:none;stroke:#000000;stroke-width:4.8;stroke-linecap:round;stroke-linejoin:round;stroke-dasharray:2.3342,12.8383;}
	.st5{fill:none;stroke:#000000;stroke-width:4.8;stroke-linecap:round;stroke-linejoin:round;stroke-dasharray:0,11.7317;}
	.st6{stroke:#000000;stroke-width:4.8;stroke-linecap:round;stroke-linejoin:round;stroke-miterlimit:10;}
	.st7{stroke:#000000;stroke-width:4.8;stroke-miterlimit:10;}
	.st8{fill:none;stroke:#000000;stroke-width:4.8;stroke-linecap:round;stroke-linejoin:round;stroke-dasharray:0,15.9232;}
	.st9{fill:none;stroke:#000000;stroke-width:4.8;stroke-linecap:round;stroke-linejoin:round;stroke-dasharray:0,16.2101;}
	.st10{fill:none;stroke:#000000;stroke-width:4.8;stroke-linecap:round;stroke-linejoin:round;stroke-dasharray:0,16.564;}
	
		.st11{fill:none;stroke:#000000;stroke-width:4.8;stroke-linecap:round;stroke-linejoin:round;stroke-miterlimit:10;stroke-dasharray:1.1111,12.2221;}
</style>
<g id="Background">
</g>
<g id="Elements">
	<g id="_x30_2_15_">
	</g>
	<g id="_x30_2_14_">
	</g>
	<g id="_x30_2_11_">
	</g>
	<g id="_x30_2_10_">
	</g>
	<g id="_x30_7_17_">
	</g>
	<g id="_x30_7_16_">
	</g>
	<g id="_x30_7_15_">
	</g>
	<g id="_x30_7_14_">
	</g>
	<g id="_x30_7_11_">
	</g>
	<g id="_x30_7_10_">
	</g>
	<g id="_x31_4_17_">
	</g>
	<g id="_x31_4_16_">
	</g>
	<g id="_x31_4_15_">
	</g>
	<g id="_x31_4_14_">
	</g>
	<g id="_x31_4_11_">
	</g>
	<g id="_x31_4_10_">
	</g>
	<g id="_x31_8_15_">
	</g>
	<g id="_x31_8_14_">
	</g>
	<g id="_x31_8_11_">
	</g>
	<g id="_x31_8_10_">
	</g>
	<g id="_x30_5_17_">
	</g>
	<g id="_x30_5_16_">
	</g>
	<g id="_x30_5_15_">
	</g>
	<g id="_x30_5_14_">
	</g>
	<g id="_x30_5_11_">
	</g>
	<g id="_x30_5_10_">
	</g>
	<g id="_x32_0_17_">
	</g>
	<g id="_x32_0_16_">
	</g>
	<g id="_x32_0_15_">
	</g>
	<g id="_x32_0_14_">
	</g>
	<g id="_x32_0_11_">
	</g>
	<g id="_x32_0_10_">
	</g>
	<g id="_x31_7_15_">
	</g>
	<g id="_x31_7_14_">
	</g>
	<g id="_x31_7_11_">
	</g>
	<g id="_x31_7_10_">
	</g>
	<g id="_x30_8_17_">
	</g>
	<g id="_x30_8_16_">
	</g>
	<g id="_x30_8_15_">
	</g>
	<g id="_x30_8_14_">
	</g>
	<g id="_x30_8_11_">
	</g>
	<g id="_x30_8_10_">
	</g>
	<g id="_x31_6_11_">
	</g>
	<g id="_x31_6_10_">
		<g>
			<g>
				<g>
					<path d="M197.7,128.6c0-0.8,0.3-1.5,1-1.9l4.6-2.8c0.3-0.2,0.6-0.2,1-0.2c0.6,0,1.2,0.2,1.7,0.5c0.5,0.3,0.8,0.7,0.8,1.2v22.3
						c0,0.5-0.3,1-0.8,1.2c-0.5,0.3-1.2,0.4-1.9,0.4c-0.7,0-1.4-0.1-1.9-0.4c-0.5-0.3-0.8-0.7-0.8-1.2v-17.9l-1,0.6
						c-0.3,0.2-0.6,0.3-0.9,0.3c-0.5,0-0.9-0.2-1.2-0.7C197.9,129.6,197.7,129.1,197.7,128.6z"/>
				</g>
			</g>
			<g>
				<g>
					<path d="M156.5,159.1v-3.1c0-0.9,0.3-1.8,1-2.8c0.7-0.9,1.5-1.8,2.5-2.5l2.9-2.2c1-0.7,1.9-1.5,2.6-2.3
						c0.7-0.8,1.1-1.6,1.1-2.3c0-0.6-0.2-1.1-0.6-1.6c-0.4-0.5-1-0.7-1.9-0.7c-0.7,0-1.3,0.2-1.8,0.6c-0.5,0.4-0.7,1-0.7,1.9
						c0,0.5-0.2,1-0.7,1.3c-0.5,0.4-1.1,0.6-1.9,0.6c-1.5,0-2.2-0.9-2.2-2.6c0-1.9,0.7-3.3,2.2-4.5c1.4-1.1,3.1-1.7,5.1-1.7
						c2,0,3.7,0.6,5.2,1.8c1.5,1.2,2.3,2.7,2.3,4.7c0,1.3-0.3,2.5-1,3.7c-0.7,1.1-1.5,2.1-2.5,2.9c-1,0.8-1.9,1.5-2.9,2.1
						c-1,0.6-1.8,1.3-2.5,1.9c-0.7,0.6-1,1.2-1,1.7v0.3h8.4c0.4,0,0.8,0.2,1.1,0.6c0.3,0.4,0.5,0.9,0.5,1.5c0,0.6-0.1,1.1-0.4,1.5
						c-0.3,0.4-0.7,0.7-1.1,0.7h-11.4c-0.5,0-1-0.1-1.5-0.5C156.7,159.9,156.5,159.5,156.5,159.1z"/>
				</g>
			</g>
			<g>
				<g>
					<path d="M110.6,159.2c0-0.7,0.2-1.3,0.5-1.5c0.4-0.3,1-0.4,2-0.4c1.1,0,1.8,0.1,2.2,0.4c0.4,0.3,0.6,0.7,0.6,1.4c0,1.3,1,2,3,2
						c1.1,0,1.9-0.2,2.4-0.7c0.5-0.5,0.7-1.2,0.7-2.4v-0.6c0-1.1-0.3-1.8-0.8-2.2c-0.6-0.4-1.4-0.6-2.4-0.6c-1,0-1.5-0.7-1.5-2
						c0-1.4,0.5-2,1.5-2c0.4,0,0.7,0,1-0.1c0.3-0.1,0.5-0.2,0.8-0.3c0.3-0.2,0.5-0.5,0.6-0.9c0.1-0.4,0.2-0.9,0.2-1.6
						c0-1.6-0.8-2.4-2.5-2.4c-0.9,0-1.5,0.1-1.9,0.4c-0.4,0.3-0.6,0.7-0.6,1.3c0,0.6-0.2,1.1-0.5,1.4c-0.4,0.3-1,0.5-1.9,0.5
						c-1.2,0-1.9-0.1-2.3-0.4c-0.3-0.3-0.5-0.9-0.5-1.7c0-1.6,0.6-3,1.9-4.2c1.3-1.2,3.2-1.8,5.9-1.8c5.1,0,7.6,2.1,7.6,6.2
						c0,1.3-0.2,2.4-0.7,3.4c-0.5,1-1.1,1.7-1.9,2.1c2.3,0.9,3.4,2.5,3.4,5v0.6c0,2.6-0.8,4.6-2.4,5.8c-1.6,1.2-3.6,1.9-6.2,1.9
						c-2.7,0-4.7-0.7-6-2C111.3,162.4,110.6,160.9,110.6,159.2z"/>
				</g>
			</g>
			<g>
				<g>
					<path d="M66,153.5c0-0.3,0.1-0.7,0.3-1l7.7-15c0.5-0.9,1.2-1.3,2.2-1.3c0.5,0,1.1,0.2,1.7,0.6c0.6,0.4,0.9,0.8,0.9,1.4
						c0,0.2-0.1,0.4-0.2,0.6l-5.9,11.9h2.9v-2.5c0-0.5,0.3-1,0.8-1.2c0.5-0.3,1.1-0.4,1.8-0.4c0.7,0,1.3,0.1,1.8,0.4
						c0.5,0.3,0.8,0.7,0.8,1.2v2.5h1.4c0.5,0,0.9,0.2,1.2,0.7c0.3,0.5,0.4,1,0.4,1.6c0,0.6-0.2,1.1-0.5,1.6
						c-0.3,0.5-0.7,0.7-1.1,0.7h-1.4v3.7c0,0.5-0.3,1-0.8,1.2c-0.5,0.3-1.1,0.4-1.8,0.4c-0.7,0-1.3-0.1-1.8-0.4
						c-0.5-0.3-0.8-0.7-0.8-1.2v-3.7h-7.8c-0.5,0-0.9-0.2-1.3-0.5C66.2,154.5,66,154,66,153.5z"/>
				</g>
			</g>
			<g>
				<g>
					<path d="M33.3,140.9c0-0.8,0.2-1.3,0.6-1.6c0.4-0.3,1-0.4,1.7-0.4c0.9,0,1.5,0.1,1.8,0.4c0.3,0.3,0.5,0.7,0.5,1.3
						c0,0.6,0.2,1,0.7,1.3c0.5,0.3,1.1,0.5,1.8,0.5c1.8,0,2.7-0.9,2.7-2.8V139c0-1-0.2-1.7-0.7-2.2c-0.5-0.5-1.1-0.7-1.9-0.7H36
						c-0.6,0-1.1-0.1-1.4-0.5c-0.3-0.3-0.4-0.7-0.4-1.3c0-0.1,0-0.4,0.1-0.9l0.8-7.4c0.1-0.9,0.4-1.4,0.8-1.4h9.3
						c0.4,0,0.7,0.2,1,0.6c0.2,0.4,0.4,0.9,0.4,1.4c0,0.5-0.1,1-0.4,1.4c-0.2,0.4-0.6,0.6-1,0.6h-6.4l-0.3,3.9h1.9
						c2.2,0,3.9,0.5,5.2,1.5c1.3,1,1.9,2.6,1.9,4.9v0.6c0,2.3-0.7,4-2,5.1c-1.3,1.1-3,1.6-5.2,1.6c-2.2,0-4-0.5-5.3-1.6
						C33.9,143.7,33.3,142.4,33.3,140.9z"/>
				</g>
			</g>
			<g>
				<path d="M2.4,128.4c-1.3,0-2.4-1.1-2.4-2.4V69c0-1.3,1.1-2.4,2.4-2.4s2.4,1.1,2.4,2.4v57C4.8,127.3,3.7,128.4,2.4,128.4z"/>
			</g>
			<g>
				<path d="M110.1,184.8c-18,0-45.6-3.5-69.4-13.3C14.1,160.6,0,144.8,0,125.9c0-1.3,1.1-2.4,2.4-2.4s2.4,1.1,2.4,2.4
					c0,21.2,20.5,34.1,37.7,41.2c23.1,9.5,50.1,12.9,67.6,12.9c52.1,0,98.5-13.6,134.3-39.4V89.5c-9.4,6.5-19.6,12.3-30.3,17.2
					c-9.4,4.3-19.4,8-29.8,11c-21.4,6.2-44.5,9.6-68.8,10.1c-1.8,0-3.6,0-5.4,0c-14.7,0-32-2.2-47.4-6.1
					c-15-3.8-35.6-10.9-49.1-23.7C4.6,89.5,0,79.8,0,69c0-14.2,7.4-34.7,42.5-51.5C65.4,6.5,94.9,0,121.4,0
					c57.3,0,94.4,16.8,94.4,42.8c0,14.1-6.3,25.3-18.8,33.5c-1.3,0.9-2.7,1.7-4.1,2.4c-4.1,2.2-8.8,4.2-14,5.8
					c-5,1.6-10.6,2.9-16.7,3.9c-24.6,4-51.1,2.9-70.8-3c-1.2-0.3-2.5-0.8-3.4-1.1c-11-3.7-18.9-8.8-23.6-15c-3.3-4.4-5-9.4-5-14.8
					c0-25,38.8-40.4,74.7-40.4c14.5,0,28.9,2.4,39.6,6.5c13.4,5.2,20.4,12.8,20.4,22c0,10.6-7.6,19.3-21.3,24.6
					c-3.2,1.2-6.7,2.3-10.5,3.1c-7.8,1.8-16.7,2.7-26.4,2.7c-2.1,0-4.2-0.1-6.2-0.2c-1.3-0.1-2.3-1.2-2.2-2.6
					c0.1-1.3,1.2-2.3,2.6-2.2c1.9,0.1,3.9,0.2,5.9,0.2c9.4,0,17.9-0.9,25.4-2.5c3.5-0.8,6.8-1.8,9.8-2.9c8.3-3.2,18.2-9.3,18.2-20.1
					c0-8.9-9.4-14.5-17.4-17.5c-10.2-3.9-24-6.2-37.9-6.2c-33.8,0-69.9,14.3-69.9,35.6c0,4.3,1.4,8.4,4,11.9
					c4.1,5.5,11.3,10,21.3,13.4c0.9,0.3,2,0.7,3.2,1c19.1,5.7,44.8,6.8,68.7,2.9c5.8-0.9,11.2-2.2,16-3.7c4.9-1.5,9.3-3.4,13.1-5.5
					c1.3-0.7,2.5-1.4,3.7-2.2c11.1-7.2,16.7-17.1,16.7-29.5c0-22.7-36-38-89.6-38c-25.5,0-54.9,6.5-76.9,17
					C11.7,37.5,4.8,56.1,4.8,69c0,9.4,4.1,18,12.1,25.6c12.8,12,32.6,18.9,47,22.5c15.1,3.8,31.9,6,46.2,6c1.8,0,3.5,0,5.3,0
					c23.9-0.4,46.6-3.8,67.6-9.9c10.1-2.9,19.9-6.6,29.1-10.8c11.9-5.4,23.1-12,33.3-19.4c0.7-0.5,1.7-0.6,2.5-0.2
					c0.8,0.4,1.3,1.2,1.3,2.1v57c0,0.8-0.4,1.5-1,1.9C211.5,170.6,163.7,184.8,110.1,184.8z"/>
			</g>
			<g>
				<path d="M223.7,158.7c-1.3,0-2.4-1.1-2.4-2.4v-57c0-1.3,1.1-2.4,2.4-2.4s2.4,1.1,2.4,2.4v57C226.1,157.6,225,158.7,223.7,158.7z
					"/>
			</g>
			<g>
				<path d="M129.9,72.8c0,0-0.1,0-0.1,0c-14.4-0.9-27.1-4.6-33.9-9.8c0,0,0,0,0,0c-4.1-3.1-6.1-6.8-6.1-11
					c0-14.3,23.9-22.9,47-22.9c23.9,0,27.5,8.9,27.5,14.2c0,9.3-16.8,10.3-24,10.3c-2.1,0-4.2,0-6.1-0.1c-0.7,0-1.3,0-1.9,0v16.9
					c0,0.7-0.3,1.3-0.8,1.7C131.1,72.6,130.5,72.8,129.9,72.8z M98.8,59.2c5.6,4.3,16.4,7.5,28.7,8.6V51.1c0-1.3,1.1-2.4,2.4-2.4
					c1.3,0,2.8,0,4.4,0c1.9,0,3.9,0.1,6.1,0.1c11.1,0,19.2-2.3,19.2-5.5c0-6-8.3-9.4-22.7-9.4c-20.4,0-42.2,7.3-42.2,18.1
					C94.5,54.6,95.9,57,98.8,59.2L98.8,59.2z"/>
			</g>
			<g>
				<path d="M63.3,121.8c-1,0-1.9-0.6-2.2-1.5c-1.1-2.8-1.6-5.7-1.6-8.8c0-1.3,1.1-2.4,2.4-2.4s2.4,1.1,2.4,2.4
					c0,2.5,0.4,4.8,1.3,7.1c0.5,1.2-0.1,2.6-1.4,3.1C63.9,121.8,63.6,121.8,63.3,121.8z"/>
			</g>
			<g>
				<path d="M88.8,84.4c-0.9,0-1.8-0.6-2.2-1.5c-0.5-1.2,0.1-2.6,1.3-3.1c1.1-0.5,2.2-0.9,3.4-1.3c1.2-0.5,2.6,0.2,3.1,1.4
					c0.5,1.2-0.2,2.6-1.4,3.1c-1.1,0.4-2.2,0.8-3.2,1.3C89.4,84.4,89.1,84.4,88.8,84.4z"/>
			</g>
			<g>
				<path d="M15.2,98.7c-0.6,0-1.2-0.2-1.6-0.6c-1-0.9-1-2.4-0.1-3.4C24,83.4,40.4,73.9,61.1,67c1.3-0.4,2.6,0.3,3,1.5
					c0.4,1.3-0.3,2.6-1.5,3C42.7,78.2,26.9,87.3,17,97.9C16.5,98.4,15.9,98.7,15.2,98.7z"/>
			</g>
			<g>
				<path d="M213.1,106.9c-0.1,0-0.2,0-0.3,0c-1.3-0.2-2.3-1.3-2.1-2.7c0.2-1.5,0.3-3,0.3-4.4c0-1.3,1.1-2.4,2.4-2.4
					s2.4,1.1,2.4,2.4c0,1.7-0.1,3.3-0.3,5C215.4,106,214.3,106.9,213.1,106.9z"/>
			</g>
			<g>
				<path d="M161.9,70.4c-1.3,0-2.4-1.1-2.4-2.4V43.3c0-1.3,1.1-2.4,2.4-2.4s2.4,1.1,2.4,2.4V68C164.3,69.3,163.2,70.4,161.9,70.4z"
					/>
			</g>
			<g>
				<path d="M191.8,79c-1.3,0-2.4-1.1-2.4-2.4v-34c0-1.3,1.1-2.4,2.4-2.4s2.4,1.1,2.4,2.4v34C194.2,77.9,193.1,79,191.8,79z"/>
			</g>
			<g>
				<path d="M92.1,85.5c-1.3,0-2.4-1.1-2.4-2.4V52c0-1.3,1.1-2.4,2.4-2.4s2.4,1.1,2.4,2.4v31C94.5,84.4,93.4,85.5,92.1,85.5z"/>
			</g>
			<g>
				<path d="M61.8,113.9c-1.3,0-2.4-1.1-2.4-2.4v-57c0-1.3,1.1-2.4,2.4-2.4s2.4,1.1,2.4,2.4v57C64.2,112.8,63.2,113.9,61.8,113.9z"
					/>
			</g>
			<g>
				<path d="M213.4,102.2c-1.3,0-2.4-1.1-2.4-2.4v-57c0-1.3,1.1-2.4,2.4-2.4s2.4,1.1,2.4,2.4v57
					C215.8,101.1,214.7,102.2,213.4,102.2z"/>
			</g>
			<g>
				<path d="M143.6,90.5c-1.3,0-2.4-1.1-2.4-2.4V70.4c0-1.3,1.1-2.4,2.4-2.4s2.4,1.1,2.4,2.4v17.7C146,89.4,144.9,90.5,143.6,90.5z"
					/>
			</g>
			<g>
				<path d="M188.3,153.5c-1.3,0-2.4-1.1-2.4-2.4v-37c0-1.3,1.1-2.4,2.4-2.4s2.4,1.1,2.4,2.4v37
					C190.7,152.4,189.6,153.5,188.3,153.5z"/>
			</g>
			<g>
				<path d="M146.2,162.6c-1.3,0-2.4-1.1-2.4-2.4v-37c0-1.3,1.1-2.4,2.4-2.4s2.4,1.1,2.4,2.4v37
					C148.6,161.5,147.5,162.6,146.2,162.6z"/>
			</g>
			<g>
				<path d="M99.6,164.3c-1.3,0-2.4-1.1-2.4-2.4v-36.8c0-1.3,1.1-2.4,2.4-2.4s2.4,1.1,2.4,2.4v36.8
					C102,163.2,100.9,164.3,99.6,164.3z"/>
			</g>
			<g>
				<path d="M57.4,157.2c-1.3,0-2.4-1.1-2.4-2.4v-37c0-1.3,1.1-2.4,2.4-2.4s2.4,1.1,2.4,2.4v37C59.8,156.2,58.7,157.2,57.4,157.2z"
					/>
			</g>
			<g>
				<path d="M22.2,68c-1.3,0-2.4-1.1-2.4-2.4V32.9c0-1.3,1.1-2.4,2.4-2.4s2.4,1.1,2.4,2.4v32.7C24.6,66.9,23.5,68,22.2,68z"/>
			</g>
			<g>
				<path d="M52.7,49.5c-1.3,0-2.4-1.1-2.4-2.4V15.6c0-1.3,1.1-2.4,2.4-2.4s2.4,1.1,2.4,2.4v31.4C55.1,48.4,54,49.5,52.7,49.5z"/>
			</g>
			<g>
				<path d="M26.1,143.9c-1.3,0-2.4-1.1-2.4-2.4v-37c0-1.3,1.1-2.4,2.4-2.4s2.4,1.1,2.4,2.4v37C28.5,142.9,27.4,143.9,26.1,143.9z"
					/>
			</g>
			<g>
				<path d="M87,111.8c-1.3,0-2.4-1.1-2.4-2.4v-28c0-1.3,1.1-2.4,2.4-2.4s2.4,1.1,2.4,2.4v28C89.4,110.7,88.3,111.8,87,111.8z"/>
			</g>
			<g>
				<path d="M122.5,116.8c-1.3,0-2.4-1.1-2.4-2.4V88.1c0-1.3,1.1-2.4,2.4-2.4s2.4,1.1,2.4,2.4v26.3
					C124.9,115.7,123.8,116.8,122.5,116.8z"/>
			</g>
			<g>
				<path d="M165.7,112.8c-1.3,0-2.4-1.1-2.4-2.4V85.3c0-1.3,1.1-2.4,2.4-2.4s2.4,1.1,2.4,2.4v25.1
					C168.1,111.7,167,112.8,165.7,112.8z"/>
			</g>
			<g>
				<path d="M199.7,99.6c-1.3,0-2.4-1.1-2.4-2.4V71.3c0-1.3,1.1-2.4,2.4-2.4s2.4,1.1,2.4,2.4v25.8C202.1,98.5,201,99.6,199.7,99.6z"
					/>
			</g>
			<g>
				<path d="M109.1,89.2c-1.3,0-2.4-1.1-2.4-2.4v-20c0-1.3,1.1-2.4,2.4-2.4s2.4,1.1,2.4,2.4v20C111.5,88.1,110.4,89.2,109.1,89.2z"
					/>
			</g>
			<g>
				<path d="M177.1,84.6c-1.3,0-2.4-1.1-2.4-2.4V62.7c0-1.3,1.1-2.4,2.4-2.4s2.4,1.1,2.4,2.4v19.5C179.5,83.6,178.4,84.6,177.1,84.6
					z"/>
			</g>
			<g>
				<path d="M149.9,72.3c-1.3,0-2.4-1.1-2.4-2.4V50.6c0-1.3,1.1-2.4,2.4-2.4s2.4,1.1,2.4,2.4v19.3C152.3,71.2,151.2,72.3,149.9,72.3
					z"/>
			</g>
			<g>
				<path d="M87,28.3c-1.3,0-2.4-1.1-2.4-2.4v-20c0-1.3,1.1-2.4,2.4-2.4s2.4,1.1,2.4,2.4v20C89.4,27.2,88.3,28.3,87,28.3z"/>
			</g>
			<g>
				<path d="M121.4,19.4c-1.3,0-2.4-1.1-2.4-2.4V2.4c0-1.3,1.1-2.4,2.4-2.4s2.4,1.1,2.4,2.4V17C123.8,18.4,122.8,19.4,121.4,19.4z"
					/>
			</g>
			<g>
				<path d="M159.6,21.4c-1.3,0-2.4-1.1-2.4-2.4V5.4c0-1.3,1.1-2.4,2.4-2.4S162,4,162,5.4V19C162,20.4,160.9,21.4,159.6,21.4z"/>
			</g>
			<g>
				<path d="M190.9,40c-1.3,0-2.4-1.1-2.4-2.4V15.8c0-1.3,1.1-2.4,2.4-2.4s2.4,1.1,2.4,2.4v21.8C193.3,39,192.2,40,190.9,40z"/>
			</g>
			<g>
				<path d="M76.9,65.1c-1.3,0-2.4-1.1-2.4-2.4V31.4c0-1.3,1.1-2.4,2.4-2.4s2.4,1.1,2.4,2.4v31.4C79.3,64,78.2,65.1,76.9,65.1z"/>
			</g>
			<g>
				<path d="M108.9,38.4c-1.3,0-2.4-1.1-2.4-2.4V19c0-1.3,1.1-2.4,2.4-2.4s2.4,1.1,2.4,2.4v17C111.3,37.4,110.2,38.4,108.9,38.4z"/>
			</g>
			<g>
				<path d="M146.2,34.5c-1.3,0-2.4-1.1-2.4-2.4V17c0-1.3,1.1-2.4,2.4-2.4s2.4,1.1,2.4,2.4v15.1C148.6,33.4,147.5,34.5,146.2,34.5z"
					/>
			</g>
			<g>
				<path d="M177.6,49.5c-1.3,0-2.4-1.1-2.4-2.4V25c0-1.3,1.1-2.4,2.4-2.4s2.4,1.1,2.4,2.4v22.1C180,48.4,179,49.5,177.6,49.5z"/>
			</g>
			<g>
				<path d="M121.4,51.6c-1.3,0-2.4-1.1-2.4-2.4V32.9c0-1.3,1.1-2.4,2.4-2.4s2.4,1.1,2.4,2.4v16.4C123.8,50.5,122.7,51.6,121.4,51.6
					z"/>
			</g>
		</g>
	</g>
	<g id="_x30_3_17_">
	</g>
	<g id="_x30_3_16_">
	</g>
	<g id="_x30_3_15_">
	</g>
	<g id="_x30_3_14_">
	</g>
	<g id="_x30_3_11_">
	</g>
	<g id="_x30_3_10_">
	</g>
	<g id="_x30_6_17_">
	</g>
	<g id="_x30_6_16_">
	</g>
	<g id="_x30_6_15_">
	</g>
	<g id="_x30_6_14_">
	</g>
	<g id="_x30_6_11_">
	</g>
	<g id="_x30_6_10_">
	</g>
	<g id="_x30_4_17_">
	</g>
	<g id="_x30_4_16_">
	</g>
	<g id="_x30_4_15_">
	</g>
	<g id="_x30_4_14_">
	</g>
	<g id="_x30_4_11_">
	</g>
	<g id="_x30_4_10_">
	</g>
	<g id="_x30_1_15_">
	</g>
	<g id="_x30_1_14_">
	</g>
	<g id="_x30_1_11_">
	</g>
	<g id="_x30_1_10_">
	</g>
	<g id="_x31_0_16_">
	</g>
	<g id="_x31_0_15_">
	</g>
	<g id="_x31_0_12_">
	</g>
	<g id="_x31_0_11_">
	</g>
	<g id="_x31_0_10_">
	</g>
	<g id="_x31_1_15_">
	</g>
	<g id="_x31_1_14_">
	</g>
	<g id="_x31_1_11_">
	</g>
	<g id="_x31_1_10_">
	</g>
	<g id="_x31_2_11_">
	</g>
	<g id="_x31_2_10_">
	</g>
	<g id="_x31_9_11_">
	</g>
	<g id="_x31_9_10_">
	</g>
	<g id="_x31_5_15_">
	</g>
	<g id="_x31_5_14_">
	</g>
	<g id="_x31_5_11_">
	</g>
	<g id="_x31_5_10_">
	</g>
	<g id="_x31_3_11_">
	</g>
	<g id="_x31_3_10_">
	</g>
	<g id="_x30_2_6_">
	</g>
	<g id="_x30_7_6_">
	</g>
	<g id="_x31_4_6_">
	</g>
	<g id="_x31_8_6_">
	</g>
	<g id="_x30_5_6_">
	</g>
	<g id="_x32_0_6_">
	</g>
	<g id="_x31_7_6_">
	</g>
	<g id="_x30_8_6_">
	</g>
	<g id="_x31_6_6_">
	</g>
	<g id="_x30_3_6_">
	</g>
	<g id="_x30_6_6_">
	</g>
	<g id="_x30_4_6_">
	</g>
	<g id="_x30_1_6_">
	</g>
	<g id="_x31_0_6_">
	</g>
	<g id="_x31_1_6_">
	</g>
	<g id="_x31_2_6_">
	</g>
	<g id="_x31_9_6_">
	</g>
	<g id="_x31_5_6_">
	</g>
	<g id="_x31_3_9_">
	</g>
	<g id="_x30_2_3_">
	</g>
	<g id="_x30_7_3_">
	</g>
	<g id="_x31_4_3_">
	</g>
	<g id="_x31_8_3_">
	</g>
	<g id="_x30_5_3_">
	</g>
	<g id="_x32_0_3_">
	</g>
	<g id="_x31_7_3_">
	</g>
	<g id="_x30_8_3_">
	</g>
	<g id="_x31_6_3_">
	</g>
	<g id="_x30_3_3_">
	</g>
	<g id="_x30_6_3_">
	</g>
	<g id="_x30_4_3_">
	</g>
	<g id="_x30_1_3_">
	</g>
	<g id="_x31_0_3_">
	</g>
	<g id="_x31_1_3_">
	</g>
	<g id="_x31_2_3_">
	</g>
	<g id="_x31_9_3_">
	</g>
	<g id="_x31_5_3_">
	</g>
	<g id="_x31_3_3_">
	</g>
	<g id="New_Symbol_16_">
	</g>
	<g id="New_Symbol_15_">
	</g>
	<g id="New_Symbol_14_">
	</g>
	<g id="New_Symbol_13_">
	</g>
	<g id="New_Symbol_10_">
	</g>
	<g id="New_Symbol_9_">
	</g>
	<g id="_x30_2_1_">
	</g>
	<g id="_x30_7_1_">
	</g>
	<g id="_x31_4_1_">
	</g>
	<g id="_x31_8_1_">
	</g>
	<g id="_x30_5_1_">
	</g>
	<g id="_x32_0_1_">
	</g>
	<g id="_x31_7_1_">
	</g>
	<g id="_x30_8_1_">
	</g>
	<g id="_x31_6_1_">
	</g>
	<g id="_x30_3_1_">
	</g>
	<g id="_x30_6_1_">
	</g>
	<g id="_x30_4_1_">
	</g>
	<g id="_x30_1_1_">
	</g>
	<g id="_x31_0_1_">
	</g>
	<g id="_x31_1_1_">
	</g>
	<g id="_x31_2_1_">
	</g>
	<g id="_x31_9_1_">
	</g>
	<g id="_x31_5_1_">
	</g>
	<g id="_x31_3_1_">
	</g>
	<g id="New_Symbol_6_">
	</g>
	<g id="New_Symbol_4_">
	</g>
	<g id="New_Symbol_1_">
	</g>
	<g id="New_Symbol">
	</g>
	<g id="_x30_2">
	</g>
	<g id="_x30_7">
	</g>
	<g id="_x31_4">
	</g>
	<g id="_x31_8">
	</g>
	<g id="_x30_5">
	</g>
	<g id="_x32_0">
	</g>
	<g id="_x31_7">
	</g>
	<g id="_x30_8">
	</g>
	<g id="_x31_6">
	</g>
	<g id="_x30_3">
	</g>
	<g id="_x30_6">
	</g>
	<g id="_x30_4">
	</g>
	<g id="_x30_1">
	</g>
	<g id="_x31_0">
	</g>
	<g id="_x31_1">
	</g>
	<g id="_x31_2">
	</g>
	<g id="_x31_9">
	</g>
	<g id="_x31_5">
	</g>
	<g id="_x31_3">
	</g>
</g>
<g id="Text">
</g>
</svg>
