<?xml version="1.0" encoding="utf-8"?>
<!-- Generator: Adobe Illustrator 21.0.0, SVG Export Plug-In . SVG Version: 6.00 Build 0)  -->
<svg version="1.1" xmlns="http://www.w3.org/2000/svg" xmlns:xlink="http://www.w3.org/1999/xlink" x="0px" y="0px"
	 viewBox="0 0 235.9 249.2" style="enable-background:new 0 0 235.9 249.2;" xml:space="preserve">
<style type="text/css">
	.st0{fill:#FFFFFF;}
	.st1{fill:none;stroke:#000000;stroke-width:4.8;stroke-linecap:round;stroke-linejoin:round;stroke-miterlimit:10;}
	
		.st2{fill:none;stroke:#000000;stroke-width:4.8;stroke-linecap:round;stroke-linejoin:round;stroke-miterlimit:10;stroke-dasharray:2.2222,12.2221;}
	.st3{fill:none;stroke:#000000;stroke-width:4.8;stroke-linecap:round;stroke-linejoin:round;}
	.st4{fill:none;stroke:#000000;stroke-width:4.8;stroke-linecap:round;stroke-linejoin:round;stroke-dasharray:2.3342,12.8383;}
	.st5{fill:none;stroke:#000000;stroke-width:4.8;stroke-linecap:round;stroke-linejoin:round;stroke-dasharray:0,11.7317;}
	.st6{stroke:#000000;stroke-width:4.8;stroke-linecap:round;stroke-linejoin:round;stroke-miterlimit:10;}
	.st7{stroke:#000000;stroke-width:4.8;stroke-miterlimit:10;}
	.st8{fill:none;stroke:#000000;stroke-width:4.8;stroke-linecap:round;stroke-linejoin:round;stroke-dasharray:0,15.9232;}
	.st9{fill:none;stroke:#000000;stroke-width:4.8;stroke-linecap:round;stroke-linejoin:round;stroke-dasharray:0,16.2101;}
	.st10{fill:none;stroke:#000000;stroke-width:4.8;stroke-linecap:round;stroke-linejoin:round;stroke-dasharray:0,16.564;}
	
		.st11{fill:none;stroke:#000000;stroke-width:4.8;stroke-linecap:round;stroke-linejoin:round;stroke-miterlimit:10;stroke-dasharray:1.1111,12.2221;}
</style>
<g id="Background">
</g>
<g id="Elements">
	<g id="_x30_2_15_">
	</g>
	<g id="_x30_2_14_">
	</g>
	<g id="_x30_2_11_">
	</g>
	<g id="_x30_2_10_">
	</g>
	<g id="_x30_7_17_">
	</g>
	<g id="_x30_7_16_">
	</g>
	<g id="_x30_7_15_">
	</g>
	<g id="_x30_7_14_">
	</g>
	<g id="_x30_7_11_">
	</g>
	<g id="_x30_7_10_">
		<g>
			<path d="M235.5,61.8l-8.5-11.4l8.5-11.4c0.6-0.9,0.6-2,0-2.9l-8.5-11.4l8.5-11.4c0.8-1.1,0.6-2.6-0.5-3.4l-12.8-9.6
				c-0.9-0.6-2-0.6-2.9,0L207.9,9l-11.4-8.5c-0.9-0.6-2-0.6-2.9,0L182.3,9l-11.4-8.5c-0.9-0.6-2-0.6-2.9,0L156.7,9l-11.4-8.5
				c-0.9-0.6-2-0.6-2.9,0L131.1,9l-11.4-8.5c-0.9-0.6-2-0.6-2.9,0L105.4,9L94.1,0.5c-0.9-0.6-2-0.6-2.9,0L79.8,9L68.5,0.5
				c-0.9-0.6-2-0.6-2.9,0l-12.8,9.6c-0.3,0.2-0.5,0.4-0.6,0.7c-0.2,0.4-0.4,0.9-0.3,1.3c0,0.5,0.2,0.9,0.5,1.3c0,0,0,0,0,0l8.5,11.4
				l-8.5,11.4c-0.6,0.9-0.6,2,0,2.9l3.3,4.4l-1.7,1.3l-11.4-8.5c-0.9-0.6-2-0.6-2.9,0l-12.8,9.6c-1.1,0.8-1.3,2.3-0.5,3.4
				c0,0,0,0,0,0l8.5,11.4l-8.5,11.4c-0.6,0.9-0.6,2,0,2.9l3.3,4.4L28,80.5L16.6,72c-0.9-0.6-2-0.6-2.9,0L1,81.6c0,0,0,0,0,0
				c-0.9,0.7-1.2,1.9-0.7,2.9c0.1,0.1,0.2,0.3,0.3,0.4c0,0,0,0,0,0L9,96.3l-8.5,11.4c-0.6,0.9-0.6,2,0,2.9L9,121.9l-8.5,11.4
				c-0.6,0.9-0.6,2,0,2.9L9,147.6l-8.5,11.4c-0.2,0.3-0.4,0.7-0.5,1.1c-0.1,0.6,0.1,1.3,0.5,1.8L9,173.2l-8.5,11.4
				c-0.6,0.9-0.6,2,0,2.9L9,198.8l-8.5,11.4c-0.6,0.9-0.6,2,0,2.9L9,224.4l-8.5,11.4c0,0,0,0,0,0c-0.8,1.1-0.6,2.6,0.5,3.4l12.8,9.6
				c0.9,0.6,2,0.6,2.9,0l11.4-8.5l11.4,8.5c0.9,0.6,2,0.6,2.9,0l11.4-8.5l11.4,8.5c0.9,0.6,2,0.6,2.9,0l11.4-8.5l11.4,8.5
				c0.9,0.6,2,0.6,2.9,0l11.4-8.5l11.4,8.5c0.9,0.6,2,0.6,2.9,0l11.4-8.5l11.4,8.5c0.4,0.3,0.9,0.5,1.4,0.5s1-0.2,1.4-0.5l11.4-8.5
				l11.4,8.5c0.9,0.6,2,0.6,2.9,0l12.8-9.6c0,0,0,0,0,0c0.7-0.5,1-1.3,1-2c0-0.5-0.2-0.9-0.5-1.3c0,0,0,0,0,0l-8.5-11.4l8.5-11.4
				c0.6-0.9,0.6-2,0-2.9l-3.3-4.4l1.7-1.3l11.4,8.5c0.4,0.3,0.9,0.5,1.4,0.5s1-0.2,1.4-0.5l12.8-9.6c0,0,0,0,0,0
				c1.1-0.8,1.3-2.3,0.5-3.4l0,0c0,0,0,0,0,0s0,0,0,0l-8.5-11.4l8.5-11.4c0.6-0.9,0.6-2,0-2.9l-3.3-4.4l1.7-1.3l11.4,8.5
				c0.9,0.6,2,0.6,2.9,0l12.8-9.6c0.7-0.5,1-1.3,1-2c0-0.5-0.2-0.9-0.5-1.3l-8.5-11.4l8.5-11.4c0.6-0.9,0.6-2,0-2.9l-8.5-11.4
				l8.5-11.4c0.6-0.9,0.6-2,0-2.9l-8.5-11.4l8.5-11.4c0.3-0.3,0.4-0.7,0.5-1.1c0.1-0.6-0.1-1.3-0.5-1.8L226.9,76l8.5-11.4
				C236.1,63.8,236.1,62.6,235.5,61.8z M220.7,5.4l9.4,7.1l-6.7,8.9l-11.7-9.3L220.7,5.4z M195.1,5.4l11.3,8.5l15.7,12.6l8.3,11.1
				l-6.9,9.2l-37.6-34.7L195.1,5.4z M64.1,28.4l140.2,137l-9.1,6.8l-11.2-8.4L65.6,48.8l-4.7-6.3c0,0,0,0,0,0c0,0,0,0,0,0l-3.7-4.9
				L64.1,28.4z M169.5,172.3l-11.3-8.5L65.6,74.5l-8.4-11.2l6.9-9.2l114.5,111.4L169.5,172.3z M143.9,172.3l-11.3-8.5l-66.9-63.7
				l-8.4-11.2l6.9-9.2l88.9,85.8L143.9,172.3z M118.2,172.3l-11.3-8.5l-41.4-38.2l-8.4-11.2l6.9-9.2l63.2,60.2L118.2,172.3z
				 M92.6,172.3l-11.3-8.5l-15.7-12.6l-8.3-11.1l6.9-9.2l37.6,34.7L92.6,172.3z M67,172.3l-9.4-7.1l6.7-8.9l11.7,9.3L67,172.3z
				 M60.8,50.4l-0.3,0.4L57.6,48l0.9-0.7L60.8,50.4z M5.8,84l9.4-7.1l11.4,8.5c0.9,0.6,2,0.6,2.9,0l3.1-2.4l2.3,3.1L29,94H13.3
				L5.8,84z M5.4,109.1l7.8-10.3h12.8c0,0.6,0.1,1.1,0.5,1.6l8.5,11.4l-5.9,7.9H13.3L5.4,109.1z M5.4,134.8l7.7-10.2h12.8
				c0,0.5,0.1,1.1,0.5,1.6l8.5,11.4l-6,8H13.4L5.4,134.8z M5.4,160.4l7.6-10.2h12.9c0,0.5,0.2,1,0.5,1.5l8.5,11.4l-6.1,8.1H13.5
				L5.4,160.4z M5.4,186l7.6-10.1h13c0,0.5,0.2,1,0.5,1.4l8.5,11.4l-6.1,8.2H13.5L5.4,186z M178.4,236.8l-9.4,7.1l-11.4-8.5
				c-0.9-0.6-2-0.6-2.9,0l-11.4,8.5l-11.4-8.5c-0.9-0.6-2-0.6-2.9,0l-11.4,8.5l-11.4-8.5c-0.3-0.2-0.7-0.4-1.1-0.5
				c-0.6-0.1-1.3,0.1-1.8,0.5l-11.4,8.5l-11.4-8.5c-0.3-0.3-0.7-0.4-1.1-0.5c-0.6-0.1-1.3,0.1-1.8,0.5l-11.4,8.5l-11.4-8.5
				c-0.9-0.6-2-0.6-2.9,0l-11.4,8.5l-11.4-8.5c-0.9-0.6-2-0.6-2.9,0l-11.4,8.5l-9.4-7.1l7-9.4h158.5L178.4,236.8z M178.7,211.6
				l-8.2,10.9H13.6l-8.2-10.9l7.5-10h13c0,0.7,0.4,1.3,0.9,1.7l12.8,9.6c0.9,0.6,2,0.6,2.9,0l11.4-8.5l11.4,8.5c0.9,0.6,2,0.6,2.9,0
				l11.4-8.5l11.4,8.5c0.9,0.6,2,0.6,2.9,0l11.4-8.5l11.4,8.5c0.9,0.6,2,0.6,2.9,0l11.4-8.5l11.4,8.5c0.9,0.6,2,0.6,2.9,0l11.4-8.5
				l11.4,8.5c0.9,0.6,2,0.6,2.9,0l5.8-4.4L178.7,211.6z M204.6,175.9l-8.5,11.4c0,0.1-0.1,0.1-0.1,0.2c-0.1-0.3-0.3-0.6-0.5-0.8
				c-0.9-0.9-2.5-0.9-3.4,0c-0.5,0.4-0.7,1.1-0.7,1.7c0,0.2,0,0.3,0.1,0.5c0,0.1,0.1,0.3,0.1,0.5c0.1,0.1,0.1,0.3,0.2,0.4
				c0.1,0.1,0.2,0.2,0.3,0.4c0.5,0.5,1.1,0.7,1.7,0.7c0.6,0,1.2-0.2,1.7-0.7c0.1-0.1,0.2-0.3,0.3-0.4c0.1,0.2,0.2,0.4,0.3,0.5
				l8.2,10.9l-9.4,7.1l-11.4-8.5c-0.3-0.2-0.7-0.4-1.1-0.5c-0.4-0.2-0.8-0.4-1.3-0.4c-1.3,0-2.3,1-2.4,2.3l-9.5,7.1l-11.4-8.5
				c-0.2-0.2-0.5-0.3-0.8-0.4c-0.4-0.3-0.9-0.5-1.4-0.5c-1.2,0-2.2,0.9-2.4,2.1l-9.7,7.2l-11.4-8.5c-0.2-0.1-0.3-0.2-0.5-0.3
				c-0.4-0.3-0.9-0.6-1.5-0.6c-1.2,0-2.1,0.8-2.4,2l-9.9,7.4l-11.4-8.5c0,0,0,0,0,0c-0.4-0.5-1.1-0.8-1.8-0.8c-1.1,0-2,0.8-2.3,1.8
				l-10.1,7.6l-11-8.2c-0.4-0.7-1.2-1.2-2-1.2c-1,0-1.9,0.7-2.3,1.6l-10.4,7.8l-10.6-8c-0.4-0.8-1.2-1.4-2.2-1.4
				c-1,0-1.8,0.6-2.2,1.4l-10.6,8l-9.4-7.1l8.1-10.8c0.4,0.3,0.9,0.5,1.4,0.5c0.2,0,0.3,0,0.5,0c0.1,0,0.3-0.1,0.4-0.1
				c0.1-0.1,0.3-0.1,0.4-0.2c0.1-0.1,0.2-0.2,0.4-0.3c0.4-0.5,0.7-1.1,0.7-1.7c0-0.6-0.3-1.2-0.7-1.7c-0.9-0.9-2.5-0.9-3.4,0
				c0,0,0,0.1-0.1,0.1l-8.1-10.8l8.3-11.1c0.1,0.1,0.2,0.2,0.3,0.3c0.1,0.1,0.3,0.2,0.4,0.2c0.1,0.1,0.3,0.1,0.4,0.1
				c0.2,0,0.3,0,0.5,0c0.6,0,1.2-0.3,1.7-0.7c0.5-0.5,0.7-1.1,0.7-1.7c0-0.2,0-0.3,0-0.5c0-0.1-0.1-0.3-0.1-0.4
				c-0.1-0.1-0.1-0.3-0.2-0.4c-0.1-0.1-0.2-0.3-0.3-0.4c-0.9-0.9-2.4-0.9-3.3,0l-8.3-11.1l8.2-10.9c0.4,0.5,1.1,0.8,1.7,0.8
				c1.3,0,2.4-1.1,2.4-2.4c0-1.3-1.1-2.4-2.4-2.4c-0.6,0-1.1,0.2-1.5,0.6l-8.4-11.2l8.1-10.8c0.4,0.5,1.1,0.9,1.8,0.9
				c1.3,0,2.4-1.1,2.4-2.4c0-1.3-1.1-2.4-2.4-2.4c-0.5,0-1,0.2-1.4,0.5c0,0,0,0,0,0L31.3,99l8-10.7c0.4,0.6,1.1,1,1.9,1
				c1.3,0,2.4-1.1,2.4-2.4c0-1.3-1.1-2.4-2.4-2.4c-0.5,0-0.9,0.1-1.3,0.4c0-0.1-0.1-0.1-0.1-0.2l-8.5-11.4l7.9-10.5
				c0.4,0.7,1.2,1.1,2,1.1c1.3,0,2.4-1.1,2.4-2.4c0-1.3-1.1-2.4-2.4-2.4c-0.4,0-0.8,0.1-1.2,0.3c-0.1-0.1-0.1-0.3-0.2-0.4l-8.2-10.9
				l9.4-7.1l10.7,8c0,0.1,0,0.1,0,0.2c0,0.1,0.1,0.3,0.1,0.4c0.1,0.1,0.1,0.3,0.2,0.4c0.1,0.1,0.2,0.3,0.3,0.4
				c0.1,0.1,0.2,0.2,0.4,0.3c0.1,0.1,0.3,0.2,0.4,0.2c0.1,0.1,0.3,0.1,0.5,0.1c0.1,0,0.2,0,0.3,0l3.5,3.4l-3.3,4.5c0,0,0,0,0,0
				c-1.3,0-2.4,1.1-2.4,2.4c0,0.3,0.1,0.6,0.2,0.8c-0.3,0.7-0.2,1.6,0.3,2.3L60.8,76l-6.4,8.5c-0.1,0-0.1,0-0.2,0
				c-1.3,0-2.4,1.1-2.4,2.4c0,0.3,0.1,0.7,0.2,1c-0.1,0.2-0.1,0.4-0.2,0.6c-0.1,0.6,0.1,1.3,0.5,1.8l8.5,11.4l-6.2,8.3
				c-0.1,0-0.3,0-0.4,0c-1.3,0-2.4,1.1-2.4,2.4c0,0.4,0.1,0.8,0.3,1.1c-0.4,0.8-0.3,1.8,0.2,2.5l8.5,11.4l-6,8.1
				c-0.2,0-0.4-0.1-0.6-0.1c-1.3,0-2.4,1.1-2.4,2.4c0,0.4,0.1,0.9,0.3,1.2c-0.5,0.8-0.4,1.9,0.1,2.7l8.5,11.4l-5.9,7.9
				c-0.8-0.2-1.8-0.1-2.4,0.6c-0.1,0.1-0.2,0.2-0.3,0.4c-0.1,0.1-0.2,0.3-0.2,0.4c-0.1,0.1-0.1,0.3-0.1,0.4c0,0.2,0,0.3,0,0.5
				c0,0.5,0.1,0.9,0.4,1.3c-0.7,1.1-0.5,2.5,0.5,3.2l11.6,8.7c0.3,0.9,1.2,1.6,2.2,1.6c0.5,0,0.9-0.1,1.3-0.4
				c0.2-0.1,0.4-0.2,0.6-0.3l11.4-8.5l9.9,7.4c0.3,1,1.2,1.8,2.3,1.8c0.4,0,0.7-0.1,1-0.2c0.3-0.1,0.7-0.2,1-0.4l11.4-8.5l9.7,7.3
				c0.2,1.1,1.2,1.9,2.4,1.9c0.4,0,0.7-0.1,1-0.2c0.4,0,0.9-0.2,1.2-0.5l11.4-8.5l9.5,7.1c0.2,1.2,1.1,2.1,2.4,2.1
				c0.3,0,0.7-0.1,1-0.2c0.5,0,1-0.2,1.4-0.5l11.4-8.5l9.3,7c0.1,1.2,1.1,2.2,2.4,2.2c0.3,0,0.7-0.1,1-0.2c0.6,0,1.1-0.1,1.6-0.5
				l11.4-8.5l9.1,6.8c0,0.6,0.3,1.2,0.7,1.7c0.5,0.4,1.1,0.7,1.7,0.7c0.3,0,0.7-0.1,1-0.2c0.6,0.1,1.3-0.1,1.8-0.5l5.8-4.4
				L204.6,175.9z M230.2,165.2l-9.4,7.1l-11.2-8.4L65.6,23.2l-8.1-10.7L67,5.4l11.2,8.4l143.9,140.7L230.2,165.2z M230.5,140.1
				l-6.9,9.2L83.5,12.2l9.1-6.8l11.2,8.4l118.3,115.1L230.5,140.1z M230.5,114.5l-6.9,9.2L109.1,12.2l9.1-6.8l11.3,8.5l92.5,89.4
				L230.5,114.5z M230.6,88.9l-6.9,9.2l-88.9-85.8l9.1-6.8l11.3,8.5l66.9,63.7L230.6,88.9z M223.6,72.4l-63.2-60.2l9.1-6.8l11.3,8.5
				L222.1,52l8.4,11.2L223.6,72.4z"/>
			<path d="M42.5,173.5c-0.1-0.1-0.3-0.2-0.4-0.2c-0.1-0.1-0.3-0.1-0.4-0.1c-0.3-0.1-0.6-0.1-0.9,0c-0.1,0-0.3,0.1-0.5,0.1
				c-0.1,0.1-0.3,0.1-0.4,0.2c-0.1,0.1-0.3,0.2-0.4,0.3c-0.5,0.4-0.7,1.1-0.7,1.7c0,0.6,0.2,1.2,0.7,1.7c0.4,0.4,1.1,0.7,1.7,0.7
				c0.1,0,0.3,0,0.5-0.1c0.1,0,0.3-0.1,0.4-0.1c0.1-0.1,0.3-0.1,0.4-0.2c0.1-0.1,0.2-0.2,0.4-0.3c0.4-0.4,0.7-1.1,0.7-1.7
				c0-0.6-0.3-1.2-0.7-1.7C42.8,173.7,42.7,173.6,42.5,173.5z"/>
			<path d="M53.9,173.1c-1.3,0-2.4,1.1-2.4,2.4c0,1.3,1.1,2.4,2.4,2.4c1.3,0,2.4-1.1,2.4-2.4C56.3,174.2,55.2,173.1,53.9,173.1z"/>
			<path d="M130.2,173.1c-1.3,0-2.4,1.1-2.4,2.4c0,1.3,1.1,2.4,2.4,2.4c1.3,0,2.4-1.1,2.4-2.4C132.6,174.2,131.5,173.1,130.2,173.1z
				"/>
			<path d="M155.6,173.1c-1.3,0-2.4,1.1-2.4,2.4c0,1.3,1.1,2.4,2.4,2.4c1.3,0,2.4-1.1,2.4-2.4C158,174.2,157,173.1,155.6,173.1z"/>
			<path d="M79.3,173.1c-1.3,0-2.4,1.1-2.4,2.4c0,1.3,1.1,2.4,2.4,2.4c1.3,0,2.4-1.1,2.4-2.4C81.7,174.2,80.7,173.1,79.3,173.1z"/>
			<path d="M104.8,173.1c-1.3,0-2.4,1.1-2.4,2.4c0,1.3,1.1,2.4,2.4,2.4c1.3,0,2.4-1.1,2.4-2.4C107.2,174.2,106.1,173.1,104.8,173.1z
				"/>
			<path d="M181.1,173.1c-1.3,0-2.4,1.1-2.4,2.4c0,1.3,1.1,2.4,2.4,2.4c1.3,0,2.4-1.1,2.4-2.4C183.5,174.2,182.4,173.1,181.1,173.1z
				"/>
			<path d="M130.2,185.9c-1.3,0-2.4,1.1-2.4,2.4c0,1.3,1.1,2.4,2.4,2.4s2.4-1.1,2.4-2.4C132.6,187,131.5,185.9,130.2,185.9z"/>
			<path d="M117.5,185.9c-1.3,0-2.4,1.1-2.4,2.4c0,1.3,1.1,2.4,2.4,2.4c1.3,0,2.4-1.1,2.4-2.4C119.9,187,118.8,185.9,117.5,185.9z"
				/>
			<path d="M79.3,185.9c-1.3,0-2.4,1.1-2.4,2.4c0,1.3,1.1,2.4,2.4,2.4c1.3,0,2.4-1.1,2.4-2.4C81.7,187,80.7,185.9,79.3,185.9z"/>
			<path d="M104.8,185.9c-1.3,0-2.4,1.1-2.4,2.4c0,1.3,1.1,2.4,2.4,2.4c1.3,0,2.4-1.1,2.4-2.4C107.2,187,106.1,185.9,104.8,185.9z"
				/>
			<path d="M181.1,185.9c-1.3,0-2.4,1.1-2.4,2.4c0,1.3,1.1,2.4,2.4,2.4c1.3,0,2.4-1.1,2.4-2.4C183.5,187,182.4,185.9,181.1,185.9z"
				/>
			<path d="M142.9,185.9c-1.3,0-2.4,1.1-2.4,2.4c0,1.3,1.1,2.4,2.4,2.4c1.3,0,2.4-1.1,2.4-2.4C145.3,187,144.2,185.9,142.9,185.9z"
				/>
			<path d="M168.4,185.9c-1.3,0-2.4,1.1-2.4,2.4c0,1.3,1.1,2.4,2.4,2.4c1.3,0,2.4-1.1,2.4-2.4C170.8,187,169.7,185.9,168.4,185.9z"
				/>
			<path d="M155.6,185.9c-1.3,0-2.4,1.1-2.4,2.4c0,1.3,1.1,2.4,2.4,2.4c1.3,0,2.4-1.1,2.4-2.4C158,187,157,185.9,155.6,185.9z"/>
			<path d="M92.1,185.9c-1.3,0-2.4,1.1-2.4,2.4c0,1.3,1.1,2.4,2.4,2.4c1.3,0,2.4-1.1,2.4-2.4C94.5,187,93.4,185.9,92.1,185.9z"/>
			<path d="M53.9,185.9c-1.3,0-2.4,1.1-2.4,2.4c0,1.3,1.1,2.4,2.4,2.4c1.3,0,2.4-1.1,2.4-2.4C56.3,187,55.2,185.9,53.9,185.9z"/>
			<path d="M66.6,185.9c-1.3,0-2.4,1.1-2.4,2.4c0,1.3,1.1,2.4,2.4,2.4s2.4-1.1,2.4-2.4C69,187,68,185.9,66.6,185.9z"/>
			<path d="M39.5,199.4c-0.1,0.1-0.2,0.2-0.3,0.4c-0.1,0.1-0.2,0.3-0.2,0.4c-0.1,0.1-0.1,0.3-0.1,0.4c0,0.1,0,0.3,0,0.5
				c0,0.1,0,0.3,0,0.5c0,0.2,0.1,0.3,0.1,0.5c0.1,0.1,0.1,0.3,0.2,0.4c0.1,0.1,0.2,0.2,0.3,0.4c0.1,0.1,0.2,0.2,0.4,0.3
				c0.1,0.1,0.3,0.2,0.4,0.2c0.1,0.1,0.3,0.1,0.5,0.1c0.1,0,0.3,0,0.5,0c0.2,0,0.3,0,0.5,0c0.1,0,0.3-0.1,0.4-0.1
				c0.1-0.1,0.3-0.1,0.4-0.2c0.1-0.1,0.3-0.2,0.4-0.3c0.4-0.4,0.7-1.1,0.7-1.7s-0.3-1.2-0.7-1.7C42,198.5,40.4,198.5,39.5,199.4z"/>
			<path d="M142.9,198.7c-1.3,0-2.4,1.1-2.4,2.4c0,1.3,1.1,2.4,2.4,2.4c1.3,0,2.4-1.1,2.4-2.4C145.3,199.8,144.2,198.7,142.9,198.7z
				"/>
			<path d="M92.1,198.7c-1.3,0-2.4,1.1-2.4,2.4c0,1.3,1.1,2.4,2.4,2.4c1.3,0,2.4-1.1,2.4-2.4C94.5,199.8,93.4,198.7,92.1,198.7z"/>
			<path d="M168.4,198.7c-1.3,0-2.4,1.1-2.4,2.4c0,1.3,1.1,2.4,2.4,2.4c1.3,0,2.4-1.1,2.4-2.4C170.8,199.8,169.7,198.7,168.4,198.7z
				"/>
			<path d="M66.6,198.7c-1.3,0-2.4,1.1-2.4,2.4c0,1.3,1.1,2.4,2.4,2.4s2.4-1.1,2.4-2.4C69,199.8,68,198.7,66.6,198.7z"/>
			<path d="M117.5,198.7c-1.3,0-2.4,1.1-2.4,2.4c0,1.3,1.1,2.4,2.4,2.4c1.3,0,2.4-1.1,2.4-2.4C119.9,199.8,118.8,198.7,117.5,198.7z
				"/>
			<path d="M191.4,201.6c0,0.2,0.1,0.3,0.1,0.5c0.1,0.1,0.1,0.3,0.2,0.4c0.1,0.1,0.2,0.2,0.3,0.4c0.1,0.1,0.2,0.2,0.4,0.3
				c0.1,0.1,0.3,0.2,0.4,0.2c0.2,0.1,0.3,0.1,0.5,0.1c0.1,0,0.3,0,0.5,0c0.2,0,0.3,0,0.5,0c0.1,0,0.3-0.1,0.5-0.1
				c0.1-0.1,0.3-0.1,0.4-0.2c0.1-0.1,0.3-0.2,0.4-0.3c0.4-0.4,0.7-1.1,0.7-1.7s-0.3-1.2-0.7-1.7c-0.9-0.9-2.5-0.9-3.4,0
				c-0.1,0.1-0.2,0.2-0.3,0.4c-0.1,0.1-0.2,0.3-0.2,0.4c-0.1,0.1-0.1,0.3-0.1,0.4c0,0.1-0.1,0.3-0.1,0.5
				C191.4,201.3,191.4,201.4,191.4,201.6z"/>
			<path d="M41.2,71.9c-1.3,0-2.4,1.1-2.4,2.4c0,1.3,1.1,2.4,2.4,2.4c1.3,0,2.4-1.1,2.4-2.4C43.6,72.9,42.6,71.9,41.2,71.9z"/>
			<path d="M41.2,148c-1.3,0-2.4,1.1-2.4,2.4c0,1.3,1.1,2.4,2.4,2.4c1.3,0,2.4-1.1,2.4-2.4C43.6,149,42.6,148,41.2,148z"/>
			<path d="M41.2,97.2c-1.3,0-2.4,1.1-2.4,2.4c0,1.3,1.1,2.4,2.4,2.4c1.3,0,2.4-1.1,2.4-2.4C43.6,98.3,42.6,97.2,41.2,97.2z"/>
			<path d="M41.2,122.6c-1.3,0-2.4,1.1-2.4,2.4c0,1.3,1.1,2.4,2.4,2.4c1.3,0,2.4-1.1,2.4-2.4C43.6,123.7,42.6,122.6,41.2,122.6z"/>
			<path d="M43.5,48c-0.1-0.1-0.1-0.3-0.2-0.4c-0.1-0.1-0.2-0.3-0.3-0.4c-0.1-0.1-0.2-0.2-0.4-0.3c-0.1-0.1-0.3-0.2-0.4-0.2
				c-0.1-0.1-0.3-0.1-0.5-0.1c-0.3-0.1-0.6-0.1-0.9,0c-0.1,0-0.3,0.1-0.4,0.1c-0.1,0.1-0.3,0.1-0.4,0.2c-0.1,0.1-0.2,0.2-0.4,0.3
				c-0.1,0.1-0.2,0.2-0.3,0.4c-0.1,0.1-0.2,0.3-0.2,0.4c-0.1,0.1-0.1,0.3-0.1,0.5c0,0.2-0.1,0.3-0.1,0.5c0,0.2,0,0.3,0.1,0.5
				c0,0.1,0.1,0.3,0.1,0.4c0.1,0.1,0.1,0.3,0.2,0.4c0.1,0.1,0.2,0.3,0.3,0.4c0.1,0.1,0.2,0.2,0.4,0.3c0.1,0.1,0.3,0.2,0.4,0.2
				c0.1,0.1,0.3,0.1,0.4,0.1c0.2,0,0.3,0,0.5,0c0.2,0,0.3,0,0.5,0c0.2,0,0.3-0.1,0.5-0.1c0.1-0.1,0.3-0.1,0.4-0.2
				c0.1-0.1,0.2-0.2,0.4-0.3c0.1-0.1,0.2-0.2,0.3-0.4c0.1-0.1,0.2-0.3,0.2-0.4c0.1-0.1,0.1-0.3,0.1-0.4c0-0.2,0-0.3,0-0.5
				c0-0.2,0-0.3,0-0.5C43.6,48.3,43.5,48.1,43.5,48z"/>
			<path d="M54.2,76.7c1.3,0,2.4-1.1,2.4-2.4c0-1.3-1.1-2.4-2.4-2.4c-1.3,0-2.4,1.1-2.4,2.4C51.8,75.6,52.9,76.7,54.2,76.7z"/>
			<path d="M54.2,152.8c1.3,0,2.4-1.1,2.4-2.4c0-1.3-1.1-2.4-2.4-2.4c-1.3,0-2.4,1.1-2.4,2.4C51.8,151.7,52.9,152.8,54.2,152.8z"/>
			<path d="M54.2,102c1.3,0,2.4-1.1,2.4-2.4c0-1.3-1.1-2.4-2.4-2.4c-1.3,0-2.4,1.1-2.4,2.4C51.8,101,52.9,102,54.2,102z"/>
			<path d="M54.2,127.4c1.3,0,2.4-1.1,2.4-2.4c0-1.3-1.1-2.4-2.4-2.4c-1.3,0-2.4,1.1-2.4,2.4C51.8,126.3,52.9,127.4,54.2,127.4z"/>
		</g>
	</g>
	<g id="_x31_4_17_">
	</g>
	<g id="_x31_4_16_">
	</g>
	<g id="_x31_4_15_">
	</g>
	<g id="_x31_4_14_">
	</g>
	<g id="_x31_4_11_">
	</g>
	<g id="_x31_4_10_">
	</g>
	<g id="_x31_8_15_">
	</g>
	<g id="_x31_8_14_">
	</g>
	<g id="_x31_8_11_">
	</g>
	<g id="_x31_8_10_">
	</g>
	<g id="_x30_5_17_">
	</g>
	<g id="_x30_5_16_">
	</g>
	<g id="_x30_5_15_">
	</g>
	<g id="_x30_5_14_">
	</g>
	<g id="_x30_5_11_">
	</g>
	<g id="_x30_5_10_">
	</g>
	<g id="_x32_0_17_">
	</g>
	<g id="_x32_0_16_">
	</g>
	<g id="_x32_0_15_">
	</g>
	<g id="_x32_0_14_">
	</g>
	<g id="_x32_0_11_">
	</g>
	<g id="_x32_0_10_">
	</g>
	<g id="_x31_7_15_">
	</g>
	<g id="_x31_7_14_">
	</g>
	<g id="_x31_7_11_">
	</g>
	<g id="_x31_7_10_">
	</g>
	<g id="_x30_8_17_">
	</g>
	<g id="_x30_8_16_">
	</g>
	<g id="_x30_8_15_">
	</g>
	<g id="_x30_8_14_">
	</g>
	<g id="_x30_8_11_">
	</g>
	<g id="_x30_8_10_">
	</g>
	<g id="_x31_6_11_">
	</g>
	<g id="_x31_6_10_">
	</g>
	<g id="_x30_3_17_">
	</g>
	<g id="_x30_3_16_">
	</g>
	<g id="_x30_3_15_">
	</g>
	<g id="_x30_3_14_">
	</g>
	<g id="_x30_3_11_">
	</g>
	<g id="_x30_3_10_">
	</g>
	<g id="_x30_6_17_">
	</g>
	<g id="_x30_6_16_">
	</g>
	<g id="_x30_6_15_">
	</g>
	<g id="_x30_6_14_">
	</g>
	<g id="_x30_6_11_">
	</g>
	<g id="_x30_6_10_">
	</g>
	<g id="_x30_4_17_">
	</g>
	<g id="_x30_4_16_">
	</g>
	<g id="_x30_4_15_">
	</g>
	<g id="_x30_4_14_">
	</g>
	<g id="_x30_4_11_">
	</g>
	<g id="_x30_4_10_">
	</g>
	<g id="_x30_1_15_">
	</g>
	<g id="_x30_1_14_">
	</g>
	<g id="_x30_1_11_">
	</g>
	<g id="_x30_1_10_">
	</g>
	<g id="_x31_0_16_">
	</g>
	<g id="_x31_0_15_">
	</g>
	<g id="_x31_0_12_">
	</g>
	<g id="_x31_0_11_">
	</g>
	<g id="_x31_0_10_">
	</g>
	<g id="_x31_1_15_">
	</g>
	<g id="_x31_1_14_">
	</g>
	<g id="_x31_1_11_">
	</g>
	<g id="_x31_1_10_">
	</g>
	<g id="_x31_2_11_">
	</g>
	<g id="_x31_2_10_">
	</g>
	<g id="_x31_9_11_">
	</g>
	<g id="_x31_9_10_">
	</g>
	<g id="_x31_5_15_">
	</g>
	<g id="_x31_5_14_">
	</g>
	<g id="_x31_5_11_">
	</g>
	<g id="_x31_5_10_">
	</g>
	<g id="_x31_3_11_">
	</g>
	<g id="_x31_3_10_">
	</g>
	<g id="_x30_2_6_">
	</g>
	<g id="_x30_7_6_">
	</g>
	<g id="_x31_4_6_">
	</g>
	<g id="_x31_8_6_">
	</g>
	<g id="_x30_5_6_">
	</g>
	<g id="_x32_0_6_">
	</g>
	<g id="_x31_7_6_">
	</g>
	<g id="_x30_8_6_">
	</g>
	<g id="_x31_6_6_">
	</g>
	<g id="_x30_3_6_">
	</g>
	<g id="_x30_6_6_">
	</g>
	<g id="_x30_4_6_">
	</g>
	<g id="_x30_1_6_">
	</g>
	<g id="_x31_0_6_">
	</g>
	<g id="_x31_1_6_">
	</g>
	<g id="_x31_2_6_">
	</g>
	<g id="_x31_9_6_">
	</g>
	<g id="_x31_5_6_">
	</g>
	<g id="_x31_3_9_">
	</g>
	<g id="_x30_2_3_">
	</g>
	<g id="_x30_7_3_">
	</g>
	<g id="_x31_4_3_">
	</g>
	<g id="_x31_8_3_">
	</g>
	<g id="_x30_5_3_">
	</g>
	<g id="_x32_0_3_">
	</g>
	<g id="_x31_7_3_">
	</g>
	<g id="_x30_8_3_">
	</g>
	<g id="_x31_6_3_">
	</g>
	<g id="_x30_3_3_">
	</g>
	<g id="_x30_6_3_">
	</g>
	<g id="_x30_4_3_">
	</g>
	<g id="_x30_1_3_">
	</g>
	<g id="_x31_0_3_">
	</g>
	<g id="_x31_1_3_">
	</g>
	<g id="_x31_2_3_">
	</g>
	<g id="_x31_9_3_">
	</g>
	<g id="_x31_5_3_">
	</g>
	<g id="_x31_3_3_">
	</g>
	<g id="New_Symbol_16_">
	</g>
	<g id="New_Symbol_15_">
	</g>
	<g id="New_Symbol_14_">
	</g>
	<g id="New_Symbol_13_">
	</g>
	<g id="New_Symbol_10_">
	</g>
	<g id="New_Symbol_9_">
	</g>
	<g id="_x30_2_1_">
	</g>
	<g id="_x30_7_1_">
	</g>
	<g id="_x31_4_1_">
	</g>
	<g id="_x31_8_1_">
	</g>
	<g id="_x30_5_1_">
	</g>
	<g id="_x32_0_1_">
	</g>
	<g id="_x31_7_1_">
	</g>
	<g id="_x30_8_1_">
	</g>
	<g id="_x31_6_1_">
	</g>
	<g id="_x30_3_1_">
	</g>
	<g id="_x30_6_1_">
	</g>
	<g id="_x30_4_1_">
	</g>
	<g id="_x30_1_1_">
	</g>
	<g id="_x31_0_1_">
	</g>
	<g id="_x31_1_1_">
	</g>
	<g id="_x31_2_1_">
	</g>
	<g id="_x31_9_1_">
	</g>
	<g id="_x31_5_1_">
	</g>
	<g id="_x31_3_1_">
	</g>
	<g id="New_Symbol_6_">
	</g>
	<g id="New_Symbol_4_">
	</g>
	<g id="New_Symbol_1_">
	</g>
	<g id="New_Symbol">
	</g>
	<g id="_x30_2">
	</g>
	<g id="_x30_7">
	</g>
	<g id="_x31_4">
	</g>
	<g id="_x31_8">
	</g>
	<g id="_x30_5">
	</g>
	<g id="_x32_0">
	</g>
	<g id="_x31_7">
	</g>
	<g id="_x30_8">
	</g>
	<g id="_x31_6">
	</g>
	<g id="_x30_3">
	</g>
	<g id="_x30_6">
	</g>
	<g id="_x30_4">
	</g>
	<g id="_x30_1">
	</g>
	<g id="_x31_0">
	</g>
	<g id="_x31_1">
	</g>
	<g id="_x31_2">
	</g>
	<g id="_x31_9">
	</g>
	<g id="_x31_5">
	</g>
	<g id="_x31_3">
	</g>
</g>
<g id="Text">
</g>
</svg>
