<?xml version="1.0" encoding="utf-8"?>
<!-- Generator: Adobe Illustrator 21.0.0, SVG Export Plug-In . SVG Version: 6.00 Build 0)  -->
<svg version="1.1" xmlns="http://www.w3.org/2000/svg" xmlns:xlink="http://www.w3.org/1999/xlink" x="0px" y="0px"
	 viewBox="0 0 265.9 126.9" style="enable-background:new 0 0 265.9 126.9;" xml:space="preserve">
<style type="text/css">
	.st0{fill:#FFFFFF;}
	.st1{fill:none;stroke:#000000;stroke-width:4.8;stroke-linecap:round;stroke-linejoin:round;stroke-miterlimit:10;}
	
		.st2{fill:none;stroke:#000000;stroke-width:4.8;stroke-linecap:round;stroke-linejoin:round;stroke-miterlimit:10;stroke-dasharray:2.2222,12.2221;}
	.st3{fill:none;stroke:#000000;stroke-width:4.8;stroke-linecap:round;stroke-linejoin:round;}
	.st4{fill:none;stroke:#000000;stroke-width:4.8;stroke-linecap:round;stroke-linejoin:round;stroke-dasharray:2.3342,12.8383;}
	.st5{fill:none;stroke:#000000;stroke-width:4.8;stroke-linecap:round;stroke-linejoin:round;stroke-dasharray:0,11.7317;}
	.st6{stroke:#000000;stroke-width:4.8;stroke-linecap:round;stroke-linejoin:round;stroke-miterlimit:10;}
	.st7{stroke:#000000;stroke-width:4.8;stroke-miterlimit:10;}
	.st8{fill:none;stroke:#000000;stroke-width:4.8;stroke-linecap:round;stroke-linejoin:round;stroke-dasharray:0,15.9232;}
	.st9{fill:none;stroke:#000000;stroke-width:4.8;stroke-linecap:round;stroke-linejoin:round;stroke-dasharray:0,16.2101;}
	.st10{fill:none;stroke:#000000;stroke-width:4.8;stroke-linecap:round;stroke-linejoin:round;stroke-dasharray:0,16.564;}
	
		.st11{fill:none;stroke:#000000;stroke-width:4.8;stroke-linecap:round;stroke-linejoin:round;stroke-miterlimit:10;stroke-dasharray:1.1111,12.2221;}
</style>
<g id="Background">
</g>
<g id="Elements">
	<g id="_x30_2_15_">
	</g>
	<g id="_x30_2_14_">
	</g>
	<g id="_x30_2_11_">
	</g>
	<g id="_x30_2_10_">
	</g>
	<g id="_x30_7_17_">
	</g>
	<g id="_x30_7_16_">
	</g>
	<g id="_x30_7_15_">
	</g>
	<g id="_x30_7_14_">
	</g>
	<g id="_x30_7_11_">
	</g>
	<g id="_x30_7_10_">
	</g>
	<g id="_x31_4_17_">
	</g>
	<g id="_x31_4_16_">
	</g>
	<g id="_x31_4_15_">
	</g>
	<g id="_x31_4_14_">
	</g>
	<g id="_x31_4_11_">
	</g>
	<g id="_x31_4_10_">
	</g>
	<g id="_x31_8_15_">
	</g>
	<g id="_x31_8_14_">
	</g>
	<g id="_x31_8_11_">
	</g>
	<g id="_x31_8_10_">
	</g>
	<g id="_x30_5_17_">
	</g>
	<g id="_x30_5_16_">
	</g>
	<g id="_x30_5_15_">
	</g>
	<g id="_x30_5_14_">
	</g>
	<g id="_x30_5_11_">
	</g>
	<g id="_x30_5_10_">
	</g>
	<g id="_x32_0_17_">
	</g>
	<g id="_x32_0_16_">
	</g>
	<g id="_x32_0_15_">
	</g>
	<g id="_x32_0_14_">
	</g>
	<g id="_x32_0_11_">
	</g>
	<g id="_x32_0_10_">
	</g>
	<g id="_x31_7_15_">
	</g>
	<g id="_x31_7_14_">
	</g>
	<g id="_x31_7_11_">
	</g>
	<g id="_x31_7_10_">
	</g>
	<g id="_x30_8_17_">
	</g>
	<g id="_x30_8_16_">
	</g>
	<g id="_x30_8_15_">
	</g>
	<g id="_x30_8_14_">
	</g>
	<g id="_x30_8_11_">
	</g>
	<g id="_x30_8_10_">
	</g>
	<g id="_x31_6_11_">
	</g>
	<g id="_x31_6_10_">
	</g>
	<g id="_x30_3_17_">
	</g>
	<g id="_x30_3_16_">
	</g>
	<g id="_x30_3_15_">
	</g>
	<g id="_x30_3_14_">
	</g>
	<g id="_x30_3_11_">
	</g>
	<g id="_x30_3_10_">
	</g>
	<g id="_x30_6_17_">
	</g>
	<g id="_x30_6_16_">
	</g>
	<g id="_x30_6_15_">
	</g>
	<g id="_x30_6_14_">
	</g>
	<g id="_x30_6_11_">
	</g>
	<g id="_x30_6_10_">
	</g>
	<g id="_x30_4_17_">
	</g>
	<g id="_x30_4_16_">
	</g>
	<g id="_x30_4_15_">
	</g>
	<g id="_x30_4_14_">
	</g>
	<g id="_x30_4_11_">
	</g>
	<g id="_x30_4_10_">
	</g>
	<g id="_x30_1_15_">
	</g>
	<g id="_x30_1_14_">
	</g>
	<g id="_x30_1_11_">
	</g>
	<g id="_x30_1_10_">
	</g>
	<g id="_x31_0_16_">
	</g>
	<g id="_x31_0_15_">
	</g>
	<g id="_x31_0_12_">
	</g>
	<g id="_x31_0_11_">
	</g>
	<g id="_x31_0_10_">
	</g>
	<g id="_x31_1_15_">
	</g>
	<g id="_x31_1_14_">
	</g>
	<g id="_x31_1_11_">
	</g>
	<g id="_x31_1_10_">
	</g>
	<g id="_x31_2_11_">
	</g>
	<g id="_x31_2_10_">
	</g>
	<g id="_x31_9_11_">
	</g>
	<g id="_x31_9_10_">
	</g>
	<g id="_x31_5_15_">
	</g>
	<g id="_x31_5_14_">
	</g>
	<g id="_x31_5_11_">
	</g>
	<g id="_x31_5_10_">
		<g>
			<path d="M94,60c0.7,0.7,1.6,1.1,2.6,1.1c1,0,1.9-0.4,2.6-1.1c0.7-0.7,1.1-1.6,1.1-2.7c0-1-0.4-1.9-1.1-2.7
				c-0.7-0.7-1.6-1.1-2.7-1.1c0,0,0,0,0,0c-1,0-1.9,0.4-2.6,1.1c-0.7,0.7-1.1,1.7-1.1,2.7C92.9,58.4,93.2,59.3,94,60
				C93.9,60,93.9,60,94,60z"/>
			<path d="M108.3,61.1C108.3,61.1,108.3,61.1,108.3,61.1c1,0,1.9-0.4,2.7-1.1c1.5-1.5,1.5-3.8,0-5.3c-1.5-1.5-3.8-1.5-5.3,0
				c-1.5,1.5-1.5,3.8,0,5.3C106.4,60.7,107.3,61.1,108.3,61.1z"/>
			<path d="M96.6,49.4c1,0,1.9-0.4,2.7-1.1c0.7-0.7,1.1-1.6,1.1-2.6c0-1-0.4-1.9-1.1-2.6c-0.7-0.7-1.6-1.1-2.7-1.1c0,0,0,0,0,0
				c-1,0-1.9,0.4-2.7,1.1l0,0c-1.5,1.5-1.5,3.8,0,5.3C94.7,49,95.6,49.4,96.6,49.4z"/>
			<path d="M263.5,71C263.5,70.9,263.5,70.9,263.5,71c-1.1-2.6-2.6-5-4.5-7.2l-23.6-27.9c-8.1-9.6-20-15.1-32.6-15.1h-15.3
				c-1.3,0-2.4,1.1-2.4,2.4v66h-6.9V23.5c0-12.9-10.5-23.5-23.5-23.5H60.8c-1.3,0-2.4,1.1-2.4,2.4v100.4c0,1.3,1.1,2.4,2.4,2.4h17
				c-0.3,1.2-0.4,2.5-0.4,3.7c0,9.9,8,17.9,17.9,17.9s17.9-8,17.9-17.9c0-1.3-0.1-2.5-0.4-3.7h63h11.7h13.6
				c-0.3,1.2-0.4,2.5-0.4,3.7c0,9.9,8,17.9,17.9,17.9c9.9,0,17.9-8,17.9-17.9c0-1.3-0.1-2.5-0.4-3.7h27.5c1.3,0,2.4-1.1,2.4-2.4
				V82.5C265.9,78.5,265.1,74.6,263.5,71z M259.6,74.3c1,2.6,1.5,5.4,1.5,8.3v1.5H250v-2.2c0-4.2,3.4-7.6,7.6-7.6H259.6z
				 M202.8,25.6c11.2,0,21.7,4.9,29,13.4l23.6,27.9c0.7,0.8,1.3,1.7,1.9,2.6c-6.7,0.1-12.1,5.6-12.1,12.3v2.2h-55.3V25.6H202.8z
				 M185,94v6.4h-6.9V94H185z M63.2,4.8h91.5c10.3,0,18.7,8.4,18.7,18.7v77H99.4c0,0,0,0,0,0s0,0,0,0h-6.9c-0.1,0-0.1,0-0.2,0
				c-0.1,0-0.2,0-0.2,0H63.2V4.8z M98,107.8c0.2,0.4,0.2,0.8,0.2,1.2c0,1.7-1.3,3-3,3c-1.7,0-3-1.4-3-3c0-0.4,0.1-0.8,0.2-1.1
				c0.1-0.3,0.4-0.7,0.7-1.1c0.3-0.5,0.6-1,0.9-1.5h3.2C97.4,106.1,97.7,107,98,107.8z M108.3,109c0,7.2-5.9,13.1-13.1,13.1
				s-13.1-5.9-13.1-13.1c0-1.3,0.2-2.5,0.5-3.7h5.7c-0.1,0.2-0.3,0.4-0.4,0.7c-0.4,0.9-0.6,2-0.6,3c0,4.3,3.5,7.8,7.8,7.8
				c4.3,0,7.8-3.5,7.8-7.8c0-1.1-0.2-2.1-0.6-3.1c-0.1-0.2-0.2-0.4-0.2-0.7h5.6C108.2,106.4,108.3,107.7,108.3,109z M231.6,109
				c0,7.2-5.9,13.1-13.1,13.1c-7.2,0-13.1-5.9-13.1-13.1c0-1.3,0.2-2.5,0.5-3.7h5.6c-0.1,0.2-0.2,0.4-0.2,0.7c-0.4,1-0.6,2-0.6,3.1
				c0,4.3,3.5,7.8,7.8,7.8c4.3,0,7.8-3.5,7.8-7.8c0-1.1-0.2-2.1-0.6-3.1c-0.1-0.2-0.2-0.4-0.2-0.6h5.6
				C231.5,106.4,231.6,107.7,231.6,109z M220.5,105.2c0.2,0.9,0.4,1.7,0.8,2.6c0.2,0.4,0.2,0.7,0.2,1.2c0,1.7-1.3,3-3,3
				c-1.7,0-3-1.4-3-3c0-0.4,0.1-0.8,0.2-1.2c0.4-0.8,0.6-1.7,0.8-2.5H220.5z M222.7,100.4C222.7,100.4,222.7,100.4,222.7,100.4
				C222.7,100.4,222.7,100.4,222.7,100.4h-8.3c0,0,0,0,0,0s0,0,0,0h-24.6V88.9h57.7c0,0,0,0,0,0s0,0,0,0h13.5v11.6H222.7z"/>
			<path d="M198,65.4h43.3c0.2,0,0.4,0,0.6-0.1c0.1,0,0.1,0,0.1,0c0.2-0.1,0.3-0.1,0.5-0.2c0,0,0.1,0,0.1,0c0.2-0.1,0.3-0.2,0.4-0.4
				c0,0,0.1-0.1,0.1-0.1c0.1-0.1,0.2-0.3,0.3-0.4c0,0,0,0,0-0.1c0,0,0,0,0,0c0.1-0.2,0.1-0.4,0.2-0.6c0-0.1,0-0.1,0-0.2
				c0-0.1,0-0.2,0-0.2c0-0.1,0-0.1,0-0.2c0-0.1,0-0.1,0-0.2c0-0.2-0.1-0.4-0.2-0.6c0,0,0,0,0-0.1c-0.1-0.2-0.2-0.3-0.3-0.5
				c0,0,0,0,0-0.1l-15.8-18.7c-6.1-7.2-15.1-11.4-24.5-11.4H198c-1.3,0-2.4,1.1-2.4,2.4V63C195.6,64.3,196.7,65.4,198,65.4z
				 M200.4,36.2h2.3c8.1,0,15.7,3.5,20.9,9.7l12.5,14.7h-35.7V36.2z"/>
			<path d="M26.1,25h23.7c1.3,0,2.4-1.1,2.4-2.4s-1.1-2.4-2.4-2.4H26.1c-4.4,0-7.9,3.5-7.9,7.9c0,4.4,3.5,7.9,7.9,7.9H40
				c1.7,0,3.1,1.4,3.1,3.1s-1.4,3.1-3.1,3.1H7.9c-4.4,0-7.9,3.6-7.9,7.9c0,4.4,3.5,7.9,7.9,7.9h23.7c1.7,0,3.1,1.4,3.1,3.1
				c0,1.7-1.4,3.1-3.1,3.1H16.8c-4.4,0-7.9,3.5-7.9,7.9s3.6,7.9,7.9,7.9h33c1.3,0,2.4-1.1,2.4-2.4s-1.1-2.4-2.4-2.4h-33
				c-1.7,0-3.1-1.4-3.1-3.1s1.4-3.1,3.1-3.1h14.8c4.4,0,7.9-3.6,7.9-7.9c0-4.4-3.5-7.9-7.9-7.9H7.9c-1.7,0-3.1-1.4-3.1-3.1
				c0-1.7,1.4-3.1,3.1-3.1H40c4.4,0,7.9-3.5,7.9-7.9s-3.5-7.9-7.9-7.9H26.1c-1.7,0-3.1-1.4-3.1-3.1C23,26.4,24.4,25,26.1,25z"/>
			<path d="M86,68.3c4.4,4.4,10.3,6.8,16.5,6.8c0,0,0,0,0,0c4,0,7.8-1,11.3-2.9c-0.5,6.6,0.3,11.2,2.6,13.9c1.4,1.7,3.4,2.6,5.7,2.6
				c9.1,0,12.9-8.7,16.2-16.4c2.3-5.4,4.5-10.4,7.9-11.1l-1.6,4.7c-0.4,1.3,0.3,2.6,1.5,3c0.3,0.1,0.5,0.1,0.8,0.1
				c1,0,1.9-0.6,2.3-1.6l1.7-5c0.3,0.2,0.5,0.5,0.8,0.8c4.3,5.4,2.2,19.4,1.1,24.3c-0.3,1.3,0.5,2.6,1.8,2.9c0.2,0,0.4,0.1,0.5,0.1
				c1.1,0,2.1-0.7,2.3-1.9c0.5-2,4.5-20.2-2-28.4c-0.8-1.1-1.8-1.9-3-2.5l11.8-35.5c0.4-1.3-0.3-2.6-1.5-3c-1.3-0.4-2.6,0.3-3,1.5
				l-11.8,35.6c-0.3,0-0.6,0-0.9,0c-6.9,0-10,7.1-13,14c-3.5,8.1-6.2,13.5-11.8,13.5c-0.9,0-1.6-0.3-2.1-0.9c-0.8-1-2.5-4.3-1-14.7
				c0,0,0.1-0.1,0.1-0.1c9.2-9.2,9.2-24.2,0-33.4c-9.2-9.2-24.2-9.2-33.4,0c-8,8-9,20.4-3.1,29.6c-7.6,12.6-12.4,25.9-12.6,26.5
				c-0.4,1.2,0.2,2.6,1.5,3.1c0.3,0.1,0.5,0.1,0.8,0.1c1,0,1.9-0.6,2.3-1.6C74.7,92.3,79.1,80.1,86,68.3z M89.2,38.2
				c3.7-3.7,8.5-5.5,13.3-5.5c4.8,0,9.6,1.8,13.3,5.5c5.6,5.6,6.9,13.9,4,20.7c-0.2-5.8-1.6-10.8-4.1-13.6c-1.5-1.8-3.4-2.8-5.6-3
				c-0.5-0.3-1.1-0.4-1.7-0.4c0,0,0,0,0,0c-1,0-1.9,0.4-2.6,1.1c-0.1,0.1-0.1,0.2-0.2,0.3c-0.1,0.1-0.1,0.2-0.2,0.3
				c-0.4,0.6-0.7,1.4-0.7,2.1c0,1,0.4,1.9,1.1,2.7c0.7,0.7,1.7,1.1,2.6,1.1c1,0,1.9-0.4,2.6-1.1c0.1-0.1,0.3-0.3,0.4-0.5
				c0.2,0.2,0.4,0.4,0.6,0.6c2.5,3,3.5,10.1,2.5,17.5c-3.4,2.8-7.6,4.4-12,4.4c0,0,0,0,0,0c-5,0-9.7-2-13.3-5.5
				C81.9,57.4,81.9,45.5,89.2,38.2z"/>
		</g>
	</g>
	<g id="_x31_3_11_">
	</g>
	<g id="_x31_3_10_">
	</g>
	<g id="_x30_2_6_">
	</g>
	<g id="_x30_7_6_">
	</g>
	<g id="_x31_4_6_">
	</g>
	<g id="_x31_8_6_">
	</g>
	<g id="_x30_5_6_">
	</g>
	<g id="_x32_0_6_">
	</g>
	<g id="_x31_7_6_">
	</g>
	<g id="_x30_8_6_">
	</g>
	<g id="_x31_6_6_">
	</g>
	<g id="_x30_3_6_">
	</g>
	<g id="_x30_6_6_">
	</g>
	<g id="_x30_4_6_">
	</g>
	<g id="_x30_1_6_">
	</g>
	<g id="_x31_0_6_">
	</g>
	<g id="_x31_1_6_">
	</g>
	<g id="_x31_2_6_">
	</g>
	<g id="_x31_9_6_">
	</g>
	<g id="_x31_5_6_">
	</g>
	<g id="_x31_3_9_">
	</g>
	<g id="_x30_2_3_">
	</g>
	<g id="_x30_7_3_">
	</g>
	<g id="_x31_4_3_">
	</g>
	<g id="_x31_8_3_">
	</g>
	<g id="_x30_5_3_">
	</g>
	<g id="_x32_0_3_">
	</g>
	<g id="_x31_7_3_">
	</g>
	<g id="_x30_8_3_">
	</g>
	<g id="_x31_6_3_">
	</g>
	<g id="_x30_3_3_">
	</g>
	<g id="_x30_6_3_">
	</g>
	<g id="_x30_4_3_">
	</g>
	<g id="_x30_1_3_">
	</g>
	<g id="_x31_0_3_">
	</g>
	<g id="_x31_1_3_">
	</g>
	<g id="_x31_2_3_">
	</g>
	<g id="_x31_9_3_">
	</g>
	<g id="_x31_5_3_">
	</g>
	<g id="_x31_3_3_">
	</g>
	<g id="New_Symbol_16_">
	</g>
	<g id="New_Symbol_15_">
	</g>
	<g id="New_Symbol_14_">
	</g>
	<g id="New_Symbol_13_">
	</g>
	<g id="New_Symbol_10_">
	</g>
	<g id="New_Symbol_9_">
	</g>
	<g id="_x30_2_1_">
	</g>
	<g id="_x30_7_1_">
	</g>
	<g id="_x31_4_1_">
	</g>
	<g id="_x31_8_1_">
	</g>
	<g id="_x30_5_1_">
	</g>
	<g id="_x32_0_1_">
	</g>
	<g id="_x31_7_1_">
	</g>
	<g id="_x30_8_1_">
	</g>
	<g id="_x31_6_1_">
	</g>
	<g id="_x30_3_1_">
	</g>
	<g id="_x30_6_1_">
	</g>
	<g id="_x30_4_1_">
	</g>
	<g id="_x30_1_1_">
	</g>
	<g id="_x31_0_1_">
	</g>
	<g id="_x31_1_1_">
	</g>
	<g id="_x31_2_1_">
	</g>
	<g id="_x31_9_1_">
	</g>
	<g id="_x31_5_1_">
	</g>
	<g id="_x31_3_1_">
	</g>
	<g id="New_Symbol_6_">
	</g>
	<g id="New_Symbol_4_">
	</g>
	<g id="New_Symbol_1_">
	</g>
	<g id="New_Symbol">
	</g>
	<g id="_x30_2">
	</g>
	<g id="_x30_7">
	</g>
	<g id="_x31_4">
	</g>
	<g id="_x31_8">
	</g>
	<g id="_x30_5">
	</g>
	<g id="_x32_0">
	</g>
	<g id="_x31_7">
	</g>
	<g id="_x30_8">
	</g>
	<g id="_x31_6">
	</g>
	<g id="_x30_3">
	</g>
	<g id="_x30_6">
	</g>
	<g id="_x30_4">
	</g>
	<g id="_x30_1">
	</g>
	<g id="_x31_0">
	</g>
	<g id="_x31_1">
	</g>
	<g id="_x31_2">
	</g>
	<g id="_x31_9">
	</g>
	<g id="_x31_5">
	</g>
	<g id="_x31_3">
	</g>
</g>
<g id="Text">
</g>
</svg>
