<?xml version="1.0" encoding="utf-8"?>
<!-- Generator: Adobe Illustrator 21.0.0, SVG Export Plug-In . SVG Version: 6.00 Build 0)  -->
<svg version="1.1" xmlns="http://www.w3.org/2000/svg" xmlns:xlink="http://www.w3.org/1999/xlink" x="0px" y="0px"
	 viewBox="0 0 197.9 249.2" style="enable-background:new 0 0 197.9 249.2;" xml:space="preserve">
<style type="text/css">
	.st0{fill:#FFFFFF;}
	.st1{fill:none;stroke:#000000;stroke-width:4.8;stroke-linecap:round;stroke-linejoin:round;stroke-miterlimit:10;}
	
		.st2{fill:none;stroke:#000000;stroke-width:4.8;stroke-linecap:round;stroke-linejoin:round;stroke-miterlimit:10;stroke-dasharray:2.2222,12.2221;}
	.st3{fill:none;stroke:#000000;stroke-width:4.8;stroke-linecap:round;stroke-linejoin:round;}
	.st4{fill:none;stroke:#000000;stroke-width:4.8;stroke-linecap:round;stroke-linejoin:round;stroke-dasharray:2.3342,12.8383;}
	.st5{fill:none;stroke:#000000;stroke-width:4.8;stroke-linecap:round;stroke-linejoin:round;stroke-dasharray:0,11.7317;}
	.st6{stroke:#000000;stroke-width:4.8;stroke-linecap:round;stroke-linejoin:round;stroke-miterlimit:10;}
	.st7{stroke:#000000;stroke-width:4.8;stroke-miterlimit:10;}
	.st8{fill:none;stroke:#000000;stroke-width:4.8;stroke-linecap:round;stroke-linejoin:round;stroke-dasharray:0,15.9232;}
	.st9{fill:none;stroke:#000000;stroke-width:4.8;stroke-linecap:round;stroke-linejoin:round;stroke-dasharray:0,16.2101;}
	.st10{fill:none;stroke:#000000;stroke-width:4.8;stroke-linecap:round;stroke-linejoin:round;stroke-dasharray:0,16.564;}
	
		.st11{fill:none;stroke:#000000;stroke-width:4.8;stroke-linecap:round;stroke-linejoin:round;stroke-miterlimit:10;stroke-dasharray:1.1111,12.2221;}
</style>
<g id="Background">
</g>
<g id="Elements">
	<g id="_x30_2_15_">
	</g>
	<g id="_x30_2_14_">
	</g>
	<g id="_x30_2_11_">
	</g>
	<g id="_x30_2_10_">
	</g>
	<g id="_x30_7_17_">
	</g>
	<g id="_x30_7_16_">
	</g>
	<g id="_x30_7_15_">
	</g>
	<g id="_x30_7_14_">
	</g>
	<g id="_x30_7_11_">
	</g>
	<g id="_x30_7_10_">
	</g>
	<g id="_x31_4_17_">
	</g>
	<g id="_x31_4_16_">
	</g>
	<g id="_x31_4_15_">
	</g>
	<g id="_x31_4_14_">
	</g>
	<g id="_x31_4_11_">
	</g>
	<g id="_x31_4_10_">
	</g>
	<g id="_x31_8_15_">
	</g>
	<g id="_x31_8_14_">
	</g>
	<g id="_x31_8_11_">
	</g>
	<g id="_x31_8_10_">
	</g>
	<g id="_x30_5_17_">
	</g>
	<g id="_x30_5_16_">
	</g>
	<g id="_x30_5_15_">
	</g>
	<g id="_x30_5_14_">
	</g>
	<g id="_x30_5_11_">
	</g>
	<g id="_x30_5_10_">
		<g>
			<g>
				<path d="M99,29.9c-1.3,0-2.4-1.1-2.4-2.4v-10c0-1.7,1.3-3.2,3-3.4c2.3-0.3,4.1-2.3,4.1-4.6c0-2.6-2.1-4.7-4.7-4.7
					c-2.6,0-4.7,2.1-4.7,4.7c0,1.3-1.1,2.4-2.4,2.4s-2.4-1.1-2.4-2.4C89.5,4.2,93.7,0,99,0c5.2,0,9.5,4.2,9.5,9.5
					c0,4.3-3,8.1-7.1,9.1v8.9C101.4,28.8,100.3,29.9,99,29.9z"/>
			</g>
			<g>
				<path d="M60.8,36.4c-0.6,0-1.3-0.3-1.8-0.8c-0.9-1-0.8-2.5,0.1-3.4c0.8-0.7,8.5-7.1,39.8-7.1c31.3,0,39,6.3,39.8,7.1
					c1,0.9,1,2.4,0.1,3.4c-0.9,1-2.4,1-3.4,0.1c0,0-7.2-5.8-36.5-5.8c-29.3,0-36.5,5.8-36.6,5.8C61.9,36.2,61.3,36.4,60.8,36.4z"/>
			</g>
			<g>
				<g>
					<path d="M99,59C99,59,99,59,99,59c-0.8,0-1.5-0.4-2-1c-0.1-0.1-6-8.1-15.8-8.1c-1,0-1.9-0.6-2.3-1.6l-6.1-17.6
						c-0.4-1.3,0.2-2.6,1.5-3.1c1.3-0.4,2.6,0.2,3.1,1.5L83,45.1c7.8,0.6,13.3,5,16,7.8c2.7-2.8,8.2-7.2,16-7.8l5.6-16.1
						c0.4-1.3,1.8-1.9,3.1-1.5c1.3,0.4,1.9,1.8,1.5,3.1L119,48.3c-0.3,1-1.2,1.6-2.3,1.6c-9.8,0-15.7,8-15.8,8.1
						C100.5,58.6,99.7,59,99,59z"/>
				</g>
				<g>
					<path d="M99,92.7c-8.6,0-13.3-3.9-13.5-4c-0.5-0.5-0.8-1.1-0.8-1.8c0-6.4-2.9-14.3-5.4-21.3c-3.1-8.5-5.3-14.7-2.8-18.2
						c0.7-1,2.1-2.2,4.8-2.2c1.3,0,2.4,1.1,2.4,2.4s-1.1,2.4-2.4,2.4c-0.6,0-0.8,0.1-0.9,0.2c-1,1.5,1.6,8.9,3.4,13.8
						c2.5,6.9,5.3,14.7,5.6,21.7c1.4,0.8,4.6,2.3,9.6,2.3c4.9,0,8.1-1.5,9.6-2.3c0.3-6.9,3.1-14.7,5.6-21.7
						c1.8-4.9,4.5-12.3,3.4-13.8c0-0.1-0.3-0.2-0.9-0.2c-1.3,0-2.4-1.1-2.4-2.4s1.1-2.4,2.4-2.4c2.7,0,4.1,1.2,4.8,2.2
						c2.5,3.5,0.2,9.7-2.8,18.2c-2.5,7-5.4,14.9-5.4,21.3c0,0.7-0.3,1.4-0.8,1.8C112.2,88.8,107.6,92.7,99,92.7z M89.4,86.8
						L89.4,86.8L89.4,86.8z"/>
				</g>
			</g>
			<g>
				<path d="M195.5,214.2c-31.3,0-38.4-33-45.3-65c-6.7-30.9-12.9-60-39.3-60c-1.3,0-2.4-1.1-2.4-2.4s1.1-2.4,2.4-2.4
					c30.2,0,37.2,32.4,44,63.8c6.8,31.5,13.2,61.2,40.6,61.2c1.3,0,2.4,1.1,2.4,2.4S196.9,214.2,195.5,214.2z"/>
			</g>
			<g>
				<path d="M2.4,214.2c-1.3,0-2.4-1.1-2.4-2.4s1.1-2.4,2.4-2.4c27.4,0,33.8-29.7,40.6-61.2c6.8-31.4,13.8-63.8,44-63.8
					c1.3,0,2.4,1.1,2.4,2.4s-1.1,2.4-2.4,2.4c-26.4,0-32.7,29.2-39.3,60C40.8,181.2,33.7,214.2,2.4,214.2z"/>
			</g>
			<g>
				<path d="M99,249.2c-9.8,0-15.3-4-17.9-6.8c-2.3,1.7-6.6,3.4-14.7,3.4c-9.9,0-15-5.2-17.1-9.3c-3.2,1.1-9.2,2.6-14.8,1.9
					c-6.5-0.9-10.6-5.9-12.4-8.6c-2.7,0.6-7.7,1.2-12.5-1.5c-4.9-2.8-8.1-8.2-9.5-16c-0.2-1.3,0.6-2.6,1.9-2.8
					c1.3-0.2,2.6,0.6,2.8,1.9c1.1,6.4,3.5,10.6,7.1,12.7c4.8,2.7,10.3,0.7,10.4,0.7c1.2-0.4,2.5,0.1,3,1.2c0,0.1,3.5,6.9,9.8,7.7
					c6.7,0.9,14.5-2.4,14.6-2.4c0.7-0.3,1.4-0.2,2,0.1c0.6,0.3,1.1,0.9,1.2,1.6c0.1,0.3,2.2,8.1,13.4,8.1c9.9,0,12.2-2.6,12.5-3.1
					c0.2-1,0.9-1.6,1.9-1.8c1-0.2,2,0.5,2.5,1.5c0.1,0.3,3.9,6.9,15.6,6.9c11.9,0,15.6-6.8,15.6-6.9c0.5-0.9,1.5-1.6,2.5-1.5
					c1,0.2,1.7,0.8,1.9,1.8c0.3,0.5,2.7,3.1,12.5,3.1c11.2,0,13.3-7.8,13.4-8.1c0.2-0.7,0.6-1.3,1.3-1.6c0.6-0.3,1.4-0.3,2-0.1
					c0.1,0,8,3.3,14.6,2.4c6.4-0.9,9.8-7.7,9.8-7.7c0.6-1.1,1.9-1.6,3-1.2c0,0,5.6,2.1,10.4-0.7c3.6-2,6-6.3,7.1-12.7
					c0.2-1.3,1.5-2.2,2.8-1.9c1.3,0.2,2.2,1.5,1.9,2.8c-1.4,7.8-4.6,13.2-9.6,16c-4.7,2.7-9.8,2.1-12.5,1.5
					c-1.8,2.7-5.9,7.7-12.4,8.6c-5.6,0.8-11.6-0.8-14.8-1.9c-2.1,4.1-7.2,9.3-17.1,9.3c-8.1,0-12.4-1.7-14.7-3.4
					C114.2,245.2,108.8,249.2,99,249.2z"/>
			</g>
			<g>
				<path d="M147.2,235.8c-0.3,0-0.7-0.1-1-0.2c-21.2-9.8-23.4-45-25.6-79c-1.8-27.6-3.6-56.1-16.1-65.5c-1.1-0.8-1.3-2.3-0.5-3.4
					c0.8-1.1,2.3-1.3,3.4-0.5c14.3,10.7,16.1,39,18,69c2.1,32.6,4.2,66.3,22.8,74.9c1.2,0.6,1.7,2,1.2,3.2
					C149,235.3,148.1,235.8,147.2,235.8z"/>
			</g>
			<g>
				<path d="M50.7,235.8c-1.2,0-2.3-1-2.4-2.2c-0.1-1.3,0.9-2.5,2.2-2.6c19.2-1.4,21.5-42.2,23.6-78.3c1.9-33.2,3.6-61.9,17.1-65.8
					c1.3-0.4,2.6,0.4,3,1.6c0.4,1.3-0.4,2.6-1.6,3c-10.3,3-12,32.7-13.7,61.5c-2.3,39.9-4.7,81.1-28.1,82.8
					C50.8,235.8,50.7,235.8,50.7,235.8z"/>
			</g>
			<g>
				<path d="M164.1,223c-1-0.9-1.1-2.4-0.2-3.4l0,0c0.9-1,2.4-1.1,3.4-0.2l0,0l0,0l0,0c1,0.9,1.1,2.4,0.2,3.4l0,0
					c-0.5,0.5-1.1,0.8-1.8,0.8l0,0C165.1,223.6,164.6,223.4,164.1,223z M155,212.5c-0.8-1.1-0.5-2.6,0.6-3.3l0,0
					c1.1-0.8,2.6-0.5,3.3,0.6l0,0c0.8,1.1,0.5,2.6-0.6,3.3l0,0c-0.4,0.3-0.9,0.4-1.4,0.4l0,0C156.2,213.5,155.5,213.2,155,212.5z
					 M148.1,200.7c-0.6-1.2-0.1-2.6,1.1-3.2l0,0c1.2-0.6,2.6-0.1,3.2,1.1l0,0c0.6,1.2,0.1,2.6-1.1,3.2l0,0c-0.4,0.2-0.7,0.2-1.1,0.2
					l0,0C149.3,202,148.5,201.6,148.1,200.7z M142.7,188.2L142.7,188.2c-0.5-1.2,0.2-2.6,1.4-3.1l0,0c1.2-0.4,2.6,0.2,3.1,1.4l0,0
					l0,0l0,0c0.5,1.2-0.2,2.6-1.4,3.1l0,0c-0.3,0.1-0.5,0.1-0.8,0.1l0,0C144,189.8,143,189.2,142.7,188.2z M138.9,175.1
					c-0.3-1.3,0.5-2.6,1.8-2.9l0,0c1.3-0.3,2.6,0.5,2.9,1.9l0,0c0.3,1.3-0.5,2.6-1.8,2.8l0,0c-0.2,0-0.3,0.1-0.5,0.1l0,0
					C140.1,177,139.1,176.2,138.9,175.1z M137.3,161.3c0-1.3,1.1-2.4,2.4-2.4l0,0c1.3,0,2.4,1.1,2.4,2.4l0,0c0,1.3-1.1,2.4-2.4,2.4
					l0,0C138.4,163.7,137.3,162.7,137.3,161.3z"/>
			</g>
			<g>
				<path d="M30.4,222.8c-0.9-1-0.8-2.5,0.2-3.4l0,0c1-0.9,2.5-0.8,3.4,0.2l0,0c0.9,1,0.8,2.5-0.2,3.4l0,0c-0.5,0.4-1,0.6-1.6,0.6
					l0,0C31.5,223.6,30.9,223.3,30.4,222.8z M39.6,213.1c-1.1-0.8-1.4-2.3-0.6-3.3l0,0c0.8-1.1,2.2-1.4,3.3-0.6l0,0
					c1.1,0.8,1.4,2.2,0.6,3.3l0,0c-0.5,0.7-1.2,1-2,1l0,0C40.5,213.5,40,213.4,39.6,213.1z M46.6,201.8c-1.2-0.6-1.7-2-1.1-3.2l0,0
					c0.6-1.2,2-1.7,3.2-1.1l0,0c1.2,0.6,1.7,2,1.1,3.2l0,0l0,0l0,0c-0.4,0.8-1.3,1.3-2.1,1.3l0,0C47.4,202,47,202,46.6,201.8z
					 M52.2,189.6c-1.2-0.5-1.9-1.8-1.5-3.1l0,0c0.5-1.2,1.8-1.9,3.1-1.4l0,0c1.2,0.4,1.9,1.8,1.5,3.1l0,0c-0.4,1-1.3,1.6-2.3,1.6
					l0,0C52.7,189.8,52.4,189.7,52.2,189.6z M56.2,176.9c-1.3-0.3-2.1-1.6-1.9-2.8l0,0c0.3-1.3,1.6-2.1,2.9-1.9l0,0
					c1.3,0.3,2.1,1.6,1.9,2.9l0,0c0,0,0,0,0,0l0,0c-0.2,1.1-1.2,1.9-2.4,1.9l0,0C56.5,177,56.3,176.9,56.2,176.9z M55.8,161.3
					c0-1.3,1.1-2.4,2.4-2.4l0,0c1.3,0,2.4,1.1,2.4,2.4l0,0c0,1.3-1.1,2.4-2.4,2.4l0,0C56.9,163.7,55.8,162.7,55.8,161.3z"/>
			</g>
			<g>
				<path d="M111.9,232.9c-0.4-1.3,0.3-2.6,1.5-3l0,0c1.3-0.4,2.6,0.3,3,1.5l0,0c0.4,1.3-0.3,2.6-1.5,3l0,0
					c-0.2,0.1-0.5,0.1-0.8,0.1l0,0C113.2,234.5,112.2,233.9,111.9,232.9z M108.5,219.7c-0.3-1.3,0.6-2.6,1.9-2.8l0,0
					c1.3-0.3,2.6,0.6,2.8,1.9l0,0l0,0l0,0c0.3,1.3-0.6,2.6-1.9,2.8l0,0c-0.2,0-0.3,0.1-0.5,0.1l0,0
					C109.7,221.6,108.7,220.8,108.5,219.7z M106.3,206.4c-0.2-1.3,0.8-2.5,2.1-2.7l0,0c1.3-0.2,2.5,0.7,2.7,2.1l0,0
					c0.2,1.3-0.8,2.5-2.1,2.7l0,0c-0.1,0-0.2,0-0.3,0l0,0C107.5,208.4,106.4,207.6,106.3,206.4z M104.8,193
					c-0.1-1.3,0.9-2.5,2.2-2.6l0,0c1.3-0.1,2.5,0.9,2.6,2.2l0,0c0.1,1.3-0.9,2.5-2.2,2.6l0,0c-0.1,0-0.1,0-0.2,0l0,0
					C106,195.2,104.9,194.2,104.8,193z M104,179.6c-0.1-1.3,1-2.4,2.3-2.5l0,0c1.3-0.1,2.5,1,2.5,2.3l0,0c0,0,0,0,0,0l0,0
					c0.1,1.3-1,2.4-2.3,2.5l0,0c0,0-0.1,0-0.1,0l0,0C105.1,181.8,104,180.8,104,179.6z M106,168.5c-1.3,0-2.4-1.1-2.4-2.4l0,0
					c0-1.3,1.1-2.4,2.4-2.4l0,0c1.3,0,2.4,1.1,2.4,2.4l0,0l0,0l0,0C108.4,167.4,107.3,168.5,106,168.5L106,168.5
					C106,168.5,106,168.5,106,168.5z"/>
			</g>
			<g>
				<path d="M83,234.4c-1.3-0.4-1.9-1.8-1.5-3l0,0c0.4-1.2,1.8-1.9,3-1.5l0,0c1.3,0.4,1.9,1.8,1.5,3l0,0c-0.3,1-1.3,1.6-2.3,1.6l0,0
					C83.5,234.5,83.2,234.5,83,234.4z M86.6,221.6c-1.3-0.3-2.1-1.5-1.9-2.8l0,0c0.3-1.3,1.5-2.1,2.8-1.9l0,0
					c1.3,0.3,2.1,1.5,1.9,2.8l0,0c-0.2,1.1-1.2,1.9-2.3,1.9l0,0C86.9,221.6,86.8,221.6,86.6,221.6z M89,208.4
					c-1.3-0.2-2.2-1.4-2.1-2.7l0,0c0.2-1.3,1.4-2.2,2.7-2.1l0,0c1.3,0.2,2.2,1.4,2.1,2.7l0,0c-0.2,1.2-1.2,2.1-2.4,2.1l0,0
					C89.2,208.4,89.1,208.4,89,208.4z M90.5,195.2c-1.3-0.1-2.3-1.3-2.2-2.6l0,0c0.1-1.3,1.3-2.3,2.6-2.2l0,0
					c1.3,0.1,2.3,1.3,2.2,2.6l0,0c-0.1,1.2-1.2,2.2-2.4,2.2l0,0C90.6,195.2,90.6,195.2,90.5,195.2z M91.5,181.8
					c-1.3-0.1-2.4-1.2-2.3-2.5v0c0.1-1.3,1.2-2.4,2.5-2.3l0,0c1.3,0.1,2.4,1.2,2.3,2.5l0,0c-0.1,1.3-1.1,2.3-2.4,2.3l0,0
					C91.5,181.8,91.5,181.8,91.5,181.8z M89.5,166.1c0-1.3,1.1-2.4,2.4-2.4l0,0c1.3,0,2.4,1.1,2.4,2.4l0,0l0,0l0,0
					c0,1.3-1.1,2.4-2.4,2.4l0,0C90.6,168.5,89.5,167.4,89.5,166.1z"/>
			</g>
		</g>
	</g>
	<g id="_x32_0_17_">
	</g>
	<g id="_x32_0_16_">
	</g>
	<g id="_x32_0_15_">
	</g>
	<g id="_x32_0_14_">
	</g>
	<g id="_x32_0_11_">
	</g>
	<g id="_x32_0_10_">
	</g>
	<g id="_x31_7_15_">
	</g>
	<g id="_x31_7_14_">
	</g>
	<g id="_x31_7_11_">
	</g>
	<g id="_x31_7_10_">
	</g>
	<g id="_x30_8_17_">
	</g>
	<g id="_x30_8_16_">
	</g>
	<g id="_x30_8_15_">
	</g>
	<g id="_x30_8_14_">
	</g>
	<g id="_x30_8_11_">
	</g>
	<g id="_x30_8_10_">
	</g>
	<g id="_x31_6_11_">
	</g>
	<g id="_x31_6_10_">
	</g>
	<g id="_x30_3_17_">
	</g>
	<g id="_x30_3_16_">
	</g>
	<g id="_x30_3_15_">
	</g>
	<g id="_x30_3_14_">
	</g>
	<g id="_x30_3_11_">
	</g>
	<g id="_x30_3_10_">
	</g>
	<g id="_x30_6_17_">
	</g>
	<g id="_x30_6_16_">
	</g>
	<g id="_x30_6_15_">
	</g>
	<g id="_x30_6_14_">
	</g>
	<g id="_x30_6_11_">
	</g>
	<g id="_x30_6_10_">
	</g>
	<g id="_x30_4_17_">
	</g>
	<g id="_x30_4_16_">
	</g>
	<g id="_x30_4_15_">
	</g>
	<g id="_x30_4_14_">
	</g>
	<g id="_x30_4_11_">
	</g>
	<g id="_x30_4_10_">
	</g>
	<g id="_x30_1_15_">
	</g>
	<g id="_x30_1_14_">
	</g>
	<g id="_x30_1_11_">
	</g>
	<g id="_x30_1_10_">
	</g>
	<g id="_x31_0_16_">
	</g>
	<g id="_x31_0_15_">
	</g>
	<g id="_x31_0_12_">
	</g>
	<g id="_x31_0_11_">
	</g>
	<g id="_x31_0_10_">
	</g>
	<g id="_x31_1_15_">
	</g>
	<g id="_x31_1_14_">
	</g>
	<g id="_x31_1_11_">
	</g>
	<g id="_x31_1_10_">
	</g>
	<g id="_x31_2_11_">
	</g>
	<g id="_x31_2_10_">
	</g>
	<g id="_x31_9_11_">
	</g>
	<g id="_x31_9_10_">
	</g>
	<g id="_x31_5_15_">
	</g>
	<g id="_x31_5_14_">
	</g>
	<g id="_x31_5_11_">
	</g>
	<g id="_x31_5_10_">
	</g>
	<g id="_x31_3_11_">
	</g>
	<g id="_x31_3_10_">
	</g>
	<g id="_x30_2_6_">
	</g>
	<g id="_x30_7_6_">
	</g>
	<g id="_x31_4_6_">
	</g>
	<g id="_x31_8_6_">
	</g>
	<g id="_x30_5_6_">
	</g>
	<g id="_x32_0_6_">
	</g>
	<g id="_x31_7_6_">
	</g>
	<g id="_x30_8_6_">
	</g>
	<g id="_x31_6_6_">
	</g>
	<g id="_x30_3_6_">
	</g>
	<g id="_x30_6_6_">
	</g>
	<g id="_x30_4_6_">
	</g>
	<g id="_x30_1_6_">
	</g>
	<g id="_x31_0_6_">
	</g>
	<g id="_x31_1_6_">
	</g>
	<g id="_x31_2_6_">
	</g>
	<g id="_x31_9_6_">
	</g>
	<g id="_x31_5_6_">
	</g>
	<g id="_x31_3_9_">
	</g>
	<g id="_x30_2_3_">
	</g>
	<g id="_x30_7_3_">
	</g>
	<g id="_x31_4_3_">
	</g>
	<g id="_x31_8_3_">
	</g>
	<g id="_x30_5_3_">
	</g>
	<g id="_x32_0_3_">
	</g>
	<g id="_x31_7_3_">
	</g>
	<g id="_x30_8_3_">
	</g>
	<g id="_x31_6_3_">
	</g>
	<g id="_x30_3_3_">
	</g>
	<g id="_x30_6_3_">
	</g>
	<g id="_x30_4_3_">
	</g>
	<g id="_x30_1_3_">
	</g>
	<g id="_x31_0_3_">
	</g>
	<g id="_x31_1_3_">
	</g>
	<g id="_x31_2_3_">
	</g>
	<g id="_x31_9_3_">
	</g>
	<g id="_x31_5_3_">
	</g>
	<g id="_x31_3_3_">
	</g>
	<g id="New_Symbol_16_">
	</g>
	<g id="New_Symbol_15_">
	</g>
	<g id="New_Symbol_14_">
	</g>
	<g id="New_Symbol_13_">
	</g>
	<g id="New_Symbol_10_">
	</g>
	<g id="New_Symbol_9_">
	</g>
	<g id="_x30_2_1_">
	</g>
	<g id="_x30_7_1_">
	</g>
	<g id="_x31_4_1_">
	</g>
	<g id="_x31_8_1_">
	</g>
	<g id="_x30_5_1_">
	</g>
	<g id="_x32_0_1_">
	</g>
	<g id="_x31_7_1_">
	</g>
	<g id="_x30_8_1_">
	</g>
	<g id="_x31_6_1_">
	</g>
	<g id="_x30_3_1_">
	</g>
	<g id="_x30_6_1_">
	</g>
	<g id="_x30_4_1_">
	</g>
	<g id="_x30_1_1_">
	</g>
	<g id="_x31_0_1_">
	</g>
	<g id="_x31_1_1_">
	</g>
	<g id="_x31_2_1_">
	</g>
	<g id="_x31_9_1_">
	</g>
	<g id="_x31_5_1_">
	</g>
	<g id="_x31_3_1_">
	</g>
	<g id="New_Symbol_6_">
	</g>
	<g id="New_Symbol_4_">
	</g>
	<g id="New_Symbol_1_">
	</g>
	<g id="New_Symbol">
	</g>
	<g id="_x30_2">
	</g>
	<g id="_x30_7">
	</g>
	<g id="_x31_4">
	</g>
	<g id="_x31_8">
	</g>
	<g id="_x30_5">
	</g>
	<g id="_x32_0">
	</g>
	<g id="_x31_7">
	</g>
	<g id="_x30_8">
	</g>
	<g id="_x31_6">
	</g>
	<g id="_x30_3">
	</g>
	<g id="_x30_6">
	</g>
	<g id="_x30_4">
	</g>
	<g id="_x30_1">
	</g>
	<g id="_x31_0">
	</g>
	<g id="_x31_1">
	</g>
	<g id="_x31_2">
	</g>
	<g id="_x31_9">
	</g>
	<g id="_x31_5">
	</g>
	<g id="_x31_3">
	</g>
</g>
<g id="Text">
</g>
</svg>
