<?xml version="1.0" encoding="utf-8"?>
<!-- Generator: Adobe Illustrator 21.0.0, SVG Export Plug-In . SVG Version: 6.00 Build 0)  -->
<svg version="1.1" xmlns="http://www.w3.org/2000/svg" xmlns:xlink="http://www.w3.org/1999/xlink" x="0px" y="0px"
	 viewBox="0 0 249.2 237.5" style="enable-background:new 0 0 249.2 237.5;" xml:space="preserve">
<style type="text/css">
	.st0{fill:#FFFFFF;}
	.st1{fill:none;stroke:#000000;stroke-width:4.8;stroke-linecap:round;stroke-linejoin:round;stroke-miterlimit:10;}
	
		.st2{fill:none;stroke:#000000;stroke-width:4.8;stroke-linecap:round;stroke-linejoin:round;stroke-miterlimit:10;stroke-dasharray:2.2222,12.2221;}
	.st3{fill:none;stroke:#000000;stroke-width:4.8;stroke-linecap:round;stroke-linejoin:round;}
	.st4{fill:none;stroke:#000000;stroke-width:4.8;stroke-linecap:round;stroke-linejoin:round;stroke-dasharray:2.3342,12.8383;}
	.st5{fill:none;stroke:#000000;stroke-width:4.8;stroke-linecap:round;stroke-linejoin:round;stroke-dasharray:0,11.7317;}
	.st6{stroke:#000000;stroke-width:4.8;stroke-linecap:round;stroke-linejoin:round;stroke-miterlimit:10;}
	.st7{stroke:#000000;stroke-width:4.8;stroke-miterlimit:10;}
	.st8{fill:none;stroke:#000000;stroke-width:4.8;stroke-linecap:round;stroke-linejoin:round;stroke-dasharray:0,15.9232;}
	.st9{fill:none;stroke:#000000;stroke-width:4.8;stroke-linecap:round;stroke-linejoin:round;stroke-dasharray:0,16.2101;}
	.st10{fill:none;stroke:#000000;stroke-width:4.8;stroke-linecap:round;stroke-linejoin:round;stroke-dasharray:0,16.564;}
	
		.st11{fill:none;stroke:#000000;stroke-width:4.8;stroke-linecap:round;stroke-linejoin:round;stroke-miterlimit:10;stroke-dasharray:1.1111,12.2221;}
</style>
<g id="Background">
</g>
<g id="Elements">
	<g id="_x30_2_15_">
	</g>
	<g id="_x30_2_14_">
	</g>
	<g id="_x30_2_11_">
	</g>
	<g id="_x30_2_10_">
	</g>
	<g id="_x30_7_17_">
	</g>
	<g id="_x30_7_16_">
	</g>
	<g id="_x30_7_15_">
	</g>
	<g id="_x30_7_14_">
	</g>
	<g id="_x30_7_11_">
	</g>
	<g id="_x30_7_10_">
	</g>
	<g id="_x31_4_17_">
	</g>
	<g id="_x31_4_16_">
	</g>
	<g id="_x31_4_15_">
	</g>
	<g id="_x31_4_14_">
	</g>
	<g id="_x31_4_11_">
	</g>
	<g id="_x31_4_10_">
	</g>
	<g id="_x31_8_15_">
	</g>
	<g id="_x31_8_14_">
	</g>
	<g id="_x31_8_11_">
	</g>
	<g id="_x31_8_10_">
	</g>
	<g id="_x30_5_17_">
	</g>
	<g id="_x30_5_16_">
	</g>
	<g id="_x30_5_15_">
	</g>
	<g id="_x30_5_14_">
	</g>
	<g id="_x30_5_11_">
	</g>
	<g id="_x30_5_10_">
	</g>
	<g id="_x32_0_17_">
	</g>
	<g id="_x32_0_16_">
	</g>
	<g id="_x32_0_15_">
	</g>
	<g id="_x32_0_14_">
	</g>
	<g id="_x32_0_11_">
	</g>
	<g id="_x32_0_10_">
	</g>
	<g id="_x31_7_15_">
	</g>
	<g id="_x31_7_14_">
	</g>
	<g id="_x31_7_11_">
	</g>
	<g id="_x31_7_10_">
	</g>
	<g id="_x30_8_17_">
	</g>
	<g id="_x30_8_16_">
	</g>
	<g id="_x30_8_15_">
	</g>
	<g id="_x30_8_14_">
	</g>
	<g id="_x30_8_11_">
	</g>
	<g id="_x30_8_10_">
	</g>
	<g id="_x31_6_11_">
	</g>
	<g id="_x31_6_10_">
	</g>
	<g id="_x30_3_17_">
	</g>
	<g id="_x30_3_16_">
	</g>
	<g id="_x30_3_15_">
	</g>
	<g id="_x30_3_14_">
	</g>
	<g id="_x30_3_11_">
	</g>
	<g id="_x30_3_10_">
		<g>
			<g>
				<g>
					<g>
						<path d="M58.8,95.2c-1.1,0-2.1-0.8-2.3-1.9L42.7,29.9c-0.6-1.7-0.4-3.6,0.6-5.1c0-0.1,0.1-0.1,0.1-0.2
							c1.1-1.5,2.8-2.4,4.7-2.4h5.4c1.3,0,2.4,1.1,2.4,2.4S54.7,27,53.4,27H48c-0.3,0-0.6,0.2-0.8,0.4c0,0,0,0,0,0
							c-0.1,0.3-0.2,0.6,0,0.8c0.1,0.1,0.1,0.3,0.1,0.4l2.3,10.5l11.5,53c0.3,1.3-0.5,2.6-1.8,2.9C59.1,95.2,58.9,95.2,58.8,95.2z"
							/>
					</g>
					<g>
						<path d="M55.2,111.6c-0.2,0-0.3,0-0.5-0.1c-1.3-0.3-2.1-1.6-1.8-2.9l17.4-79.9c0-0.1,0.1-0.3,0.1-0.4c0.1-0.3,0.1-0.6-0.1-0.9
							c-0.2-0.3-0.5-0.4-0.8-0.4h-5.4c-1.3,0-2.4-1.1-2.4-2.4s1.1-2.4,2.4-2.4h5.4c1.9,0,3.7,1,4.8,2.5c1,1.5,1.2,3.4,0.6,5.1
							l-2.3,10.4l-15.1,69.4C57.3,110.8,56.3,111.6,55.2,111.6z"/>
					</g>
					<g>
						<path d="M55.2,136.4c-1.3,0-2.4-1.1-2.4-2.4v-24.9c0-0.4,0.1-0.8,0.3-1.1l27.2-51.6l2-19.8L70.8,28c-1.1-0.8-1.3-2.3-0.5-3.4
							c0.8-1.1,2.3-1.3,3.4-0.5l12.6,9.5c0.7,0.5,1,1.3,0.9,2.2L85,57.4c0,0.3-0.1,0.6-0.3,0.9l-27.2,51.5V134
							C57.6,135.4,56.5,136.4,55.2,136.4z"/>
					</g>
					<g>
						<path d="M58.8,105.5c-0.9,0-1.7-0.5-2.1-1.3l-23.9-46c-0.1-0.3-0.2-0.6-0.3-0.9l-2.2-21.6c-0.1-0.8,0.3-1.7,0.9-2.2l12.6-9.5
							c1.1-0.8,2.6-0.6,3.4,0.5c0.8,1.1,0.6,2.6-0.5,3.4l-11.5,8.6l2,19.8L60.9,102c0.6,1.2,0.2,2.6-1,3.2
							C59.5,105.5,59.1,105.5,58.8,105.5z"/>
					</g>
					<g>
						<path d="M88.3,136.4H29.2c-1.3,0-2.4-1.1-2.4-2.4V90.1c0-23.2-8.4-48.9-8.5-49.2c-0.4-1.2,0.2-2.5,1.4-3l12.1-4.7
							c1.2-0.5,2.6,0.1,3.1,1.4c0.5,1.2-0.1,2.6-1.4,3.1l-10,3.8c2.1,6.8,8,28.3,8,48.5v41.5h54.3V90.1c0-20.3,6-41.7,8-48.5
							l-10-3.8c-1.2-0.5-1.9-1.9-1.4-3.1c0.5-1.2,1.9-1.9,3.1-1.4L97.8,38c1.2,0.5,1.8,1.8,1.4,3c-0.1,0.3-8.5,26-8.5,49.2V134
							C90.7,135.4,89.7,136.4,88.3,136.4z"/>
					</g>
					<g>
						<path d="M97.5,128.1c-1.1,0-2.1-0.8-2.3-1.9l-9.1-38.9c-0.3-1.3,0.5-2.6,1.8-2.9c1.3-0.3,2.6,0.5,2.9,1.8l8.6,36.6l10.2-1.9
							c-4.2-28.9-11.4-73.6-14-78.9c-0.6-0.4-0.9-1.1-0.9-1.9c0-1.3,1.1-2.4,2.4-2.4c2.3,0,3.4,1.2,6.1,14.8
							c1.4,6.9,3.1,16.5,5.1,28.5c3.4,20.5,6.3,41.2,6.4,41.4c0.2,1.3-0.7,2.5-1.9,2.7L97.9,128C97.8,128.1,97.6,128.1,97.5,128.1z
							 M96.9,42.6L96.9,42.6L96.9,42.6z M96.9,42.6C96.9,42.6,96.9,42.6,96.9,42.6C96.9,42.6,96.9,42.6,96.9,42.6z"/>
					</g>
					<g>
						<path d="M20,128.1c-0.1,0-0.3,0-0.4,0l-14.7-2.8c-1.3-0.2-2.1-1.4-1.9-2.7c0-0.2,3-20.9,6.4-41.4c7.1-43.4,8.6-43.4,11.3-43.4
							c1.3,0,2.4,1.1,2.4,2.4c0,0.8-0.4,1.5-0.9,1.9C19.4,47.4,12.2,92,8,121l10.2,1.9l8.6-36.6c0.3-1.3,1.6-2.1,2.9-1.8
							c1.3,0.3,2.1,1.6,1.8,2.9l-9.1,38.9C22.1,127.3,21.1,128.1,20,128.1z M20.6,42.6C20.6,42.6,20.6,42.6,20.6,42.6
							C20.6,42.6,20.6,42.6,20.6,42.6z"/>
					</g>
				</g>
				<g>
					<g>
						<g>
							<path d="M70.3,42.2c-0.3,0-0.7-0.1-1-0.2l-6.1-2.8c-0.9-0.4-1.9-0.6-2.8-0.6h-3.2c-1,0-1.9,0.2-2.8,0.6l-6.1,2.8
								c-1.2,0.5-2.6,0-3.2-1.2c-0.5-1.2,0-2.6,1.2-3.2l6.1-2.8c1.5-0.7,3.1-1,4.8-1h3.2c1.7,0,3.3,0.4,4.8,1l6.1,2.8
								c1.2,0.5,1.7,2,1.2,3.2C72.1,41.6,71.2,42.2,70.3,42.2z"/>
						</g>
						<g>
							<path d="M58.8,25.5c-1.3,0-2.4-1.1-2.4-2.4v-8.3c0-1.6,1.2-3,2.8-3.2c1.7-0.2,3-1.7,3-3.4c0-1.9-1.5-3.4-3.4-3.4
								c-1.9,0-3.4,1.5-3.4,3.4c0,1.3-1.1,2.4-2.4,2.4s-2.4-1.1-2.4-2.4c0-4.5,3.7-8.2,8.2-8.2C63.3,0,67,3.7,67,8.2
								c0,3.7-2.4,6.8-5.8,7.9v7C61.2,24.5,60.1,25.5,58.8,25.5z M59.8,16.4C59.8,16.4,59.8,16.4,59.8,16.4
								C59.8,16.4,59.8,16.4,59.8,16.4z"/>
						</g>
						<g>
							<path d="M72.4,32.2c-0.4,0-0.9-0.1-1.3-0.4l-2.7-1.7c0,0-0.1,0-0.1-0.1L61.9,26c-0.5-0.3-1.1-0.5-1.8-0.5h-2.8
								c-0.6,0-1.2,0.2-1.8,0.5l-6.5,4.1c0,0-0.1,0-0.1,0.1l-2.7,1.7c-1.1,0.7-2.6,0.4-3.3-0.8c-0.7-1.1-0.4-2.6,0.8-3.3l2.6-1.6
								c0,0,0.1,0,0.1-0.1l6.6-4.1c1.3-0.8,2.8-1.2,4.3-1.2h2.8c1.5,0,3,0.4,4.3,1.2l6.6,4.1c0,0,0.1,0,0.1,0.1l2.6,1.6
								c1.1,0.7,1.5,2.2,0.8,3.3C74,31.8,73.2,32.2,72.4,32.2z"/>
						</g>
					</g>
				</g>
			</g>
			<g>
				<g>
					<path d="M207.4,22.3c-1.3,0-2.4-1.1-2.4-2.4v-7c0-1.6,1.2-2.9,2.7-3.1c1.3-0.2,2.2-1.2,2.2-2.5c0-1.4-1.1-2.5-2.5-2.5
						s-2.5,1.1-2.5,2.5c0,1.3-1.1,2.4-2.4,2.4s-2.4-1.1-2.4-2.4c0-4,3.3-7.3,7.3-7.3s7.3,3.3,7.3,7.3c0,3.2-2,5.9-4.9,6.9v5.7
						C209.8,21.3,208.7,22.3,207.4,22.3z M208.3,14.6C208.3,14.6,208.3,14.6,208.3,14.6C208.3,14.6,208.3,14.6,208.3,14.6z"/>
				</g>
				<g>
					<path d="M189.3,23.8C189.3,23.8,189.3,23.8,189.3,23.8c-1.4,0-2.4-1.1-2.4-2.4c0-1,0.7-2,1.6-2.3c1-0.3,2.1,0,2.7,0.8
						c0.8,1.1,0.6,2.6-0.5,3.4C190.3,23.7,189.8,23.8,189.3,23.8z"/>
				</g>
				<g>
					<path d="M225.5,23.8c-0.5,0-1.1-0.2-1.6-0.6c-1-0.9-1.1-2.4-0.3-3.4c0.7-0.8,1.7-1.1,2.7-0.7c0.9,0.3,1.6,1.3,1.6,2.3
						C227.9,22.8,226.9,23.8,225.5,23.8C225.5,23.8,225.5,23.8,225.5,23.8z"/>
				</g>
				<g>
					<path d="M220.9,23.1c-0.1,0-0.2,0-0.3,0c-3.8-0.5-8.3-0.7-13.2-0.7c-5,0-9.4,0.2-13.2,0.7c-1.3,0.2-2.5-0.8-2.7-2.1
						s0.8-2.5,2.1-2.7c4-0.5,8.7-0.7,13.8-0.7c5.1,0,9.8,0.2,13.8,0.7c1.3,0.2,2.3,1.4,2.1,2.7C223.2,22.2,222.1,23.1,220.9,23.1z"
						/>
				</g>
				<g>
					<path d="M211.8,86.6h-8.7c-1.3,0-2.3-1-2.4-2.3c-0.5-1.6-6.1-6.6-12.3-6.6c-0.7,0-1.3-0.3-1.7-0.7c-0.5-0.5-0.7-1.1-0.7-1.8
						c0.7-15.2,0-26.5-1.1-29.5c-2.2,0.5-4.6,2.6-5.3,3.4c-0.5,0.6-1.3,0.9-2.1,0.8c-0.8-0.1-1.5-0.6-1.9-1.2l-6.3-11.7
						c-0.5-0.9-0.4-2,0.3-2.7c1.5-1.7,14.6-16.4,24-16.4c1,0,1.8,0.6,2.2,1.5c0.1,0.3,3.1,6.8,11.5,6.8c8.4,0,11.4-6.5,11.5-6.8
						c0.4-0.9,1.3-1.5,2.2-1.5c9.4,0,22.5,14.7,24,16.4c0.7,0.8,0.8,1.8,0.3,2.7l-6.3,11.7c-0.4,0.7-1.1,1.2-1.9,1.2
						c-0.8,0.1-1.6-0.2-2.1-0.8c-0.8-0.9-3-3-5.3-3.4c-1.1,2.9-1.8,14.3-1.1,29.5c0,0.7-0.2,1.3-0.7,1.8c-0.5,0.5-1.1,0.7-1.7,0.7
						c-6.2,0-11.9,4.9-12.3,6.6C214.1,85.6,213,86.6,211.8,86.6z M200.7,84.2C200.7,84.2,200.7,84.2,200.7,84.2
						C200.7,84.2,200.7,84.2,200.7,84.2z M214.2,84.2C214.2,84.2,214.2,84.2,214.2,84.2C214.2,84.2,214.2,84.2,214.2,84.2z
						 M204.8,81.8h5.3c1.9-3.6,7.6-7.8,13.9-8.7c-0.4-9.7-0.6-27.7,2.7-31.2c0.7-0.7,1.5-1.1,2.4-1.1c2.9,0,5.5,1.5,7.3,2.9l4-7.5
						c-4.8-5.2-12.8-12.2-17.9-13.4c-1.7,2.8-6.2,8.1-15,8.1c-8.8,0-13.3-5.3-15-8.1c-5.2,1.1-13.1,8.2-17.9,13.4l4,7.5
						c1.8-1.4,4.4-2.9,7.3-2.9c0.9,0,1.8,0.4,2.4,1.1c3.3,3.5,3.1,21.5,2.7,31.2C197.2,74,202.8,78.2,204.8,81.8z"/>
				</g>
				<g>
					<path d="M207.4,60.5c0.7,0.2,11.3-7.3,9.6-13.8c-0.5-1.7-1.8-2.7-3.5-2.8c-3.8,0-5.6,4.3-6.1,6c-0.4-1.7-2.3-6-6.1-6
						c-1.7,0-3,1-3.5,2.8C196.1,53.1,206.7,60.8,207.4,60.5z"/>
				</g>
			</g>
			<g>
				<g>
					<g>
						<path d="M138,24.1c-1.3,0-2.4-1.1-2.4-2.4V14c0-1.6,1.2-3,2.8-3.2c1.5-0.2,2.6-1.5,2.6-3c0-1.7-1.4-3-3-3c-1.7,0-3,1.4-3,3
							c0,1.3-1.1,2.4-2.4,2.4s-2.4-1.1-2.4-2.4c0-4.3,3.5-7.8,7.8-7.8c4.3,0,7.8,3.5,7.8,7.8c0,3.4-2.2,6.4-5.4,7.4v6.4
							C140.4,23,139.3,24.1,138,24.1z"/>
					</g>
					<g>
						<path d="M108.6,29.1c-0.6,0-1.3-0.3-1.8-0.8c-0.9-1-0.8-2.5,0.2-3.4c0.6-0.6,6.7-5.6,31-5.6c24.3,0,30.4,5,31,5.6
							c1,0.9,1,2.4,0.1,3.4c-0.9,1-2.4,1-3.4,0.1l0,0c0,0-5.6-4.3-27.7-4.3c-22.2,0-27.7,4.3-27.8,4.3
							C109.7,28.9,109.2,29.1,108.6,29.1z"/>
					</g>
				</g>
				<g>
					<path d="M148.8,194.8c-3,0-5.7-2.2-7.8-4c-0.9-0.8-2.5-2.1-3.1-2.1c-0.5,0.1-2.1,1.4-3,2.1c-2.3,1.9-5.1,4.3-8.4,4
						c-2.7-0.3-4.6-2.6-6.4-4.8c-1.2-1.4-2.6-3.2-3.7-3.4c-0.8-0.2-2.8,1-4.3,1.8c-2.5,1.4-5.4,3-8.2,2.2c-2.8-0.8-4.4-3.8-5.7-6.4
						c-0.7-1.4-1.8-3.4-2.5-3.8c-0.9-0.4-3.1,0-4.9,0.4c-3,0.6-6.1,1.3-8.4-0.6c-1.3-1-2-2.5-2.3-4.5c-0.7-4.5,2-8.9,6.2-10.4
						c4.1-1.5,7.2-5.4,9.4-11.9c1.3-12.1,2.7-21.4,4.2-29.1c0.3-1.3,1.5-2.1,2.8-1.9c1.3,0.3,2.1,1.5,1.9,2.8
						c-1.5,7.7-2.9,16.9-4.2,29c0,0.2-0.1,0.3-0.1,0.5c-2.7,8-6.9,13.1-12.4,15.1c-2.1,0.8-3.4,2.9-3.1,5.2c0.1,0.7,0.3,1.2,0.5,1.4
						c0.6,0.4,3-0.1,4.5-0.4c2.7-0.6,5.5-1.1,7.8,0c2.3,1.1,3.6,3.5,4.8,5.9c0.8,1.6,1.9,3.7,2.8,4c0.9,0.3,2.9-0.9,4.5-1.8
						c2.4-1.4,4.9-2.8,7.5-2.3c2.7,0.5,4.7,2.9,6.5,5.1c0.9,1.1,2.5,3,3.2,3.1c1.3,0.1,3.3-1.5,4.9-2.9c2-1.7,3.9-3.3,6.1-3.3
						c2.2,0,4.1,1.6,6.1,3.3c1.6,1.3,3.6,3,4.9,2.9c0.7-0.1,2.2-1.9,3.2-3.1c1.8-2.1,3.8-4.6,6.5-5.1c2.6-0.5,5.1,0.9,7.5,2.3
						c1.5,0.9,3.6,2,4.5,1.8c0.9-0.3,2-2.4,2.8-4c1.2-2.4,2.5-4.9,4.8-5.9c2.4-1.1,5.2-0.5,7.9,0c1.4,0.3,4,0.8,4.5,0.4
						c0.3-0.2,0.5-0.9,0.5-1.4c0.3-2.2-1-4.4-3.1-5.2c-5.6-2-9.7-7.1-12.4-15.1c-0.1-0.2-0.1-0.3-0.1-0.5
						c-3.9-35.7-9.1-57.9-23.6-65.7c-0.8-0.4-1.3-1.2-1.3-2.1c0-6.2,1.9-11.3,3.7-16.3c2.4-6.6,4.6-12.9,2.1-20.8
						c-0.2-0.3-0.8-0.5-1.6-0.6c-4.3-0.6-12.7,2.6-15,5.2c-0.5,0.5-1.1,0.8-1.8,0.8c0,0,0,0,0,0c-0.7,0-1.3-0.3-1.8-0.8
						c-2.4-2.6-10.7-5.8-15-5.2c-0.8,0.1-1.3,0.3-1.6,0.6c-2.6,7.9-0.3,14.2,2.1,20.8c1.8,5,3.7,10.2,3.7,16.4
						c0,0.9-0.5,1.7-1.3,2.1c-5.3,2.8-9.4,7.7-12.8,14.8c-0.6,1.2-2,1.7-3.2,1.2c-1.2-0.6-1.7-2-1.2-3.2c3.5-7.5,8-12.9,13.5-16.2
						c-0.3-4.7-1.8-8.9-3.4-13.4c-2.6-7.2-5.3-14.6-2-24.2c0-0.1,0.1-0.2,0.1-0.3c0.7-1.2,2.1-2.8,5.3-3.2
						c5.1-0.7,13.2,2.1,17.4,5.2c4.2-3.1,12.2-5.9,17.4-5.2c3.2,0.4,4.6,2,5.3,3.2c0.1,0.1,0.1,0.2,0.1,0.3c3.3,9.6,0.6,17-2,24.2
						c-1.6,4.4-3.1,8.6-3.4,13.3c15.4,9.3,20.8,32.3,24.8,68.4c2.2,6.4,5.3,10.4,9.4,11.9c4.3,1.5,6.9,5.9,6.2,10.4
						c-0.3,2-1,3.5-2.3,4.5c-2.3,1.8-5.4,1.2-8.5,0.6c-1.8-0.4-4-0.8-4.9-0.4c-0.8,0.4-1.8,2.3-2.5,3.8c-1.3,2.6-2.8,5.6-5.7,6.4
						c-2.8,0.8-5.6-0.8-8.2-2.2c-1.4-0.8-3.4-1.9-4.3-1.8c-1,0.2-2.5,2-3.7,3.4c-1.8,2.2-3.7,4.5-6.4,4.8
						C149.2,194.8,149,194.8,148.8,194.8z"/>
				</g>
				<g>
					<path d="M156.2,48.9c-0.2,0-0.5,0-0.7-0.1c-1.3-0.4-2-1.7-1.6-3l6.4-22c0.4-1.3,1.7-2,3-1.6s2,1.7,1.6,3l-6.4,22
						C158.2,48.2,157.2,48.9,156.2,48.9z"/>
				</g>
				<g>
					<path d="M119.7,48.9c-1,0-2-0.7-2.3-1.7l-6.4-22c-0.4-1.3,0.4-2.6,1.6-3s2.6,0.4,3,1.6l6.4,22c0.4,1.3-0.4,2.6-1.6,3
						C120.2,48.9,120,48.9,119.7,48.9z"/>
				</g>
			</g>
			<g>
				<path d="M246.8,7H2.4C1.1,7,0,5.9,0,4.6s1.1-2.4,2.4-2.4h244.4c1.3,0,2.4,1.1,2.4,2.4S248.2,7,246.8,7z"/>
			</g>
			<g>
				<path d="M236.1,237.5c-1.3,0-2.4-1.1-2.4-2.4V46.6c0-1.3,1.1-2.4,2.4-2.4s2.4,1.1,2.4,2.4v188.4
					C238.5,236.4,237.4,237.5,236.1,237.5z"/>
			</g>
			<g>
				<path d="M236.1,31.1c-1.3,0-2.4-1.1-2.4-2.4V4.6c0-1.3,1.1-2.4,2.4-2.4s2.4,1.1,2.4,2.4v24.1C238.5,30.1,237.4,31.1,236.1,31.1z
					"/>
			</g>
			<g>
				<path d="M13.2,237.5c-1.3,0-2.4-1.1-2.4-2.4V124.4c0-1.3,1.1-2.4,2.4-2.4s2.4,1.1,2.4,2.4v110.7
					C15.6,236.4,14.5,237.5,13.2,237.5z"/>
			</g>
			<g>
				<path d="M13.2,75.1c-1.3,0-2.4-1.1-2.4-2.4V4.6c0-1.3,1.1-2.4,2.4-2.4s2.4,1.1,2.4,2.4v68.1C15.6,74.1,14.5,75.1,13.2,75.1z"/>
			</g>
			<g>
				<path d="M236.1,210.6H13.2c-1.3,0-2.4-1.1-2.4-2.4s1.1-2.4,2.4-2.4h222.9c1.3,0,2.4,1.1,2.4,2.4S237.4,210.6,236.1,210.6z"/>
			</g>
			<g>
				<path d="M236.1,229.5c-0.3,0-0.5,0-0.8-0.1l-54.6-18.9c-1.3-0.4-1.9-1.8-1.5-3.1c0.4-1.3,1.8-1.9,3.1-1.5l54.6,18.9
					c1.3,0.4,1.9,1.8,1.5,3.1C238,228.8,237.1,229.5,236.1,229.5z"/>
			</g>
			<g>
				<path d="M13.2,229.5c-1,0-1.9-0.6-2.3-1.6c-0.4-1.3,0.2-2.6,1.5-3.1L67,205.9c1.3-0.4,2.6,0.2,3.1,1.5c0.4,1.3-0.2,2.6-1.5,3.1
					L14,229.3C13.7,229.4,13.4,229.5,13.2,229.5z"/>
			</g>
			<g>
				<path d="M135.9,88.8c0-1.3,1-2.4,2.3-2.4l0,0c1.3,0,2.4,1,2.4,2.4l0,0c0,1.3-1,2.4-2.3,2.4l0,0c0,0,0,0-0.1,0l0,0
					C137,91.1,135.9,90.1,135.9,88.8z M130.2,90.3c-1.3-0.2-2.2-1.5-2-2.8l0,0c0.2-1.3,1.5-2.2,2.8-2l0,0c1.3,0.2,2.2,1.5,2,2.8l0,0
					c-0.2,1.2-1.2,2-2.4,2l0,0C130.4,90.3,130.3,90.3,130.2,90.3z M143.7,88.2c-0.2-1.3,0.6-2.6,1.9-2.8l0,0
					c1.3-0.2,2.6,0.6,2.8,1.9l0,0c0.2,1.3-0.6,2.6-1.9,2.8l0,0c-0.1,0-0.3,0-0.4,0l0,0C144.9,90.2,143.9,89.4,143.7,88.2z
					 M122.4,88.7c-1.3-0.3-2.1-1.6-1.8-2.9l0,0c0.3-1.3,1.6-2.1,2.9-1.8l0,0l0,0l0,0c1.3,0.3,2.1,1.6,1.8,2.9l0,0
					c-0.3,1.1-1.2,1.8-2.3,1.8l0,0C122.7,88.8,122.6,88.7,122.4,88.7z"/>
			</g>
			<g>
				<path d="M82.6,59.5c-0.5,0-0.9-0.1-1.3-0.4L76,55.7c-1.1-0.7-1.4-2.2-0.7-3.3c0.7-1.1,2.2-1.4,3.3-0.7l5.3,3.5
					c1.1,0.7,1.4,2.2,0.7,3.3C84.2,59.2,83.4,59.5,82.6,59.5z"/>
			</g>
			<g>
				<path d="M34.9,59.5c-0.8,0-1.6-0.4-2-1.1c-0.7-1.1-0.4-2.6,0.7-3.3l5.3-3.5c1.1-0.7,2.6-0.4,3.3,0.7c0.7,1.1,0.4,2.6-0.7,3.3
					l-5.3,3.5C35.8,59.4,35.3,59.5,34.9,59.5z"/>
			</g>
			<g>
				<circle cx="63.8" cy="113.4" r="3.3"/>
			</g>
			<g>
				<circle cx="63.8" cy="124.1" r="3.3"/>
			</g>
		</g>
	</g>
	<g id="_x30_6_17_">
	</g>
	<g id="_x30_6_16_">
	</g>
	<g id="_x30_6_15_">
	</g>
	<g id="_x30_6_14_">
	</g>
	<g id="_x30_6_11_">
	</g>
	<g id="_x30_6_10_">
	</g>
	<g id="_x30_4_17_">
	</g>
	<g id="_x30_4_16_">
	</g>
	<g id="_x30_4_15_">
	</g>
	<g id="_x30_4_14_">
	</g>
	<g id="_x30_4_11_">
	</g>
	<g id="_x30_4_10_">
	</g>
	<g id="_x30_1_15_">
	</g>
	<g id="_x30_1_14_">
	</g>
	<g id="_x30_1_11_">
	</g>
	<g id="_x30_1_10_">
	</g>
	<g id="_x31_0_16_">
	</g>
	<g id="_x31_0_15_">
	</g>
	<g id="_x31_0_12_">
	</g>
	<g id="_x31_0_11_">
	</g>
	<g id="_x31_0_10_">
	</g>
	<g id="_x31_1_15_">
	</g>
	<g id="_x31_1_14_">
	</g>
	<g id="_x31_1_11_">
	</g>
	<g id="_x31_1_10_">
	</g>
	<g id="_x31_2_11_">
	</g>
	<g id="_x31_2_10_">
	</g>
	<g id="_x31_9_11_">
	</g>
	<g id="_x31_9_10_">
	</g>
	<g id="_x31_5_15_">
	</g>
	<g id="_x31_5_14_">
	</g>
	<g id="_x31_5_11_">
	</g>
	<g id="_x31_5_10_">
	</g>
	<g id="_x31_3_11_">
	</g>
	<g id="_x31_3_10_">
	</g>
	<g id="_x30_2_6_">
	</g>
	<g id="_x30_7_6_">
	</g>
	<g id="_x31_4_6_">
	</g>
	<g id="_x31_8_6_">
	</g>
	<g id="_x30_5_6_">
	</g>
	<g id="_x32_0_6_">
	</g>
	<g id="_x31_7_6_">
	</g>
	<g id="_x30_8_6_">
	</g>
	<g id="_x31_6_6_">
	</g>
	<g id="_x30_3_6_">
	</g>
	<g id="_x30_6_6_">
	</g>
	<g id="_x30_4_6_">
	</g>
	<g id="_x30_1_6_">
	</g>
	<g id="_x31_0_6_">
	</g>
	<g id="_x31_1_6_">
	</g>
	<g id="_x31_2_6_">
	</g>
	<g id="_x31_9_6_">
	</g>
	<g id="_x31_5_6_">
	</g>
	<g id="_x31_3_9_">
	</g>
	<g id="_x30_2_3_">
	</g>
	<g id="_x30_7_3_">
	</g>
	<g id="_x31_4_3_">
	</g>
	<g id="_x31_8_3_">
	</g>
	<g id="_x30_5_3_">
	</g>
	<g id="_x32_0_3_">
	</g>
	<g id="_x31_7_3_">
	</g>
	<g id="_x30_8_3_">
	</g>
	<g id="_x31_6_3_">
	</g>
	<g id="_x30_3_3_">
	</g>
	<g id="_x30_6_3_">
	</g>
	<g id="_x30_4_3_">
	</g>
	<g id="_x30_1_3_">
	</g>
	<g id="_x31_0_3_">
	</g>
	<g id="_x31_1_3_">
	</g>
	<g id="_x31_2_3_">
	</g>
	<g id="_x31_9_3_">
	</g>
	<g id="_x31_5_3_">
	</g>
	<g id="_x31_3_3_">
	</g>
	<g id="New_Symbol_16_">
	</g>
	<g id="New_Symbol_15_">
	</g>
	<g id="New_Symbol_14_">
	</g>
	<g id="New_Symbol_13_">
	</g>
	<g id="New_Symbol_10_">
	</g>
	<g id="New_Symbol_9_">
	</g>
	<g id="_x30_2_1_">
	</g>
	<g id="_x30_7_1_">
	</g>
	<g id="_x31_4_1_">
	</g>
	<g id="_x31_8_1_">
	</g>
	<g id="_x30_5_1_">
	</g>
	<g id="_x32_0_1_">
	</g>
	<g id="_x31_7_1_">
	</g>
	<g id="_x30_8_1_">
	</g>
	<g id="_x31_6_1_">
	</g>
	<g id="_x30_3_1_">
	</g>
	<g id="_x30_6_1_">
	</g>
	<g id="_x30_4_1_">
	</g>
	<g id="_x30_1_1_">
	</g>
	<g id="_x31_0_1_">
	</g>
	<g id="_x31_1_1_">
	</g>
	<g id="_x31_2_1_">
	</g>
	<g id="_x31_9_1_">
	</g>
	<g id="_x31_5_1_">
	</g>
	<g id="_x31_3_1_">
	</g>
	<g id="New_Symbol_6_">
	</g>
	<g id="New_Symbol_4_">
	</g>
	<g id="New_Symbol_1_">
	</g>
	<g id="New_Symbol">
	</g>
	<g id="_x30_2">
	</g>
	<g id="_x30_7">
	</g>
	<g id="_x31_4">
	</g>
	<g id="_x31_8">
	</g>
	<g id="_x30_5">
	</g>
	<g id="_x32_0">
	</g>
	<g id="_x31_7">
	</g>
	<g id="_x30_8">
	</g>
	<g id="_x31_6">
	</g>
	<g id="_x30_3">
	</g>
	<g id="_x30_6">
	</g>
	<g id="_x30_4">
	</g>
	<g id="_x30_1">
	</g>
	<g id="_x31_0">
	</g>
	<g id="_x31_1">
	</g>
	<g id="_x31_2">
	</g>
	<g id="_x31_9">
	</g>
	<g id="_x31_5">
	</g>
	<g id="_x31_3">
	</g>
</g>
<g id="Text">
</g>
</svg>
